<?xml version="1.0" encoding="utf-8"?>
<!-- Generator: Adobe Illustrator 22.0.1, SVG Export Plug-In . SVG Version: 6.00 Build 0)  -->
<svg version="1.1" id="Layer_1" xmlns="http://www.w3.org/2000/svg" xmlns:xlink="http://www.w3.org/1999/xlink" x="0px" y="0px"
	 viewBox="0 0 603.5 590" style="enable-background:new 0 0 603.5 590;" xml:space="preserve">
<style type="text/css">
	.st0{fill:#FFFFFF;stroke:#454545;stroke-width:0.75;}
	.st1{fill:#3FAFE4;}
	.st2{font-family:'ProximaNova-Bold';}
	.st3{font-size:16.2738px;}
	.st4{font-family:'ProximaNova-Regular';}
	.st5{font-size:10.5797px;}
	.st6{font-size:16.3656px;}
	.st7{font-size:10.6393px;}
</style>
<g>
	<path id="IN-AP" class="st0" d="M322,421.4L322,421.4L322,421.4L322,421.4z M322.5,421.3l-0.3,2.1l-0.6-0.9v-0.7L322.5,421.3z
		 M322,421.4l-0.1-0.5l-0.2,0.4l-1.1,0.1v-0.6l-0.8,0.5l1.5,0.7l0,0v0.9l0.4,0.1l0.6,1.3l-6.6,3.2l-4,1.6l-3.2-0.9l-2.7,0.3
		l-2.3,1.1l-2.2,4.9l0.1,0.8l-2.5,2.6l-0.2,0.4l0.3,0.7l-0.8,0.7l-2.6,0.4l-0.7-1.3l0.2-0.7h0.3l-0.1-0.5l-2.1-0.7l-2.7,0.5
		l-1.9,0.9l-1.6,1.1l-1.3,1.4l-1.2,3.8l-1.8,2.9l-0.9,4.3l1.2,6.4l1.5,2.7l-1.2,8.6l2.1,5.6l-0.1,3.3l1.4,3.8l-2.6-4.7l-0.5-0.2
		l-0.1,1.6l-0.5-0.5l0.3-0.5l-0.3-0.1l-1,1.6l2,1.8h1.4l1.4,1.2l0,0v1l-0.7-0.4l-0.8-1.6h-1.4l-1.5-1.1l-1.4,0.1l-0.1,0.4l0.8,0.2
		l0.1,0.3l-0.5-0.1l-0.2,0.5l-0.6,0.2v0.6l-0.6,0.2l0.4,0.6l-0.5,0.7l-1.3,0.6h-0.9l-0.4,0.4l-0.5-0.4l-0.6,0.6l1.1,0.9l-0.7,0.5
		l-0.4-0.5l-0.6,0.3l0.1-0.5l-0.4,0.1l-0.1-1l-1.6,0.7l-0.6-0.4l-0.2-0.8l-1.9-0.2l-1,0.4l0.9,0.4l-0.3,1.3l0.5-0.3l0.2,0.2
		l-0.4,0.2v0.4l-1.4,0.4l0.1,0.6l-0.8,0.6l-0.7-0.8l-0.9,0.1v0.6l-0.5,0.4l-0.7,1.4l-1.5-0.1l-1.6-1.1l-1.2,0.2l-0.4,0.6l0.6,0.3
		h-0.8l-0.1-1.2l-2.3,0.8l-0.8-0.2l-0.2,1l-0.8-0.2L256,491l0.6,1.1h-0.4l-0.8,2.7l-0.7,0.5v1.1l-0.4,0.1l-0.2-0.4l0,0l0,0l0,0H254
		h-0.3l-0.1,0.7H253v0.8l-1.6,0.1l-1.4-0.8l-0.5-0.7l-1.3,0.2l0.7-0.6l-0.1-0.7l0,0l0.4-1.7h1.1l0.8-1.5l0.6,0.6l1-0.1l-0.2-1.2
		l0.6,0.1L253,490l1-0.4v-0.5l0.5-0.3l-0.3-0.4l1.1-0.7l-0.5-0.6l0.5-0.3l0.2-1.1l-0.4-0.7l-0.6,0.8l-0.9-1L253,485l-0.2-0.4
		l-0.6,0.3l-0.4-0.3l0.5-0.2l-0.8-0.4l0.6-4.1l-2.9-0.2l-0.8,0.6l0.2-1.1l-0.6-0.1l-0.1-0.5l-1.4,0.2l-0.4-0.6l0.1-0.4l0.7,0.1
		l0.1-0.5l-0.4-0.4l0.6-0.8l-0.1-1.2l-1.3-0.8l-0.1,0.6l-0.9-0.2l-0.3,0.8h-0.4v-1.1l0.6-0.2l-0.2-1.1l-1,1l-0.4-0.6l-1.2-0.1
		l-0.2,0.5l0.4,0.9l-0.9,0.5v0.4L240,476l-0.1,1.1l-0.2-0.5l-0.6,0.2l0.1-0.5h-0.4l-0.7,0.4l0.5,0.4l-0.3,0.1l-0.5-0.3l-1.3,0.1
		l-0.7-0.5l-0.1,1.1l-0.4-0.4l-0.1,0.5l-0.6,0.1l0.1-2.2h-0.9l0.3-0.7l-1.2-0.2l-0.7,0.4l-0.2-0.6l-1,0.3l-0.3-1l-0.4,0.6l-0.1-0.4
		l-0.5,0.4v-1.1l-0.4,0.3l0.1,0.8l-0.7,0.1l0.7,0.5l0.1,1.2l-1.3-0.1l-0.6,0.4l-0.6-0.6l-0.3,0.7l-0.3-0.2l-0.4-1.3l0.9-1.5l0.4-0.1
		l-0.1-0.5l-1.9-1.8l0.8-0.8l-0.9-1.1l-0.8-0.1l0.1-0.5l0.8-0.1l0.1-0.4l1.4,0.3l-0.2,1.4l0.3,0.8l1.8,0.2l0.5,0.9l3-0.6l0.7,0.8
		l-0.1,1.6h0.8v0.3l0.6-0.5l-0.4-0.5l0.4-0.6h-1l0.1-0.7l-1-0.3l1.2-1.5l-0.1-0.3l-0.8,0.4l0.1-0.5l0.5-0.1l0.2-0.7l2,0.3l-0.1-2.2
		h-0.7l-0.2-0.7l-1-0.3l-0.2,0.5l0.7,1.5l-0.6,0.4l-0.5-0.7l0.1-0.7l-1.4-0.1v-1l-0.9,0.4l-1.4-0.5l-0.7,0.9l-0.1,1.4l-0.5,0.1
		l-0.5-0.6h-2l-0.2-0.6l0.5-0.4l-1.3-1l0.1-0.8l0.5-0.4l0.5,0.3v-0.8l0.5-0.6l-1.9,0.2l-0.8-1l-0.5-0.1l-0.7-1.4l0.7-2.5l-0.3-0.8
		l1.2-0.5l0.3-3l-0.7,0.2l-1.2-0.3l0.4-0.9l-0.2-1l0.4-0.4l1.4,1.2l1.9,0.3l0.3-0.4h0.8L227,453l0.7,0.1l1.4-2.2l-0.4-0.4l0.5-0.1
		v-0.8l-0.7-0.5l0.8-0.7l-0.3-0.5l-0.6-0.1l-0.1-0.7l-0.9,0.1l-0.6-2.1l-1-1v-0.3l1,0.1v-2.5l0.9-0.4l0.6,0.5l0.2-0.6l-1.5-1.4
		l0.4-1.7l-0.8-0.2l0.8-1.3l1.4-0.8l1.9-0.3l4.7,0.7l0,0l1.7,0.2l0.9,0.7l1-0.2l1.5,0.4l1.6-0.6l2.1,0.7l0.6-0.8l0.5,1.1l0.8,0.3
		l0.3-0.4h0.7l0.3-1l1-0.5l0.3-1.9h1.1l1.6-1l2.8,0.5l1-0.8l1.7,1.3l1.1,0.1l1.1-1.2v-1.3l0.5,0.1l0.2,0.8l0.7,0.1l-0.1-1.4l0.4-0.4
		l1.9-0.8l2.6,0.5l0.8-0.4l0.1-5l0.7-1l2.9-0.4l1.3-0.9l2.7-0.6l2.3-1.3l0.6,0.7l0.9-0.1l0.7,1.1l1-0.1l1.6-1.9l0.4-1.3l-0.7-0.7
		l-0.7-0.2l0.3-0.8l0.7-1.1l1.6-0.4l0.9-1.1l0.3,0.6h1.1l0.7,1l0.3,1.6l0.7,0.3l0.3,0.8l0.5-0.7l1,0.6l0.1,0.5l1.9,0.5l0.7-0.5
		l-0.9-0.7l0.2-0.8l0.4-0.1v-1l-1.7-0.4l-0.1,0.6l-2.3-1l0.5-0.8l-0.4-0.8l0.5-0.4l0.5,1l0.5,0.1l0.6-0.6l0.3-1.1l1.2-0.6l1.7,0.9
		l-0.3,0.6l1.6-0.2l1.9,0.7l0.5-0.5l0.2-1.8h0.8l-0.1-1l1.5,0.4l1-0.6l2.1-0.4l0.3-1.7h1.5l1-1.3l0.8,0.6l0.8-0.1l1.4-1.6l0.1-1.7
		l0.4-0.6l-0.4-0.4l1.2-1.8l0.1-0.7l3.7-2l0.2-0.4l-0.6-0.8l0,0l0.8-0.8l2.7-1.1l1.3-1.2l2.4,0.3l0.3,0.6l1.2,0.6l0.5-0.1v-1.2
		l0.6-0.3l0.1,0.5h0.4l0.1-1.9l0.4,0.3l0.1-0.3l-1.1-1.1l0.5-0.4l0.1-1l0.6-0.1l0.4-0.6l-1.1-0.2l0.9-1l-0.4-0.8l2-2.4l0.5,0.7h0.4
		l0.1,1.3l0.4-0.1l-0.3,0.9l1.2,0.4l0.2,0.4l-0.6,0.7l0.1,0.7l0.8,0.8l0.6-1.1l2-0.8l0.5-1.2l-0.3-0.5l0.4-0.4l0.8,0.6l0.7-0.1
		l0.1,0.9l0.7,0.3l1.5-0.6l0.7,0.2l0.1-1l-0.4,0.2l-0.4-0.5l1.3-1.8l-1-0.2l-0.1-0.4l0.5-0.4h-0.8l0.1-1l0.7-0.3l1.5-2.2l1.2,0.6
		l0.1,0.5l0.3-0.9l0.8,0.2l0.2-0.6l1.4-0.2v-0.6h0.7l0.3-0.5l-1.2-1.3l0.6,0.1l-0.6-0.6l-0.3,0.8l-0.4-1.4l0.7-0.4l1.1,0.3l0.8,1
		l-0.1-1h0.5l0.1-0.4l-0.3-0.9l0.2-0.2l0.4,0.5l0.2-0.2l0.1,0.8h-0.4v0.3l0.6,0.1l0.3-1.3l0.6,0.5l0.5-0.7l-0.2-0.6l0.5-0.6l1.3,2.6
		l0.5,0.1l-0.3,0.5l0.7,1.3l0.6,0.2l-0.7-1.3l0.9-0.6l1.5,3.6l1.3,0.4l1.6-0.1l1,1.1l0.7-0.1l0.5-0.5l3.3-0.3l0.1-1.4l0.5,0.3
		l0.2-0.3l-0.4-0.3l0.7,0.1l-0.4-0.4l0.6,0.2l0.6-0.5l-0.2-0.5l0.5-0.5l-0.5-0.9l1,0.6l0.3-0.8l1.4-0.8l0.4,1l0.5-0.8h0.8v-0.5
		l-0.6,0.1l-0.5-0.9h1.3l0.1-0.7l0.7,0.1l-0.1,0.6l0.5,0.4l0,0l0.8,0.5l-3.2,3.7l-0.5,1.6l-1.6,1.5l-2,3l-4.2,3.9v0.8l-7.3,3.7
		l-2.6,1.8l-0.8,1.3l-2.2,2v0.6l-1.2,1.6l-2.4,2.5l-10.9,5.5l-4.3,3.3l-1.3,1.6l-0.5,1.7L321,417l0.1,0.8l1,0.9l0.8-0.2l-0.2,2.1
		L322,421.4z"/>
	<path id="IN-AR" class="st0" d="M571.7,174l0.5,0.8v0.7l1.1,1.5h0.9l1.3-1l0.5,0.6l-0.8,1.8l-1.6,0.2l-1.3,1.3l-1.3,0.3l0.6,0.5
		l0.6,1.3l-0.7,1l0.4,0.6l1.5-0.8l1.8-1.8l1.6-0.1l1.6-0.9l-0.9,1.7l0.2,0.6l0.6-0.1l0.3,1.8l1.4,2.2l-0.5,1.2l-2,0.7l0.4,1l-1.2,1
		l-0.5-0.1l0.1,0.6l-0.9,0.1l-0.5,0.5l0.9,1l-2,1.5l1,0.6l0.9-0.2l0.5,1l0.4-0.1l0.6-1.4h0.9l1.3-0.9l1.5-0.1l1.6,0.9l0.4,1l1.4,0.1
		l0.8-0.4l0.5,0.8l1.3,0.6l1.7-1.1l1.5,1.4l1.9,0.5l2.1,1.5l-0.7,0.1l-0.6,0.7l0.1,0.9l-0.6,0.9l1.2,0.1l0.1,0.6l0.7,0.3l-0.7,0.8
		l0.2,1.8l-1.2,0.1l-0.2-0.8l-0.9,0.4l-2.8,2.4l-0.1,0.9h-1.2l-0.9,1.6l-0.6,0.1l-0.8,0.9l0.7,1.8l-0.5,1.4l4.7,6.6l-0.5,0.7
		l-0.7-0.4l-0.7,0.2l-1.6-1.2l-2-0.5V218l0.5-0.4l-0.1-0.6l-0.4-0.1l-1.1-1.7l-1.6-0.5l-0.2,0.3l-1.6-0.1l-1.6,1.5l-0.9-0.4
		l-4.3,0.6l-3.6,1.8l-1.8,2.9l-1.1,0.7h-1.2l-1.4,2.7l-1-0.5L562,226l-1.4-0.2l-1.9,2.6l-2.3,0.9l-1.2-0.6l0,0l-0.4-1l0.5-1
		l-0.5-0.2l-0.1-1.1l-0.4-0.3l0.9-0.5l-0.7-3.1l0,0l0.9,0.3l1.8-1.5l2-0.6v-1.6l1-1.1l1.3,0.8l3.9-1.3h1l0.6,0.6l0.2-0.6l2-1.5
		l-0.7-1.4l-0.2,0.2l-0.3-0.4h-0.6l-0.4,0.8l-0.1-0.8l-0.4,0.6l-0.3-0.3l0.7-1.5l-0.1-1l-0.7-0.3l-0.3-0.7l-0.7-0.4l0.3-0.5
		l-0.4-0.5l0.3-0.3l-0.7-0.9l0.5-0.2l-0.1-0.3l0.8-1l1.9-1.6l0.9-1.6l-2.7-0.2l-3.9,0.4l-1.6,1.5l-2.4,0.8l-1.2-0.6l-5.1,2l-3.1,0.7
		l-0.4,0.7l-0.8,0.1l-0.9,0.7h-1.2l-0.1,0.4l-4,1.9l-0.5-0.9l-1.1,0.5l-1.3-0.6l-0.4,0.2l-0.4-1l-0.7,0.6l0.8,1.1v0.7l-1.8,0.9
		l-1.7,2.3l-1.9,1.4l-2.9,3.2l0.5,0.4l0.2,0.9l-1.1,0.3l-1.7,1.8l-3.4,0.7l-2.5-0.5l-5.9,0.9l-1.8-1v-0.4l-0.8-0.5l-3.8-0.6
		l-0.4,0.4l0.1,0.6l-1.1,0.5h-2.3l-1.1,0.7l-0.8-0.2l-1.4,0.7l-3,0.2l0,0l-0.1-2.3l-1.3-1.1l-0.2-2l0.8-1.2l-0.5-0.9h1.1l0.3-0.4
		l-1.1-0.8l-0.1-1.5l-0.6-1.6l-1.4,0.4l-1.4-0.4l-2.6,0.2l-0.5-0.7l-0.8,0.4l-1.5-1.8l0.2-0.7l-0.3-0.5l1.2-1.5l0.3-1.2l-0.2-0.7
		l-0.5-0.4l-0.6,0.1l-0.4-0.8l2.1-0.1l0.9,0.9l2.1,0.1l0.7,1.5l1,0.4l1.2-1.1l1.3,0.2l2.8-2h1l0.9,1.6l1.2-0.3l0.5-0.5l0.9,0.4
		l0.8-0.8l1.1,0.4l0.8-1.1l1.2-0.5l1.3-1.8l-1.4-1.5l0.4-1.3l2-1.6l0.5,0.6l1.2-0.7l1.2-1.2l0.6,0.6l0.6-0.7l-0.2-0.8l3.5-0.6
		l0.2-1.4l-0.9-0.8l1.7-1.3l0.5-1.3l-0.1-0.7l0.5-0.2l0.2-0.7l2-0.7l0.5,0.5l0.3-0.6l0.8,0.5h1.6l2-0.6l0.8,0.4l1.2-0.8l1.5,0.7
		l1.4-2.1l-0.3-0.5l0.2-0.9l2.9-2.3l1.1-2.7l1.3-1.3l1.2-0.1l0.3-0.8l1.1-0.8h2.3l1.3-2.5l1.5,0.9l1.2,1.3l0.4,1.6l1.3-0.4l2.7,1.1
		l-0.5-0.9l1.8,0.6l0.4,0.6l2.3,0.1l0.3,1.1l2.6,0.5l0.8-0.1l0.5-0.7l0.2-1.4l0.9,0.2l-0.2-1.8l0.9-0.1l0.2-0.9l0.7,0.2l2.5-2.2
		l0.3,0.4l1.5-1.1l1.4,0.2l2.2-1.7L571.7,174z"/>
	<path id="IN-AS" class="st0" d="M458.4,251.5l0.2,1.1l-0.4,0.3l0,0L458.4,251.5z M498.7,224.6l3-0.2l1.4-0.7l0.8,0.2l1.1-0.7h2.3
		l1.1-0.5l-0.1-0.6l0.4-0.4l3.8,0.6l0.8,0.5v0.4l1.8,1l5.9-0.9l2.5,0.5l3.4-0.7l1.7-1.8l1.1-0.3l-0.2-0.9l-0.5-0.4l2.9-3.2l1.9-1.4
		l1.7-2.3l1.8-0.9v-0.7l-0.8-1.1l0.7-0.6l0.4,1l0.4-0.2l1.3,0.6l1.1-0.5l0.5,0.9l4-1.9l0.1-0.4h1.2l0.7-0.6l0.8-0.1l0.4-0.7l3.1-0.7
		l5.1-2l1.2,0.6l2.4-0.8l1.6-1.5l4-0.4l2.7,0.2l-0.9,1.6l-1.9,1.6l-0.8,1l0.1,0.3l-0.5,0.2l0.7,0.9l-0.3,0.3l0.4,0.5l-0.3,0.5
		l0.7,0.4l0.3,0.7l0.7,0.3l0.1,1l-0.7,1.5l0.3,0.3l0.4-0.5l0.1,0.8l0.4-0.8h0.6l0.3,0.4l0.2-0.2l0.7,1.4l-2,1.5l-0.2,0.6l-0.6-0.6
		h-1l-3.9,1.3l-1.3-0.8l-1,1.1v1.6l-2,0.6L555,222l-1-0.3l0,0l-1.5,1.5l-1.6,0.8l-0.6,0.1l-1-0.7l-0.8,0.4l-1.5,2.5l-2.1,1.5
		l-1.1,0.3l-0.4-0.4l-0.5,1l-0.5-0.4l-1.4,0.8l-0.1,0.7l-1,0.4l-0.2,1.6l-0.9,0.5l-0.6,0.9l-0.4-0.4l-0.1-1.7l-0.2,0.1l-1.6,2
		l-0.2,2.3l-1.2,0.4l-1.9,3.1l-0.2,2l-0.7,1.3l0.4,1.7l-1.1,0.6l-0.6,0.8l-0.7-0.3l-0.8,1l-0.3-0.6l0.3-1.3l-0.5-1.1l-0.4,0.6
		l-1.2,0.5l0.3,1.2l-2.4,1.7l-1.3,2.1l-1.3,0.5l-1.7,1.7l1.2,1.6l1.2,0.6l0.3,1.1l-0.5,0.7l0.4,0.7l0,0l-1.5,1.3l-1,3l-0.6,0.9h-0.7
		l-0.3,0.6l0.2,1.3l-0.4,0.2l0.2,0.4l-0.4,0.8l-0.6,0.4v0.9l-0.8,0.4l-0.5-0.6l-0.2,0.2v1.3l-0.6,0.6l0.5,0.7l-0.5,1.6l0.6,0.2
		l-0.8,0.2l0.2,0.3l-0.7,1.3l0.1,1.7l-0.7,0.2l0,0l-1.2,0.2l-0.4-0.3l-0.1,0.4l-0.8-0.1l-0.6,0.4l-1.1-2.8l-1.3,3.3l-1.2,0.4
		l-0.2,1.6l-1.1,0.1l-0.3,1.3l-0.8,0.3l-0.1,0.4l-0.8-0.2l-0.3-2h-2.3l0,0h-1.5l1.1-2.6l-0.7-1.6v-0.9l0,0l0.4-3l0.9-1.6l-1-3.2
		l1-0.4l1.7,1.4h0.7l0.3-0.5l0.8,0.1l0.2-0.6l-0.3-1l-0.4,0.2l-0.3-0.2l0.4-0.1l-0.2-0.4l-0.6,0.1v-1.2l0,0l0.7-0.1l0.4-1.4l1.1,0.2
		l-0.3-0.8l1.7,0.4l0.8-1.2l2.5-0.8l-0.7-0.6l0.5-0.7l-0.1-0.9l-0.4-0.1l-0.4-0.9l-0.3,0.1l-0.8-0.8l-0.2,0.1l-0.1-0.5l-0.8,0.4
		l-0.2-1.1l-0.6,0.1l1.4-1.4l0.2-1.1l-0.9,0.7l-0.5-0.1l-0.3-1l-1-0.2l-0.7-1.2l-0.6-0.2v-0.8l-0.9-0.4l-0.9,0.6l-1.9,0.2l-1.2,0.9
		l-0.1-2.8l0.5-1.1l0.8-0.7l-1.1-0.1l-0.1-0.7l2.5-2.7l-1,0.3l-1.1-0.3l-0.8,0.7l-1.4,0.3l-1.1-0.2l-1.2,0.8l-0.9-1.1l0.1-0.9
		l-1-0.4l-1.6,1.2l-0.2,2.1l-0.9,1l-1-0.7l0.5-0.5l-0.1-1.1l-1-0.2l-1.3,2.2l0.5-0.1l-1,1l0.6,0.1l0.4-0.4l-0.1,0.3l-1.5,0.6
		l-0.5-0.3l-1.5,0.3l-1,1.8l-0.9,0.5l-0.6-0.1l-0.2-0.9l0.3-1.6l-2.4,0.8l-0.2-0.2l0.5-0.5l-0.5,0.1l-0.9,0.5l0.5-1.3h-1.1l-0.4-1.2
		l-0.5,0.1l0.1,0.6l-0.7-0.8l-0.8,0.3l-0.5-0.3l-0.6,0.9l-0.7-0.1l0.1-0.8l-1.1,0.1l-1.1,1l-0.3-0.3l0.4-0.5l-0.8-0.4l-1.3,1.3
		l0.4-1.2l-1-1.1l-0.9,0.5l-0.6-0.5l-0.6,0.1l-0.7,0.7l-2.6,0.6l-1.2-0.3l-2.1,1.6l0.3,0.3l-0.2,0.4l-1.1,0.4l0.2,1l-0.4,0.6
		l-0.7,0.2l2.2,2.6l-2.7,1.2l0,0l0.3-1.7l-0.9-1.7l0.2-1l-0.5-1l1.4-2.5l-0.7-0.1l-0.2-0.3l0.6-0.2l-0.6-0.7v0.6l-0.3-0.1l-0.3-1.1
		h-0.5l0.5-0.4l-0.1-0.6l-0.7-0.5l0.2-0.4l-0.4-0.6l-0.6-0.2l0,0l0.3-0.2l-0.7-0.3l0.7-0.5L456,238l0.6-0.4l-0.4-0.6l0.4,0.2
		l0.2-0.3l-0.4-0.7l0.7,0.3l-0.1-0.6l0.5-0.2v-0.4l1.4-0.6l-0.2-0.4l-0.4,0.1l0.8-1.3l-0.3-0.6l0.2-1.8l0.3-0.1l-0.4-0.8l0.3-0.5
		l-0.3-1.1l0,0l0.1-0.7l1.7,0.3l3.4-0.6l0.8-0.3l-0.1-0.8l0.6-0.9l1.6,0.1l1-1l1-0.1l2.7,2l2.7,0.7l6.2-0.2l0.8-0.8l3,0.3l1.3,0.5
		l1.3-1.1l1.5,0.9l2.4-0.6l1.1,0.3l2.1-0.9l1-1.2h0.7l1.6,1.2l1.1,0.2l0.8-0.3L498.7,224.6z"/>
	<path id="IN-BR" class="st0" d="M426.6,231.7L426.6,231.7L426.6,231.7L426.6,231.7z M354.8,212.1l0.6-0.1v0.6l1,0.3v0.5l0.8-0.2
		l0.7,1.4l5.9,0.9l1.3,2.5l-0.3,2.4l-0.6,1l2.1,0.9l0.3-0.3l0.4,0.4l0.7-0.5l1.1,1l1.3,0.2l0.3,0.4l-0.2,0.5l1.7,0.6l-0.7,0.6
		l3.1-0.2l-0.3,1.1l0.6,1.1l2.2,0.3l1.3-1l0.8,0.2l3.3-1.8l1.8,1.5v2.8l1.5,1l0.6-0.1v0.8l1.8-0.9l0.2-0.8l1.2-0.3l2,0.8v0.4l1-0.2
		l0.5,0.5l0.6-0.6h1.3l3.9,1.6l0.5,0.8l2.9,1.5l0.6-0.7l1.2,0.4l1.1-0.5v-0.5l0.7-0.1l0.1-0.5l1.5-0.3l0.5-1.1h0.5l0.4,2.7l1.3,0.9
		l1.7-0.1l0.2,0.7l0.8,0.1l0.5,0.5l0.5-1.2l1.8-0.6l2.5,1.2l0.8-0.3l0.5-0.8l1,0.6l0.6-0.1l0.4-1.1l1.1,0.7l0.7-1l0.7,1.4l1.2,0.5
		l0.1,0.5h0.6l0.1-0.5l1.1-0.9l0.2-2l0,0l0.7,0.5l0.4-0.5l1.1-0.3v0.4l-1,0.8l0.3,0.4l0.6-0.1l0.1,0.6l0.7,0.5l-0.7,0.6l0.1,0.4
		l0.5-0.1l0.4,0.5l-1.4,1.4l-1.3,0.6l-1.3,1.5h-0.6l-0.4,0.7l-0.9-0.2l0.1,1.4l-0.5-0.1l-0.1,0.3l-0.3-0.4l-1.3,0.9l-0.2,2.2
		l-0.5,0.5l0.3,0.8l1.6,0.4l-0.5,0.5l0.5,0.3l-0.2,0.9h0.6l0.5,0.9l1.6,0.7l-0.2,1.1l0.3,0.1l-0.6,0.9l0.3,1l0.7,0.7v0.5l-0.8-0.1
		l-0.4-0.5l-0.1,0.3l-0.3-0.2V252l-1.1-0.2l-0.5,0.6l-0.4-0.2l-0.3,1H422l-0.5,0.6l-0.5-0.2l-0.4,0.8l0.1,0.5l0.4,0.1l-0.1,0.8
		l1.3,1.1l-0.6,0.9l0.2,0.7l-0.9-0.4l0,0l-0.1-0.5l-1.4-0.2l-0.4-1.1h-1.4l-0.5-0.7l-0.6,0.3l-0.1,1l-1-0.3l0.3,0.6l-0.4,0.4v0.9
		l-1.4-0.7l-0.4,0.4l-0.8-0.4l-0.6,2.7l-0.7-0.3l-0.7,0.3l-1.2,1.3l0.2,2.7l-0.1,0.5l-0.7,0.1l-0.6,0.7l0.3,0.4l-0.8,3.8l-2.2-0.7
		l-0.6,1.1l0.2,0.9l-0.6-0.6l-0.4,0.3l-0.3-0.4l-0.7,0.1l0.1-0.6l-0.5-0.5h-0.5l-0.3,0.8l-1.1,0.3l-1.2-0.9l-1,1.4l-0.7,0.3
		l-0.3,1.8l-0.4,0.1l-0.2,1l-0.7-0.2l-1.2-1.3l-1.3-0.4l0.6-0.9l-0.2-1l0.3-0.5l-1.1,0.2l-0.8-0.7l-0.4,0.5l-1.1-0.4l-0.2-2
		l-0.7-0.8l-0.9,0.1l0.2-0.8l-1.8,0.9l-1.3-1.3h-1.8l-0.7-0.5l-0.7,2.2l-0.8,0.5l0.3,2.1l-1.6-0.4l-0.1,0.7h-0.6l-0.3,0.8l-0.6-0.5
		l-3.7,0.5v0.6l-2.4,0.7l0.3,0.7l-1.4,1l-0.4-0.1l0.2-1l-0.4,0.5l-1.1,0.1l-0.4,0.7l-1.3,0.1l-0.3-1.8l-0.8,0.2v-1.2l-0.7-0.4
		l-2.1,1.4l-0.4,1.2l-1.5-0.4l-0.1,0.6l-0.8,0.2l0.1,0.7l-0.6,1l-0.7-1l-0.7,0.1l0.1-0.5l-0.7-0.6l-0.8-0.1l-0.4-0.5l0.3-0.2
		l-0.7-0.4v-0.6l0.6-0.4l-0.6-1.2h-0.4l0.2,0.2l-0.4,0.4l-0.4-0.4l-0.3,0.4l-0.5-0.4l-0.3,0.2l0.1,0.7l-0.6-0.6l-0.1,0.7l-0.5,0.5
		l-1.6-2.3l-1-0.5l-1.1,1.8l-1.1,0.3l-2.7,0.6l-3.9-0.4l0,0l0.8-2l-0.8-0.5l0.3-0.6l-0.6-0.5v-0.6l-0.5,0.1l-1.2-1l0.1-1l-0.7-0.7
		l-0.2-2.8l-0.5-0.1l0.7-2.1l-0.4-1.1l0.3-0.3l0.7-0.2l0.4-0.8l0.9-0.1l1.4-1.3l0.4,0.2l1-0.4l0.5-0.8l0.7-0.1l-0.2-0.1l0.3-0.4
		l0.2,0.2l0.5-0.5l0.5,0.5l0.7-0.5l-0.1-0.4l0.8-0.1l-0.5-0.6l0.7-0.2l1.2-1.7l2.9-1.6l-0.1-1.2l0.4-0.5l1-0.2l0.8,0.5l0.2,0.7
		l1.5,0.2v-0.3l0.6,0.1l0.2-1.4l0.9-0.1l0.4,1l0.8-0.3l0.7,0.7l0.7-0.1l0.2-0.8l-0.1,0.7l0.4,0.2l0.1-1l1.4,0.2l-0.5-0.6l0.4-0.7
		l-1.1-0.9l-0.5,0.1v-0.9l-1.9-0.3l-0.3-0.8l-1-0.6l-1,0.2l-1.7-1.1l-0.6,0.2V242l-1.4-1.4l-0.8-0.1l-0.6-0.9l-0.1-1.9l1.2,0.4
		l0.6-0.8l0.8,0.3l0.4-1.4l-0.2-1.1l-1.8-0.2l-1.1-1.3l-0.5,0.3l-1.4-0.3v-1.4l1.1,0.2l0.2-0.5l1.3-0.2l0.6-1.1v-0.9l3.4,0.9
		l2.6-0.6l-0.2-0.9l-1.4-0.3l-0.5-1.4l-0.9,0.5l-0.2-0.2l-0.2-0.4l0.5-1l-0.2-1.1l-0.6-0.2l-0.7,0.7l-0.7-0.4l0.2-0.6l-0.7-0.3
		l-0.2,0.5l-0.7-0.3l-0.1-0.8l-0.4-0.2l0.4-0.4l-0.1-1.7l-0.9-0.5l0.5-0.5l-1.5,0.1l0.7-2.2l-0.4-0.7l-1-0.5l0.5-0.9l-0.2-0.4
		l-1.1,0.3l-0.5-0.2l0.5-0.6l0,0l0.9-0.7l-0.6-0.2l-0.1-0.7l1.1-0.4l1.7,0.3l1.2-1.1V212L354.8,212.1z"/>
	<path id="IN-CH" class="st0" d="M223.2,147l-0.5,0.3l-1.2-0.6l-0.6-1.3l1.2-0.8l0.2,0.5l0.5-0.2l-0.1,0.4l0.6,0.1l0,0L223.2,147z"
		/>
	<path id="IN-CT" class="st0" d="M340.4,280l1.8,0.3l0.4,0.8l1.1,0.3l0.7,2.6l0.6,0.3l-0.3,0.4l2.4,0.8l0.6,1.3l-0.3,1.4l1.1,1.6
		l2.9,0.7v-1.2l1.2-0.2l0.3,1.7l-1,1.7l-0.1,1.4l0.7,0.6l0.7-0.4l0.5,0.9l-0.7,3.7l1.7,1.1l0.3,2.3l0.8-1.2l0.5,0.9l1-0.2l0.1,0.5
		l1.7-0.3l0.3,0.7l-0.3,1.4l-0.7,0.1l-0.8,1.9H357l-0.5,0.5l-0.1,1.3l-1.3,0.7h-1.3l-1.4,1.3v0.9l0,0H352l-0.1,0.4l1.2,0.7l-0.7,1.9
		l-2.6,0.5l-2,2l-1.1-0.1l-0.9,0.4l-1.6,2.3l0.7,0.7l-1.1,0.2l-0.1,1.8l0.3,0.6l0.8,0.4l-0.5,0.8l0.2,0.5l-1,0.2l0.1,0.7l-0.8-0.4
		l-0.4,0.6l0.3,0.8l-1.2,1.3l1.2,1l-0.6,0.4l-0.2-0.8l-1.1,0.7l-0.8,2.3l0.3,1l0.8,0.9l0.2,1l-0.5,0.2l-1.3-0.6l-0.3,1.2l0.4,0.5
		l-1,0.5l-0.5,2.4l-1.3,0.7l-1.4-0.3l-1.5-1.1l-1.4,0.5l-1.2-0.2l-0.4,0.4l-0.7-0.4l-2.1,0.2l0.2,0.9l-0.6,0.6l0.2,0.7l-1.3,1.8
		l-1.2,0.7l-0.5,1.5l-0.8-0.1l-0.3-0.7l-1-0.4l-0.2,2.4l0.6,2.6l-0.8,1.3l1,0.8l0.1,1.1l0.4-0.4l0.3,0.9l-0.6,1.7l0.6,1l-0.4,0.4
		l0.2,1.2l-0.6,1.1l0.2,1.6l3.7,1.4l0.6-0.3l1.4,0.2l-0.1,1.8l0.3,0.4l-0.3,0.8l-1,0.1l-1.1,1l-0.2-1l0.4-0.8l-2.7-0.7l-1,0.4
		l-0.9,1l-2-3.2l-0.9,0.4l-2.2-1.4L317,359l-1.5-1.8l-1.3,1.3l-0.5,1.6l0.2,0.8l2,1l0.4,1.1l1.4,0.2l-0.4,1.5l0.2,3.1l-0.4,0.7
		l1.3-0.2l0.5,1.6l1.1,0.1l-0.3,1l-0.5,0.1l0.8,0.8l-0.6,1l0.5,2l-0.3,0.6l0.7,0.2l0.2,0.5l-0.3,0.6l0.6,0.9l0.3,2l-1.2,0.3l-0.2,2
		l-0.6,0.6h-0.9l-0.1,0.8l-0.8-0.1l-1.2,0.5l-0.4,1.2l-1.2,0l0.1,0.6l1.2,0.6l-0.1,0.5l-0.7-0.1l-0.2,0.7l-0.7,0.3l-1.7,1.9
		l-0.3,1.2l-1.6,0.1v0.5l-1.2,0.2l-1.2,0.8l-0.4,1.4l0.3,0.5l-0.3,1.2l-0.6,1.2l0.1,1.1l-0.7,1.8l-0.8-0.2l-0.2,1.5l0,0l-2.4-0.1
		l-1.7-0.8l-1.5,1.2l-0.7-0.1l-1.6-5.5l0.5-1.6l-2,0.7l-0.2-1.2l0.3-0.2l-0.7-0.5l-0.6,1.3l-1.1-0.1V393l1-0.7l-0.8-0.9l-0.5-1.5
		l0.2-0.5l-0.6-0.2l0.1-0.3l-0.9-0.7l-0.3-0.9l-2.7-2.1l-2.6,0.8l-1.3-2.5l0,0l-0.5-0.8l0.6-0.1l1.3-1.1l-1.5-2v-1.1l1-1.7v-1.3
		l1.1-0.9l-0.1-1l1-0.4l0.7-1.4l1.7-1.3l0.8,1.8l1.1-0.4l0.3,0.8l1.1-0.1l1.7-1.4l-1-1.3l1.9-0.7l-0.2-1l-0.6-0.2l-0.3-0.6l-1.1-0.1
		l-0.8-0.8l-1.2-0.1l0.2-1.5l-2.3-1.6v-0.9l-1.3-0.1l0.2,1l-0.5-0.4h-1l0.1-0.4l0.6,0.1l1.2-1.1l-0.3-0.6l-1.4-0.1v-0.5l0.7-0.4
		l0.7,0.5l0.7-0.1l0.5-1.1v-1.5l-0.1-0.8l-0.8-0.6l-1.9-0.1l-0.1-0.4l0.5-0.5l-0.6-1l2.3-0.5l0.6-0.7l1.4-0.5l-0.6-1.2l0.7-4l-1-0.2
		l-1,0.5l-0.5-0.6l0.5-0.7l1.3-0.6l-0.6-1.6l-0.1-3.2h-1.6l-0.6-1.5l0.4-0.5l-0.3-1.2l0.4-1.5l3.2-1.5l0.7-0.9l-0.3-0.6l0,0l1.3-2.7
		l-0.4-2.2l0.2-2.4l0.4-0.9l1.2,0.2l0.4-1.1l0.1-2.5l-0.3-0.4l0.5-0.1l1.2-3.1l0.7,0.1l0.2,1.1l0.6-0.1l0.1-0.7l-0.6-0.3l0.8-0.3
		l0.1-1.9l1.2-0.3l0.5-0.9l-0.1-2.8l1.3-1l0.7,0.7l1-0.9l0.5,0.3l0.3-0.8l1,0.4l0.3,1.2l0.5-0.7l0.4,0.2l-0.2-0.5h0.8l0.7-0.9h1.7
		l0.1-0.5l0.5-0.1l0.1-1.2l0.9-0.3l0.3-0.5l0.3,0.5l0.4-0.3l-0.3-1.2l0.7-0.8l-0.4-1.3l0.2-0.8l1.6-0.3l0.1-0.5l1.4-0.8l-0.4-1.6
		l0.4-0.7h1.5l0.8-0.7l0.9,0.3l0.6-0.7l-0.2-1.7l0.8-1.1l-0.1-0.8l-0.9-0.7l-0.5,0.1l-0.2-0.8l-1,0.4l-0.6-0.2v-0.7l-0.7,0.2
		l-1.1-2.3l-1.6,0.4l-0.4-0.7l-1.2-0.4l-0.8,0.9l-0.7-0.2l-0.5,0.8l-0.4-0.3v-0.9l-0.5-0.1l-0.1-0.7l0.6-0.2l0.2-1.2h0.5l0.8-1.2
		l-0.2-0.6l-0.6-0.3l-0.2-1.2l-0.6-0.4l0.2-1l0.9-0.4l1.1,1.3l-0.1,0.4l1.1,0.6l1.3-0.2l1.1-1l0.6,0.4l0.9-0.2l0.8,0.8h2.1l0.7-0.6
		l-0.1,0.4l0.5,0.5l0.5-0.3l1.3,0.4l2.4-0.2l1,0.5l0.5-0.2l-0.3-0.6h1.1l1.2-0.7l0.1-1l1.7-0.3l1.1-0.8l0,0l2.4,1.7h2.7l1.9-0.8
		l0.5-1.3l1.1-0.7l0.2-1L340.4,280z"/>
	<path id="IN-DD" class="st0" d="M112.4,344.8l0.1-1.5l1.1-2.8l0.5,0.6l1.4-0.2l0.7,0.5l0.2,1.1l-1.5,0.7l1.4,0.5v0.6h-0.5v0.6h-0.4
		l0.8,1l0,0l-0.3-0.2l0.1,0.3l-0.9,0.3L112.4,344.8z"/>
	<path id="IN-DL" class="st0" d="M229.8,184.6l0.5,0.6l-0.4,0.8l0.5,0.2l1.1,1.5l0.7-0.1l-0.2,1.5l0.4,0.7l-0.8,0.9l0.8,1.2l0,0
		l-1.7,0.5l-0.3,0.4l0.3,0.7l-1.3,0.4l-0.9-0.7l-0.2-1l-0.6-0.5l-0.4,0.1l-0.8-0.6v0.6l-0.7-0.3l-1.6,0.4l-0.8-1v-0.7h0.4l0.4-0.9h1
		l-0.3-0.4l0.7-1l-0.2-2.4l1.6-0.3l0.8-1l1,0.4l0.2,0.5L229.8,184.6z"/>
	<path id="IN-DN" class="st0" d="M158.3,357l-0.5,1.3l-0.8-0.6l-1.4-0.3l-0.1,0.6l-0.8-0.8l0.1-0.5l-0.5,0.4l-0.3-0.3l0.2-0.8
		l-0.3-0.8l0,0l-0.8-1.3l0.4-0.3l0.7,0.4l0.1-0.4h0.5v-0.5l0.4,0.5l0.1-0.6l0.7-0.1l0.3-0.6l0.1,1.1l0.9-0.2l0.3,0.6l-0.4-0.1
		l-0.9,1.1h-0.6l0.1,1.4l0.2-0.3l0.6,0.3l0.5-0.3l-0.1-0.7l1.2,0.2l0.3,0.3l-0.6,0.8L158.3,357z"/>
	<path id="IN-GA" class="st0" d="M166.6,439.8l2.8-0.2l0.6-1.1l0.3,0.9l1.1,0.1l0.4,1.8l0.5,0.6l0.5,0.1l1.8-0.8l0,0h0.9l0.3-0.5
		l0.4,0.6l0.3-0.3l0.4,0.2l0.2,0.8l-0.3,0.8l0.6,0.7l-0.6,0.7l0.5,0.9v1l0.8,0.4l0.2,1.4l-1.5,0.7l0.9,0.6l0.3,0.7l-0.6,0.8
		l-0.2,0.9l0.4,1l-0.7,0.9l0.2,0.4l-1.1,0.8l-0.7-0.5l0.1,0.8l-0.6-0.2l-0.8,0.5l0,0l-1-0.4l0.2-0.7l-1.6-2l-1-0.3l0.7-1.1l-1-3.5
		l-0.4-0.7l-0.6,0.2l-1.1-0.9l1.7,0.3l0.4-0.3l-0.9-0.7l-1.1-0.2l0.3-0.6h-0.7l-0.5-2.2L166.6,439.8z"/>
	<path id="IN-GJ" class="st0" d="M93.6,312.1l0.5,0.6l-0.4,0.4l-0.9-0.6L93.6,312.1z M84.7,311.7l0.2,0.3l-1.1,0.8L84,312
		L84.7,311.7z M100.5,309.5l0.3,0.5l-1.2,0.4l0.1-0.6L100.5,309.5z M74.3,295.5l1,0.3v0.5l-0.8,0.2v0.3l-0.6-0.5l0.5-0.2L74.3,295.5
		z M74.9,294.3l0.5,0.4v0.5l-0.7-0.5l-0.2-0.4H74.9z M72.8,292.2l0.4,0.5l-0.2,1l-0.5-0.3l0.1-0.7l-0.7,0.7l-0.2-0.2L72.8,292.2z
		 M72.9,289.9v0.7l-0.9,1l0.1-1L72.9,289.9z M72.5,289.4l0.2,0.5l-0.5,0.3l-0.1-0.6L72.5,289.4z M70.7,285.8l0.7,0.4l0.5-0.2
		l-0.6,2.8l-1.4,1.4l-0.7-0.2l0.3-0.2l-0.4-0.3l-0.6,0.2l0.1,0.3h-0.5l0.1-0.3l-0.5,0.2l-0.2-0.5l0.3-0.5H69l1.1-1.5L70.7,285.8z
		 M70,286l0.1,1.3l-0.8,0.6v-1.7L70,286z M73.2,285.3l0.4,1.5l-1.4,0.3l0.3-0.7l-0.2-0.6L73.2,285.3z M71.2,284.7h0.5l0.3,1
		l-1.1-0.1l-0.1-0.4L71.2,284.7z M72.2,283.3v1.3l-1.2-0.1l-0.5,0.6l0.1-1L72.2,283.3z M73.8,283.3l0.4,0.4l0.5,0.1l-1.2,1.1
		l-0.5-0.2v-0.4l0.8-0.6V283.3z M72.9,282.2l0.7,1.3l-1.4,1.5l0.5-1.6l-0.2-0.3l-0.5,0.2l0.4-0.8L72.9,282.2z M72,282.1l-0.4,1.2
		l-1.1,0.7l-0.1,1.6l-0.3,0.2l-0.3-0.3l-0.7,0.6v2l-0.5,0.2l-0.8-1l0.8-0.9l-0.4-1.2h0.4l0.8-1.5l1-0.1l0.5-1.2l0.7,0.2L72,282.1z
		 M120.2,268.6l3.4,1.4l1-0.9l0.6,0.6l1.9-1l2.3,0.1l0.8,0.7l2.5-0.7l0.2,1l0.8,0.3l0.3-1.4l0.8,0.2l0.4,0.8l2-1.6l0.6,0.2v0.9
		l1.5,0.8h0.8l0.3-0.4l1.5,0.5l0.7-0.2l-0.5,0.6l-0.8-0.3l-0.5,0.4l0.8,0.8l1.1-0.3l0,0l0.5,1l1-0.1l0,0l-0.1,0.9l0.5,1.1h0.9
		l-0.1-0.8l0.8-1.1l0.8,0.7l2,0.3l-0.1,0.7l0.7,1.1l2.4-0.1l1,0.8l1.2-0.7l-0.5-0.4l0.7-1.7l0.2-0.2l0.7,0.3l0.8-0.6l0.3,1.3
		l-0.4,0.6l1.5,0.9l0.7-0.5l0.4,0.2l-0.4,0.6l-0.3-0.2l-0.2,0.8l-0.6-0.1l-1.1,2.4l0.6,0.9l2,0.8l-0.4,0.9l0.8,0.8l0.8-0.3l0.7-0.9
		v-0.8l0.7-0.3l-0.1,0.8l0.8,0.7l-0.2,1.2l0.4,1.2l-1.1,1.4v1.5l0.2,0.4l0.8-0.2l1.1,1.4l0.5,0.1l0.1,1.7l1.1-0.8l1.5,0.6l-0.4,1.5
		l0.4,0.9l-0.5,1l0.4,0.2l0.9-0.3l0.4,0.8l0.7-0.9l0.3,0.5l0.9-0.2l1.1,2.1l0.8-0.1l0.2-0.6l0.4-0.1l0.4,0.8l0.8,0.1l0.2,0.7h1
		l0.6,0.5l-0.1,1.8l1,0.5l0.4-0.8l0.7,0.1l0.8,1.4l-0.1,0.5l0.7,0.6l0,0l0.9,1.6l-0.5,0.3l0.4,0.6l0.7,0.7l0.9-0.5l0.5,1.3l-1.4,2.5
		l-0.3,1.7h-2.1l-2,2.5l-1.6-0.6l-0.6,0.8l0.1,0.3l0.8-0.3l-0.1,0.8h0.5l0.4,0.9l0.4-0.7l0.3,0.5l0.5-0.2l0.1-0.7l0.2,0.8l0.9,0.1
		l0.7,0.7l-0.7-0.1l-0.8,0.6l-0.4-0.2l-0.3,0.9l-1-0.2l-0.4-0.8l-0.7,0.2l-0.2,1.4l0.6,0.8l-0.3,0.4l0.8,0.2l0.1,2.2l0.4-0.2
		l0.5,0.4l-1.5,1.4l1,0.6l-0.1,0.6l0,0l-6,2.5l0.6,0.6l-0.2,0.5l1.2,1.2l-0.2,1.1l-1.8,0.4l0.7,0.5l0.7,2l3.8-1.2h2.1l0.4,0.5
		l0.5-0.4l0.6,0.3l0.6-0.6l0.4,0.5v0.9l-1.4,0.6l-0.5-0.1l-0.1,0.4l-1.7-0.1l-0.4,0.3l-0.8-0.7l-0.3,1.2l-1.4,0.5l-0.3-0.2l-0.1,2
		l-1,0.7l-1.1-0.1l-0.2,1.8l-1.5,0.1l-0.1,0.6l-1-0.3l-0.8,0.4l-0.4-0.8l-0.4,0.2l1.3,1.1l1.7-0.1l-0.2,1.1l0.6,0.9l0.6-0.2l0.2,0.5
		l1.6,0.2l-0.2,0.8l0.9,1.9l0.1,1.9l-0.5,0.4l-0.6-0.1l-0.4,0.7h-0.7l0.4,0.5l-0.1,1l-1.6,0.9l-0.9-0.2l-0.5,0.3l-0.6-0.3l-0.5-1.1
		l-1.2-0.7l-0.7,0.4l-0.3-1.2l-0.5,0.1l-0.2,0.9l-0.7,0.4l0.7,0.9l0.7,0.2v0.8l0.3,0.1l-1.3,2.4l-0.7,0.5l0.6,0.7l0.1,2.8l-1,0.3
		l-0.1-0.4l-0.3,0.3l-0.8-0.2l-0.4,1.1l-1.3,0.5l0,0l-0.4-0.3l0.6-0.8l-0.3-0.3l-1.2-0.2l0.1,0.7l-0.5,0.3l-0.6-0.3l-0.2,0.3
		l-0.1-1.4h0.6l0.9-1.1l0.4,0.1l-0.3-0.6l-0.9,0.2l-0.1-1.1l-0.3,0.6l-0.7,0.1l-0.1,0.6l-0.4-0.5v0.5h-0.5l-0.1,0.4l-0.7-0.4
		l-0.4,0.3l0.8,1.3l0,0l-1.7-0.3l-0.7,0.8v0.8l-0.6-0.1v0.4l-1.2-0.2l0,0l0.3-3l1.2-1.5l1.1-2.5l0.2-1.7l-1.9-5.9v-0.9l-0.4,0.2
		l-0.9-2.2l0.9-0.3l-1.2-0.1l0.3-1.3l-1-0.2l-0.1,1.3l-0.6,0.2l-0.2-3l-0.6-1.3l0.7-1.7l1.3-1.6L148,332l0.5-1.7l0.6-0.2l-0.4-0.2
		l-1,1l-0.5-1.2l0.6-1.2l1.3-0.7l1.6,0.1l0.9-0.4l-1,0.1l-0.8-0.5l-3.6,0.5l-0.5-0.7l0.6-0.7l0.5-1.7l-0.9-0.6l-0.3-1.9l0.8-3.8
		l0.6-1l1.2-0.3l1.9,0.8l1-1.4l1.2,0.4l0.4-0.2l0.2-0.8l-0.3,0.6l-0.5,0.1l-0.4-0.8l-1.7,1l-1.2-0.1l-1-0.9l-1.7,0.8l-0.1-0.6
		l-0.9,1.5l0.1-0.8h-0.4l-0.6-1.2l-0.8-0.3l0.3-0.8l-0.6-0.5l-0.3,0.3l0.6,0.4l-0.4,0.7l0.7,0.3v1.4l-0.3,0.5l-0.8-1.4l0.1,1.3
		l0.5,0.7l-0.3,0.4l-0.4-0.6l-0.2,1.1l-0.4-0.1l-0.8,3.8l-0.7-2.3l0.8-0.5l0.2,0.2V319l-1.2,1v0.7L140,322l0.6,0.9l0.2,3.1l0.7,2.2
		l-1.5,3.7l-1.8,2.1l-0.3,0.9l-0.6-0.4l0.4,0.5l-0.3,0.6l0.6,0.9l-1.7,0.8l-0.2,0.4l0.1-1l-0.6,1.2l-2.8,0.9l-0.4,0.3l0.2,0.4
		l-1.7,0.3l-2.7,1.4h-0.9v0.5l-1.4,1l-1.1-0.1l0.1,0.3l-3.2,1.1l-1,0.5l-0.1,0.4h-1.1l-0.2,0.4l-2.1-0.1l-1.3,0.6l0,0l-0.6-0.8l0,0
		l0,0l0,0l-0.2-0.2h0.4v-0.6h0.5v-0.6l-1.4-0.5l1.5-0.7l-0.2-1.1l-0.7-0.5l-1.4,0.2l-0.5-0.6l-1.1,2.8l-0.1,1.5l0,0l-1.1-0.1
		l-3.2-1.6l-6.1-4.8l-7-8.2l0.9-1l-0.5-1.4l-0.2,0.3l-0.9-0.1l0.8,0.7l-0.4,0.2l0.5,0.4l-0.3,0.6l-8.5-7.8l-5-5.7l-0.4-1.4l0.9-2
		l1.5-1.3l0.3,0.2l-0.7,0.8l0.5,0.7l2.3-0.5l0.2,0.4l-0.8,1.7l1.6,1.2l1.6-0.6l0.3-0.7l1.5,0.3l1.2-0.4l0.7-1l-0.5-0.9l0.9,0.6
		l0.2,1l1.7-0.1l0.2-0.7h0.6v-0.9l-0.5-0.2l1-0.4l0.3,0.8l0.3-0.2l0.7,0.8l0.7-1l0.6,0.1l1.1-1.2l0.5,0.3l-0.1-0.7l1.6-0.6l0.5,0.3
		l1.8-0.1l1.4-2.2l0.2-1.4l0.9-0.5l0.9-2.2l1.3-1.2l1.3-2.8l-1,0.2l-0.9,0.6l-0.3,1.6l-0.7,0.3l-2-1l-0.3,0.4l-1.1,0.3l-0.7-0.4
		l0.2,0.7l-6,1.4l-0.8,0.6l-0.8,1.5l-1.1-0.5l-0.8,0.1l-0.8-0.6l-1.5,0.4l-2.1-1.1l-2.8-0.2L79,300l-1-0.3l-3-2.6l-0.1-0.4l1.6-0.7
		l-0.6,0.1l-0.1-1.6l-0.6-0.7l-0.8-0.1v-0.6H74l-0.6-0.9l-0.2-3.2l0.2-0.5h0.4l0.1-0.7l1.9-1.3l0.6-1l1.3-0.7l-0.4-0.3l-2,0.4
		l-1.4,1.6l-0.2-1.3l0.6-0.2l0.5-0.9l1.6-0.7l-0.8,0.1l-0.4-0.5l-0.1,0.4h-0.5l-0.4-0.5l0.2-0.3H78l0.4-6.5l1-0.3l0.4,2l0.7,0.2
		l1.1-1.6l1,1l1.7-0.8l1.9,0.7l2-0.8l3.4,0.4l1.8-0.4l2.2,2l5,0.2l1.1-0.5l1.1-1.9l8.2-2.6l0.7,0.4l-0.7,1.1l0.3,0.7l-0.2,1.1
		l1.5,0.5h2.7l1.6-0.7l-0.2-0.7l1.3-1.1l0.7-0.3l0.9,0.3l1.5-1.1l-0.2-0.6l-2-0.2l0.1-1.6l-0.3-0.4l0.4-1.8L120.2,268.6z"/>
	<path id="IN-HP" class="st0" d="M206.1,107.1l0.9-1.4l-0.5-1l0.3-1.4l-0.7-1.2l-1.4-1.2l0.2-1.3h1.1l1.4,1l2.5-1.8l0.2-0.8l2.6-0.6
		l0.7-1.5l2.1-1.8l1.4,0.1l1.4-0.6l0.6,0.1l0.8,1l1.9-0.4l0.5-1.5l0.4-0.1l0.4,0.4l0.5-0.2l-0.4,1.9l0.7,0.9h0.6l0.7,1.7l1.5,0.9
		l0.7-0.2l0.7,0.6l1.1-0.2l0.2,1.4l0.5-0.4l1,0.8l0.2,0.6l0.4-0.2l0.8,0.5l0.4,0.7l0.5-0.1l0.6-1.3l1.2,0.5l0.5-0.5h0.6l1.2-1.2
		l1.3-0.3l0.2-0.6l0.9,0.3l1.4,1.4l-0.5,0.9l1.6,0.8l0.6,1.1l0.6,0.2l-0.2,1.6l1.4,2.3l1-0.1V106l0.6,0.2l0.5-0.8l0.5,0.4l0.6-0.8
		l1.1,0.2l1.5-0.9l-0.1-0.5l1.5-0.5l-0.1,1.9l0.5,1l-1.7,1v1l-0.4,0.5l0.6,0.7l1.3-1.1l0.5,0.4l0,0l0.6,0.3l-0.1,0.9l1.5,0.8l-1,1.4
		v1.4l-0.5,0.8l1.8-0.1l1,0.7l-0.3,1.3l0.4,0.8l0.9,0.3l1.5,2.1l0.7,0.2l-1.4,4.4l0.6,0.6l-0.2,0.5l0.4,1h0.8l0.9,1.6l-2.2,2
		l0.2,0.7l0.6-0.1l0.8,0.8l-0.8,0.9l0.9,0.4v1.1l1.4,1.5l0,0l0.2,0.7l1.1,1l0.4,1.3l-2.3,0.2l-0.9-0.8l-0.4-1.2l-2.7,0.2l-0.2-0.6
		l-0.7-0.3l-1.1,0.6l-1.2,0.1l-0.5-0.8l-0.4-0.3l-0.4,0.3l-0.7-0.9l-1,0.1l-0.1,0.5l-0.4-0.1l-0.7,0.8l-1.5,0.1l-1.1,0.9l-1,0.1
		l-0.3,0.6l-1.1-0.5l-1.2,0.5l-0.8,1.5l-0.8,0.4l0.4,1.1l-0.5,0.8l0.4,0.3l-1-0.5l-0.5,0.4l0.2,0.8h0.9l-0.1,1.4l-0.8-0.5v1.1
		l-1,1.3l1,1.2l-0.1,0.5l0.8,0.5l0.1,0.9l-0.9,0.4l0.6,0.7h0.7l0.1,0.6l-0.2,0.5l-2.2,1.2l-1.8,0.4l-0.3,0.5l0,0l0.2,0.4l0,0
		l-0.6-0.3l-0.6-1.1l-0.4,0.8l-1.3,0.1l0.7-0.7l-0.1-0.5l-0.9,1l-1-0.9l-0.6,0.2l-1.1-0.6l-0.9,0.1l-0.3-0.9l-1-0.3l-0.4-0.5
		l0.8-0.7l-0.1-1.9l-1.4-1.1l-0.8-0.2l-0.4,0.3l-0.4-0.7l0.2-0.8l-0.3,0.3l-0.5-0.3l-0.9-1.8l-0.9,0.6l-0.7-0.5l-0.1-0.7l-0.7,0.5
		l0,0l-1-1.2l-1.8-0.9l-0.2-1l0.5-1.2l-0.7-0.4v-1.2l0.8-0.6l-0.2-0.3l-0.8,0.2l0.4-0.7l-0.6-0.6l-0.6,0.5v-0.6l-0.3,0.5l-0.1-0.4
		l-0.5,0.2l-0.4-0.8l-0.6,0.6l0.3-0.5l-1.2-1.8l-0.3-1.1l-0.1,0.5l-0.8,0.3l0.4,1l-0.7,0.2v0.5l-2.3,0l-0.1-0.7l-0.6-0.4l0.3-1.1
		l-2.7-4.9l-1.5-3.6l0.9,0.1l-1.4-2.9l-2-0.9l-1.7-1.4l-0.7-0.3l-0.9,0.2l-0.4-0.3l1.5-1.8l-0.8-0.4v-1l2.1-0.8l1.9-2.2l1.6-0.8
		l-1.5-1.9L206.1,107.1z"/>
	<path id="IN-HR" class="st0" d="M222.3,142.4l0.7-0.5l0.1,0.7l0.7,0.5l0.9-0.6l0.9,1.8l0.5,0.3l0.3-0.3l-0.2,0.8l0.4,0.7l0.4-0.3
		l0.8,0.2l1.4,1.1l0.1,1.9l-0.8,0.7l0.4,0.5l1,0.3l0.3,0.9l0.9-0.1l1.1,0.6l0.6-0.2l1,0.9l0.9-1l0.1,0.5l-0.7,0.7l1.3-0.1l0.4-0.8
		l0.6,1.1l0.6,0.3l0,0l0.3,0.3l-0.4,1.2l-0.8,0.6l-1,1.9l-0.9,0.4l-0.5,1l0.3,0.2l-2.6,1.2l-0.1,1l-1.5,2l-0.5,2.3l-0.6,0.5l0.5,1.3
		l-1,2.2l0.4,1l-0.4,0.4l1,1.9L229,173l0.4,0.4l-0.5,0.3l0.1,0.6l0.6,0.3l-0.4,1.3l0.3,0.6l-0.3,0.4l0.3,0.9l-0.3,1.6l1.7,2l-0.4,1
		l0.6,1.1l-0.7,0.3l0.1,0.5l0,0l-0.9,0.5l-0.2-0.5l-1-0.4l-0.8,1l-1.6,0.3l0.2,2.4l-0.7,1l0.3,0.4h-1l-0.4,0.9H224v0.7l0.8,1
		l1.6-0.4l0.7,0.3v-0.6l0.8,0.6l0.4-0.1l0.6,0.5l0.2,1l0.9,0.7l1.3-0.4l-0.3-0.7l0.3-0.4l1.7-0.5l0,0l2.5,1.9l0.4,1.1l-0.5,0.4
		l0.6,0.6l-0.1,0.5l-0.5,0.2l1.3,0.4l-0.5,0.4l0.1,0.6l-0.5-0.2l0.1,0.5l0.9,0.1l-0.8,0.4l-0.1,1.3l-0.3-0.2l-0.2,0.4l0.2,0.9l1,1
		l-0.4,0.5l0.5,0.2l-0.3,0.5h-0.9l-0.2,1l-0.8-0.2v0.8h-1.3l-1.1,1.1l0,0l-0.2-0.2l-0.6,0.6l-0.7-0.7l-0.5,0.8l0.2-0.5l-0.5-0.1v0.5
		l-0.4,0.3l-1.6-0.9l-0.3,0.9l0.8,0.3l0.2,0.5l-1.5-0.1l-0.4,1.7l-0.7-0.4l-0.6,0.3l-0.4-0.8h0.6l-0.5-0.6l0.4-2.1h0.4l0.2-1.7
		l-0.4-0.1V202l0.8-3l-2-1.7l-0.9,0.3l-0.2,1.1l-2.5,1.2l0.2,1.6l-1.1,0.2l-1.1,0.8v-1.4l-1.5-0.2l0.8-0.3l-0.9-0.6l0.2-0.4l0.7,0.1
		l-0.5-1l-1.7,0.3l-0.7-0.8h-1l1.4,1l-1,0.6l1,0.5l-0.2,0.8l-0.8,0.2l-1.1-0.3l-0.6-0.2l-1.3,0.2l0.7,0.6l-1.1,0.7l0.4,0.5l-0.2,1.2
		l0.6,0.3l-0.1,0.7l0.5,0.5l-0.9,0.7L210,205l-0.7,0.4l-1.6-0.3l0.3-0.9l-0.9-0.2l-0.1-0.3l0.3-0.4l0.4,0.3l0.4-1l-0.5-0.3l0.6-0.2
		l-0.4-0.4l0.7-0.1l-0.1-0.4l0.5-0.4l-0.4-0.3l-0.6,0.8v-0.6l-0.8-0.3l1.7-1.6l0.7,0.1v0.5l0.5-0.2l-0.9-1l0.1-0.4l-0.8-0.4l0.1-0.8
		l-1.2-0.8l-0.6-1l-0.6-0.5L204,194l0.1-1l-2.7-1.8l0.1-1.2l-1.1-0.3l-0.5-2.8l-0.5-0.8l0.3-1l-0.8-1.8l0.9-1l-0.1-0.7l-1.4-0.1
		l-0.1-1l-0.9-0.1l0.3-1.2l-0.6-0.3l0.7-1l-0.1-1.5l-0.7,0.2l-0.2,0.6l-0.5-0.2l0.1-1.2l-1.7,1.2l-0.8-0.7l-1.3,0.9l-0.5-0.1
		l-0.7-1.1l-0.9,0.3l-0.7-0.2l-0.5-1.7l-1.6-0.8l-1.5,1l-1.9-0.3l-0.2,0.8l-0.8,0.1v-0.7l-0.7-1.2l-0.5-0.1v-0.5l0.2-0.4l0.7,0.2
		l0.6-1.4l-0.9-0.7l0.7-3.9l-0.3-0.3l-1.1,0.6l-1-0.1l-0.1-0.9l1.6-1.6l-0.4-0.8l-0.5-0.1l0.3-0.7l0,0l2.3,0.8L184,163l0.9-1
		l0.6,0.2l1.4-0.6l0.9,0.7l0.6-0.2l0.1,0.6l0.5-0.2l1.3,1.9l1.4-0.5l0.3-0.7l0.4,0.9l-0.4,0.5l0.5,0.5l-0.3,0.4l1.2,0.5v-0.8
		l0.5-0.4l0.9,1.8l-0.7,0.6v0.8l-0.7,0.5l0.3,0.7l0.9,0.5v1.2l1.3-0.5l0.2-0.4l-0.4-0.4l0.7-1.3l0.6,0.2l-0.3-0.7l0.8-0.4l1.2-2
		l1.2,1l0.8-0.1l0.2,0.5l0.8-0.1l0.2-0.6l1.3,0.4l0.2-1.1l1.2-0.3l0.4,0.4l0.6-0.1l0.9,1.3l1.5,0.3l1-0.5l0.3,0.2l0.8-1.2l0.7,0.2
		l2.3-1.5l-1-0.4l-0.3-0.8l0.7-0.3l-0.2-1.5l0.4-0.2l-0.3-0.2l1-1.4l-1.2-0.6h0.4l-0.1-0.5l0.9,0.8l1.3,0.2l0.5-0.4l-0.4-0.4
		l1.2,0.5l0.2-0.6l-0.4-0.5l0.5-0.4l0.8,2.1l0.7,0.1l0.2,0.4l1-0.5l0.4,0.5l0.4-0.1l0.5-0.5l0.2-2.1l-0.6-0.2l0.1-0.3l-0.5-0.5
		l-0.9,0.6l0.3-0.8l1.1-0.1l1.2-1.1l0.7-0.1l0.4-0.6l-0.5-0.1l-0.2-0.6l1-0.9l0.9,0.6l0.4-0.5l0.9,1v0.6l0.8-0.6l-0.7-1.1v-0.9
		l0.6-0.7l-0.6-0.5l0.5-1.2l-1-0.9l0.1-0.8l-0.5,0.5l-0.3-0.6l0,0l0.2-1.6l0,0l0.3-0.6l-0.3-0.8l-1.1-0.9L222.3,142.4z"/>
	<path id="IN-JH" class="st0" d="M343.6,271.7l3.9,0.4l2.7-0.5l1.1-0.3l1.1-1.8l1,0.5l1.1,2.6l0.5-0.5l0.1-0.7l0.6,0.6l-0.1-0.7
		l0.3-0.2l0.5,0.4l0.3-0.4l0.4,0.4l0.4-0.4l-0.2-0.2h0.4l0.6,1.2l-0.6,0.4v0.6l0.7,0.4l-0.3,0.2l0.4,0.5l0.8,0.1l0.7,0.6l-0.1,0.5
		l0.7-0.1l0.7,1l0.6-1l-0.1-0.7l0.8-0.2l0.1-0.6l1.5,0.4l0.4-1.2l2.1-1.4l0.7,0.4v1.2l0.8-0.2l0.3,1.8l1.3-0.1l0.4-0.7l1.1-0.1
		l0.4-0.5l-0.2,1l0.4,0.1l1.4-1l-0.3-0.7l2.4-0.7v-0.6l3.7-0.5l0.6,0.5l0.3-0.8h0.6l0.1-0.7l1.6,0.4l-0.3-2.1l0.8-0.5l0.7-2.2
		l0.7,0.5h1.8l1.3,1.3l1.8-0.9l-0.2,0.8l0.9-0.1l0.7,0.8l0.2,2l1.1,0.4l0.4-0.5l0.8,0.7l1.1-0.2l-0.3,0.5l0.2,1l-0.6,0.9l1.3,0.4
		l1.2,1.3l0.7,0.2l0.2-1l0.4-0.1l0.3-1.8l0.7-0.3l1-1.4l1.2,0.9l1.1-0.3l0.3-0.8h0.5l0.5,0.5l-0.1,0.6l0.7-0.1l0.3,0.4l0.4-0.3
		l0.6,0.6l-0.2-0.9l0.6-1.1l2.2,0.7l0.8-3.8l-0.3-0.4l0.6-0.7l0.7-0.1l0.1-0.5l-0.2-2.7l1.2-1.3l0.7-0.3l0.7,0.3l0.6-2.6l0.8,0.4
		l0.4-0.4l1.4,0.7V258l0.4-0.4l-0.3-0.6l1,0.3l0.1-1l0.6-0.3l0.5,0.7h1.4l0.4,1.1l1.4,0.2l0.1,0.5l0,0l-0.2,2.6l1.8,1.3l1.6,1.9
		l0.1,0.7l-1.5,0.9l0.2,0.6h-0.6l0.2,0.6l-0.4,0.6h-0.3v-0.5l-0.4,0.4l0.4,0.5l1.1,0.3l-0.3,0.9l0.5,0.3l-0.5,0.6l0.3,0.3h-0.5
		l0.7,0.3l-0.4,0.6l-0.7,0.2l-1.4-0.6l0.7,0.7l-0.2,1.1l0.2-0.4l0.3,0.3l-0.7,1.6l0.5,0.2l-1,2l-0.8,0.2l-0.5,0.9l-0.8,0.1v0.6
		l1,0.5l-0.1,0.7l-2.2-0.1l0.7,0.5l-0.7,0.4l0.1,0.4l-1.5-0.6v1.2l0.3,0.2l-0.5,0.5l-0.9,0.1l0.4,0.5l-1.8-0.5l-0.5,0.3l-0.2-0.2
		l0.3-0.5l-1.7-0.2l0.4,1.5l0.5,0.2v1.1l-0.4,0.5l-0.4-0.7l-0.1,1.6l-0.4-0.1l-0.5-0.2l0.1-0.3l-1.2-0.3l0.6,0.9l-0.3,0.5h-0.4
		l-2.8-1.4l-0.5,0.4l-0.7-0.7l-0.4,0.3l-0.1,0.4l-0.9,0.6l-0.5-0.4l0.5,1.4l-0.5,1.4l-1,0.2l-0.1-0.3h-0.7l-1.8,0.5l-1.1,0.8h-1.6
		v0.4l-1.1,0.5l-0.4,0.8l-0.1,0.9l0.3,0.3l-1.3,0.8l0.3,0.3l-0.3,0.2l-0.4-0.4l-0.6,0.4l-0.3-0.3l0.3-0.7l-0.3,0.3l-1.4-0.3v-1.9
		l-1.8-0.3l-0.6,0.6l0.7,1.1l-1.9,0.8l-1.4-0.3l-0.1,1.2l0.6,0.8l-0.5,0.1l0.2,0.8l-0.9,1.2l0.1,1.3h0.5l1,1.3l2.2-0.3l0.2,0.7
		l1.6,0.5l0.2,0.8l1.1,1l1.5-0.4l1.7,0.8l0.4-0.4l1.5,0.1l0.3,0.5l0.5-0.4l-0.4,0.8l-0.6,0.2l-0.3-0.3l-0.7,0.5l0.5,0.5l-0.5,0.7
		l-0.3,1.6l1.6,1.5l0.6-0.4l1.4,0.9l0.6,1.9l2,0.1l0.7,1.4l-0.2,0.5h-0.8l0.3,1l1.5,0.6l-0.3,1.4l1,0.6v0.8l-1.2,0.1l-0.1-0.3v0.5
		l-0.2,0.5h-0.4H402l-0.8-0.1l0,0l-1.3-0.3l-0.1-0.5l-1-0.3l-0.2-0.4h-0.8l-0.6-0.8l-1.1,0.3l-0.1,0.4l-1.5-0.8l-1.3-1.9l-3.1-0.8
		l-1.2-1.5l-0.3,0.8l-1,0.4l-0.3,0.9l1,0.6l0.2,1L388,315l0.5,0.2l-0.2,0.4l0.6,0.1l-1.3,1.2l1,1.1l-0.5,1.5l-1,1.7l-0.5,0.3
		l-0.1,0.7l-2.6-0.4l0.5-1.7h0.8l-0.5-0.7l-2.2,1.2l-0.7-0.8l-1,0.3l-0.9-0.2l-2.6-1.4l-0.6,0.1l-0.1,0.7l-0.6-0.1l-0.4,0.3
		l-1.2,2.1l-0.4-0.8l-0.7-0.5v0.4l-0.3-0.4l-0.7,0.1l-0.4-0.6l-0.9-0.2l-0.8,0.6l-0.4-0.1l0.8-0.5l0.8-3.1l0.8-0.4v-0.5h-0.5
		l0.1-0.5l-0.3-0.1l-0.2-2.5l-1.9,0.8l-0.1-0.2l-1,0.6l-0.3-0.5l-0.8,0.3l-0.4-0.4l-1,0.1l-0.2,0.5l-3.9-0.1l-0.9,0.3v0.4l-0.5,0.1
		l-0.4,0.6l-2.5,0.2l-0.8-0.7h-0.9l-0.8-0.6l-0.3-1.4l-2.4-1l0,0v-0.9l1.4-1.3h1.3l1.3-0.7l0.1-1.3l0.5-0.5h0.6l0.8-1.9l0.7-0.1
		l0.3-1.4l-0.3-0.7l-1.7,0.3l-0.1-0.5l-1,0.2l-0.5-0.9l-0.8,1.2l-0.3-2.3l-1.7-1.1l0.7-3.7L353,295l-0.7,0.4l-0.7-0.6l0.1-1.4l1-1.7
		l-0.3-1.7l-1.2,0.2v1.2l-2.9-0.7l-1.1-1.6l0.3-1.4l-0.6-1.3l-2.4-0.8l0.3-0.4l-0.6-0.3l-0.7-2.6l-1.1-0.3l-0.4-0.8l-1.8-0.3l0,0
		l1.4-3.2l-0.5-1l1.4-1l-0.4-0.8l-0.5-0.1l-0.3-0.9l0.2-0.9L343.6,271.7z"/>
	<path id="IN-JK" class="st0" d="M188,10.3l1,1.2l2.1-0.1l1.5-0.1l1.3-1l1.4-0.5l1.4,0.7l1.5,2.1l1.7,2.5l2.2,2.6l1,1.9l2.9,1.9
		l2.8,1.4l2.4,2.2L214,26l2.2,2.3l1.4,1.2l2.3,0.3l2,2.1l0.1,1.5l-0.4,1.3l0.6,1.6l1,1.5l2.3,0.7h2.8l3.2,0.9l1.9,1.7l0.8,2.2
		l0.9,1.5l3,0.3l3.4-1.6l3-0.7h2.4l1.7-2.7l2-1.7l2.3-0.5l1.9-0.8l1.7-1.3l3-0.3l2.5,0.8l1.5,0.9l1-0.6v-2.2l0.9-1.1l1.5-0.4
		l2.1,1.7l1.1,1.3l1.4,0.3l2.7,0.6l2.1,0.6l1.7-0.8l1.2-0.4l1.1,1.8l1,1.7l1.5,0.8l1.7,1.5l0.5,1.4l-0.4,1.5l0.3,1.5l-0.1,1.1
		L284,49l-0.1,1l-0.9,1.2l-0.2,1.3l0.1,2.2l-0.7,1.7l-0.7,1.6l-0.5,1.2l-0.3,1.9l-1.3,0.7l-1.4,0.6l-1.8,0.9V65l-0.7,1l-1.6-0.1
		l-1.8,0.1l-0.9,0.8l0.2,0.9l0.8,1.4l0.4,1.8l-0.8,3.2L270,76l-1.1,0.4l-1.7-0.4l-1.9-0.6l-1.2,0.5l-1.7,0.3l-1,0.3l-0.4,1l0.4,1.5
		l0.6,1.3l0.7,1.2l1.2,1.9l-0.3,1.2l-0.9,0.8l-1.3,0.5l-0.2,1.2l0.2,1.4l-0.4,0.6l2.7,2.4l0.2,1.4l2,0.8l4,0.3l0.1,0.7l-1.1,2.5v1.1
		l1.7,1.9l0.4,1.8l1.1,0.9l0.6,1.9l-0.3,1.3l-1.8,0.5l-2.4,2.1l-1-0.8l-1,0.3l-1.4,1l-0.4,2l-1-0.2l-1.3,0.9l-1.1-0.5l-2.4-2.3
		l-0.3-2l0.3-0.6l-0.6-2.1l-1.6,1l-0.5,0.9l-1.5-0.1l-1.1,0.8l-0.6-0.1l-0.7,0.5v0.9l-0.5-0.4l-1.3,1.1l-0.6-0.7l0.4-0.5v-1l1.7-1
		l-0.5-1l0.1-1.9l-1.5,0.5l0.1,0.5l-1.5,0.9l-1.1-0.2l-0.6,0.8l-0.5-0.4l-0.5,0.8l-0.6-0.2v0.9l-1,0.1l-1.4-2.3l0.2-1.6l-0.6-0.2
		l-0.6-1.1l-1.6-0.8l0.5-0.9l-1.4-1.4l-0.9-0.3l-0.2,0.6l-1.3,0.3l-1.2,1.2H235l-0.5,0.5l-1.2-0.5l-0.6,1.3l-0.5,0.1l-0.4-0.7
		l-0.8-0.5l-0.4,0.2l-0.2-0.6l-1-0.8l-0.5,0.4l-0.2-1.4l-1.1,0.2l-0.7-0.6l-0.7,0.2l-1.5-0.9l-0.7-1.7h-0.6l-0.7-0.9l0.4-1.9
		l-0.5,0.2l-0.4-0.4l-0.4,0.1l-0.5,1.5l-1.9,0.4l-0.8-1l-0.6-0.1l-1.4,0.6l-1.4-0.1l-2.1,1.8l-0.7,1.5l-2.6,0.6l-0.2,0.8l-2.5,1.8
		l-1.4-1h-1.1l-0.2,1.3l1.4,1.2l0.7,1.2l-0.3,1.4l0.5,1l-0.9,1.4l-1.2,1.9l-1.1,0.2l-0.6,1.2l-3.3,1.5l-0.5,1.5l-0.2-0.7l-0.4-0.2
		l0.1-0.5l-1,0.3l-1.7-0.3l-2.3-1.4l-0.1-0.4l-0.9,0.2l-1-1.4l-0.8-0.3l-1,0.9l-2.6-1l-2.5,0.2l-1-2.7l0.6-1l-0.5-1.3l0.8-2.6
		l-1,0.4l-0.5,1.4l-1.5,0.4l-1,0.6l-2.1,0.4l-1.2-0.9l-1.8-0.9l-1.4-1.3l-2.1-0.8l-1.8-1.3h-2.7l-0.6-1.3l-0.9-0.9l-1.2-1l0.5-2.1
		l-0.8-1.5l-0.3-2.7l0.9-1.1l-0.7-2.7l0.4-1l0.1-1.3l-1.3-1.3l0.1-1.2l0.9-1l-0.7-2.7l-1.3-1.3l0.1-2.5l-0.3-2l-0.9-2.1l0.3-2.1
		v-1.5l1.1-1.2l1.9-0.5l1.5-0.6l0.1-1.6l1.1-2l1.2-0.2l2.9-0.1l1-0.8l0.7-2.6l0.8-1.6v-1.7l-1.5-1.5l-2.1-0.9l-1.7-0.5l-1-0.8
		l-0.6-1.3l0.3-1.4l1.2-0.8l0.5-1l-0.9-1.9l-1.8,0.1l-2.1-0.3l-1.7-0.5l-3-0.3l-1.6-1.5l-0.8-1.5l-0.6-2.2l-2.2-1l-2.7-0.6l-1.7,1.1
		l-1.9,0.1l-0.7-1l-0.1-1.9l0.4-0.9l-0.4-1.4l0.3-1.4l0.9-2l2.1-1.5l2.1-1.8l2-2.1l1.9-2.4l0.8-2.4l1.7-1.1l2.7,0.3l3.3,0.3l3.8,0.2
		l1.8-0.4l-1.6-1.8l-1.4-0.8l0.7-1l1.8-0.2l1.5,1.4l2.2,0.5l1.1-1.4l1.5-0.3l1.5-0.7l1.2-0.6l1.9-0.9l1.3-1l1.9-0.2l1.5,0.3
		L188,10.3z"/>
	<path id="IN-KA" class="st0" d="M174.7,441.2l-0.5-0.4l0.7-0.1l-0.1-0.7l1.3-0.7l0.4-0.6l0.4,0.8h0.8l1.3-0.6l0.4-1.3l-0.8-0.1
		l0.5-0.7l0.3,0.7h0.3l-0.4-0.9l1.4-2.6l-0.6-0.3l-0.8,0.4l-0.4-0.3l1.2-1.1l1,0.4L181,432l0.5-0.8l-0.2-0.8l-1.5-0.5v-0.4l-1.2-0.2
		l-0.4,0.4l0.3-0.4l-0.5-0.6v-1l0.3-0.2l0.3,0.5l0.1-0.6l-0.5-0.1l-0.1-1l-0.8-0.1l0.1-0.8l-0.6,0.5l-0.3-0.4l0.6-0.2l-0.2-0.8
		l0.7,0.8l0.3-1l0.7-0.1l-0.1,0.3l0.5,0.2l0.2-0.9l1.2-0.5l0.1-1l0.4,0.6l1-0.1l0.4,1.5l1.1-0.4l0.1-0.6h0.9l-0.5-0.6l0.6-0.7v-0.8
		l2.8-1h1.2l-0.2-1.6l0.9-0.4l0.1-0.5l-0.7-0.4l0.2-0.3h1.7v0.3l1.1-0.4l0.9,1.4h0.9l-0.1,0.6h0.6l1.2-0.6l0.1-1.5h1l0.9-0.4
		l0.7,0.2l0.7-0.4l0.4,0.8l1.4-0.4l0.1-0.8l0.6,0.1v0.6l0.6,0.3l0.5-0.2v-1.4h-0.5l0.6-0.5v-0.6l-0.9-1.4l0.6-0.7v-1l-1-0.8l0.1-0.7
		l-0.5-0.1l-0.1-0.6l0.7-0.2l0.4-1.6l0.8,0.4l0.2,0.9l0.8-0.2l1.2,1l0.4-1l0.7,0.7l0.5-0.6l0.1,1.2l0.7,0.6l2.2-0.6l0.4,0.5l0.8-0.7
		l0.8,0.5l0.2,0.8l-0.1-1l1.3-0.5l0.6,0.8l1.2-0.4l0.2,0.7h0.5l0.5-1.1l-0.8-0.1l0.2-1.1h-0.7l-0.1-0.7l0.8-0.5h-0.6l0.4-0.5
		l-0.5-0.4l-0.2-1l1.5-0.2l0.2-0.8l1.1-0.3l-0.1-1h0.7v-0.8h0.9v1.1l0.7-1.2l0.9,1.5l0.5,0.1l0.1-0.9l0.5-0.2l-0.2-0.8l0.8-0.1
		l0.5-0.7l-0.9-0.6l0.1-0.8l1.1,0.6l2-0.9v-2.2l0.7-0.1l-0.1-0.6l0.4-0.4l-0.8-0.4l0.6-1.3l0.6-0.1l0.6,0.5l0.2-0.4l0.4,0.6h0.9
		l-0.2-0.8l1-0.4l0.4-1.2l0.6,0.1l-0.2-0.7l0.9-1.1l-0.1-0.7l1.4-0.9l0.4,0.4l0.5-0.3v0.9l0.7,0.2l-0.9,1.5l1.4,0.1l0.5,0.9l0.8-0.3
		v-0.5l0.7,0.3l0,0l1,0.3l-0.7,1.5l0.6,0.9l0.1,1l-1,0.9l0.8,0.8l1,0.3l0.1,0.5l-0.2,0.4l-0.4-0.2l-0.1,1l-0.6-0.1l0.2,0.7h-0.4
		l-0.4,1l-0.4-0.2l-0.3,0.5l-0.1,0.4l1.1,0.3l-0.1,0.3l-2,1l-0.2,2.1l0.9,0.3l0.2,0.5l0.5-0.6l0.4,0.4l0.7-0.3v0.6l1.7,0.5v0.6
		l-0.6-0.2l0.1-0.4l-0.2,0.5l-0.5,0.1v0.5l-0.7-0.2v0.5h-1.1l0.5,0.4l-0.1,0.6l-0.5,0.3l-0.9-0.3l-0.3,1.5l0.4,0.2l-1.3,1.1l0.3,0.2
		l-0.7,0.9l1.8,1.1l0.7,1.8l-0.8,1.8l0.3,2.4l-0.6-0.1l-0.3,1.3h0.8v0.6l-0.9,0.3l0.3,0.5l0.7-0.2l-0.1,1.2l-1.3,0.4l0.4,0.9
		l-0.7,0.1l-0.2,0.5l-1.3-0.1l-0.1,0.3l-1,0.1l0.9,1.2l1.1,0.4l1.2,0.3l1.5-0.2l1.8,0.7v0.9l-0.5-0.2l-0.6,0.7l-0.6-0.1l-0.2,0.3
		v0.5h0.4l-0.5,1.2l0.1,0.8l0.4,0.2l-0.3,1.4l0.3,0.5v1.5l0,0l-4.7-0.7l-1.9,0.3l-1.4,0.8l-0.8,1.3l0.7,0.2l-0.4,1.7l1.5,1.4
		l-0.2,0.6l-0.6-0.5l-0.9,0.4v2.5l-1-0.1v0.3l1,1l0.6,2.1l0.9-0.1l0.1,0.7l0.6,0.1l0.3,0.5l-0.8,0.7l0.7,0.5v0.8l-0.5,0.1l0.4,0.4
		l-1.4,2.2l-0.7-0.1l0.1-0.4h-0.8l-0.3,0.4l-1.9-0.3l-1.4-1.2l-0.4,0.4l0.2,1l-0.4,0.9l1.2,0.4l0.7-0.2l-0.3,3l-1.2,0.5l0.3,0.8
		l-0.7,2.5l0.7,1.4l0.5,0.1l0.8,1l1.9-0.2l-0.5,0.6v0.8l-0.5-0.3l-0.5,0.4l-0.1,0.8l1.3,1l-0.5,0.4l0.2,0.6h2l0.5,0.6l0.5-0.1
		l0.1-1.4l0.7-0.9l1.4,0.5l0.9-0.4v1l1.4,0.1l-0.1,0.7l0.5,0.7l0.6-0.4l-0.7-1.5l0.2-0.5l1,0.3l0.2,0.7h0.7l0.1,2.2l-2-0.3l-0.2,0.7
		l-0.5,0.1l-0.1,0.5l0.8-0.4l0.1,0.3l-1.2,1.5l1,0.3l-0.1,0.7h1l-0.4,0.6l0.4,0.5l-0.5,0.5v-0.3h-0.8l0.1-1.6l-0.7-0.8l-3,0.6
		l-0.5-0.9l-1.8-0.2l-0.3-0.8l0.2-1.4l-1.4-0.3l-0.1,0.4l-0.8,0.1l-0.1,0.5l0.8,0.1l0.9,1.1l-0.8,0.8l1.9,1.8l0.1,0.5l-0.4,0.1
		l-0.9,1.5l0.4,1.3l0.3,0.2l0.3-0.7l0.6,0.6l0.6-0.4l1.3,0.1l-0.1-1.2l-0.7-0.5l0.7-0.1l-0.1-0.8l0.4-0.3v1.1l0.5-0.4l0.1,0.4
		l0.4-0.6l0.3,1l1-0.3l0.2,0.6l0.7-0.4l1.2,0.2l-0.3,0.7h0.9l-0.1,2.2l0.6-0.1l0.1-0.5l0.4,0.4l0.1-1.1l0.7,0.5l0.7-0.5l0.5,0.3
		l0.3-0.1l-0.5-0.4l0.7-0.4h0.4l-0.1,0.5l0.6-0.2l0.2,0.5l0.1-1.1l1.2-0.4v-0.4l0.9-0.5l-0.4-0.9l0.2-0.5l1.2,0.1l0.4,0.6l1-1
		l0.2,1.1l-0.6,0.2v1.1h0.4l0.3-0.8l0.9,0.2l0.1-0.6l1.3,0.8l0.1,1.2l-0.6,0.8l0.4,0.4l-0.1,0.5l-0.7-0.1l-0.1,0.4l0.4,0.6l1.4-0.2
		l0.1,0.5l0.6,0.1l-0.2,1.1l0.8-0.6l2.9,0.2l-0.6,4.1l0.8,0.4l-0.5,0.2l0.4,0.3l0.6-0.3l0.2,0.4l0.6-0.2l0.9,1l0.6-0.8l0.4,0.7
		l-0.2,1.1l-0.5,0.3l0.5,0.6l-1.1,0.7l0.3,0.4l-0.5,0.3v0.5l-1,0.4l0.1,1.3l-0.6-0.1l0.2,1.2l-1,0.1l-0.6-0.6l-0.8,1.5h-1.1
		l-0.4,1.7l0,0l-1.8-0.3l-1.3-1.3l-0.6-0.1l0.1,0.9h-0.4l-0.6-1l-0.4,0.7l-0.3-0.2l0.5-0.6l-0.3-0.4l-2.4,0.8l0.3,0.9l-1.2,2.3
		l-0.5-0.2l-0.5,0.5l-0.4-0.5l-1.2,0.3l0.1,0.7l-0.5,1.2l0.2,0.9l0.5,0.1l-0.6,0.6l0.9-0.2l-0.1,1.3l-0.3,1l-1.1,1.3l-1.3,0.4
		l-0.1,1.1l4.7,0.6l0.8,1.1l-1.4,1.8l-0.5,1.3l-3.2,0.1l-0.1,1l-0.4-0.2l0.1,0.9l-0.7,1.6l-1.1-0.5l-0.6,0.4l-0.7-0.7l-0.8-0.1
		l-0.3,0.3l-2.2,0.4l0.1,0.9l-0.7-0.2l-0.3-1l-0.6,0.2l0.2-0.4l-0.5-0.3H226l-0.2,0.7l-1.1-0.3l-1.3,2.5l0.4,0.8l-0.2,0.5l-0.4-0.4
		l-1.3-0.2h-3.4l-0.4-1.1l-0.7-0.5l-1,0.8l-0.5-0.1l0,0l-0.5-0.8l0.4-0.3l-0.2-0.7l-1.3,0.4l-1.1-1.3l-1,0.1l-0.6-1.2l-1.4,0.2v-2.2
		l-2,0.9l-2.1-0.3l-0.9-0.8l-0.4-1.6l-1.5,0.2l-0.3-0.7l-0.7,0.2l-0.5-0.9l-1-0.2l-1.7-2.5H198v-1.5l-1-0.7v-0.8l1-0.2l-0.1-0.7
		l-1.3,0.7l-0.1-0.6l-1-0.5l-0.1-0.8l0.9-0.4l-0.9-0.5l-1,0.9l-0.4-1.1l-0.8,0.1l-0.3-0.3l0.1-0.8l-1.2-0.4l-0.1,0.6l-0.6,0.1v-1
		l-0.8,0.1l0.1-0.3l-0.5-0.1l0.4-0.6L190,494l-2.3,0.7l0,0l-0.8-1.8l-2.3-9.1l-0.4-5.3l-1.2-4.3l-0.7-1.5l-0.7-0.3l-0.5-1.1l-0.6-3
		l-0.5-0.7l-1.6-5.2l0.7-0.5l-0.5-0.4l-0.2,0.6h-0.8l-0.3-1.5l-0.5-0.5l0.3-0.2l-0.3-1.4l-0.6-0.6l-0.5,0.6l-2-1.5l0.5-0.1l0.1-0.8
		H174l-0.3-0.9l0,0l0.8-0.5l0.6,0.2l-0.1-0.8l0.7,0.5l1.1-0.8l-0.2-0.4l0.7-0.9l-0.4-1l0.2-0.9l0.6-0.8l-0.3-0.7l-0.9-0.6l1.5-0.7
		l-0.2-1.4L177,446v-1l-0.5-0.9l0.6-0.7l-0.6-0.7l0.3-0.8l-0.2-0.8l-0.4-0.2l-0.3,0.3l-0.4-0.6l-0.3,0.5L174.7,441.2z"/>
	<path id="IN-KL" class="st0" d="M188,494.7l2.3-0.7l0.3,0.6l-0.4,0.6l0.5,0.1l-0.1,0.3l0.8-0.1v1l0.6-0.1l0.1-0.6l1.2,0.4l-0.1,0.8
		l0.3,0.3l0.8-0.1l0.4,1.1l1-0.9l0.9,0.5l-0.9,0.4l0.1,0.8l1,0.5l0.1,0.6l1.3-0.7l0.1,0.7l-1,0.2v0.8l1,0.7v1.5h1.1l1.7,2.5l1,0.2
		l0.5,0.9l0.7-0.2l0.3,0.7l1.5-0.2l0.4,1.6l0.9,0.8l2.1,0.3l2-0.9v2.2l1.4-0.2l0.6,1.2l1-0.1l1.1,1.3l1.3-0.4l0.2,0.7l-0.4,0.3
		l0.5,0.8l0,0v0.7h-0.8l-0.5,0.7l-0.9,0.3l-0.5-0.5l-0.8,0.5l0.3,1.9l0.7-0.3l0.8,0.5l0.2-0.3l1.4,0.5l0.7,1l1.1,0.6l0.5-0.1v1.1
		l-1.7,1.1l0.1,0.9l0.6-0.4l2.4,0.3l1.3-0.8l0.5,0.4l-0.6,1.2l0.9,0.4v1.3l1,0.1l-1.5,0.2l-1,2l3,1.1l0.4,1l0.9,0.1l0.2,0.5
		l-0.8,1.7l0.3,0.8l-1.2,0.1l0.4,0.8l-0.4,3.1l0.6,1l-0.4,1.2l0.3,0.3l0.5-0.2v0.4l0.8,0.8l1.2,0.3l1.2-0.7l0.2-0.7l2-1.1l1.1,0.1
		l-0.1,0.6l0.7,0.9l-0.1,0.6l0.6,0.2l-0.4,1.6l-1.3,0.5l1.1,1.3l0.2,1.2l-0.4,0.2l-0.6,1.4l0.4,0.3l-0.3,0.6l0.5,0.5l-0.4,0.2v1.1
		l-0.3,0.1l-0.7,2h0.8l1.1,0.7l0.9-0.5l0.4,0.5l0.3-0.6l0.2,1.2l0.8,0.5l-0.3,0.8l-0.8,0.4l-0.4,1.9h-0.5l-0.3,0.7v1.5l-0.5,0.5
		l0.3,0.7l-1,1l-0.2,0.9l-0.9,0.4l0.9,1.2v0.6h0.4l0.7,1.1l-0.5,1.5l-0.7,0.7h-0.4l2,3.6l-0.3,0.7l-1.1,0.1l0.4,1l-1.3,1.1l0.4,1.2
		l-0.7-0.2l-0.5,0.5l0,0l-2.2-1.6l-6.2-8.2l-1.5-1.2l-0.5-2.1l-3.3-7.2l-1.8-10l0.3-0.1l0.8,1.4l1.2,1.2v2.2l0.5,0.4l-0.6,2.8
		l0.5,0.3v-0.4l2.1-0.1l-1.5-0.6l0.3-0.8l-0.2-0.7l-0.3,0.1l0.2-0.9l-0.6-0.1l-0.1-2.9l-0.7-1l-0.3,0.1l0.2,0.6l-0.3-0.1l-1.2-2.6
		l0.3-0.9l-1.1-1.2l0.7,3l-0.4,0.1l-2.2-7.3l-3.4-7.5l-0.9-4.1l-2.2-6.1l-1-1.7l-1.2-0.5l-1.4-3.7l-2.5-2.9l-0.9-0.4l-1.6-2.7
		l-0.6-0.3l-0.5,0.3l-0.4-1.6l-3.8-7.4L188,494.7z"/>
	<path id="IN-MH" class="st0" d="M175,321.9l1,0.5l1.6-0.2l0.2-0.6l0.9-0.2l0.6-0.8l1-0.1v1.1l0.8,0.3l0.6,0.9l-0.4,2l0.1,1.6
		l0.7,0.2l0.1,0.7l4.2,1.4l2-0.4l2.8,1.3l1,2l1.9,0.9l1.4-0.1v0.5l1.1-0.3l0.7,0.4l1.3-0.2l1.4,0.4l1.1-0.4l1.2,0.3l3.9-0.4l1.5,0.1
		l1.5,0.8l0.8-0.4l1.1,2.2l-0.3,0.4l0.5,1l-0.1,0.3l-1,0.1l1.1,1.5l1.6-0.2l0.4,0.4h1.7l1.4-0.7l0.6-1.6l2.5,0.1l0.7-1.7l-0.7-1
		l2.9-2.5l0.1-0.5l-0.5-0.6l0.4-0.3l0.1-1.1l0.7,0.1l0.3-0.4l0.9,0.3l3.1-2.4l1.5,0.2l0.2-0.3l0.6,0.6l0.3-0.5l1.1-0.1l0.1-0.7
		l3.4-0.2l1.2,1.4l0.5,1.4v1.2l0.7,0.4l-0.7,0.3l-2-0.5l-0.7,0.5l0.4,1.2l0.6,0.3l0.3,1.5l1.8,0.3h0.4l-0.1-0.5h0.9l0.3,0.4l0.4-0.5
		l0.3,0.7l0.5-0.1l0.3-0.4l0.8-0.1l0.1-0.4l1.5,0.7l1-0.2l4.2-2.1l0.2-1.2l1.6-0.2l-0.1-0.5l0.7,0.4l0.6-0.4l0.4,0.2l0.3-0.8
		l0.8,0.3l0.1,1.9l1.4-0.5l1,0.2l0.3,0.6l2.4,0.4l0.5-0.6l0.5,0.5l0.2-0.4l1.7,0.1l0.3-0.3l0.6,0.3l0.2-0.5l-0.7-0.8l0.4-0.1
		l-0.3-0.6l1.5-0.5l0.3,0.3h1.4l1.1-1.2l1.3,0.2l0.2-1.4l2.2,0.9l0.8,0.1l0.4-0.3l1.3,0.3l0.9,2.5l2-0.2l1.5-0.9l2.2,1.4l1.1,0.1
		l0.4-0.6l1,0.4l1.3-0.4l0.9-1l1.3-0.5l1.3,0.3l2,1.9l0.7,1.6l-0.4,0.6l0.3,0.6l0.7,0.1l0.1-0.6l0.7,0.1l1.9,1.4l1.1-0.1l0,0
		l0.3,0.6l-0.7,0.9l-3.2,1.5l-0.4,1.5l0.3,1.2l-0.4,0.5l0.6,1.5h1.6l0.1,3.2l0.6,1.6l-1.3,0.6L289,348l0.5,0.6l1-0.5l1,0.2l-0.7,4
		l0.6,1.2L290,354l-0.6,0.7l-2.3,0.5l0.6,1l-0.5,0.5l0.1,0.4l1.9,0.1l0.8,0.6l0.1,0.8v1.5l-0.5,1.1l-0.7,0.1l-0.7-0.5l-0.7,0.4v0.5
		l1.4,0.1l0.3,0.6l-1.2,1.1l-0.6-0.1l-0.1,0.4h1l0.5,0.4l-0.2-1l1.3,0.1l-0.1,0.9l2.3,1.6l-0.2,1.5l1.2,0.1l0.8,0.8l1.1,0.1l0.3,0.6
		l0.6,0.2l0.2,1l-1.9,0.7l1,1.3l-1.7,1.4l-1.1,0.1l-0.3-0.8l-1.1,0.4l-0.8-1.8l-1.7,1.2l-0.7,1.4l-1,0.4l0.1,1l-1.1,0.9v1.3l-1,1.7
		v1.1l1.5,2l-1.3,1.1l-0.6,0.1l0.5,0.8l0,0l-1.2,0.4l-0.2,0.4l-0.6-0.4l-0.9,0.4l-1.8-1.7l-1.4-0.3l-0.7-0.9l0.8-0.5l-0.1-3.1
		l-0.3-0.5l-1,0.2v-1.3l1.5-1.3l-0.4-1.1l0.7-1.3l0.2-2l-0.6-1.2l-2-1.4l-0.8-1.1l-0.8-0.2l-1.8,0.5l-0.8,1.4l-0.8-0.3l-0.2-0.5
		l-1.3,1l-1.8-1.4l-1,0.1l-0.2-0.5l-1.1-0.4l-0.1,1.6l-0.5,0.7l0.3,0.5l-0.8,0.1l-1.4-1.3l-1.5-0.2l-0.5-0.4l-0.7,0.2l0.5-0.6
		l-0.2-1.2l-1-0.4l-1,0.2l-0.2-1.9l-1.1-0.4l-1.2,0.2l-2-1l-1.4-0.1l-0.6,0.5l-0.3-0.4l-1.4-0.4l-0.2-0.8l-0.9-0.1l-0.3-0.6
		l-0.5,1.3l0.8,0.2l0.5,1.1l-0.4,1.3l-1.1,0.5l-0.3,0.5l0.7,1.1v0.6l-0.6,0.3l0.5,1.9l-2.3,0.8l0.3,1.5l-0.5,1.8l-1.6-0.3l-0.6,0.2
		l-0.1-0.6l-1.7-1.3l-1.6,0.7v0.3l0.8,0.3l-0.7,0.2l-0.4,1.1l0.2,0.3l-0.5,0.9l0.3,0.9l-0.8-0.2l-0.1,1l-0.6-0.2l-0.1,0.6l0.2,0.9
		h0.9l-0.1,0.6l0.7-0.1l-0.2,0.8l0.7,0.1l1.1,1.6l-1.2-0.3l-0.9,2.3l-0.5-0.4l-0.4,0.6l0.1,2.3l-1.4,0.5l-0.2-0.5l-0.9,0.1l0.1,1.4
		l-0.4-0.2l-0.5,0.4l0.7,0.3l-1.1,0.3l0.5,0.2l-0.6,1.3l0.9,0.6l-0.3,0.5l0,0l-0.7-0.3v0.5l-0.8,0.3l-0.5-0.9l-1.4-0.1l0.9-1.5
		l-0.7-0.2v-0.9l-0.5,0.3l-0.4-0.4l-1.4,0.9l0.1,0.7l-0.9,1.1l0.2,0.7l-1,0.1l-0.4,1.2l-1,0.4l0.2,0.8h-0.9l-0.4-0.6l-0.2,0.4
		l-0.7-0.5l-0.6,0.1l-0.6,1.3l0.8,0.4l-0.4,0.4l0.1,0.6l-0.7,0.1v2.2l-2,0.9l-1.1-0.6l-0.1,0.8l0.9,0.6l-0.5,0.7l-0.8,0.1l0.2,0.8
		l-0.5,0.2l-0.1,0.9l-0.5-0.2l-0.9-1.5l-0.7,1.2v-1.1h-0.9v0.8H217l0.1,1l-1.1,0.3l-0.2,0.8l-1.5,0.2l0.2,1l0.5,0.4l-0.4,0.5h0.6
		l-0.8,0.5l0.1,0.7h0.7l-0.2,1.1l0.8,0.1l-0.5,1.1h-0.5l-0.2-0.7l-1.2,0.4l-0.6-0.8l-1.3,0.5l0.1,1l-0.2-0.8l-0.8-0.5l-0.8,0.7
		l-0.4-0.5l-2.2,0.6l-0.7-0.6l-0.1-1.2l-0.5,0.6l-0.7-0.7l-0.4,1l-1.2-1l-0.8,0.2l-0.2-0.9l-0.8-0.4l-0.4,1.6l-0.7,0.2l0.1,0.6
		l0.5,0.1l-0.1,0.7l1,0.8v1l-0.6,0.7l0.9,1.4v0.6l-0.6,0.5h0.5v1.4l-0.5,0.2l-0.6-0.3v-0.6l-0.6-0.1l-0.1,0.8l-1.4,0.4l-0.4-0.8
		l-0.7,0.4l-0.7-0.2l-0.9,0.4h-1l-0.1,1.5l-1.2,0.6h-0.6l0.1-0.6h-0.9l-0.9-1.4l-1.1,0.4V417h-1.7l-0.2,0.3l0.7,0.4l-0.1,0.5
		l-0.9,0.4l0.2,1.6h-1.2l-2.8,1v0.8l-0.6,0.7l0.5,0.6h-0.9l-0.1,0.6l-1.1,0.4l-0.4-1.5l-1,0.1l-0.4-0.6l-0.1,1l-1.2,0.5l-0.2,0.9
		l-0.5-0.2l0.1-0.3l-0.7,0.1l-0.3,1l-0.7-0.8l0.2,0.8l-0.6,0.2l0.3,0.4l0.6-0.5l-0.1,0.8l0.8,0.1l0.1,1l0.5,0.1l-0.1,0.6l-0.3-0.5
		l-0.3,0.2v1l0.5,0.6l-0.3,0.4l0.4-0.4l1.2,0.2v0.4l1.5,0.5l0.2,0.8l-0.5,0.8l0.1,1.1l-1-0.4l-1.2,1.1l0.4,0.3l0.8-0.4l0.6,0.3
		l-1.4,2.6l0.4,0.9h-0.3l-0.3-0.7l-0.5,0.7l0.8,0.1l-0.4,1.3l-1.3,0.6h-0.8l-0.4-0.8l-0.4,0.6l-1.3,0.7l0.1,0.7l-0.7,0.1l0.5,0.4
		l0,0l-1.8,0.8l-0.5-0.1l-0.5-0.6l-0.4-1.8l-1.1-0.1l-0.3-0.9l-0.6,1.1l-2.8,0.2l0,0l-0.6-0.4l0.5-0.2l-1.5-2.9l-1.5-0.5l-0.5-1.8
		l-0.5-0.3l0.2-0.3l-0.6-2.4l-0.8-3h-0.4l0.7-0.8l-0.7,0.1v-0.8l-0.9-1.4v-0.8l0.5-0.2l-0.5-0.6l0.4-0.7l-0.3-0.1l-0.2-3.1l-0.6-1.6
		l0.3-1.8h-0.4l0.2-0.5l-0.5-0.3l0.8-1l-0.6-0.6l-0.8-2.9l-0.6-0.6l0.6-0.1l0.1,0.4l0.3-0.5l-0.7-1.4l-0.7-0.4l0.7-0.6l-0.4-0.1
		v-1.2l-0.8-0.9l0.6-0.5l-0.7-1l-0.2-1.1l0.4-0.4l-0.8-1.7l-0.2-1.7l-0.2,0.1l-0.6-1l0.1-0.8l-0.9-1.3l0.2-0.4l-0.6-1.1l0.3-1.2
		l-1-0.5l0.1-1.2h0.5l0.3,0.7l1.6,0.4l-0.2,0.7l0.6,0.7l-0.1-1.5l-0.5-0.7l-1.1-0.1l-0.8-1.2l-0.7-0.3l0.2-0.6l-0.6-1.6l0.6-1.3
		l-1.3-2.9l0.3-2l0.8,0.2l0.4-0.7l0.5,0.7l0.2-0.4l0.1-1.1l-1.1,0.3l-0.3-1l0.9-0.1l-0.3-0.7l0.3-0.5l0.4,0.2l1-0.7h-0.5l-0.2-1.1
		h-0.5l-0.1,0.6l-0.8,0.7l-0.9-0.2l-0.3,1.5l-0.7,0.6l0.3-1l-0.6-0.2l0.4-1.4l0.2,0.2l0.2-0.4l-0.4-0.1l0.2-1l-0.8-1.4v-2.1l0.4-1
		l-0.7-0.8l-0.2-1.7l0.6-0.5l0.1-0.7l-0.4,0.4l-0.8-0.7l-0.1-1.1h0.5l-0.9-3.7l-0.7-0.9v-0.4l0.5-0.1l-0.3-1.3l0.9-0.8l-0.2-1.9
		l0.5-1.3l0,0l1.2,0.2v-0.4l0.6,0.1v-0.8l0.7-0.8l1.7,0.3l0,0l0.3,0.8l-0.2,0.8l0.3,0.3l0.5-0.4l-0.1,0.5l0.8,0.8l0.1-0.6l1.4,0.3
		l0.8,0.6l0.5-1.3l0,0l1.3-0.5l0.4-1.1l0.8,0.2l0.3-0.3l0.1,0.4l1-0.3l-0.1-2.8l-0.6-0.7l0.7-0.5l1.3-2.4l-0.3-0.1v-0.8l-0.7-0.2
		l-0.7-0.9l0.7-0.4l0.2-0.9l0.5-0.1l0.3,1.2l0.7-0.4l1.2,0.7l0.5,1.1l0.6,0.3l0.5-0.3l0.9,0.2l1.6-0.9l0.1-1l-0.4-0.5h0.7l0.4-0.7
		l0.6,0.1l0.5-0.4l-0.1-1.9l-0.9-1.9l0.2-0.8l-1.6-0.2l-0.2-0.5l-0.6,0.2l-0.6-0.9l0.2-1.1l-1.7,0.1l-1.3-1.1l0.4-0.2l0.4,0.8
		l0.8-0.4l1,0.3l0.1-0.6l1.5-0.1l0.2-1.8l1.1,0.1l1-0.7l0.1-2l0.3,0.2l1.4-0.5l0.3-1.2l0.8,0.7l0.4-0.3l1.7,0.1l0.1-0.4l0.4,0.3
		l1.4-0.6v-0.9l-0.4-0.5l-0.6,0.6l-0.6-0.3l-0.5,0.4l-0.4-0.5H174l-3.8,1.2l-0.7-2l-0.7-0.5l1.8-0.4l0.2-1.1l-1.2-1.2l0.2-0.5
		l-0.6-0.6L175,321.9z"/>
	<path id="IN-ML" class="st0" d="M458.4,251.5l2.7-1.2l-2.2-2.6l0.7-0.2l0.4-0.6l-0.2-1l1.1-0.4l0.2-0.4l-0.3-0.3l2.1-1.6l1.2,0.3
		l2.6-0.6l0.7-0.7l0.6-0.1l0.6,0.5l0.9-0.5l1,1.1l-0.4,1.2l1.3-1.3l0.8,0.4l-0.4,0.5l0.3,0.3l1.1-1l1.1-0.1l-0.1,0.8l0.7,0.1
		l0.6-0.9l0.5,0.3l0.8-0.3l0.7,0.8l-0.1-0.6l0.5-0.1l0.4,1.2h1.1l-0.5,1.3l0.9-0.5l0.5-0.1l-0.5,0.5l0.2,0.2l2.4-0.8l-0.3,1.6
		l0.2,0.9l0.6,0.1l0.9-0.5l1-1.8l1.5-0.3l0.5,0.3l1.5-0.6l0.1-0.3l-0.4,0.4l-0.6-0.1l1-1l-0.5,0.1l1.3-2.2l1,0.2l0.1,1.1l-0.5,0.5
		l1,0.7l0.9-1l0.2-2.1l1.6-1.2l1,0.4l-0.1,0.9l0.9,1.1l1.2-0.8l1.1,0.2l1.4-0.3l0.8-0.7l1.1,0.3l1-0.3l-2.5,2.7l0.1,0.7l1.1,0.1
		l-0.8,0.7l-0.5,1.1l0.1,2.8l1.2-0.9l1.9-0.2l0.9-0.6l0.9,0.4v0.8l0.6,0.2l0.7,1.2l1,0.2l0.3,1l0.5,0.1l0.9-0.7l-0.2,1.1l-1.4,1.4
		l0.6-0.1l0.2,1.1l0.8-0.4l0.1,0.5l0.2-0.1l0.8,0.8l0.3-0.1l0.4,0.9l0.4,0.1l0.1,0.9l-0.5,0.7l0.7,0.6l-2.5,0.8l-0.8,1.2l-1.7-0.4
		l0.3,0.8l-1.1-0.2l-0.4,1.4l-0.7,0.1l0,0l-1.4-0.4v-0.5l-2.1-0.4l-3-1.8l-5.1,0.4l-0.5-0.2l-0.2,0.6l-0.7-0.1l-1.1,0.7l-0.7-0.5
		l0.2-0.6l-2.6,0.8l-1-0.7h-1.4l-1.2-0.6l-3.4,0.1l-3.9,0.8l-1.5-0.6l-0.8,0.6l-0.8-0.3l-3.2-0.1l-1.2,0.6l-2-1l-4.1-0.7l-2.6-1.5
		l-2.5,0.1l0.2-0.3l-0.5-1.5l0.6-1.8l0,0l0.4-0.2L458.4,251.5z"/>
	<path id="IN-MN" class="st0" d="M523.4,256.2v0.6l0.6,0.1l-0.1,0.6l0.9-0.1l1,1l1.5-3.2h0.5l1.6-2.1l-0.1-0.7h-0.7l0.1-0.8l2.2-0.6
		l1.3,0.2l0.8-0.3l0.1-0.5l1.3,0.7l0.1,0.5l0.8,0.2l0.4-0.6l0.6,0.1l0.4,1l1.3-0.2l0.5,0.3l1.9-1l0.2-1l0.8-0.6l0.6,0.1l1.2-1.6
		l0.4,0.1l-0.4,0.9h0.3l-0.7,1.2v1.5l1.4,0.9l0.9,0.1l0,0l-0.2,0.9l-0.8,0.6l-0.8,3.4l2.9,1.6l-0.1,2.2l-0.7,0.9l0.3,0.7l-1.5,2
		l-0.5,2.4l-1.1,0.1l-0.4,1.7l-1.2,1.1l-0.6,1.6l-0.5,0.1v1.3l-0.7,0.4l0.3,0.4l-1,0.8v0.9l-1.2,2.5L537,281l-0.9,2.1l-0.5,0.1
		l-0.2,1.6l-0.7,0.2l-0.5-1l-2.6-1.1l-0.8-0.1l-1.6,0.5l-1.1-1.6l-2.5-0.1l-0.3,0.9l-0.7-0.4l-0.9,0.8l-0.8-0.5l-1-2.1l-1.1-0.4
		l-0.4,0.1l0.1,0.7l0,0h-0.9l-0.6,0.5l0.2-0.7l-0.3-0.5h-0.4l-0.1,0.7l-0.8-0.1l-0.4-0.7l-0.8,0.8l-0.4-1.1l-0.5,0.2l-1.4-0.5
		l0.8-1.9l-0.3-1.4l0.6-1.2l-0.4-0.1l0.1-0.9l-0.4-0.3l0,0l0.7-0.2l-0.1-1.7l0.7-1.3l-0.2-0.3l0.8-0.2l-0.6-0.2l0.5-1.6l-0.5-0.7
		l0.6-0.6v-1.3l0.2-0.2l0.5,0.6l0.8-0.4v-0.9l0.6-0.4l0.4-0.8l-0.2-0.4l0.4-0.2l-0.2-1.3l0.3-0.6h0.7l0.6-0.9l1-3L523.4,256.2z"/>
	<path id="IN-MP" class="st0" d="M248.3,225.7l0.9,0.3l0.4-0.9l1.2-0.2l0.7,1l0.7-0.1l0.4,0.7l2.1,0.8l1.7-0.2l1-0.6l0.1,0.4
		l0.3-0.3l0.5,0.6h0.8l1,1.2l0.7-0.2l0.8,0.3l-0.2,0.7l1-0.4l0.2,1.5l-0.5,0.7l0.2-0.2l0.1,0.6h0.4l0.7,1l-0.2,0.9l1.4,0.2l-0.2,0.6
		H264l-0.2,1.1l1,0.4l-0.3,0.2l0.2,0.4l-0.6,0.1l-0.2,0.8l-0.3-0.3l-0.5,0.4l0.4,0.7h-0.7l-0.1,0.7H262l0.4,0.8l-1,0.3l1.1,1.1
		l-1.1,0.9l-0.3,1.7l-1,0.7l0.1,0.9l-0.6,0.2l0.3,1.2l-0.9-0.6l-0.2,0.2l0.4,0.1v0.3l-1.3,1l1.2,1.5l-0.1,1l-2.3,0.6l-0.5,0.6
		l-0.7-0.5l-0.5,0.5l-1.7-0.4l-0.6,0.6l-0.5-0.2l-0.4,0.6l0.2,1.1l-0.8,0.6l-0.5-0.1l-0.3,1.1l-0.6,0.5l0.6,0.8l-0.4,0.5l0.7,0.3
		l0.2,1l0.8,0.6l-0.2,0.4l1.1,0.5l-0.5,0.3l0.4,0.5h-0.9l-1.2,0.8v1.8l-2.9,2.3v0.5l0.8,0.9l0.2,1.3l0.9,1.6l-0.2,2.1l-0.7,0.7
		l0.9,0.9v0.6l1.7,1.2l-0.6,1.1l1,1.1l1-0.4l1.3-1.9l1.3,0.7l1.6,2.2l0.5,0.2l0.6-0.4l0.2,0.3l0.3-0.4l0.6,1.5l0.4-0.6l1.2-0.3
		l0.5-1.5l1.1-1l0.3-1.7l-1.4-0.5l0.1-0.7l0.3,0.3l0.6-0.2l-1.5-2.8l-1.9,0.9l-0.5-0.2l-0.2-1.1l0.6-0.9l-0.1-1.8l0.3-0.4l-0.3-0.9
		l-1.7-0.8l-0.3-0.8l-0.6-0.4l0.4-1.9l-0.8-0.7l-0.5-3.2l-1.3-0.7l-0.8,0.5l-0.5-0.4l0.2-0.3l0.5,0.2l0.5-0.6l0.1,0.4h0.4l0.3-0.4
		l-0.3-0.7l0.9,0.2l-0.3-0.9l0.5,0.1l0.3-0.5l0.5,0.2l0.4-0.7l0.6-0.1l0.3,0.4l-0.6,0.5l-0.2-0.3v0.6l0.9,0.2l0.1,0.5l0.9-0.1
		l-0.4-1.1l1.3-0.4l-1-0.1l-0.5-0.6l0.1-0.7l0.4,0.5l1.3,0.2l0.3,0.2l-0.6,0.2l0.4,0.3l0.4-0.7l-0.5-0.9l0.9-0.3v-0.6h0.6l0.1,0.4
		l0.3-0.4l0.2,0.6l-0.5,0.2l0.3,0.8l-0.6,0.7l0.5,0.4l0.6-0.2l0.3,1.2l-0.9,0.5l-0.7-0.5h0.7l0.3-0.5l-1.3,0.2l-0.7,0.7l0.1,0.4
		l-0.9,0.3l-0.2,0.3h0.5l-0.1,0.6l0.7,0.8l0.6-2.3l0.9,0.3l0.5-0.4l0.3,1.3l-0.5,0.4l-0.6-0.2l-0.3,0.6l-0.3-0.2l-0.1,1.8l1.4-1.1
		l0.9,0.5v-0.7l-0.4-0.2l0.6-0.6l0.1,0.6l0.8,0.4l-0.6,0.8l-0.1,0.9l0.4,0.1l0.7-1.1l0.7,0.6l-0.2,0.4l0.4,0.7l0.9-0.1l-0.2-0.5
		l0.3-0.2l0.4,0.7l0.6-0.1l0.1-0.5l-0.5-0.2l0.4-0.2l0.4,0.2v0.6l0.8-0.2l0.2-0.4l-0.6-0.9l-0.1-1l1.1,0.9l0.3-0.3l-0.3-0.3l0.2-0.8
		l-0.5,0.2l-0.4-0.6l-0.5,0.4v-0.8l0.6-0.6l0.9,0.1l-0.3,0.8l0.4,0.6l0.3-0.6l0.9,0.7l0.8-0.5l0.6,0.3h-0.6l-0.6,0.9l0.3,0.2
		l-0.6,0.1l-0.5,0.8l0.3,1.1l0.3-0.5l0.3,0.6l0.7-0.5l-0.1,0.8l0.5,0.3l1.4-1.9l0.4,0.6l0.2-0.1l-0.1,0.5l2.7-0.2l2,0.9l-0.1-0.7
		l0.4-0.3l-0.4-1.8l1-0.3l0.2,0.5l0.5-0.8l1,0.1l0.4-1.5l1.1-0.3l0.7,0.3l1.2-0.9l0.1-0.6l0.9,0.2l0.2-0.5l1,0.8l-0.1,2l1.3,1
		l0.4-0.1l0.4,1.4l-1.3,0.6l-1.5,2.3l0.9,0.5l0.8-0.5l0.4,0.3l-0.3-0.9l1.3-0.5l0.5,0.7h0.4l0.1-0.9l-0.4-0.3h0.6l0.6,0.7l0.3-0.5
		l0.8,0.4l-0.2-1.6l0.7,0.6l-0.6,0.4l1,0.6l0.4-0.1l-0.1,0.5l1-0.3l0.9,0.2v-0.4l-0.9-0.3v-0.5l-0.5-0.3l1.8-0.2l0.5,0.7l0.2-1.6
		l0.8-0.1l0.5,0.7l-0.7,0.7l0.1,1l-0.8,0.6l0.4,0.8l-1,0.5l0.2,0.5l0.6,0.2l0.9-0.3l0,0l0.3,0.2v-0.3l0,0l0.7-0.3l0.3,0.9l1.1-0.1
		l-0.1-0.4h1.2l1,1.2l0.5-1.3l0.7,0.5l-0.3,0.1l0.5-0.1l-0.2-1.2l1.1-1.4l-0.3-0.7l0.4-1.2h0.7l0.1,1v-0.9l0.3-0.2l1.1,1l0.7-0.2
		l0.1,0.5l-0.7,0.1l1.5,0.6l0.4-0.6l-0.6-0.6l0.4-0.3l0.5,0.2l-0.3-0.9l1-0.2l0.3,0.5l0.7,0.2l-0.5,0.5l0.2,0.7l0.3-0.4l0.3,0.4
		l-0.7,0.5l0.2,0.4l1-0.4l0.4,0.7l0.9-0.1l1,0.8l0.7-0.2l1,0.5l0.2-0.3l0.2,1.6l-0.3,0.8l1.1,1.2l0.8-0.4l1.9,1.2h0.9l0.7-0.6
		l-0.3,0.4l0.5,0.5h-0.4l-0.3,0.8l0.7,0.2l-0.3-0.5h0.4v-0.3l0.3,0.2l0.1-0.4l-0.2,2.1l0.4,0.1l0.2-0.4l0.6,0.3v1.1l0.6-0.2l1.4,0.5
		l-0.1-1.7l0.6-0.4l0.3,0.6h1.3l0.2,0.5l2.3-1l0.7,0.5v0.6h1.2v0.9h0.7l0.1,0.9l-1,0.2l-0.6-0.3l0.1,0.8l0.4,0.3l-0.5,2.3l1,0.2
		l0.1,1.6l-0.3,1.1l-0.4,0.3L330,280l-0.9-0.4l-0.2,0.5l0.9,1.1l1,0.1l-0.4,1.1l1,0.3l0.2,0.8l0,0l-1.1,0.8l-1.7,0.3l-0.1,1
		l-1.2,0.7h-1.1l0.3,0.6l-0.5,0.2l-1-0.5l-2.4,0.2l-1.3-0.4l-0.5,0.3l-0.5-0.5l0.1-0.4l-0.7,0.6h-2.1l-0.8-0.8l-0.9,0.2l-0.6-0.4
		l-1.1,1l-1.3,0.2L312,286l0.1-0.4l-1.1-1.3l-0.9,0.4l-0.2,1l0.6,0.4l0.2,1.2l0.6,0.3l0.2,0.6l-0.8,1.2h-0.5l-0.2,1.2l-0.6,0.2
		l0.1,0.7l0.5,0.1v0.9l0.4,0.3l0.5-0.8l0.7,0.2l0.8-0.9l1.2,0.4l0.4,0.7l1.6-0.4l1.1,2.3l0.7-0.2v0.7l0.6,0.2l1-0.4l0.2,0.8l0.5-0.1
		l0.9,0.7l0.1,0.8l-0.8,1.1l0.2,1.7l-0.6,0.7l-0.9-0.3l-0.8,0.7h-1.5l-0.4,0.7l0.4,1.6l-1.4,0.8l-0.1,0.5l-1.6,0.3l-0.2,0.8l0.4,1.3
		l-0.7,0.8l0.3,1.2l-0.4,0.3l-0.3-0.5L312,309l-0.9,0.3l-0.1,1.2l-0.5,0.1l-0.1,0.5h-1.7L308,312h-0.8l0.2,0.5l-0.4-0.2l-0.5,0.7
		l-0.3-1.2l-1-0.4l-0.3,0.8l-0.5-0.3l-1,0.9l-0.7-0.7l-1.3,1l0.1,2.8l-0.5,0.9l-1.2,0.3l-0.1,1.9l-0.8,0.3l0.6,0.3l-0.1,0.7
		l-0.6,0.1l-0.2-1.1l-0.7-0.1l-1.2,3.1l-0.5,0.1l0.3,0.4l-0.1,2.5l-0.4,1.1l-1.2-0.2l-0.4,0.9l-0.2,2.4l0.4,2.2l-1.3,2.7l0,0
		l-1.1,0.1l-1.9-1.4l-0.7-0.1l-0.1,0.6l-0.7-0.1l-0.3-0.6l0.4-0.6l-0.7-1.6l-2-1.9l-1.3-0.3l-1.3,0.5l-0.9,1l-1.3,0.4l-1-0.4
		l-0.4,0.6l-1.1-0.1l-2.2-1.4l-1.5,0.9l-2,0.3l-0.9-2.5l-1.3-0.3l-0.4,0.3l-0.8-0.1l-2.2-0.9l-0.2,1.4l-1.3-0.2l-1.1,1.2h-1.4
		l-0.3-0.3l-1.5,0.5l0.3,0.6l-0.4,0.1l0.7,0.8l-0.2,0.5l-0.6-0.3l-0.3,0.3l-1.7-0.1l-0.2,0.4l-0.5-0.5l-0.5,0.6l-2.4-0.4l-0.3-0.6
		l-1-0.2l-1.4,0.5l-0.1-1.9l-0.8-0.3l-0.3,0.8l-0.4-0.2l-0.6,0.4l-0.7-0.4l0.1,0.5l-1.6,0.2l-0.2,1.2l-4.2,2.1l-1,0.2L242,333
		l-0.1,0.4l-0.8,0.1l-0.3,0.4l-0.5,0.1l-0.3-0.7l-0.4,0.5l-0.3-0.4h-0.9l0.1,0.5h-0.4l-1.8-0.3l-0.3-1.5l-0.6-0.3l-0.4-1.2l0.7-0.5
		l2,0.5l0.7-0.3l-0.7-0.4v-1.2l-0.5-1.4l-1.2-1.4l-3.4,0.2l-0.1,0.7l-1.1,0.1l-0.3,0.5l-0.6-0.6l-0.2,0.3l-1.5-0.2l-3.1,2.4
		l-0.9-0.3l-0.3,0.4l-0.7-0.1l-0.1,1.1l-0.4,0.3l0.5,0.6l-0.1,0.4l-2.9,2.5l0.7,1l-0.7,1.7l-2.4-0.1l-0.6,1.6l-1.4,0.7h-1.7
		l-0.4-0.4l-1.6,0.2l-1.1-1.5l1-0.1l0.1-0.3l-0.5-1l0.3-0.4l-1.1-2.2l-0.8,0.4l-1.5-0.8l-1.5-0.1l-3.9,0.4l-1.2-0.3l-1.1,0.4
		L200,333l-1.3,0.2l-0.7-0.4l-1.1,0.3v-0.5l-1.4,0.1l-1.9-0.9l-1-2l-2.8-1.3l-2,0.4l-4.2-1.4l-0.1-0.7l-0.7-0.2l-0.1-1.6l0.4-2
		l-0.6-0.9l-0.8-0.3v-1.1l-1,0.1l-0.6,0.8l-0.9,0.2l-0.2,0.6l-1.6,0.2l-1-0.5l0,0l0.1-0.6l-1-0.6l1.5-1.4l-0.5-0.4l-0.4,0.2
		l-0.1-2.2l-0.8-0.2l0.3-0.4l-0.6-0.8l0.2-1.4l0.7-0.2l0.4,0.8l1,0.2l0.3-0.9l0.4,0.2l0.6-0.8l0.7,0.1l-0.7-0.7l-0.9-0.1l-0.2-0.8
		l-0.1,0.7l-0.5,0.2l-0.3-0.5l-0.4,0.7l-0.4-0.9h-0.5l0.1-0.8l-0.8,0.3l-0.1-0.3l0.6-0.8l1.6,0.6l2-2.5h2.1l0.3-1.7l1.4-2.5
		l-1.9-1.6l-0.9,0.5l-0.7-0.7l-0.4-0.6l0.5-0.3l-0.9-1.6l0,0l1.2-1l2.2,0.5l0.6-0.8l1.1-0.2l1.1-1.1l0.8,0.1l0.5-0.3v-0.4l-0.9,0.2
		l0.5-0.4l-0.4-0.6l-1,0.2l-1.3-0.8l-0.3,0.4l-0.6-0.9l0.9-1l0.1-0.9l0.7-0.8l0.7-0.1l0.8-0.8l0.6,0.1l0.9-0.9l0.3,0.3l0.8-0.4
		l1.1-1.3l0.6-0.1l-0.6-1l0.6-1l-0.6-2.7l0.3-1.2l1.3-1.8l-2-3.6l0.4-0.4l-0.2-0.5l-0.4-0.4h-2.1l0.6-0.7l0.1-1.1l1.3-1.9l-0.7,0.1
		v-0.6l-0.7,0.2l-1.2-0.5l0.8-0.9l-0.2-0.8l0.8-0.3l-0.1-0.5l0.6-0.7l-0.8-0.3l0.4-2.1l1.7,2.8l0.9-0.1l0.3-0.8l0.7-0.2l-0.1-0.9
		h0.5l-0.2-0.9l-1.6,0.2l-1.1-0.5l-0.2,0.4l0.1-1.2l-0.6-1.5l0.4-0.9l0.4,0.7l0.3-0.3l0.5,0.4l0.1,0.7l2.2,0.6l0.2-0.4l1.1-0.1
		l0.2-1.6l0.9-0.5l-0.1-1.1l3.4,0.1l0.1,0.3l-0.6,0.4l0.3,0.9l-0.4,1.2l-0.7-1.5l-0.2,0.3l0.5,0.8l-0.6,0.7l0.9,0.4l0.3-0.3l1.8-0.1
		l-0.1,0.6l-2,1l-0.5-0.8l-0.9-0.1l0.4-0.7l-0.5,0.1l-0.3-0.4l-0.1,0.5l0.9,0.9l-0.8,0.5l-0.4,0.8l0.6,0.9l0.9-0.2l3.3,0.8l2.3-0.6
		l0.6,0.7l2.6-1.5l1.4,0.7l-0.2,1.2l0.4,0.4l-0.4,0.8l0.2,0.3l0.5-0.3l1,0.8l-0.2,0.4l0.3,0.4l-0.6,0.2l0.4,0.3l-0.1,0.7l-1.1,0.7
		l-1-1.1l-0.8,0.9l0.1,0.4l-0.5,0.1l0.2,1.1l0.5,0.7l0.8,0.1l0.3,1.1l-1,0.5l-0.5,1.6h0.6l0.2,0.6h0.8v0.7l-1,0.3l-0.3,1.3l-1.1,0.6
		l-0.6-1.3l-0.6,0.7l-0.9,0.2l-0.3-0.6l-0.9-0.5l-0.9,1.3l-0.1,1.2l1.9,1.2l0.3,0.4l-0.4,0.3l0.5,0.5h1.2l0.6,0.8l0.1-1.1h0.5
		l0.2-0.8l-0.6-0.4l0.1-0.5l0.9,0.3l0.5,0.7l0.3-0.4l1.2-0.4l0.3,0.2l1.8-0.9l-0.3-1.8l1.6-1l1.6-0.4l-0.2-2l0.6-0.9l-0.2-0.8
		l0.8-0.9l0.4,0.4l-0.2,0.5l0.4,1.3h1.2l0.8-0.7l1.6,0.9l0.2-0.4l0.5,0.2l0.3-0.3l1.1,1.3l0.9-0.3l-0.3-0.4l0.6-0.6l-0.2-0.4
		l0.5,0.1v-0.4l1.4-0.4l0.2,0.7l-0.5,1.1l0.5,0.4h1l0.8,1l1-0.4l0.8,0.2l0.3-1.1l0.5-0.3l-1.3-1.3l-0.6-1.3l0.2-2.6l-0.7-1.3
		l0.9-0.3l0.2,0.5l0.6-0.4v1.1l0.9,0.5l0.7-0.3l0.5-1h0.3l0.3-0.9l-0.1-1.4l-0.6-1.4l-1-0.4l-0.4-0.7l-0.8,0.4l-1.1-0.1l-0.8-1.4
		l0.5-0.4l1.7-0.2l0.4-0.5l-0.6-0.3l0.1-0.6l-0.5-0.1l-0.7-1.8l2.5-1.4l1.5,0.4l0.7-0.2l1-0.9l1.7-0.1l0.7,0.7l1.7-0.6l-0.1-1.5
		l0.5-0.1l-0.2-0.7l-1-0.9l0.4-1l-0.6-0.1l0.4-1.7l-1-0.5l-0.4,0.3l-1.1,1l-0.3,1.2l-2.3-0.6l-0.9,0.8l-1.2,0.1l-0.3,0.4l-0.9-0.9
		l-0.9-0.2l-1.3,0.4l-0.1-0.5l-1.5-0.2l-1.4-0.9l-0.2-0.8l-0.4-0.2l-0.8-1.7l-0.2-2.8l-0.6-0.4l0.1-0.5l0.9-0.3v-1.3l1.1-1.5
		l0.6,0.1l0.4-0.8l1.6,0.1l0.5-0.4l-0.1-0.4l0.9-0.2l0.6-1.2l-0.2-0.4l1-1.3l1.8-0.8l0.9-1l1-0.2l0.6-0.9h1.4l1.6-1.2l0.8-1.2
		l1.8-0.2l-0.1-0.8l1.7-0.2l2.6-1.9l0.8,0.1l0.5-0.8l1.2-0.2l0.1-0.9l1.1-0.4l0.3-0.8l1-0.1l0.8-0.8l1.7,0.4l0.1-1.1l0.5-0.3
		l-0.3-0.9l1.4,0.1l-0.3-0.7L248.3,225.7z"/>
	<path id="IN-MZ" class="st0" d="M502.1,277.1h2.3l0.3,2l0.8,0.2l0.1-0.4l0.8-0.3l0.3-1.3l1.1-0.1l0.2-1.6l1.2-0.4l1.3-3.3l1.1,2.8
		l0.6-0.4l0.8,0.1l0.1-0.4l0.4,0.3l1.2-0.2l0,0l0.4,0.3l-0.1,0.9l0.4,0.1l-0.6,1.2l0.3,1.4l-0.8,1.9l1.4,0.5l0.5-0.2l0.4,1.1
		l0.8-0.8l0.4,0.7l0.8,0.1l0.1-0.7h0.4l0.3,0.5l-0.2,0.7l0.6-0.5h0.9l0,0l-0.1,1.3l1.2,1.1l0.1,3.3l0.7,1.6l-0.9,4.9l0.3,0.9
		l-0.9,0.7l0.5,2.5l-0.4,1.4l0.4,0.2l-1.7,2.6h-0.8l-1.1-1l-1.1,0.2l-0.1,0.9l0.7,1.6l-0.5,0.1l-0.4,1.9l-0.3,0.1l0.2,1.3l-0.4,0.7
		l0.9,2.1l-0.6,1.3l0.4,0.2l0.2,1.1l0.9,0.7l0.3,3.2l-1.1,0.3l0.4,0.9l-0.3,0.4l-1.4-0.6l-0.5,0.2l0.3,1.8h-0.9l-0.1,2.3h-0.4
		l-0.6-0.9l-0.4,0.2l-0.4,1.4l-0.8-2.3h-0.4l-2.3-1.7l-0.3,0.1l-0.3,2.5l-1.3,0.8l-0.1-1.6l-0.6-1.4l0.3-0.2l0.4,0.4l0.1-1l-1.5-7.5
		v-1.8l-0.4-1.6l-0.5-0.3l-0.5-1.4l-0.2-1.4l-0.3,0.1l-0.2-0.6l-0.8-0.3l0.3-2.4l-0.5-0.9l-0.1-2.6l0.9-0.2l-0.6-1.5l0.1-0.8l-1-2.2
		l-0.4-3l-0.3-0.1l0.2-1.2l-0.5-0.7l0,0l-0.2-1.7h0.5l-0.2-0.6l0.3-0.4l0.5,0.1l0.2-0.9l-0.4-1l0.3-0.6l-0.3-0.9l0.4-2.2
		L502.1,277.1z"/>
	<path id="IN-NL" class="st0" d="M554.4,221.6l0.7,3.1l-0.9,0.5l0.4,0.3l0.1,1.1l0.5,0.2l-0.5,1l0.4,1l0,0l-1.5,1.3v0.8l-1.6,2.4
		l0.7,0.6v0.6l0.6,0.3l-0.3,3l0.4,0.5l-0.4,0.9v1.2l1.2,0.6l-1.4,2.2l-1.3,0.7l-0.3,0.5l-0.1,0.7l0.7,2.2l-2.1,1.9l-0.3,1.2
		l-0.6,0.4l0.3,0.5l-1,0.1l-0.7,1.3l-2.3,0.7l0,0l-0.9-0.1l-1.4-0.9v-1.5l0.7-1.2h-0.3l0.4-0.9l-0.4-0.1l-1.2,1.6l-0.6-0.1l-0.8,0.6
		l-0.2,1l-1.9,1l-0.5-0.3l-1.3,0.2l-0.4-1l-0.6-0.1l-0.4,0.6l-0.8-0.2l-0.1-0.5l-1.3-0.7l-0.1,0.5l-0.8,0.3l-1.3-0.2l-2.2,0.6
		l-0.1,0.8h0.7l0.1,0.7l-1.6,2.1h-0.5l-1.5,3.2l-1-1l-0.9,0.1l0.1-0.6l-0.6-0.1v-0.6l0,0l-0.4-0.7l0.5-0.7l-0.3-1.1l-1.2-0.6
		l-1.2-1.6l1.7-1.7l1.3-0.5l1.3-2.1l2.4-1.7l-0.3-1.2l1.2-0.5l0.4-0.6l0.5,1.1L529,246l0.3,0.6l0.8-1l0.7,0.3l0.6-0.8l1.1-0.6
		l-0.4-1.7l0.7-1.3l0.2-2l1.9-3.1l1.2-0.4l0.2-2.3l1.6-2l0.2-0.1l0.1,1.7l0.4,0.4l0.6-0.9l0.9-0.5l0.2-1.6l1-0.4l0.1-0.7l1.4-0.8
		l0.5,0.4l0.5-1l0.4,0.4l1.1-0.3l2.1-1.5l1.5-2.5l0.8-0.4l1,0.7l0.6-0.1l1.6-0.8L554.4,221.6z"/>
	<path id="IN-OR" class="st0" d="M404.4,344.6h2.2l0.2,1.1l-1.2,0.1l0,0l-1.6,1.1l-0.3-0.4l0,0l-0.6,0.1l0.4,0.5l-0.8-0.1l0.9-2.2
		L404.4,344.6z M352.7,310.9l2.4,1l0.3,1.4l0.8,0.6h0.9l0.8,0.7l2.5-0.2l0.4-0.6l0.5-0.1v-0.4l0.9-0.3l3.9,0.1l0.2-0.5l1-0.1
		l0.4,0.4l0.8-0.3l0.3,0.5l1-0.6l0.1,0.2l1.9-0.8l0.2,2.5l0.3,0.1l-0.1,0.5h0.5v0.5l-0.8,0.4l-0.8,3.1l-0.8,0.5l0.4,0.1l0.8-0.6
		l0.9,0.2l0.4,0.6l0.7-0.1l0.3,0.4v-0.4l0.7,0.5l0.4,0.8l1.2-2.1l0.4-0.3l0.6,0.1l0.1-0.7l0.6-0.1l2.6,1.4l0.9,0.2l1-0.3l0.7,0.8
		l2.2-1.2l0.5,0.7h-0.8l-0.5,1.7l2.6,0.4l0.1-0.7l0.5-0.3l1-1.7l0.5-1.5l-1-1.1l1.3-1.2l-0.6-0.1l0.2-0.4l-0.5-0.2l0.5-0.7l-0.2-1
		l-1-0.6l0.3-0.8l1-0.4l0.3-0.8l1.2,1.5l3.1,0.8l1.3,1.9l1.5,0.8l0.1-0.4l1.1-0.3l0.6,0.8h0.8l0.2,0.4l1,0.3l0.1,0.5l1.3,0.3l0,0
		l-0.1,1.4l1.3-0.2l0.8,1.1l2.3,0.2l1.1,0.8l0.3,1l-0.7,1.6l0.6,0.8l1.2,0.1v-0.9l1.2-0.4l0.2-0.8l1.2,0.4l0.5,2.7l1.6,0.5l0.3,0.5
		h1.3v0.6l0.5,0.4l-0.2,1.2l0.4,0.7l0,0l-1.8,1.2l-3.2-0.1l-1.6,0.8l-2.4,1.9l-1.6,1.8l-1.3,2.4v1.1l2.6,6.1l-0.2,0.7l-1.4-0.2
		l-1,0.5l-1,2.4l0.8,0.1l-0.4-0.5l0.6-0.1l0,0l0.3,0.4l1.6-1.1l0,0l1.2,0.3l0.8-0.3l-4.7,3.3l-1,2.5l0.9,0.3v0.9l-1.8,1.6l-2.3,1
		l-2.6,3.3l-0.4,1.1l-0.8-0.2l-0.9-1.4l-0.8,0.1l-0.2,0.5h1.1l1.2,1.3l-12.6,4.1l-5,2.5l-4.4,3.1l-1.4,1.5l-2.7,2l-1.6,1.6l-1.1,1.9
		l-0.8-0.5l0,0l-0.5-0.4l0.1-0.6l-0.7-0.1l-0.1,0.7h-1.2l0.5,0.9l0.6-0.1v0.5h-0.8L363,378l-0.4-1l-1.4,0.8l-0.3,0.8l-1-0.6l0.5,0.9
		l-0.5,0.5l0.2,0.5l-0.6,0.5l-0.6-0.2l0.4,0.4l-0.7-0.1l0.4,0.3l-0.2,0.3l-0.5-0.3l-0.1,1.4l-3.3,0.3l-0.5,0.5l-0.7,0.1l-1-1.1
		l-1.6,0.1l-1.3-0.4l-1.5-3.6l-0.9,0.6l0.7,1.3l-0.6-0.2l-0.7-1.3l0.3-0.5l-0.5-0.1l-1.3-2.6l-0.5,0.6l0.2,0.6l-0.5,0.7l-0.6-0.5
		l-0.3,1.3l-0.6-0.1v-0.3h0.4l-0.1-0.8l-0.2,0.2l-0.4-0.5l-0.3,0.2l0.3,0.9l-0.1,0.4h-0.5l0.1,1l-0.8-1l-1.1-0.3l-0.7,0.4l0.4,1.4
		l0.3-0.8l0.6,0.6l-0.6-0.1l1.2,1.3l-0.3,0.5h-0.7v0.6l-1.4,0.2l-0.2,0.6l-0.8-0.2l-0.3,0.9l-0.1-0.5l-1.2-0.6l-1.5,2.2l-0.7,0.3
		l-0.1,1h0.8l-0.5,0.4l0.1,0.4l1,0.2l-1.3,1.8l0.4,0.5l0.4-0.2l-0.1,1l-0.7-0.2l-1.5,0.6l-0.7-0.3l-0.1-0.9l-0.7,0.1l-0.8-0.6
		l-0.4,0.4l0.3,0.5l-0.5,1.2l-2,0.8l-0.6,1.1l-0.8-0.8l-0.1-0.7l0.6-0.7l-0.2-0.4l-1.2-0.4l0.3-0.9l-0.4,0.1l-0.1-1.3H325l-0.5-0.7
		l-2,2.4l0.4,0.8l-0.9,1l1.1,0.2l-0.4,0.6l-0.6,0.1l-0.1,1l-0.5,0.4l1.1,1.1l-0.1,0.3l-0.4-0.3L322,396l-0.4,0.1l-0.1-0.5l-0.6,0.3
		v1.2l-0.5,0.1l-1.2-0.6l-0.3-0.6l-2.4-0.3l-1.3,1.2l-2.7,1.1l-0.8,0.8l0,0l-1,0.6l-0.3-0.4l-0.5,0.1l-0.9,1.2l-0.8-0.2l-1.6,0.5
		l-0.4-0.4l-1.3,0.3l0,0l0.2-1.5l0.8,0.2l0.7-1.8l-0.1-1.1l0.6-1.2l0.3-1.2l-0.3-0.5l0.4-1.4l1.2-0.8l1.2-0.2v-0.5l1.6-0.1l0.3-1.2
		l1.7-1.9l0.7-0.3l0.2-0.7l0.7,0.1l0.1-0.5l-1.2-0.6l0.5-0.3l1.1,0.4l0.4-1.2l1.2-0.5l0.8,0.1l0.1-0.8h0.9l0.6-0.6l0.2-2l1.2-0.3
		l-0.3-2l-0.6-0.9l0.3-0.6l-0.2-0.5l-0.7-0.1l0.3-0.6l-0.5-2l0.6-1l-0.8-0.8l0.5-0.1l0.3-1l-1.1-0.1l-0.5-1.6L317,369l0.4-0.7
		l-0.2-3.1l0.4-1.5l-1.4-0.2l-0.4-1.1l-2-1l-0.2-0.8l0.5-1.6l1.3-1.3l1.5,1.8l0.6-0.8l2.2,1.4l0.9-0.4l2,3.2l0.9-1l1-0.4l2.7,0.7
		l-0.4,0.8l0.2,1l1.1-1l1-0.1l0.3-0.8l-0.3-0.4l0.1-1.8l-1.4-0.2l-0.6,0.3l-3.7-1.4l-0.2-1.6l0.6-1.1l-0.2-1.2l0.4-0.4l-0.6-1
		l0.6-1.7l-0.3-0.9l-0.4,0.4l-0.1-1.1l-1-0.8l0.8-1.3l-0.6-2.6l0.2-2.4l1,0.4l0.3,0.7l0.8,0.1l0.5-1.5l1.2-0.7l1.2-1.8l-0.2-0.7
		l0.6-0.6l-0.2-0.9l2.1-0.2l0.7,0.4l0.4-0.4l1.2,0.2l1.4-0.5l1.5,1.1l1.4,0.3l1.3-0.7l0.5-2.4l1-0.5l-0.4-0.5l0.3-1.2l1.9,0.7
		l0.5-0.2l-0.2-1l-0.8-0.9l-0.3-1l0.8-2.3l1.1-0.7l0.2,0.9l0.6-0.4l-1.2-1l1.2-1.3l-0.3-0.8l0.4-0.6l0.8,0.4l-0.1-0.7l1-0.2
		l-0.2-0.5l0.5-0.8l-0.8-0.4l-0.3-0.6l0.1-1.8l1.1-0.2l-0.7-0.7l1.6-2.3l0.9-0.4l1.1,0.1l2-2l2.6-0.5l0.7-1.9l-1.2-0.7l0.1-0.4
		L352.7,310.9z"/>
	<path id="IN-PB" class="st0" d="M206.1,107.1l-0.4,1.5l1.5,1.9l-1.6,0.8l-1.9,2.2l-2.1,0.8v1l0.8,0.4l-1.5,1.8l0.4,0.3l0.9-0.2
		l0.7,0.3l1.7,1.4l2,0.9l1.4,2.9l-0.9-0.1l1.5,3.6l2.7,4.9l-0.3,1.1l0.6,0.4l0.1,0.7l2.2-0.3v-0.5l0.7-0.2l-0.4-1l0.8-0.3l0.1-0.5
		l0.3,1.1l1.2,1.8l-0.3,0.5l0.6-0.6l0.4,0.8l0.5-0.2l0.1,0.4l0.3-0.5v0.6l0.6-0.5l0.6,0.6l-0.4,0.7l0.8-0.2l0.2,0.3l-0.8,0.6v1.2
		l0.7,0.4l-0.5,1.2l0.2,1l1.8,0.9l1,1.2l0,0v0.6l1.1,0.9l0.3,0.8l-0.3,0.6l0,0l-0.6-0.1l0.1-0.4l-0.5,0.2l-0.2-0.5l-1.2,0.8l0.6,1.3
		l1.2,0.6l0.5-0.3l0,0l0.3,0.6l0.5-0.5l-0.1,0.8l1,0.9l-0.5,1.2l0.6,0.5l-0.6,0.7v0.9l0.7,1.1l-0.8,0.6v-0.6l-0.9-1l-0.4,0.5
		l-0.9-0.6l-1,0.9l0.2,0.6l0.5,0.1l-0.4,0.6l-0.7,0.1l-1.2,1.1l-1.1,0.1l-0.3,0.8l0.9-0.6l0.5,0.5l-0.1,0.3l0.6,0.2l-0.2,2.1
		l-0.5,0.5l-0.4,0.1l-0.4-0.5l-1,0.5l-0.2-0.4l-0.7-0.1l-0.8-2.1l-0.5,0.4l0.4,0.5l-0.2,0.6l-1.2-0.5l0.4,0.4l-0.5,0.4l-1.3-0.2
		l-0.9-0.8l0.1,0.5h-0.4l1.2,0.6l-1,1.4l0.3,0.2l-0.4,0.2l0.2,1.5l-0.7,0.3l0.3,0.8l1,0.4l-2.3,1.5l-0.7-0.2l-0.8,1.2l-0.3-0.2
		l-1,0.5l-1.5-0.3l-0.9-1.3l-0.6,0.1l-0.4-0.4l-1.2,0.3l-0.2,1.1l-1.3-0.4l-0.2,0.6l-0.8,0.1l-0.2-0.5l-0.8,0.1l-1.2-1l-1.2,2
		l-0.8,0.4l0.3,0.7l-0.6-0.2l-0.7,1.3l0.4,0.4l-0.2,0.4l-1.3,0.5v-1.2l-0.9-0.5l-0.3-0.7l0.7-0.5v-0.8l0.7-0.6l-0.9-1.8l-0.5,0.4
		v0.8l-1.2-0.5l0.3-0.4l-0.5-0.5l0.4-0.5l-0.4-0.9l-0.3,0.7l-1.4,0.5l-1.3-1.9l-0.5,0.2l-0.1-0.6l-0.6,0.2l-0.9-0.7l-1.4,0.6
		l-0.6-0.2l-0.9,1l0.1,0.4l-2.3-0.8l0,0l-11.3-0.6l0.1-1.6l1.3-1.5v-1.5l0,0l-0.2-1.4l-1.6-2.2l0.6-1l0.4-0.1l0.1-0.9l0.5,0.1
		l0.4-0.9l0.9-0.7l0.8,0.1l-0.2-0.5l0.4-0.4v-0.8l0.3,0.1l0.2-0.6h0.6l1.5-1.8l0.9-0.2l-0.4-0.8l0.6-0.3l-0.2-0.4l0.5-1h0.8V142
		l0.9-0.4l1-1.3l1.2-0.6l0.4-1.5l1.2,0.4l0.9-0.3l0.4-0.7l-0.3-0.7l-0.8,0.2l-0.2-0.3l-0.5,0.1l-0.1,0.8l-0.6,0.2l-0.2-0.8l-0.7-0.4
		l0.1-2.8l0.7-0.5l1.6-3.4l-0.3-0.6l-1.1-0.3l0.7-0.7l-0.1-0.7l-1.5-3.3v-0.5l0.6-0.2l0.1-1.6l0.8-1.2l0.4,0.1l0.7-0.8l0.8-0.1
		l0.1-0.7l0.5,0.4l0.2-0.3l1.1-0.1l0.2-0.9l0.8-0.6l0.1-0.6l1-0.3l1.4,0.8l2-1.1l0.9,0.3l0.6-1l0.8,0.6l2.2-3.1l0.1-0.7l-0.8-1.5
		l0,0l1.7,0.3l1-0.3l-0.1,0.5l0.4,0.2l0.2,0.7l0.5-1.5l3.3-1.5l0.6-1.2l1.1-0.2L206.1,107.1z"/>
	<path id="IN-PY" class="st0" d="M277.8,530.2h-0.7l-0.1-1l-1.5-0.5l-0.4-1l0.8,0.2l-0.2-0.8l0.9,0.4l0.3-0.3l1,0.2l0,0L277.8,530.2
		z M276.9,512.1l-0.3-0.6l-0.5,0.3v-0.7l-0.8,0.4l-0.8-0.5l0.4-0.7l0.6,0.5l0.2-0.3l-0.3-0.7l-0.5-0.1l0.4-0.6l-1-0.3l0.6-0.6
		l0.5,0.8l0.5-0.3l0.3,0.3l-0.7,0.2l0.4,1.1l1.1-1l0.7,0.4l0,0L276.9,512.1z M321.2,421.8l-1.5-0.7l0.8-0.5v0.6l1.1-0.1l0.2-0.4
		l0.1,0.5l0,0l0,0l0,0l0,0l0,0l-0.9,0.1L321.2,421.8z"/>
	<path id="IN-RJ" class="st0" d="M171.8,157.2v1.5l-1.3,1.5l-0.1,1.6l11.3,0.6l0,0l-0.3,0.7l0.5,0.1l0.4,0.8l-1.6,1.6l0.1,0.9l1,0.1
		l1.1-0.6l0.3,0.3l-0.7,3.9l0.9,0.7l-0.6,1.4l-0.7-0.2l-0.2,0.4v0.5l0.5,0.1l0.7,1.2v0.7l0.8-0.1l0.2-0.8l1.9,0.3l1.5-1l1.6,0.8
		l0.5,1.7l0.7,0.2l0.9-0.3l0.7,1.1l0.5,0.1l1.3-0.9l0.8,0.7l1.7-1.2l-0.1,1.2l0.5,0.2l0.2-0.6l0.7-0.2l0.1,1.5l-0.7,1l0.6,0.3
		l-0.3,1.2l0.9,0.1l0.1,1l1.4,0.1l0.1,0.7l-0.9,1l0.8,1.8l-0.3,1l0.5,0.8l0.5,2.8l1.1,0.3l0.2,1.1l2.7,1.8l-0.1,1l2.1,0.3l0.6,0.5
		l0.6,1l1.2,0.8l-0.1,0.8l0.8,0.4l-0.1,0.4l0.9,1l-0.5,0.2v-0.5l-0.7-0.1l-1.7,1.6l0.8,0.3v0.6l0.6-0.8l0.4,0.3l-0.5,0.4l0.1,0.4
		l-0.7,0.1l0.4,0.4l-0.6,0.2l0.5,0.3l-0.4,1l-0.4-0.3l-0.3,0.4l0.1,0.3l0.9,0.2l-0.3,0.9l1.6,0.3l0.7-0.4l1.5,1.2l0.9-0.7l-0.5-0.5
		l0.1-0.7l-0.6-0.3l0.2-1.2l-0.4-0.5l1.1-0.7l-0.7-0.6l1.3-0.2l0.6,0.2l0.3,0.7l0.8-0.2l0.2-0.8l-1-0.5l1-0.6l-1.4-1h1l0.7,0.8
		l1.7-0.3l0.5,1l-0.7-0.1l-0.2,0.4l0.9,0.6l-0.8,0.3l1.5,0.2v1.4l1.1-0.8l1.1-0.2l-0.2-1.6l2.5-1.2l0.2-1.1l0.9-0.3l2,1.7l-0.8,3
		v1.5l0.4,0.1l-0.2,1.7h-0.4l-0.4,2.1l0.5,0.6h-0.6l0.4,0.8l0.6-0.3l0.7,0.4l0.4-1.7l1.5,0.1l-0.2-0.5l-0.8-0.3l0.3-0.9l1.6,0.9
		l0.4-0.3v-0.5l0.5,0.1l-0.2,0.5l0.5-0.8l0.7,0.7l0.6-0.6l0.2,0.2l0,0l0.5,0.4l-0.1,1.4l0.7,0.5l0.1,0.9l-0.6,0.8l0.7,0.4l-0.4,0.5
		l0.1,0.8l0.9,0.3l0.3,0.8l0.6,0.3l-0.3,0.7l0.3,0.5l1.2,0.4l1.4,1.1l0.7-0.3l-0.4,0.9l0.9,1.2l-0.1,0.4l0.6,0.3l-0.3,0.5l-0.9,0.1
		l-0.3,0.9l-1.7,0.6l0.4,0.6l0.8-0.2l-0.1,0.8l1.3,0.4l0.8-0.7l0.5,1h0.3l0.1-0.6l0.5,0.2l-0.3,0.7l-1.6,0.3l-4.1,2.1l0.3,1l-0.2,1
		h0.6l-0.3,0.5l0.8-0.4l-0.2-0.4l0.3-1.2l0.4,0.5l1.5-0.2l2-1l0.1-0.7l0.6-0.4l2.5,1l0.2-0.7l0.8,0.5l1.2-0.2l0.3,1l0.5-0.3
		l-0.1-0.8l1.1,0.2l0.2-1l1.7,0.3l0.2-0.3l0.8,0.6l-0.6,0.8l-0.6-0.1l0.3,1.1l0,0l-0.9,0.2l0.3,0.7l-1.4-0.1l0.3,0.9l-0.5,0.3
		l-0.1,1.1l-1.7-0.4l-0.8,0.8l-1,0.1l-0.3,0.8l-1.1,0.4l-0.1,0.9l-1.2,0.2l-0.5,0.8l-0.8-0.1l-2.6,1.9l-1.7,0.2l0.1,0.8l-1.8,0.2
		l-0.8,1.2l-1.6,1.2h-1.4l-0.6,0.9l-1,0.2l-0.9,1l-1.8,0.8l-1,1.3l0.2,0.4l-0.6,1.2l-0.9,0.2l0.1,0.4l-0.5,0.4l-1.6-0.1l-0.4,0.8
		l-0.6-0.1l-1.1,1.5v1.3l-0.9,0.3l-0.1,0.5l0.6,0.4l0.2,2.8l0.8,1.7l0.4,0.2l0.2,0.8l1.4,0.9l1.5,0.2l0.1,0.5l1.3-0.4l0.9,0.2
		l0.9,0.9l0.3-0.4l1.2-0.1l0.9-0.8l2.3,0.6l0.3-1.2l1.1-1l0.4-0.3l1,0.5l-0.4,1.7l0.6,0.1l-0.4,1l1,0.9l0.2,0.7l-0.5,0.1l0.1,1.5
		l-1.7,0.6l-0.7-0.7l-1.7,0.1l-1,0.9l-0.7,0.2l-1.5-0.4l-2.5,1.4l0.7,1.8l0.5,0.1l-0.1,0.6l0.6,0.3l-0.4,0.5l-1.7,0.2l-0.5,0.4
		l0.8,1.4l1.1,0.1l0.8-0.4l0.4,0.7l1,0.4l0.6,1.4l0.1,1.4l-0.3,0.9H227l-0.5,1l-0.7,0.3l-0.9-0.5v-1.1l-0.6,0.4l-0.2-0.5l-0.9,0.3
		l0.7,1.3l-0.2,2.6l0.6,1.3l1.3,1.3l-0.5,0.3l-0.3,1.1l-0.8-0.2l-1,0.4l-0.8-1h-1l-0.5-0.4l0.5-1.1L221,277l-1.4,0.4v0.4l-0.5-0.1
		l0.2,0.4l-0.6,0.6l0.3,0.4l-0.9,0.3l-1.1-1.3l-0.3,0.3l-0.5-0.2l-0.2,0.4l-1.6-0.9l-0.8,0.7h-1.2l-0.4-1.3l0.2-0.5l-0.4-0.4
		l-0.8,0.9l0.2,0.8l-0.6,0.9l0.2,2l-1.6,0.4l-1.6,1l0.3,1.8l-1.8,0.9l-0.3-0.2l-1.2,0.4l-0.3,0.4l-0.5-0.7l-0.9-0.3l-0.1,0.5
		l0.6,0.4l-0.2,0.8h-0.5l-0.1,1.1l-0.6-0.8h-1.2l-0.5-0.5l0.4-0.3l-0.3-0.4l-1.9-1.2l0.1-1.2l0.9-1.3l0.9,0.5l0.3,0.6l0.9-0.2
		l0.6-0.7l0.6,1.3l1.1-0.6l0.3-1.3l1-0.3v-0.7h-0.8l-0.2-0.6h-0.6l0.5-1.6l1-0.5l-0.3-1.1l-0.8-0.1l-0.5-0.7l-0.2-1.1l0.5-0.1
		l-0.1-0.4l0.8-0.9l1,1.1l1.1-0.7l0.1-0.7l-0.2-0.8l0.6-0.5l-0.3-0.4l0.2-0.4l-1-0.8l-0.5,0.3l-0.2-0.3l0.4-0.8l-0.4-0.4l0.2-1.2
		l-1.4-0.7l-2.6,1.5l-0.6-0.7l-2.3,0.6l-3.3-0.8l-0.9,0.2l-0.6-0.9l0.4-0.8l0.8-0.5l-0.9-0.9l0.1-0.5l0.3,0.4l0.5-0.1l-0.4,0.7
		l0.9,0.1l0.5,0.8l2-1l0.1-0.6l-1.8,0.1l-0.3,0.3l-0.9-0.4l0.6-0.7l-0.5-0.8l0.2-0.3l0.7,1.5l0.4-1.2l-0.3-0.9l0.6-0.4l-0.1-0.3
		l-3.4-0.1l0.1,1.1l-0.9,0.8l0.1,1.5l-1.1,0.1l-0.2,0.4l-2.2-0.6l-0.1-0.7l-0.5-0.4l-0.3,0.3l-0.4-0.7l-0.4,0.9l0.6,1.5l-0.1,1.2
		l0.2-0.4l1.1,0.5l1.6-0.2l0.2,0.9h-0.5l0.1,0.9l-0.7,0.2l-0.3,0.8l-0.9,0.1l-1.7-2.8l-0.4,2.1l0.8,0.3l-0.6,0.7l0.1,0.5l-0.8,0.3
		l0.2,0.8l-0.8,0.9l1.2,0.5l0.7-0.2v0.6l0.7-0.1l-1.3,1.9l-0.1,1.1l-0.6,0.7h2.1l0.4,0.4l0.2,0.5l-0.4,0.4l2,3.6l-1.3,1.8l-0.3,1.2
		l0.6,2.7l-0.6,1l0.6,1l-0.6,0.1l-1.1,1.3l-0.8,0.4l-0.3-0.3l-0.9,0.9l-0.6-0.1l-0.8,0.8l-0.7,0.1l-0.7,0.8l-0.1,0.9l-0.9,1l0.6,0.9
		l0.3-0.4l1.3,0.8l1-0.2l0.4,0.6l-0.5,0.4l0.9-0.2v0.4l-0.5,0.3l-0.8-0.1l-1.1,1.1l-1.1,0.2l-0.6,0.8l-2.2-0.5l-1.2,1l0,0l-0.7-0.6
		l0.1-0.5l-0.8-1.4l-0.7-0.1l-0.4,0.8l-1-0.5l0.1-1.8l-0.6-0.5h-1l-0.2-0.7l-0.8-0.1L172,294l-0.4,0.1l-0.2,0.6l-0.9,0.3l-1.1-2.1
		l-0.9,0.2l-0.3-0.5l-0.7,0.9l-0.4-0.8l-0.9,0.3l-0.4-0.2l0.5-1l-0.4-0.9l0.4-1.5l-1.5-0.6l-1.1,0.8l-0.1-1.7l-0.5-0.1l-1.1-1.4
		l-0.8,0.2l-0.2-0.4v-1.5l1.1-1.4l-0.4-1.2l0.2-1.2l-0.8-0.7l0.1-0.8l-0.7,0.3v0.8l-0.7,0.9l-0.8,0.3l-0.8-0.8l0.4-0.9l-2-0.8
		l-0.6-0.9l1.1-2.4l0.6,0.1l0.2-0.8l0.3,0.2l0.4-0.6l-0.4-0.2l-0.7,0.5l-1.5-0.9l0.4-0.6l-0.3-1.3l-0.8,0.6l-0.7-0.3l-0.2,0.2
		l-0.7,1.7l0.5,0.4l-1.2,0.7l-1-0.8l-2.4,0.1l-0.7-1.1l0.1-0.7l-2-0.3l-0.8-0.7l-0.8,1.1l0.1,0.8l-0.8,0.1l-0.5-1.1l0.1-0.9l0,0
		l-0.9,0.1l-0.6-1.1l0,0l-1.1,0.3l-0.8-0.8l0.5-0.4l0.8,0.3l0.5-0.6l-0.7,0.2l-1.5-0.5l-0.3,0.4h-0.8l-1.5-0.8v-0.9l-0.6-0.2l-2,1.6
		l-0.4-0.8l-0.8-0.2l-0.3,1.4l-0.8-0.3l-0.2-1l-2.5,0.7l-0.8-0.7l-2.3-0.1l-1.9,1l-0.6-0.6l-1,0.9l-3.4-1.4l0,0l-2.9-5l-0.9-4.1
		l-2.3-2.4l-0.4-1.1l-1.3-1.4l0.2-2.5l-0.4-3.6l-0.9-0.2l-1.5,0.6l-2.5,0.3l-2.2-0.7l-3.3-4.8l-0.2-2.6l1.6-3.4l0.2-4.8l-0.3-1.3
		l-1.8-1L98,231l-1.2-0.2l-1.7-1.2l-3.9-1.9l-0.4-1.2l0.5-4.2l1.2-3l5.1-4.8l1.3-2l1.4-1.1l1.6-4.3l0.9-1.4l3.8-3.5l2.1-0.5l1.4,0.3
		l2,2.1l0.1,1.5l1.4,2.5l2.3,0.4l7-2.9l2.5-0.5l4.5-0.1l4.3-1.8l0.6-3.4l1.1-1.6l3.4-3.1l2.1-6.3l1.5-2l5.9-3.5l4.2-1.9l1.1-2.5
		l1.6-2.1l3.3-6.3l2.2-7.9l4-1.7l3.2-0.9L171.8,157.2z"/>
	<path id="IN-SK" class="st0" d="M436.3,200.2l0.4,0.5h1.5l1.5,1.3l0.1,1.6l0.5,0.2l0.4,1.3l-0.6,0.9l-0.1,3l-1.5,2l0.8,3.2l2,1.6
		l-0.4,1l-1.8,0.6l-0.2,1.2l-0.7,0.8l0,0l-0.5,0.2l-0.7-0.8l-0.5,0.4l-0.7-0.5h-1.1l-0.7,0.2l0.2,0.6l-1.8,1.4l-1.9-0.5l-0.3-0.5
		l-1.3,0.2l-0.7-0.3l-1.1,0.4l-0.9-0.5l-0.2-1.2l-1-0.4l0,0l0.9-2.4l-0.4-0.7l0.1-0.7l0.6-0.4l-0.7-1.4l2.8-6l-0.4-0.6l0.5-0.3
		l-0.1-0.3l-1.2-0.6l-0.1-1.4l0.3-0.3l0.9,0.4l0.7-0.5l0.3,0.4l1.8-0.8l0.8,0.2l1.7-1.4l1,0.1l0.3-0.9l1.1-0.4l-0.1-0.5L436.3,200.2
		z"/>
	<path id="IN-TG" class="st0" d="M236.4,391.8l0.3-0.5l-0.9-0.6l0.6-1.3l-0.5-0.2l1.1-0.3l-0.7-0.3l0.5-0.4l0.4,0.2l-0.1-1.4
		l0.9-0.1l0.2,0.5l1.4-0.5l-0.1-2.3l0.4-0.6l0.5,0.4l0.9-2.3l1.9-0.3l-1.1-1.6l-0.7-0.1l0.2-0.8l-0.7,0.1l0.1-0.6h-0.9l-0.2-0.9
		l0.1-0.6l0.6,0.2l0.1-1l0.8,0.2l-0.3-0.9l0.5-0.9l-0.2-0.3l0.4-1.1l0.7-0.2l-0.8-0.3v-0.3l1.6-0.7l1.7,1.3l0.1,0.6l0.6-0.2l1.6,0.4
		l0.5-1.8l-0.3-1.5l2.3-0.8l-0.5-1.9l0.6-0.3v-0.6l-0.7-1.1l0.3-0.5l1.1-0.5l0.4-1.3l-0.5-1.1l-0.8-0.2l0.5-1.3l0.3,0.6l0.9,0.1
		l0.2,0.8l1.4,0.4l0.3,0.4l0.6-0.5l1.4,0.1l2,1l1.2-0.2l1.1,0.4l0.2,1.9l1-0.2l1,0.4l0.2,1.2l-0.5,0.6l0.7-0.2l0.5,0.4l1.5,0.2
		l1.4,1.3l0.8-0.1l-0.3-0.5l0.5-0.7l0.1-1.6l1.1,0.4l0.2,0.5l1-0.1l1.8,1.4l1.3-1l0.2,0.5l0.8,0.3l0.8-1.4l1.8-0.5l0.8,0.2l0.8,1.1
		l2,1.4l0.6,1.2l-0.2,2l-0.7,1.3l0.4,1.1l-1.5,1.3v1.3l1-0.2l0.3,0.5l0.1,3.1l-0.8,0.5l0.7,0.9l1.4,0.3l1.8,1.7l0.9-0.4l0.6,0.4
		l0.2-0.4l1.2-0.4l0,0l1.3,2.5l2.6-0.8l2.7,2.1l0.3,0.9l0.9,0.7l-0.1,0.3l0.6,0.2l-0.2,0.5l0.5,1.5l0.8,0.9l-1,0.7v0.9l1.1,0.1
		l0.6-1.3l0.7,0.5l-0.3,0.2l0.2,1.2l2-0.7l-0.5,1.6l1.6,5.5l0.7,0.1l1.5-1.2l1.7,0.8l2.4,0.1l0,0l1.3-0.3l0.4,0.4l1.6-0.5l0.8,0.2
		l0.9-1.2l0.5-0.1l0.3,0.4l1-0.6l0,0l0.6,0.8l-0.2,0.4l-3.7,2l-0.1,0.7l-1.2,1.8l0.4,0.4l-0.4,0.6l-0.1,1.7l-1.4,1.6l-0.8,0.1
		l-0.8-0.6l-1,1.3h-1.5l-0.3,1.7l-2.1,0.4l-1,0.6l-1.5-0.4l0.1,1h-0.8l-0.2,1.8l-0.5,0.5l-1.9-0.7l-1.6,0.2l0.3-0.6l-1.7-0.9l-1.4,0
		l-0.3,1.1l-0.6,0.6l-0.5-0.1l-0.5-1l-0.5,0.4l0.4,0.8l-0.5,0.8l2.3,1l0.1-0.6l1.7,0.4v1l-0.4,0.1l-0.2,0.8l0.9,0.7l-0.7,0.5
		l-1.9-0.5l-0.1-0.5l-1-0.6l-0.5,0.7l-0.3-0.8l-0.7-0.3l-0.3-1.6l-0.7-1h-1.1l-0.3-0.6l-0.9,1.1l-1.6,0.4l-0.7,1.1l-0.3,0.8l0.7,0.2
		l0.7,0.7l-0.4,1.3l-1.6,1.9l-1,0.1l-0.7-1.1l-0.9,0.1l-0.6-0.7l-2.3,1.3l-2.7,0.6l-1.3,0.9l-2.9,0.4l-0.7,1l-0.1,5l-0.8,0.4
		l-2.6-0.5l-1.9,0.8l-0.4,0.4l0.1,1.4l-0.7-0.1L260,432l-0.5-0.1v1.3l-1.1,1.2l-1.1-0.1l-1.7-1.3l-1,0.8l-2.8-0.5l-1.6,1h-1.1
		l-0.3,1.9l-1,0.5l-0.3,1h-0.7l-0.3,0.4l-0.8-0.3l-0.5-1.1l-0.6,0.8l-2.1-0.7l-1.6,0.6l-1.5-0.4l-1,0.2l-0.9-0.7l-1.7-0.2l0,0v-1.5
		l-0.3-0.5l0.3-1.4l-0.4-0.2l-0.1-0.8l0.5-1.2h-0.4v-0.5l0.2-0.3l0.6,0.1l0.6-0.7l0.5,0.2v-0.9l-1.7-0.7l-1.5,0.2l-1.2-0.3l-1.1-0.4
		l-0.9-1.2l1-0.1l0.1-0.3l1.3,0.1l0.2-0.5l0.7-0.1l-0.4-0.9l1.3-0.4l0.1-1.2l-0.7,0.2l-0.3-0.5l0.9-0.3v-0.6h-0.8l0.3-1.3l0.6,0.1
		l-0.3-2.4l0.8-1.8l-0.7-1.8l-1.9-1.1l0.7-0.9l-0.3-0.2l1.3-1.1l-0.4-0.2l0.3-1.5l0.9,0.3l0.5-0.3l0.1-0.6l-0.5-0.4h1.1v-0.5
		l0.7,0.2v-0.5l0.5-0.1l0.2-0.5l-0.1,0.4l0.6,0.2V407l-1.7-0.5v-0.6l-0.7,0.3l-0.4-0.4l-0.5,0.6l-0.2-0.5l-0.9-0.3l0.2-2.1l2-1
		l0.1-0.3l-1.1-0.3l0.1-0.4l0.3-0.5l0.4,0.2l0.4-1h0.4l-0.2-0.7l0.6,0.1l0.1-1l0.4,0.2l0.2-0.4l-0.1-0.5l-1-0.3l-0.8-0.8l1-0.9
		l-0.1-1l-0.6-0.9l0.7-1.5L236.4,391.8z"/>
	<path id="IN-TN" class="st0" d="M268.1,557.2l0.4,0.3l-0.4,0.5l0.2,0.4l2.1,1.9l-2.5-1.6l-1.5-0.1l-0.2-0.4l0.3-0.3h0.9
		L268.1,557.2z M248.5,494.8l0.1,0.7l-0.7,0.6l1.3-0.2l0.5,0.7l1.4,0.8l1.6-0.1v-0.8h0.6l0.1-0.7h0.3h0.1l0.2,0.4l0.4-0.1V495
		l0.7-0.5l0.8-2.7h0.4l-0.6-1.1l0.7-0.7l0.8,0.2l0.2-1l0.8,0.2l2.3-0.7l0.1,1.2h0.8l-0.6-0.3l0.4-0.6l1.2-0.2l1.6,1.1l1.5,0.1
		l0.7-1.4l0.5-0.4v-0.6l0.9-0.1l0.7,0.8l0.8-0.6l-0.1-0.6l1.4-0.4v-0.4l0.4-0.2l-0.2-0.2l-0.5,0.3l0.3-1.3l-0.9-0.4l1-0.4l1.9,0.2
		l0.2,0.8l0.6,0.4l1.6-0.7l0.1,1l0.4-0.1l-0.1,0.5l0.6-0.3l0.4,0.5l0.7-0.5l-1.1-0.9l0.6-0.6l0.5,0.4l0.4-0.4h0.9l1.3-0.6l0.5-0.7
		l-0.4-0.6l0.6-0.2v-0.6l0.6-0.2l0.2-0.5l0.5,0.1l-0.1-0.3l-0.8-0.2l0.1-0.4l1.4-0.1l1.5,1.1h1.4l0.8,1.6l0.7,0.4v-1l0,0l0.6,2.7
		l-0.8,2.5l-0.8,6.5l-1.8,5.7l-4.9,7.4l-0.9,2.3l0,0l-0.7-0.4l-1.1,1l-0.4-1.1l0.7-0.2l-0.3-0.3l-0.5,0.3l-0.5-0.8l-0.6,0.6l0,0l0,0
		l0,0l1,0.3l-0.4,0.6l0.5,0.1l0.3,0.7l-0.2,0.3l-0.6-0.5l-0.4,0.7l0.8,0.5l0.8-0.4v0.7l0.5-0.3l0.3,0.6l0,0l-0.8,4.5l1.5,3.8
		l0.3,6.9l0,0l-1-0.2l-0.3,0.3l-0.9-0.4l0.2,0.8l-0.8-0.2l0.4,1l1.5,0.5l0.1,1h0.7l0,0l0.5,9.4l-0.8,0.4H276l-6.4-0.8l-1.6,1
		l-1.2,2.1v1l0.7,1l-2,1.9l-0.6,1.4l-2.3,2.7l-1.1,1.8l-0.7,2.3l0.7,1.3l2.2,1.9l2.3,0.3l-1.7,0.4l-2.5-0.2l-1.5,0.3l-2.6,0.9
		l-0.2,0.3h-1.1l-0.3,0.3l0.3,0.3l-1.4,0.5l-3,0.4l-3.6,2.8l-0.7,1.4l-0.2,2l0.5-0.1l0.8,0.5l-1.1,0.1l-1.2,1.7l-0.2,1.3l0.8-0.1
		l-0.2,1.7l-1.2,1.4l-0.3,0.7l0.3,0.2l-4.7,2.2l-1,1.3l-3.1,0.8l-0.4,1.1l-4.2-0.8l-4-3.2l0,0l0.5-0.5l0.7,0.2l-0.4-1.2l1.3-1.1
		l-0.4-1l1.1-0.1l0.3-0.7l-2-3.6h0.4l0.7-0.7l0.5-1.5l-0.7-1.1h-0.4v-0.6l-0.9-1.2l0.9-0.4l0.2-0.9l1-1l-0.3-0.7l0.5-0.5v-1.5
		l0.3-0.7h0.5l0.4-1.9l0.8-0.4l0.3-0.8l-0.8-0.5l-0.2-1.2l-0.3,0.6l-0.4-0.5l-0.9,0.5l-1.1-0.7h-0.8l0.7-2l0.3-0.1v-1.1l0.4-0.2
		L230,548l0.3-0.6l-0.4-0.3l0.6-1.4l0.4-0.2l-0.2-1.2l-1.1-1.3l1.3-0.5l0.4-1.6l-0.6-0.2l0.1-0.6l-0.7-0.9l0.1-0.6l-1.1-0.1l-2,1.1
		l-0.2,0.7l-1.2,0.7l-1.2-0.3l-0.8-0.8v-0.4l-0.2,0.5l-0.3-0.3l0.4-1.2l-0.6-1l0.4-3.1l-0.4-0.8l1.2-0.1l-0.3-0.8l0.8-1.7l-0.2-0.5
		l-0.9-0.1l-0.4-1l-3-1.1l1-2l1.5-0.2l-1-0.1v-1.3l-0.9-0.4l0.6-1.2l-0.5-0.4l-1.3,0.8l-2.4-0.3l-0.6,0.4l-0.1-0.9l1.7-1.1v-1.1
		l-0.5,0.1l-1.1-0.6l-0.7-1l-1.4-0.5l-0.2,0.3l-0.8-0.5l-0.7,0.3l-0.3-1.9l0.8-0.5l0.5,0.5l0.9-0.3l0.5-0.7h0.8V515l0,0l0.5,0.1
		l1-0.8l0.7,0.5l0.4,1.1h3.4l1.3,0.2l0.4,0.4l0.2-0.5l-0.4-0.8l1.3-2.5l1.1,0.3l0.2-0.7h0.6l0.5,0.3L227,513l0.6-0.2l0.3,1l0.7,0.2
		l-0.1-0.9l2.2-0.4l0.3-0.3l0.8,0.1l0.7,0.7l0.6-0.4l1.1,0.5l0.7-1.6l-0.1-0.9l0.4,0.2l0.1-1l3.2-0.1l0.5-1.3l1.4-1.8l-0.8-1.1
		l-4.7-0.6l0.1-1.1l1.3-0.4l1.1-1.3l0.3-1l0.1-1.3l-0.9,0.2l0.6-0.6l-0.5-0.1l-0.2-0.9l0.5-1.2l-0.1-0.7l1.2-0.3l0.4,0.5l0.5-0.5
		l0.5,0.2l1.2-2.3l-0.3-0.9l2.4-0.8l0.3,0.4l-0.5,0.6l0.3,0.2l0.4-0.7l0.6,1h0.4l0.2-0.9l0.6,0.1l1.3,1.3L248.5,494.8z"/>
	<path id="IN-TR" class="st0" d="M500.1,271.7l0.8,0.4l0,0v0.9l0.7,1.6l-1.1,2.6h1.5l0,0l0.7,2.1l-0.4,2.2l0.3,0.9l-0.3,0.6l0.4,1
		l-0.2,0.9l-0.5-0.1l-0.3,0.4l0.2,0.6h-0.5l0.2,1.7l0,0l-0.4,0.1l-0.4,1.3l-0.1-0.7l-0.6-0.3l-0.1-0.6l-0.3,0.1l-1.7,1.9l-0.9-0.3
		l-0.7-1.4H496l-0.4,0.9l0.6,3.9l-0.6,0.3v0.6l-0.7-0.1l-1,0.8l-1.3,2.4l1.1,3.6l-0.4,0.5l-0.7,0.1l-1,1.5l-0.5-0.3l-0.8,0.2
		l-0.9,0.7l-0.7-0.3l-1.3-3.5l0.2-0.6l-0.7-0.1l0.2-0.5l-0.5-0.8H486l-0.6,1.5l0.6,2.3l-0.8-0.1l-0.9-1.8v-1.9l-0.5-0.7l0.3-0.2
		l-0.4-0.4l0.5-0.8l-0.5,0.2l-0.8-2.6l-0.8-0.5l0.2-0.6H482l-0.6-1.1l-0.1-1.3l0.7,0.5l0.2-0.8l-0.9-0.1v-0.9l0.6-0.3l0.5,0.3
		l0.6-1.9l-0.5-0.9l0.3-0.6l-0.3-0.3h0.7l-0.1-0.7l0.2-0.4l0.3,0.2l0.1-0.5l1.3,0.4l0.3-1.5l-0.3-1.1l3,0.7l1.6-0.5l0.5-1.7
		l-0.2-0.5l0.4-0.3l0.3,1.2l0.8,0.5h0.5l-0.3-2l1.3,0.8l0.6-0.4l-0.1,0.6l0.8,1.2l0.4-0.1l0.6-2.5l-0.4-1.3l0.7-0.4l0.7,0.7
		l-0.4-1.3l2.6,0.1l0.4-0.8l0.6-0.1l-0.4-1.4l0.1-0.5L500.1,271.7z"/>
	<path id="IN-UP" class="st0" d="M236.6,152.8l1.3-0.1l1.4,1.5l4,1.9l-1.7,2.8l-0.5,0.5l-0.5-0.2l-0.5,1.1l0.3,0.5l-0.8,0.8l0.3,0.4
		l-0.5,0.7l0.3,0.4l-0.6,0.9l1.1,1.8l-0.1,1.4l0.7,0.3v0.4l0.7,0.3l0.8-0.7l1.4-0.1l0.4,1.9h-0.5l-0.1,0.5h0.7l0.1,0.9l0.9-0.1
		l0.1-0.8l0.7-0.2l1-1.5l1-0.7l0.7,0.1l1.8-1.9l1.5,0.5l1.4,0.6l0.7,2.4l1.4,1.3l3.2,1.8l2.5,0.4l-1,1.3l-0.7,0.5l-0.4-0.3l-0.4,1.1
		l-0.6-0.4l-0.8,0.7l1.5,1.2l1-0.1l0.8,1.2v1.1h0.8l0.3-0.4l1,1l0.2-1.1l1.9,0.9l0.1,1.2l0.5,0.4l-0.1,0.6l0.8-0.1l1.7,1.6h1
		l0.1-0.4l0.3,0.7l0.4,0.1l0.2,1.6l1.7-0.2l0.5-0.6l0.3,1l1.1-0.5l0.9,0.4l0.8-0.7l1.1-0.2l0.6,0.6l-0.5,1.2l0.6-0.1l0.2-0.7h0.5
		l0.4,0.5l-0.6,0.2l1.1,0.1l-0.2,0.3l0.6,1.1l0.8,0.3l0.8-0.4l0.5-0.9l-0.3-0.3l0.8-0.6l0,0h0.9l1.8,1.5l0.6-0.1l0.1,0.6l1.1,0.6
		l0.8,1.3l1.7,0.2l1.2,1.6l0.2-0.4l-0.5-1.9l1.2-0.5l0.8,1l1-0.1l0.4,1.1l1.4,0.4l0.4,0.8l1.4,0.7l0.2-0.4l0.6,0.2l0.1,0.6l1.2,0.7
		l0.7-0.4l0.3,0.8l0.8,0.6l2.4,0.5l0.4,1.5l1.6,1.9v0.6H304l0.5,0.4l-0.2,0.3l1-0.2l0.1-0.7l1.2,0.3l0.7,0.9l-0.1,0.7l2.6,1.6
		l1.4,0.3l3.3,2.6l0.7-0.1l0.8-1.4l1.8,0.1l1,1.2l1.5,0.4l4.3,3.3l4.7-0.9l0.1,1.1l0.8,1.6l-0.4,1.7h3.5l0.4,0.7l1.4,0.4l2.8-0.1
		l2.1,2.5l1-0.2l0.9-1.4l-0.4-0.5l0.3-0.5l-0.2-0.4l4.1,0.2l4.4,2.4l0,0l-0.5,0.6l0.5,0.2l1.1-0.3l0.2,0.4l-0.5,0.9l1,0.5l0.4,0.7
		l-0.7,2.2l1.5-0.1l-0.5,0.5l0.9,0.5l0.1,1.7l-0.4,0.4l0.4,0.2l0.1,0.8l0.7,0.3l0.2-0.5l0.7,0.3l-0.2,0.6l0.7,0.4l0.7-0.7l0.6,0.2
		l0.2,1.1l-0.5,1l0.2,0.4l0.2,0.2l0.9-0.5l0.5,1.4l1.4,0.3l0.2,0.9l-2.6,0.6l-3.4-0.9v0.9l-0.6,1.1l-1.3,0.2l-0.2,0.5L351,232v1.4
		l1.4,0.3l0.5-0.3l1.1,1.3l1.8,0.2l0.2,1.1l-0.4,1.4l-0.8-0.3l-0.6,0.8l-1.2-0.4l0.1,1.9l0.6,0.9l0.8,0.1l1.4,1.4v0.7l0.6-0.2
		l1.7,1.1l1-0.2l1,0.6l0.3,0.8l1.9,0.3v0.9l0.5-0.1l1.1,0.9l-0.4,0.7l0.5,0.6l-1.4-0.2l-0.1,1l-0.4-0.2l0.1-0.7l-0.2,0.8l-0.7,0.1
		l-0.7-0.7l-0.8,0.3l-0.4-1l-0.9,0.1l-0.2,1.4l-0.6-0.1v0.3l-1.5-0.2l-0.2-0.7l-0.8-0.5l-1,0.2l-0.4,0.5l0.1,1.2l-2.9,1.6l-1.2,1.7
		l-0.7,0.2l0.5,0.6l-0.8,0.1l0.1,0.4l-0.7,0.5l-0.5-0.5l-0.5,0.5l-0.2-0.2l-0.3,0.4l0.2,0.1l-0.7,0.1l-0.5,0.8l-1,0.4l-0.4-0.2
		l-1.4,1.3l-0.9,0.1l-0.4,0.8l-0.7,0.2l-0.3,0.3l0.4,1.1l-0.7,2.1l0.5,0.1l0.2,2.8l0.7,0.7l-0.1,1l1.2,1l0.5-0.1v0.6l0.6,0.5
		l-0.3,0.6l0.8,0.5l-0.8,2l0,0l-1.9,0.5l-0.2,0.9l0.3,0.9l0.5,0.1l0.4,0.8l-1.4,1l0.5,1l-1.4,3.2l0,0l-0.6,0.6l-0.2,1l-1.1,0.7
		l-0.5,1.3l-1.9,0.8h-2.7l-2.4-1.7l0,0l-0.2-0.8l-1-0.3l0.4-1.1l-1-0.1l-0.9-1.1l0.2-0.5l0.9,0.4l0.1-1.7l0.4-0.3l0.3-1.1l-0.1-1.6
		l-1-0.2l0.5-2.3l-0.4-0.3l-0.1-0.8l0.6,0.3l1-0.2l-0.1-0.9H330v-0.9h-1.2v-0.6l-0.7-0.5l-2.3,1l-0.2-0.5h-1.3L324,268l-0.6,0.4
		l0.1,1.7l-1.4-0.5l-0.6,0.2v-1.1l-0.6-0.3l-0.2,0.4l-0.4-0.1l0.2-2.1l-0.1,0.4l-0.3-0.2v0.3h-0.4l0.3,0.5l-0.7-0.2l0.3-0.8h0.4
		l-0.5-0.5l0.3-0.4l-0.7,0.6h-0.9l-1.9-1.2l-0.8,0.4l-1.1-1.2l0.3-0.8l-0.2-1.6l-0.2,0.3l-1-0.5l-0.7,0.2l-1-0.8l-0.9,0.1l-0.4-0.7
		l-1,0.4l-0.2-0.4l0.7-0.5l-0.3-0.4l-0.3,0.4l-0.2-0.7l0.5-0.5l-0.7-0.2l-0.3-0.5l-1,0.2l0.3,0.9l-0.5-0.2l-0.4,0.3l0.6,0.6
		l-0.4,0.6l-1.5-0.6l0.7-0.1l-0.1-0.5l-0.7,0.2l-1.1-1l-0.3,0.2v0.9l-0.1-1h-0.7l-0.4,1.2l0.3,0.7l-1.1,1.4l0.2,1.2l-0.5,0.1
		l0.3-0.1l-0.7-0.5l-0.5,1.3l-1-1.2h-1.2l0.1,0.4l-1.1,0.1l-0.3-0.9l-0.7,0.3l0,0l0.1,0.3l-0.3-0.2l0,0l-0.9,0.3l-0.6-0.2l-0.2-0.5
		l1-0.5l-0.4-0.8l0.8-0.6l-0.1-1l0.7-0.7l-0.5-0.7l-0.8,0.1l-0.2,1.6l-0.5-0.7l-1.8,0.2l0.5,0.3v0.5l0.9,0.3v0.4l-0.9-0.2l-1,0.3
		l0.1-0.5l-0.4,0.1l-1-0.6l0.6-0.4l-0.7-0.6l0.2,1.6l-0.8-0.4l-0.3,0.5l-0.6-0.7H289l0.4,0.3l-0.1,0.9h-0.4l-0.5-0.7l-1.3,0.5
		l0.3,0.9l-0.4-0.3l-0.8,0.5l-0.9-0.5l1.5-2.3l1.3-0.6l-0.4-1.4l-0.4,0.1l-1.3-1l0.1-2l-1-0.8l-0.2,0.5l-0.9-0.2l-0.1,0.6l-1.2,0.9
		l-0.7-0.3l-1.1,0.3l-0.4,1.8l-1-0.1l-0.5,0.8l-0.2-0.5l-1,0.3l0.4,1.8l-0.4,0.3l0.1,0.7l-2-0.9l-2.7,0.2l0.1-0.5l-0.2,0.1l-0.4-0.6
		l-1.4,1.9l-0.5-0.3l0.1-0.8l-0.7,0.5l-0.3-0.6l-0.3,0.5l-0.3-1.1l0.5-0.8l0.6-0.1l-0.3-0.2l0.6-0.9h0.6l-0.6-0.3l-0.8,0.5l-0.9-0.7
		l-0.3,0.6l-0.4-0.6l0.3-0.8l-0.9-0.1l-0.6,0.6v0.8l0.5-0.4l0.4,0.6l0.5-0.2l-0.2,0.8l0.3,0.3l-0.3,0.3l-1.1-0.9l0.1,1l0.6,0.9
		l-0.2,0.4l-0.8,0.2v-0.6l-0.4-0.2l-0.4,0.2l0.5,0.2l-0.1,0.5l-0.6,0.1l-0.4-0.7l-0.3,0.2l0.2,0.5l-0.9,0.1l-0.4-0.7l0.2-0.4
		l-0.7-0.6l-0.7,1.1l-0.4-0.1l0.1-0.9l0.6-0.8l-0.8-0.4l-0.1-0.6l-0.6,0.6l0.4,0.2v0.7l-0.9-0.5l-1.4,1.1l0.1-1.8l0.3,0.2l0.3-0.6
		l0.6,0.2l0.5-0.4l-0.3-1.3l-0.5,0.4l-0.9-0.3l-0.6,2.3l-0.7-0.8l0.1-0.6h-0.5l0.2-0.3l0.9-0.3l-0.1-0.4l0.7-0.7l1.3-0.2l-0.3,0.5
		h-0.7l0.7,0.5l0.9-0.5l-0.3-1.2l-0.6,0.2l-0.5-0.4l0.6-0.7l-0.3-0.8l0.5-0.2l-0.2-0.6l-0.3,0.4l-0.1-0.4H260v0.6l-0.9,0.3l0.5,0.9
		l-0.4,0.7l-0.4-0.3l0.6-0.2l-0.3-0.2l-1.3-0.2l-0.4-0.5l-0.1,0.7l0.5,0.6l1,0.1l-1.3,0.4l0.4,1.1L257,255l-0.1-0.5l-0.9-0.2v-0.6
		l0.2,0.3l0.6-0.5l-0.3-0.4l-0.6,0.1l-0.4,0.7l-0.5-0.2l-0.3,0.5l-0.5-0.1l0.3,0.9l-0.9-0.2l0.3,0.7l-0.3,0.4h-0.4l-0.1-0.4
		l-0.5,0.6l-0.5-0.2l-0.2,0.3l0.5,0.4l0.8-0.5l1.3,0.7l0.5,3.2l0.8,0.7l-0.4,1.9l0.6,0.4l0.3,0.8l1.7,0.8l0.3,0.9l-0.3,0.4l0.1,1.8
		l-0.6,0.9l0.2,1.1l0.5,0.2l1.9-0.9l1.5,2.8L261,272l-0.3-0.3l-0.1,0.7l1.4,0.5l-0.3,1.7l-1.1,1l-0.5,1.5l-1.2,0.3l-0.4,0.6
		l-0.6-1.5l-0.3,0.4l-0.2-0.3l-0.6,0.4l-0.5-0.2l-1.6-2.2l-1.3-0.7l-1.3,1.9l-1,0.4l-1-1.1l0.6-1.1l-1.7-1.2v-0.6l-0.9-0.9l0.7-0.7
		l0.2-2.1l-0.9-1.6l-0.2-1.3l-0.8-0.9v-0.5l2.9-2.3v-1.8l1.2-0.8h0.9l-0.4-0.5l0.5-0.3l-1.1-0.5l0.2-0.4l-0.8-0.6l-0.2-1l-0.7-0.3
		l0.4-0.5l-0.6-0.8l0.6-0.5l0.3-1.1l0.5,0.1l0.8-0.6l-0.2-1.1l0.4-0.6l0.5,0.2l0.6-0.6l1.7,0.4l0.5-0.5l0.7,0.5l0.5-0.6l2.3-0.6
		l0.1-1l-1.2-1.5l1.3-1v-0.3l-0.4-0.1l0.2-0.2l0.9,0.6l-0.3-1.2l0.6-0.2l-0.1-0.9l1-0.7l0.3-1.7l1.1-0.9l-1.1-1.1l1-0.3l-0.4-0.8
		h0.7l0.1-0.7h0.7l-0.4-0.7l0.5-0.4l0.3,0.3l0.2-0.8l0.6-0.1l-0.2-0.4l0.3-0.2l-1-0.4l0.2-1.1h0.5l0.2-0.6l-1.4-0.2l0.2-0.9l-0.7-1
		H262l-0.1-0.6l-0.2,0.2l0.5-0.7l-0.2-1.5l-1,0.4l0.2-0.7l-0.8-0.3l-0.7,0.2l-1-1.2h-0.8l-0.5-0.6l-0.3,0.3L257,226l-1,0.6l-1.7,0.2
		l-2.1-0.8l-0.4-0.7l-0.3,0.7l-0.7-1l-1.2,0.2l-0.4,0.9l-0.9-0.3l0,0l-0.3-1.1l0.6,0.1l0.6-0.8l-0.8-0.6l-0.2,0.3l-1.7-0.3l-0.2,1
		l-1.1-0.2l0.1,0.8l-0.5,0.3l-0.3-1l-1.2,0.2l-0.8-0.5l-0.2,0.7l-2.5-1l-0.6,0.4l-0.1,0.7l-2,1l-1.5,0.2l-0.4-0.5l-0.3,1.2l0.2,0.4
		l-0.8,0.4l0.3-0.5H234l0.2-1l-0.3-1l4.1-2.1l1.6-0.3l0.3-0.7l-0.5-0.2l-0.1,0.6H239l-0.5-1l-0.8,0.7l-1.3-0.4l0.1-0.8l-0.8,0.2
		l-0.4-0.6l1.7-0.6l0.3-0.9l0.9-0.1l0.3-0.5l-0.6-0.3l0.1-0.4l-0.9-1.2l0.4-0.9l-0.7,0.3l-1.4-1.1l-1.2-0.4l-0.3-0.5l0.3-0.7
		l-0.6-0.3l-0.3-0.8l-0.9-0.3l-0.1-0.8l0.4-0.5L232,210l0.6-0.8l-0.1-0.9l-0.7-0.5l0.1-1.4l-0.5-0.4l0,0l1.1-1.1h1.3v-0.8l0.8,0.2
		l0.2-1h0.9l0.3-0.5l-0.5-0.2l0.4-0.5l-1-1l-0.2-0.9l0.2-0.4l0.3,0.2l0.1-1.3l0.8-0.4l-0.9-0.1l-0.1-0.5l0.5,0.2l-0.1-0.6l0.5-0.4
		l-1.3-0.4l0.5-0.2l0.1-0.5l-0.6-0.6l0.5-0.4l-0.4-1.1l-2.5-1.9l0,0l-0.8-1.2l0.8-0.9l-0.4-0.7l0.2-1.5l-0.7,0.1l-1.1-1.5l-0.5-0.2
		l0.4-0.8l-0.5-0.6l0,0l-0.1-0.5l0.7-0.3l-0.6-1.1l0.4-1l-1.7-2l0.3-1.6l-0.3-0.9l0.3-0.4l-0.3-0.6l0.4-1.3l-0.6-0.3l-0.1-0.6
		l0.5-0.3l-0.4-0.4l0.2-0.6l-1-1.9l0.4-0.4l-0.4-1l1-2.2l-0.5-1.3l0.6-0.5l0.5-2.3l1.5-2l0.1-1l2.6-1.2l-0.3-0.2l0.5-1l0.9-0.4
		l1-1.9l0.8-0.6l0.4-1.2l-0.3-0.3l0,0L236.6,152.8z"/>
	<path id="IN-UT" class="st0" d="M266,133l1,1.2l-0.3,0.9l0.7,0.5l0.2,1.3l0.7,0.8l1,0.2l0.6,1.7h1.6l0.5,1.4l1,0.6l1.2-0.9h0.9
		l0.7-0.5l1.1,0.6h0.9l1.1,1.8l2.3,1l1.1,1.3l1-0.7l0.6,1h0.6l0.3,0.6l-0.3,0.8l-0.7,0.6l0.5,0.5l0.1,1.4l1.6,0.2l1.1,0.8l0.6-0.1
		l2.3,1.6l1-0.7l2.8,1.9l1.3,1.6l3.8,1.4v0.3l-0.5-0.2l-1.4,0.5l-0.9,1.1l0.3,0.8l-2.1,1.6l-0.2,0.9l-1.3,1h-1.3l-0.9,2.3l-1,1.1
		l-1.1-0.2l-1.2,1.1l0.3,1.6l0.6,0.7l-0.2,0.9l-0.5,0.7l-0.7,0.2l0.1,0.7l-1.1,0.9l0.3,0.5l-1.1,0.2v0.7l0.6,0.4l0.1,0.9l0.7,0.7
		l-0.4,2.2l-0.9-0.3l0.4,1.6l-0.7,0.5l-0.9-0.4l-0.7,0.7l-0.2,2l-0.3,0.5l-0.3-0.1l-0.8,1.4l0.2,1.8l0,0l-0.8,0.6l0.3,0.3l-0.5,0.9
		l-0.8,0.4l-0.8-0.3l-0.6-1.1l0.2-0.3l-1.1-0.1l0.6-0.2l-0.4-0.5h-0.5l-0.2,0.7l-0.6,0.1l0.5-1.2l-0.6-0.4l-1.1,0.2l-0.8,0.7
		l-0.9-0.4l-1.1,0.5l-0.3-1l-0.5,0.6l-1.7,0.2l-0.2-1.6l-0.4-0.1l-0.3-0.7l-0.1,0.4h-1l-1.7-1.6l-0.8,0.1l0.1-0.6l-0.5-0.4l-0.1-1.2
		l-1.9-0.9l-0.2,1.1l-1-1l-0.3,0.4h-0.8v-1.1l-0.8-1.2l-1,0.1l-1.5-1.2l0.8-0.7l0.6,0.4l0.4-1.1l0.4,0.3l0.7-0.5l1-1.3L259,172
		l-3.2-1.8l-1.4-1.3l-0.7-2.4l-1.4-0.6l-1.5-0.5l-1.8,1.9l-0.7-0.1l-1,0.7l-1,1.5l-0.7,0.2l-0.1,0.8l-0.9,0.1l-0.1-0.9h-0.7l0.1-0.5
		h0.5l-0.4-1.9l-1.4,0.1l-0.8,0.7l-0.7-0.3v-0.4l-0.7-0.3l0.1-1.4l-1.1-1.8l0.6-0.9l-0.3-0.4l0.5-0.7l-0.3-0.4l0.8-0.8l-0.3-0.5
		l0.5-1.1l0.5,0.2l0.5-0.5l1.7-2.8l-4-1.9l-1.4-1.5l-1.3,0.1l0,0l0.3-0.5l1.8-0.4l2.2-1.2l0.2-0.5l-0.1-0.6h-0.7l-0.6-0.7l0.9-0.4
		l-0.1-0.9l-0.8-0.5l0.1-0.5l-1-1.2l1-1.3v-1.1l0.8,0.5l0.1-1.4h-0.9l-0.2-0.8l0.5-0.4l1,0.5l-0.4-0.3l0.5-0.8l-0.4-1.1l0.8-0.4
		l0.8-1.5l1.2-0.5l1.1,0.5l0.3-0.6l1-0.1l1.1-0.9l1.5-0.1l0.7-0.8l0.4,0.1l0.1-0.5l1-0.1l0.7,0.9l0.4-0.3l0.4,0.3l0.5,0.8l1.2-0.1
		l1.1-0.6l0.7,0.3l0.2,0.6l2.7-0.2l0.4,1.2l0.9,0.8l2.3-0.2l-0.4-1.3l-1.1-1l-0.2-0.7l0,0l0.3-1.5l1.2-0.7l1-2.2l1.5,0.7L266,133z"
		/>
	<path id="IN-WB" class="st0" d="M433.7,328.7l0.5,0.5l0.1,0.6l-0.9-0.2L433.7,328.7z M439.8,328.5l1.2,1h-1.1L439.8,328.5z
		 M437.7,328.2l0.5,0.5l-0.3,0.6l-0.5-0.4L437.7,328.2z M434.4,327.9l0.9,0.7l-0.7,0.7l-0.7-0.7l0.3-1L434.4,327.9z M438.6,327.7
		l0.5,1.2l-0.8,0.3l0.3-0.5l-0.4-0.5L438.6,327.7z M442.1,327.9l0.3,0.4l-0.5,0.1l-0.1-1L442.1,327.9z M435.4,327.2v1.2l-0.7-0.4
		L435.4,327.2z M442.5,326.6l0.1,0.8l0.4,0.3l0.3,0.8l-0.5,0.1v-0.5l-0.5-0.4l-0.4-1L442.5,326.6z M439.2,326.8l-0.1,0.8l-0.7-0.4
		L439.2,326.8z M430.3,326.6l0.6,0.3l0.2,0.8l-0.8,0.8L430.3,326.6z M432.9,326.6l0.3,0.7l-0.4,0.9l-0.3-1L432.9,326.6z
		 M428.4,326.3l0.2,0.4l-0.2,0.4l0.3,0.3l0.1,0.5l-0.2,0.8L428,327L428.4,326.3z M443.8,326.3l0.6,1.5l-0.8,0.5l-0.9-1.2l0.2-0.5
		L443.8,326.3z M434.6,326.4l0.5-0.1l0.3,0.6l-0.8,0.8l-0.5-1.1L434.6,326.4z M440.6,325.9l1,1l-0.4,1.2l-0.9-1.2L440.6,325.9z
		 M432.1,326.2l0.3,0.6l-0.3,0.8l0.4,0.6l-0.6,0.6l-0.3-1.6l0.4-0.7l-0.5-0.3l0.3-0.4L432.1,326.2z M428.6,325.8l0.9,0.1l0.6,1.3
		l-0.3,1.3l0.4,0.5l-0.5,0.4l-0.6-0.2L428.6,325.8z M441.5,325.6l0.7,0.8l-0.8-0.2L441.5,325.6z M431.4,325.7l-0.1,0.7l0.3,0.4
		l-0.4,0.3l-0.2-1.2L431.4,325.7z M443,325.6l0.7,0.5l-0.4,0.2L443,325.6z M439.8,325.6h0.5l-0.5,1l0.4,1.4l-0.3,0.2l-0.6-0.2
		l0.1-1.4l-0.7,0.1l0.4-0.8L439.8,325.6z M435.2,325.3l0.7,0.9l-0.2,0.6l-0.6-1.1L435.2,325.3z M442.3,325.2l0.7,1.1l-0.2,0.2l-1-1
		L442.3,325.2z M435.7,325l0.2,0.8l-0.3-0.3l-0.2-0.4L435.7,325z M433.1,325v1l-0.6,0.4l0.1-1L433.1,325z M437.6,324.7l0.8,0.9
		l-0.1,0.5l0.2,0.1l-0.1,0.6l-0.6,0.1l0.3,0.5L437,327l0.1-1.3L437.6,324.7z M434.5,324.6l0.5,0.4v1l-1,0.3l-0.3-1L434.5,324.6z
		 M432.3,324.6l0.4,0.2l-0.4,1.1l-0.4-0.8L432.3,324.6z M442.7,324.6h0.3l0.1,0.9l-0.6-0.5L442.7,324.6z M439.6,324.7v0.7l-0.7,0.3
		l0.6-1.4L439.6,324.7z M441.7,323.9l0.6,0.5l-0.2,0.6l-0.9,0.3l-0.2-0.8L441.7,323.9z M435.4,323.9l0.3,0.4l-0.1,0.6l-0.5-0.3
		L435.4,323.9z M430.7,324l0.4,1l0.5,0.1l-0.1,0.4l-0.6,0.2l-0.1,0.7l-0.7-0.2l-0.3-1.3L430.7,324z M440.1,323.6l0.4,0.3l0.6,2.2
		l-1.2-1L440.1,323.6z M427.2,323.4l0.6,1.2v1.3l-0.5,1.2l0.2,0.6l-0.8,0.5l-1.2-0.4l-0.1-0.5l0.7-2L427.2,323.4z M439,323.8
		l0.6-0.7l0.3,0.3l-0.9,1.3l-0.1-0.7L439,323.8z M442.4,323l0.9,0.5l-0.2,0.8l-1.1-0.4L442.4,323z M435.9,322.9l0.6,0.6l-0.3,1.6
		l-0.7-1.5L435.9,322.9z M434.8,322.9l0.2,0.4l-0.4,1l-0.3-0.4L434.8,322.9z M432.8,322.8l0.6,0.3l0.1,0.6l-0.8,0.8h-0.8l0.4-1.5
		L432.8,322.8z M437.6,322.9l0.6,0.1l0.6,0.7l-0.4,1.5l-1.1-1.1L437.6,322.9z M436.2,322.5l0.5,0.2l-0.4,0.5L436.2,322.5z
		 M439.8,322.6l1.4-0.2l0.9,0.5l-0.2,0.4L441,324L439.8,322.6z M437.7,322.3l1.4,0.2l0.2,0.7l-0.3,0.4l-0.3-0.7l-0.9-0.2
		L437.7,322.3z M438.1,321.4l0.1,0.5l0.6,0.1l0.2,0.3l-0.9-0.1l-0.3-0.7L438.1,321.4z M436.6,320.6l1,0.4l-0.7,1.1l-0.9-0.3
		L436.6,320.6z M427.3,320.5l-1,1.8l-0.7,0.4l0.5-1.6L427.3,320.5z M439.4,320.6l1.6,0.2l-0.1,1.4l-0.7,0.2l-1.7-0.8l0.2-0.8
		L439.4,320.6z M443.5,320l0.7,1.2l-0.3,1l-0.6,0.2l-1-1.8l0.1-0.7L443.5,320z M440.4,319.4l0.3,0.9l-1.6-0.2L440.4,319.4z
		 M439.9,319l0.2,0.3l-1.1,0.3l-0.2,0.4l-0.4-0.1l0.5-1l0.7-0.2L439.9,319z M440.1,317.3l1.1,2h-0.8l-0.7-0.8l0.8-0.3l-0.6-1
		L440.1,317.3z M441.9,317.4l0.5,0.7l-0.4,1.1l-0.7,0.5v0.8l0.4,0.5l-0.2-1.1h0.5l0.2,1.3l0.9,1.3l-0.2,0.4l-1.4-0.7l-0.4-1.1
		l-0.2-1.4l0.5-0.6l-0.7-1.4l0.5,0.2L441.9,317.4z M442.8,317.1l0.9,1.3l-0.2,1.3l-1.3-0.1l0.5-1.3l-0.4-1.1L442.8,317.1z
		 M437.2,317.1l1.7,0.6l-1.9,1.7l1,1l-0.2,0.4l-1.2-0.4l-0.5-1.5L437.2,317.1z M440.1,318.1l-1.3,0.7l-0.7,1.1h-0.3l-0.4-0.4l2-1.8
		l0.4-0.1L440.1,318.1z M441.8,316.6l0.3,0.5l-0.5,0.4l-0.1-0.4v-0.4L441.8,316.6z M439.4,315.5l0.2,0.8l-0.5,0.3l0.4,0.8l-0.6,0.1
		l-0.7-0.5l0.1-0.5L439.4,315.5z M439.9,314.3l0.9,0.1l0.4,0.7l0.5,0.1l0.1,1.2l-0.7,0.3l0.2,0.9l-1.8-0.9l0.4-0.2l-0.3-1.7
		L439.9,314.3z M442.5,313.6v1.1l0.7,0.5l-0.5,0.2l1.3,1.7v1l0.5-0.1l-0.6,0.5l-0.8-1.5l-0.9-0.1l-0.3-0.9l0.3-2.8L442.5,313.6z
		 M440.8,310.6v1.4l0.5,1.2l-0.6,0.4l-0.4-2.5L440.8,310.6z M441.5,310.1l0.5,0.2l0.7,2.3L442,313l-0.3,2l-0.6-0.5v-0.8l0.5-0.4
		l-0.5-1.4v-1.6L441.5,310.1z M425,218l1,0.4l0.2,1.2l0.9,0.5l1.1-0.4l0.7,0.3l1.3-0.2l0.3,0.5l1.9,0.5l1.8-1.4l-0.2-0.6l0.7-0.2
		h1.1l0.7,0.5l0.5-0.4l0.7,0.8l0.5-0.2l0,0l2.1,0.8l0.1,3.2l0.8-0.9l0.6,0.6l-0.2,0.5l0.4,0.4l1.1-0.3l0.4,0.7l0.8,0.2l0.2,1.2
		l0.5,0.6l2.2-0.2l2.2-1l0.3,0.5l1,0.1l0.2,0.6l1.8-0.2l1.1,0.8l0.4-0.1l0.2,0.3l-0.7,0.7l0.3,0.2h0.5l0.3-0.4l0.9,0.4l0.5-0.3
		l0.3,0.7l0.6-0.3l0.9,0.2l0,0l0.3,1.1l-0.3,0.5l0.4,0.8l-0.3,0.1l-0.2,1.8l0.3,0.6l-0.8,1.3l0.4-0.1l0.2,0.4l-1.4,0.6v0.4l-0.5,0.2
		l0.1,0.6l-0.7-0.3l0.4,0.7l-0.2,0.3l-0.4-0.2l0.4,0.6l-0.6,0.4l0.6,0.1l-0.7,0.5l0.7,0.3l-0.3,0.2l0,0H455l-0.4-0.7l-0.1-0.3
		l-0.6-0.2l0.4,1h-0.7l-0.1,0.5l-0.3-0.1l0.7,0.8l-0.7,0.4l0.3,0.2l0.4-0.4l0.4,0.9l-1.3,0.8v1.1h-0.7v-0.7l-1.9-0.1l-0.2-0.7
		l-0.6,0.8l-0.8-0.1l-1.2-0.8v-0.3h-0.4l0.2-0.6l-0.8-0.6l-1.2-0.3L445,239l0.1-1.1l-0.7-0.9l0.6-0.8h-1l0.3-0.3l-0.4-0.5l0.1-0.7
		h-0.9l-1.4-1.3l-0.2,0.7l-0.3-0.1l-0.4,0.5l0.2,0.8l0.8,0.1l0.1,0.2h0.4l0.3,0.5l-0.3,0.5l0.7,0.4l0.6-0.2l0.1,0.8l-1.8,0.3
		l-0.6-0.9l-0.8-0.1l-0.4,0.3l0.3,0.8l-0.7,0.1l-0.5-0.5v-0.8l-0.4-0.2l-0.7,0.3l-0.2-1.1l-0.8,0.4l-0.4-0.9l0.4-0.2l-1.4-0.9
		l-0.1-0.7h-0.5v0.4l-0.7-0.1l0.1-0.6l-0.6,0.1l-0.7-1.2l-0.9-0.1l-0.4-1.8l-0.7,0.8l-0.8,2.3l0.4,0.6l0.2-0.8l2.1,0.5l0.7,2
		l-0.7,0.2l-0.5-0.5l-0.4,0.7l-0.6,0.1l0.2,0.3l-1.2,0.7v1.2l-1.9,0.6l-1.3,0.9l-0.4,1.4l0.4,0.1l-0.2,0.8l0.3,0.2l-0.8,0.2l-1,2
		l0.4,0.5l0.2,1.9l0.6,0.5l0.6-0.5l0.4,0.3l1.1-0.5v0.6l1.9,1.3l0.5,0.9l0.9,0.2l-0.2,1.3l1,0.3l-0.1,0.5l1.5,1l0.6-0.2l0.7,0.7
		l0.9,0.1l0.2-0.5l1,0.1l0.6-1h0.9l0.5,1l-0.4,1.2l0.5,0.3v0.6l0.8,0.8l0.3-0.3l0.3,0.6l1.5,0.2l-1,0.7v0.8h-0.4l0.2,0.7l-0.4,0.3
		l-1.4-0.9l-0.7,0.8l-0.6-0.4l-0.4,0.3l-0.8-0.6l-1.7,0.1l-0.9,0.6l-1.2-0.7l-1,0.3l0.3,1.1l-0.4,0.3l0.2,0.9l-0.3,0.6l0.3,0.3
		l-1,1.3l0.1,0.5l-1.1,0.1l-0.3,0.6l0.4,0.4l-0.4,0.5l-0.9-0.6l-0.2,0.4V264l-0.6-0.8l-1.6,0.5l0.6,1.5l-0.5,0.2l-0.2,0.9l-0.2-0.3
		l-0.3,0.8l-0.6,0.2l-0.1,0.9l-1,1.1l2.5,3.2l0.9,0.9l1.4,0.4l1,1.1l2.1,0.1l1.4,0.6l0.5,0.9l0.2-0.6h0.3l0.8,0.4l1.3-0.1l0.6,0.7
		v1.5l-0.6,0.6l0.2,0.9l-0.3,0.1l0.1,0.4h0.5v2l0.6-0.3l0.2,0.5l-0.6,0.1l-0.1,1.3h-0.5l-0.8,0.9l-1.5,0.2l0.5,0.8l-0.8,0.6l0.3,0.4
		l-0.3,2.4l0.6,0.1l-0.2,0.7l1.2-0.1l0.3,1.1l1.5,1.4l1-0.3l-0.1,1h-0.5l-0.1,0.5l0.1,1.1l-0.5,0.3l0.2,0.7l-0.9,0.3l0.4,0.9
		l1.4,0.7h0.3l0.1-0.7l0.6,0.5l1.1-0.1l0.1,0.4l1.4-0.1l-0.2,0.6l-0.4-0.2l-0.7,1.2l-0.9,0.6l0.1,1.8h-0.5l0.4,0.3l-0.1,0.7l0.6,0.1
		l0.3,0.6l-0.1,0.8h0.7l0.4,0.7l-0.2,0.9l-0.7,0.6l0.7,1.4l-0.6,1.5l0.5,0.2l-0.4,0.8l-1.2,0.5l-0.5,0.7l0.3,0.5l-0.2,1.8l0.5,0.6
		l-1-0.2l-0.3,1.5l-1,1l-0.1,0.6l-1-0.1l-1.1,2l0.3,1.2l-0.7,1.4l0.1,1.2l-0.5,0.5l-0.1-0.3l-0.6,0.1l-0.2,1l-0.6-0.5l0.6-1
		l-1.9,0.5l-0.4,0.4l-0.1,1.7h-0.5l-0.2-1.1l-0.7,0.2l-1,0.8l0.2,1l-1-0.2l-1-2.2l0.3-0.9l-0.4-0.6l1-1.2l0.3-1l-0.4-1.8l-0.7-0.6
		l-1.7-0.3l0.6-1.8l-1,1.6l-1.2-0.5l-0.5-0.8l-0.2-2.4l-0.4-0.6l-0.7-0.1l1.1,1.5v2.1l1.2,1.1l2.3,0.3l1,1.7L426,321l-0.2,0.1
		l-1.3,2.9l-0.9,1.1l-0.7,0.1l-1.8,1.9l-0.7-0.1l-1.1,0.8l-3.7,0.9l0,0l-0.4-0.7l0.2-1.2l-0.5-0.4v-0.6h-1.3l-0.3-0.5l-1.6-0.5
		l-0.5-2.7l-1.2-0.4l-0.2,0.8l-1.2,0.4v0.9l-1.2-0.1l-0.6-0.8l0.7-1.6l-0.3-1l-1.1-0.8l-2.3-0.2l-0.8-1.1l-1.3,0.2l0.1-1.4l0,0
		l0.8,0.1h0.2h0.4l0.2-0.5v-0.5l0.1,0.3l1.2-0.1v-0.8l-1-0.6l0.3-1.4l-1.5-0.6l-0.3-1h0.8l0.2-0.5l-0.7-1.4l-2-0.1l-0.6-1.9
		l-1.4-0.9l-0.6,0.4l-1.6-1.5l0.3-1.6l0.5-0.7l-0.5-0.5l0.7-0.5l0.3,0.3l0.6-0.2l0.4-0.8l-0.5,0.4l-0.3-0.5l-1.5-0.1l-0.4,0.4
		l-1.7-0.8l-1.5,0.4l-1.1-1l-0.2-0.8l-1.6-0.5l-0.2-0.7l-2.2,0.3l-1-1.3h-0.5l-0.1-1.3l0.9-1.2l-0.2-0.8l0.5-0.1l-0.6-0.8l0.1-1.2
		l1.4,0.3l1.9-0.8l-0.7-1.1l0.7-0.6l1.8,0.3v1.9l1.4,0.3l0.3-0.3l-0.3,0.7l0.3,0.3l0.6-0.4l0.4,0.4l0.3-0.2l-0.3-0.3l1.3-0.8
		l-0.3-0.3l0.1-0.9l0.4-0.8l1.1-0.5v-0.4h1.6l1.1-0.8l1.8-0.5h0.7l0.1,0.3l1-0.2l0.5-1.4l-0.5-1.4l0.5,0.4l0.9-0.6l0.1-0.4l0.4-0.3
		l0.7,0.7l0.6-0.4l2.8,1.4h0.4l0.3-0.5l-0.6-0.9l1.2,0.2l-0.1,0.3l0.5,0.2l0.4,0.1l0.1-1.6l0.4,0.7l0.4-0.5v-1.1l-0.5-0.2l-0.4-1.5
		l1.7,0.2l-0.3,0.5l0.2,0.2l0.5-0.3l1.8,0.5l-0.4-0.5l0.9-0.1l0.5-0.5l-0.7-0.2v-1.2l1.5,0.6l-0.1-0.4l0.7-0.4l-0.7-0.5l2.2,0.1
		l0.1-0.7l-1-0.5v-0.6l0.8-0.1l0.5-0.9l0.8-0.2l1-2l-0.5-0.2l0.7-1.6l-0.3-0.3l-0.2,0.4l0.2-1.1l-0.7-0.7l1.4,0.6l0.7-0.2l0.4-0.6
		l-0.7-0.3h0.5l-0.3-0.3l0.5-0.6l-0.5-0.3l0.3-0.9l-1.1-0.3l-0.4-0.5l0.4-0.4v0.5h0.3l0.4-0.6l-0.2-0.6h0.6l-0.2-0.6l1.5-0.9
		L424,264l-1.6-1.9l-1.8-1.3l0.2-2.6l0,0l0.9,0.4l-0.3-0.7l0.6-0.9l-1.3-1.1l0.1-0.8l-0.4-0.1l-0.1-0.5l0.4-0.8l0.5,0.2l0.5-0.6h0.5
		l0.3-1l0.4,0.2l0.5-0.6l1.1,0.2v0.4l0.3,0.2l0.1-0.3l0.4,0.5l0.8,0.1v-0.5l-0.7-0.7l-0.3-1l0.6-0.9l-0.3-0.1l0.2-1.1L424,248
		l-0.5-1h-0.6l0.2-0.9l-0.5-0.3l0.5-0.5l-1.6-0.3l-0.3-0.8l0.5-0.5l0.2-2.2l1.3-0.9l0.3,0.4l0.1-0.3l0.5,0.1l-0.1-1.4l0.9,0.2
		l0.4-0.7h0.6l1.3-1.5l1.3-0.6l1.4-1.4l-0.4-0.5L429,235l-0.1-0.4l0.7-0.6l-0.7-0.5v-0.6l-0.6,0.1l-0.3-0.4l1-0.8v-0.4l-1.1,0.3
		l-0.4,0.5l-0.7-0.5l0,0l0,0l0,0v-0.1l0,0l1-1.9l0.5-2.7l-0.3-1.9l-0.7-0.7l0.2-0.4l-0.5-0.6l0.3-0.7l-0.8-0.4l-0.3-0.6h-0.7l-0.3-1
		l-0.5-0.4l0.5-1.3L425,218z"/>
</g>
<g>
	<g>
		<path class="st1" d="M209,105.6c0-5.1-4.2-9.3-9.3-9.3c-5.1,0-9.3,4.2-9.3,9.3c0,1,0.2,2,0.5,2.9l0,0v0.1c0.2,0.6,0.4,1.1,0.7,1.6
			l8,17.6l8.5-18.6l0,0C208.7,108.2,209,106.8,209,105.6z M199.7,109.7c-2.2,0-4-1.8-4-4c0-2.2,1.8-4,4-4s4,1.8,4,4
			C203.7,107.8,201.9,109.7,199.7,109.7z"/>
	</g>
</g>
<g>
	<g>
		<path class="st1" d="M237.3,166.5c0-5.1-4.2-9.3-9.3-9.3c-5.1,0-9.3,4.2-9.3,9.3c0,1,0.2,2,0.5,2.9l0,0v0.1
			c0.2,0.6,0.4,1.1,0.7,1.6l8,17.6l8.5-18.6l0,0C237,169.1,237.3,167.8,237.3,166.5z M228,170.6c-2.2,0-4-1.8-4-4c0-2.2,1.8-4,4-4
			s4,1.8,4,4C232,168.8,230.2,170.6,228,170.6z"/>
	</g>
</g>
<g>
	<g>
		<path class="st1" d="M162.4,356c0-5.1-4.2-9.3-9.3-9.3c-5.1,0-9.3,4.2-9.3,9.3c0,1,0.2,2,0.5,2.9l0,0v0.1c0.2,0.6,0.4,1.1,0.7,1.6
			l8,17.6l8.5-18.6l0,0C162.1,358.6,162.4,357.3,162.4,356z M153.1,360.1c-2.2,0-4-1.8-4-4c0-2.2,1.8-4,4-4s4,1.8,4,4
			C157.1,358.3,155.3,360.1,153.1,360.1z"/>
	</g>
</g>
<g>
	<g>
		<path class="st1" d="M243.4,471.3c0-5.1-4.2-9.3-9.3-9.3c-5.1,0-9.3,4.2-9.3,9.3c0,1,0.2,2,0.5,2.9l0,0v0.1
			c0.2,0.6,0.4,1.1,0.7,1.6l8,17.6l8.5-18.6l0,0C243.1,473.9,243.4,472.6,243.4,471.3z M234.1,475.4c-2.2,0-4-1.8-4-4
			c0-2.2,1.8-4,4-4c2.2,0,4,1.8,4,4C238.1,473.6,236.3,475.4,234.1,475.4z"/>
	</g>
</g>
<g>
	<text transform="matrix(1 0 0 1 340.1973 81.8828)" class="st2 st3">Jalandhar</text>
	<text transform="matrix(1 0 0 1 292.0352 96.25)" class="st4 st5">Head office &amp; Manufacturing unit</text>
</g>
<text transform="matrix(1 0 0 1 47.2992 137.3759)" class="st2 st6">Delhi</text>
<text transform="matrix(1 0 0 1 30.0297 151.8241)" class="st4 st7">Branch Office</text>
<g>
	<text transform="matrix(1 0 0 1 30.0298 423.4006)" class="st2 st6">Munbai</text>
	<text transform="matrix(1 0 0 1 21.835 437.8489)" class="st4 st7">Branch Office</text>
</g>
<g>
	<text transform="matrix(1 0 0 1 299.6714 551.5256)" class="st2 st6">Bangalore</text>
	<text transform="matrix(1 0 0 1 308.0227 565.9739)" class="st4 st7">Branch Office</text>
</g>
<rect x="199.7" y="127.3" class="st1" width="59.9" height="1"/>
<rect x="259.6" y="127.3" width="128.1" height="1"/>
<rect x="140.7" y="188.6" class="st1" width="86.7" height="1"/>
<rect x="233.7" y="492.4" class="st1" width="51.8" height="1"/>
<rect x="285.6" y="492.4" width="62.9" height="1"/>
<rect x="347.9" y="492.4" width="1" height="31.9"/>
<rect x="70.4" y="188.5" width="70.9" height="1"/>
<rect x="387.3" y="115.7" width="1" height="12.6"/>
<rect x="69.9" y="167.7" width="1" height="21.8"/>
<circle cx="387.8" cy="112" r="4.5"/>
<circle cx="70.4" cy="164.4" r="4.5"/>
<rect x="61.8" y="378.2" width="88.4" height="1"/>
<rect x="61.8" y="378.2" width="1" height="21.8"/>
<circle cx="62.3" cy="403.3" r="4.5"/>
<circle cx="348.4" cy="525.3" r="4.5"/>
</svg>
