<svg id="Layer_1" data-name="Layer 1" xmlns="http://www.w3.org/2000/svg" viewBox="0 0 80 80"><defs><style>.cls-1{fill:#002860;}</style></defs><title>address verification</title><path class="cls-1" d="M70.39,65.16a98.27,98.27,0,0,0-22.28-3.41L40.87,72.54a1,1,0,0,1-1.45.29,1.14,1.14,0,0,1-.29-.29L31.89,61.75A97.7,97.7,0,0,0,9.63,65.16C4.21,66.81,1,68.91,1,70.77c0,2.54,5.65,4.89,11,6.25,7.48,1.92,17.45,3,28.07,3s20.59-1.06,28.07-3c5.3-1.36,11-3.71,11-6.25C79,68.91,75.8,66.81,70.39,65.16Z"/><path class="cls-1" d="M31,21.35h.36a1.09,1.09,0,0,1,1.13,1V35.64h4.18V31.05a1,1,0,0,1,1-1H42.2a1.06,1.06,0,0,1,1.11,1v4.59h4.18V22.36a1.09,1.09,0,0,1,1.13-1H49l-9-6.54Z"/><rect class="cls-1" x="38.78" y="32.15" width="2.44" height="3.48"/><path class="cls-1" d="M40,7A18.12,18.12,0,1,0,58.12,25.12h0A18.14,18.14,0,0,0,40,7ZM53.19,22.7a1.06,1.06,0,0,1-1,.74H49.58V36.76a.92.92,0,0,1-.85,1H31.38a.9.9,0,0,1-1-.86V23.44H27.8a1.07,1.07,0,0,1-1-1.09,1.1,1.1,0,0,1,.43-.83l12.19-8.88a1.05,1.05,0,0,1,1.24,0l12.19,8.88a1.06,1.06,0,0,1,.38,1.18Z"/><path class="cls-1" d="M40,0A25.08,25.08,0,0,0,19.17,39.06L40,70.08l20.83-31A25.07,25.07,0,0,0,40,0Zm0,45.33A20.21,20.21,0,1,1,60.21,25.12,20.21,20.21,0,0,1,40,45.33Z"/></svg>