<svg id="Layer_1" data-name="Layer 1" xmlns="http://www.w3.org/2000/svg" viewBox="0 0 80 80"><defs><style>.cls-1,.cls-2{fill:#002860;}.cls-2{stroke:#002860;stroke-miterlimit:10;stroke-width:2px;}</style></defs><title>anti money laundering &amp;amp; know your vendor &amp;amp; clients services</title><path class="cls-1" d="M47.27,48.28h8a6.89,6.89,0,0,1,5.38-5.38V37.1a6.89,6.89,0,0,1-5.38-5.38h-1l-4.14,4.14A11,11,0,0,1,47.27,48.28Z"/><path class="cls-1" d="M13.79,53.79h6.33L23,50.94a1.38,1.38,0,0,1-.91-1.28,4.14,4.14,0,0,0-4.14-4.14,1.38,1.38,0,0,1-1.38-1.38V35.86a1.38,1.38,0,0,1,1.38-1.38,4.14,4.14,0,0,0,4.14-4.14A1.37,1.37,0,0,1,23.45,29H45l2.76-2.76H13.79Z"/><path class="cls-1" d="M32.73,31.72h-8a6.89,6.89,0,0,1-5.38,5.38v5.8a6.89,6.89,0,0,1,5.38,5.38h.95l4.14-4.14a11,11,0,0,1,2.95-12.42Z"/><path class="cls-1" d="M31.72,40A8.09,8.09,0,0,0,32,42L42,32a8.09,8.09,0,0,0-2-.24A8.28,8.28,0,0,0,31.72,40Z"/><path class="cls-1" d="M66.21,26.21H59.88L57,29.06a1.38,1.38,0,0,1,.91,1.28,4.14,4.14,0,0,0,4.14,4.14,1.38,1.38,0,0,1,1.38,1.38v8.28a1.38,1.38,0,0,1-1.38,1.38,4.14,4.14,0,0,0-4.14,4.14A1.37,1.37,0,0,1,56.55,51H35.05l-2.76,2.76H66.21Z"/><path class="cls-2" d="M40,1A39,39,0,1,0,79,40,39,39,0,0,0,40,1ZM13.35,64h0a1.3,1.3,0,0,1-1-.47,36.31,36.31,0,0,1,51.17-51.1,1.36,1.36,0,0,1,.08,2L14.3,63.57A1.28,1.28,0,0,1,13.35,64ZM40,76.31a36.28,36.28,0,0,1-23.49-8.63,1.36,1.36,0,0,1-.08-2L65.7,16.43a1.36,1.36,0,0,1,2,.08A36.3,36.3,0,0,1,40,76.31Z"/><path class="cls-1" d="M48.28,40A8.09,8.09,0,0,0,48,38L38,48a8.09,8.09,0,0,0,2,.24A8.28,8.28,0,0,0,48.28,40Z"/></svg>