<svg id="Layer_1" data-name="Layer 1" xmlns="http://www.w3.org/2000/svg" viewBox="0 0 80 80"><defs><style>.cls-1{fill:#002860;}</style></defs><title>assessment</title><path class="cls-1" d="M3.33,18.33H7.05a15,15,0,0,0,29.23,0h7.44a15,15,0,0,0,29.23,0h3.72a3.33,3.33,0,0,0,0-6.66H73a15,15,0,0,0-29.23,0H36.28a15,15,0,0,0-29.23,0H3.33a3.33,3.33,0,1,0,0,6.66Zm47.38-6.66A8.2,8.2,0,1,1,50,15,8.21,8.21,0,0,1,50.71,11.67ZM14,11.67A8.2,8.2,0,1,1,13.33,15,8.47,8.47,0,0,1,14,11.67Z"/><path class="cls-1" d="M78.33,38.33h-50A1.67,1.67,0,0,0,26.67,40v6.65h25a5,5,0,0,1,5,5V80H80V40A1.68,1.68,0,0,0,78.33,38.33Z"/><path class="cls-1" d="M50,50H3.33A3.35,3.35,0,0,0,0,53.33V79.88L.12,80h53.2V53.33A3.34,3.34,0,0,0,50,50ZM42.5,75H10.83a2.5,2.5,0,1,1,0-5H42.5a2.5,2.5,0,0,1,0,5Zm0-10H10.83a2.5,2.5,0,1,1,0-5H42.5a2.5,2.5,0,0,1,0,5Z"/></svg>