<svg id="Layer_1" data-name="Layer 1" xmlns="http://www.w3.org/2000/svg" viewBox="0 0 80 80"><defs><style>.cls-1{fill:#002860;}</style></defs><title>audit report</title><path class="cls-1" d="M50.93,29.76a18.2,18.2,0,0,1,10,4.41V.26H0V79.74H60.9V70.43l-2,2-6.19-6.19c-.59.12-1.19.22-1.78.28V74H42V65.5h.14a18.29,18.29,0,0,1-6.52-4.22c-.27-.28-.53-.55-.78-.84v.31H26V52.22h4.68a18.41,18.41,0,0,1-.44-4.74H26V39h6.64A18.58,18.58,0,0,1,42,30.88V25.76h8.88ZM18.86,74H10V65.5h8.88Zm0-13.24H10V52.22h8.88Zm0-13.23H10V39h8.88Zm0-13.24H10V25.75h8.88Zm16,31.21V74H26V65.5Zm0-31.21H26V25.75H34.9Zm-29-13.58V6.06H55.1V20.71Z"/><path class="cls-1" d="M50.93,29.75h0a1.66,1.66,0,0,1-.54-.06A5,5,0,0,1,50.93,29.75Z"/><path class="cls-1" d="M60.67,36.22a16.85,16.85,0,1,0,0,23.83,16.85,16.85,0,0,0,0-23.83ZM56.55,55.93a11,11,0,1,1,0-15.58,11,11,0,0,1,0,15.58Z"/><path class="cls-1" d="M70.65,58.33,58.9,70.07l-4.34-4.34A18.64,18.64,0,0,0,66.33,54Z"/><path class="cls-1" d="M78.73,78.15a4.37,4.37,0,0,1-6.16,0v0l-9.69-9.69L69,62.29,78.73,72A4.36,4.36,0,0,1,78.73,78.15Z"/><path class="cls-1" d="M48.76,47.43a2.07,2.07,0,1,1,2.07-2.07h1.38A3.46,3.46,0,0,0,49.45,42V39.66H48.07V42a3.45,3.45,0,0,0,.69,6.82,2.07,2.07,0,1,1-2.07,2.07H45.32a3.43,3.43,0,0,0,2.75,3.38v2.36h1.38V54.26a3.45,3.45,0,0,0-.69-6.83Z"/></svg>