<svg id="Layer_1" data-name="Layer 1" xmlns="http://www.w3.org/2000/svg" viewBox="0 0 80 80"><defs><style>.cls-1{fill:#002860;}</style></defs><title>biometric checks</title><path class="cls-1" d="M59.2,0H20.82a4.93,4.93,0,0,0-4.93,4.93V66.14a4.93,4.93,0,0,0,4.93,4.91h3.7V58h-2.1V13.08H57.58V58H55.49V71.05h3.76a4.91,4.91,0,0,0,4.86-4.91V4.93A4.92,4.92,0,0,0,59.2,0ZM44.39,8.57H35.62a1.63,1.63,0,1,1,0-3.26h8.77a1.63,1.63,0,1,1,0,3.26Z"/><path class="cls-1" d="M40,30.28A12.22,12.22,0,0,0,27.79,42.5V78.36A1.65,1.65,0,0,0,29.43,80H50.58a1.65,1.65,0,0,0,1.65-1.64V42.5A12.22,12.22,0,0,0,40,30.28Zm5.25,44.06H34.76a1.63,1.63,0,0,1,0-3.26h10.5a1.63,1.63,0,1,1,0,3.26Zm0-5.38H34.76a1.63,1.63,0,0,1,0-3.26h10.5a1.63,1.63,0,1,1,0,3.26Zm1.92-21.3a1.63,1.63,0,0,1-1.63,1.63H34.47a1.63,1.63,0,0,1-1.64-1.63V42.83a.15.15,0,0,1,0-.07,7.17,7.17,0,0,1,14.34.14Z"/><path class="cls-1" d="M40,39A3.92,3.92,0,0,0,36.1,42.9V46h7.81V42.9A3.92,3.92,0,0,0,40,39Z"/><path class="cls-1" d="M41.4,23.92V21.26a1.64,1.64,0,1,0-3.27,0v2.66a1.64,1.64,0,0,0,3.27,0Z"/><path class="cls-1" d="M34.21,27.85a1.63,1.63,0,0,0,0-2.31l-1.88-1.88A1.63,1.63,0,1,0,30,26l1.88,1.88A1.63,1.63,0,0,0,34.21,27.85Z"/><path class="cls-1" d="M47.63,27.85,49.51,26a1.63,1.63,0,1,0-2.31-2.31l-1.88,1.88a1.63,1.63,0,0,0,2.31,2.31Z"/></svg>