<svg id="Layer_1" data-name="Layer 1" xmlns="http://www.w3.org/2000/svg" viewBox="0 0 80 80"><defs><style>.cls-1{fill:#002860;}</style></defs><title>brand disputes</title><path class="cls-1" d="M37.62,29.57a1.39,1.39,0,0,0-1-.12,1.81,1.81,0,0,0-.79,1.2l2.24-.91a3.9,3.9,0,0,1,.48-.17A1.25,1.25,0,0,1,37.62,29.57Z"/><path class="cls-1" d="M29.5,48l1.55-6.62a16.25,16.25,0,0,1-1.71-3.18,15.28,15.28,0,0,1-1-8.58H1.29A1.25,1.25,0,0,0,0,30.83,1.29,1.29,0,0,0,.53,31.9L23.77,49.62,14.89,78.34a1.24,1.24,0,0,0,.82,1.56,1.27,1.27,0,0,0,1.13-.2L35.7,65.3l-6-14.49A4.66,4.66,0,0,1,29.5,48Z"/><path class="cls-1" d="M62.71,70.56l-7.49,3.06,8,6.1A1.27,1.27,0,0,0,65,79.49a1.29,1.29,0,0,0,.2-1.14Z"/><path class="cls-1" d="M78.71,29.62H50.06L41.19.9a1.25,1.25,0,0,0-2.38,0l-7,22.82a8.26,8.26,0,0,1,2-1.19,8.63,8.63,0,0,1,6.76.13,13.11,13.11,0,0,1,5.62,4.78,1.25,1.25,0,0,1-2.06,1.41,11.4,11.4,0,0,0-3.18-3.2h0c-.26-.16-.53-.31-.8-.45l-.27-.13-.27-.13-.24-.09L39,24.74a6.44,6.44,0,0,0-.72-.2L38,24.49l-.55-.07H37.2a4.69,4.69,0,0,0-.75,0h-.11a4.92,4.92,0,0,0-.67.1l-.21.05a6.44,6.44,0,0,0-.74.25,5.57,5.57,0,0,0-1.54.95A7.09,7.09,0,0,0,31.1,29a12.27,12.27,0,0,0,.56,8.23l.24.52h0a13.54,13.54,0,0,0,1.87,3l-1.83,7.8a2.11,2.11,0,0,0,.11,1.29l10.28,25a1.23,1.23,0,0,0,1.15.77,1.27,1.27,0,0,0,.47-.09l14.46-5.9h0l5.14-2.1a1.25,1.25,0,0,0,.68-1.63h0L54,40.91a2.16,2.16,0,0,0-.84-1L41,32.23a2.14,2.14,0,0,0-2-.17l-2.54,1a2.1,2.1,0,0,0-1.25,1.48l-.68,2.9c-.2-.38-.38-.76-.55-1.16-1.48-3.67-.93-7.55,1.19-8.92l.06,0a2.93,2.93,0,0,1,.9-.36h.07a3.38,3.38,0,0,1,1-.1h0a3.33,3.33,0,0,1,.55.1h0a3,3,0,0,1,.46.14l.17.06.14.06a1.25,1.25,0,0,1-.07,2.27,4.74,4.74,0,0,1,3.71.54L54.47,37.8A4.55,4.55,0,0,1,56.28,40l3,7.31L79.46,31.9a1.25,1.25,0,0,0,.32-1.74A1.28,1.28,0,0,0,78.71,29.62ZM35.85,42.8a9.12,9.12,0,0,0,1,.63A4.8,4.8,0,0,0,37.27,45,5.16,5.16,0,0,0,42,48.13,5.24,5.24,0,0,0,44,47.77,1.25,1.25,0,0,0,43,45.44a2.69,2.69,0,0,1-3.3-1.06h.55a5.71,5.71,0,0,0,2.2-.43,1.25,1.25,0,1,0-1-2.31,3.37,3.37,0,0,1-1.75.2,2.56,2.56,0,0,1,1.25-1,2.69,2.69,0,0,1,3.47,1.38,1.25,1.25,0,0,0,2.3-1,5.21,5.21,0,0,0-6.68-2.72,5,5,0,0,0-2.64,2.36,6.63,6.63,0,0,1-1-.78l1.11-4.76,2.2-.89L51.73,42l9.76,23.73-2.85,1.16-4.7-11.4a1.25,1.25,0,0,0-1.63-.68,1.24,1.24,0,0,0-.68,1.63l4.68,11.38L48.43,71,43.75,59.6a1.25,1.25,0,0,0-1.63-.68,1.24,1.24,0,0,0-.68,1.63l4.68,11.37-2,.8L34.38,49Z"/></svg>