<svg id="Layer_1" data-name="Layer 1" xmlns="http://www.w3.org/2000/svg" viewBox="0 0 80 80"><defs><style>.cls-1{fill:#002860;}</style></defs><title>breach of contract disputes</title><path class="cls-1" d="M57.92,27.34A10.49,10.49,0,1,1,47.43,37.83,10.49,10.49,0,0,1,57.92,27.34ZM72.7,59.88V77.61A2.39,2.39,0,0,1,70.31,80H45.53a2.39,2.39,0,0,1-2.39-2.39V59.88c0-5,3.43-9.12,7.63-9.12H65.08C69.27,50.76,72.7,54.86,72.7,59.88Zm-18-5.54.68,4.46c0,.15.24.27.5.27h4c.26,0,.48-.12.5-.27l.69-4.46c0-.18-.21-.33-.51-.33H55.25C55,54,54.72,54.16,54.75,54.34Zm7.48,18.23L60.49,61.18a.82.82,0,0,0-.8-.69H56.16a.82.82,0,0,0-.8.69L53.62,72.57a.8.8,0,0,0,.28.75l3.5,2.91a.81.81,0,0,0,1,0L62,73.32A.84.84,0,0,0,62.23,72.57ZM22.08,48.32A10.49,10.49,0,1,0,11.59,37.83,10.49,10.49,0,0,0,22.08,48.32ZM36.86,59.88V77.61A2.39,2.39,0,0,1,34.47,80H9.69A2.39,2.39,0,0,1,7.3,77.61V59.88c0-5,3.43-9.12,7.62-9.12H29.23C33.43,50.76,36.86,54.86,36.86,59.88Zm-18-5.54.69,4.46c0,.15.24.27.5.27h4c.26,0,.47-.12.5-.27l.68-4.46c0-.18-.2-.33-.5-.33H19.41C19.11,54,18.88,54.16,18.9,54.34Zm7.48,18.23L24.64,61.18a.82.82,0,0,0-.8-.69H20.31a.82.82,0,0,0-.8.69L17.77,72.57a.84.84,0,0,0,.28.75l3.51,2.91a.81.81,0,0,0,1,0l3.5-2.91A.8.8,0,0,0,26.38,72.57ZM56.7,21,41.6,18a1,1,0,0,1-.81-.78,1.05,1.05,0,0,1,.38-1.06l1.68-1.28-2.16-3.76A1,1,0,0,1,41,9.75l3.43-2.62L42.24,3.38A1,1,0,0,1,42.51,2L44.9.21A1,1,0,0,1,45.74,0L60.32,2.94a1,1,0,0,1,.81,1.23l-3.21,16a1,1,0,0,1-.44.66,1.12,1.12,0,0,1-.58.17Zm-.61-2.24,2.8-14L45.79,2.15l-1.3,1,2.16,3.74a1.05,1.05,0,0,1-.27,1.35l-3.44,2.62L45.1,14.6a1,1,0,0,1-.27,1.34l-.58.45ZM54.78,8a.68.68,0,0,1-.19.94.66.66,0,0,1-.93-.19,2,2,0,0,0-.87-.65l-.42,2.11a2.84,2.84,0,0,1,1.31,1.2,2.16,2.16,0,0,1,.17,1.7,2.41,2.41,0,0,1-2.37,1.53l-.1.51a.67.67,0,0,1-.66.54h-.13a.67.67,0,0,1-.53-.8l.09-.44a3.38,3.38,0,0,1-1.72-1.25.67.67,0,0,1,1.12-.75,1.88,1.88,0,0,0,.86.66L50.83,11a3.15,3.15,0,0,1-1.28-1.25,2.19,2.19,0,0,1-.2-1.7,2.44,2.44,0,0,1,2.38-1.54l.1-.5a.67.67,0,1,1,1.32.26l-.09.45A3.37,3.37,0,0,1,54.78,8Zm-3.66,1.6.33-1.66a1,1,0,0,0-.81.56.9.9,0,0,0,.1.66A1.56,1.56,0,0,0,51.12,9.59ZM52.49,12a1.3,1.3,0,0,0-.4-.45l-.33,1.66a1,1,0,0,0,.81-.56A.85.85,0,0,0,52.49,12ZM39.57,14a1,1,0,0,1,.24,1.34L38.24,18a1,1,0,0,1-.71.48L22.88,21h-.17a1,1,0,0,1-.6-.19,1,1,0,0,1-.43-.67L18.86,4.07a1,1,0,0,1,.85-1.2L34.87.21a1,1,0,0,1,1.07,1.56l-1.09,1.8,3.36,2.7a1,1,0,0,1,.24,1.35L36.2,11.31Zm-2,1-3.37-2.71A1,1,0,0,1,34,11L36.2,7.32,32.83,4.61a1,1,0,0,1-.23-1.35L33,2.65,21.09,4.73l2.46,14.05,13.16-2.3Zm-7.1-4.34a2.14,2.14,0,0,1,.78,1.51,2.43,2.43,0,0,1-1.65,2.3l.08.5a.68.68,0,0,1-.54.79H29a.69.69,0,0,1-.67-.56l-.07-.45h-.19a3.27,3.27,0,0,1-1.87-.55A.68.68,0,0,1,27,13.18a1.9,1.9,0,0,0,1,.28l-.36-2.05a3,3,0,0,1-1.64-.7,2.18,2.18,0,0,1-.81-1.51,2.44,2.44,0,0,1,1.66-2.3l-.09-.5a.67.67,0,0,1,.55-.78.68.68,0,0,1,.78.55l.08.45a3.27,3.27,0,0,1,2.05.53.68.68,0,0,1-.78,1.11,1.86,1.86,0,0,0-1-.28l.36,2.1A2.86,2.86,0,0,1,30.46,10.73ZM27.41,10,27.12,8.3a1,1,0,0,0-.55.81.83.83,0,0,0,.34.58A1.62,1.62,0,0,0,27.41,10Zm2.48,2.36a.84.84,0,0,0-.31-.58,1.4,1.4,0,0,0-.53-.27l.29,1.66A1,1,0,0,0,29.89,12.33Z"/></svg>