<svg id="Layer_1" data-name="Layer 1" xmlns="http://www.w3.org/2000/svg" viewBox="0 0 80 80"><defs><style>.cls-1{fill:#002860;}</style></defs><title>civil-criminal record</title><path class="cls-1" d="M1.09,6.16H26.66A11.76,11.76,0,0,1,28.1,4h-27a1.09,1.09,0,0,0,0,2.18Z"/><path class="cls-1" d="M78.91,6.16a1.09,1.09,0,1,0,0-2.18h-27A11.71,11.71,0,0,1,53.3,6.16Z"/><path class="cls-1" d="M1.09,19H25.31c-.14-.72-.24-1.46-.31-2.18H1.09a1.09,1.09,0,0,0,0,2.18Z"/><path class="cls-1" d="M78.91,16.82H55c-.07.72-.17,1.46-.31,2.18H78.91a1.09,1.09,0,1,0,0-2.18Z"/><path class="cls-1" d="M1.09,31.83H31a17.68,17.68,0,0,1-1.58-2.17H1.09a1.09,1.09,0,1,0,0,2.17Z"/><path class="cls-1" d="M78.91,29.66H50.59A19.79,19.79,0,0,1,49,31.83H78.91a1.09,1.09,0,1,0,0-2.17Z"/><path class="cls-1" d="M16.8,42.49H1.09a1.09,1.09,0,0,0,0,2.18H12.5Z"/><path class="cls-1" d="M78.91,42.49H63.2l4.3,2.18H78.91a1.09,1.09,0,1,0,0-2.18Z"/><path class="cls-1" d="M40,36.7a10.8,10.8,0,0,1-7.28-3.08v3.27h0l-.78.42s0,0,.06.06a5.57,5.57,0,0,0,.59.5A11.28,11.28,0,0,0,40,40.25,11.24,11.24,0,0,0,47.33,38a5.57,5.57,0,0,0,.59-.5.65.65,0,0,1,.18-.15l-.82-.42V33.62A10.8,10.8,0,0,1,40,36.7Z"/><path class="cls-1" d="M31.84,10.11a22.58,22.58,0,0,0,8.13.94c2.49-.21,4.51-1.29,4.51-2.87,0,1.58,2,2.87,4.52,2.87a5.83,5.83,0,0,0,3.44-1h0C50.93,3.82,45.94,1.09,40,1.09c-5.37,0-10,2.22-11.94,7.23A31.07,31.07,0,0,0,31.84,10.11Z"/><path class="cls-1" d="M52.85,12.32a8.21,8.21,0,0,1-3.83.9,8,8,0,0,1-4.59-1.34,9.11,9.11,0,0,1-4.28,1.33c-.59,0-1.17.08-1.74.08a26.08,26.08,0,0,1-7.18-1.09,25.64,25.64,0,0,1-3.8-1.76,18.32,18.32,0,0,0-.38,3.84,26.63,26.63,0,0,0,5.67,16.23,9.86,9.86,0,0,0,7.28,4,9.86,9.86,0,0,0,7.28-4A26.63,26.63,0,0,0,53,14.28,18.25,18.25,0,0,0,52.85,12.32Z"/><polygon class="cls-1" points="9.96 78.91 19.3 78.91 19.3 75.15 10.49 74.17 9.96 78.91"/><polygon class="cls-1" points="60.7 75.15 60.7 78.91 70.04 78.91 69.5 74.13 60.7 75.15"/><path class="cls-1" d="M60.7,73l10.51-1.22L69,47.87,50.54,38.54l5.38,15.54a.8.8,0,0,0,0,.15.6.6,0,0,1,0,.2V74.18a1.08,1.08,0,0,1-1.08,1.08H25.1A1.08,1.08,0,0,1,24,74.18h0V54.43a.47.47,0,0,1,0-.17c0-.07,0-.12,0-.18l5.41-15.55L11,47.87,8.79,71.8,19.3,73V61.37a1.09,1.09,0,1,1,2.17,0h0V78.91H58.53V61.37a1.09,1.09,0,0,1,2.17,0Z"/><path class="cls-1" d="M53.37,53.36,48.65,39.7A13.41,13.41,0,0,1,40,42.43a13.43,13.43,0,0,1-8.62-2.71L26.63,53.36Z"/><path class="cls-1" d="M26.19,73.09H53.81V55.51H26.19ZM42.44,60.28H47.6a1.08,1.08,0,0,1,1.08,1.09,1.07,1.07,0,0,1-1.08,1.08H42.44a1.07,1.07,0,0,1-1.08-1.08,1.08,1.08,0,0,1,1.08-1.09Zm0,6.24H47.6a1.09,1.09,0,0,1,0,2.18H42.44a1.09,1.09,0,0,1,0-2.18Zm-10-6.24h5.15a1.09,1.09,0,1,1,0,2.17H32.4a1.08,1.08,0,0,1-1.09-1.08,1.09,1.09,0,0,1,1.09-1.09Zm0,6.24h5.15a1.09,1.09,0,0,1,0,2.18H32.4a1.09,1.09,0,0,1,0-2.18Z"/></svg>