<svg id="Layer_1" data-name="Layer 1" xmlns="http://www.w3.org/2000/svg" viewBox="0 0 80 80"><defs><style>.cls-1{fill:#002860;}</style></defs><title>company legitimacy check</title><path class="cls-1" d="M76.57,71.73c-1-7.82-8.44-11.91-13.33-13.86L55.33,71.2,54.62,62l1.86-4.26H49.37L51.15,62l-.71,9.16L42.62,57.87c-5,1.86-12.36,6-13.34,13.86a2.94,2.94,0,0,0,1.25,2.85C33.19,76.44,40,80,52.93,80h0c13,0,19.73-3.56,22.4-5.42A3.1,3.1,0,0,0,76.57,71.73Zm-9.06,1.78H60.57V71.64h6.94Z"/><ellipse class="cls-1" cx="52.93" cy="42.49" rx="11.82" ry="12.44"/><path class="cls-1" d="M32.39,60.36H23.33V57.07H37c1-.54,1.95-1,2.93-1.43h0l3.11-1.42a15.54,15.54,0,0,1-5.15-11.73A15.2,15.2,0,0,1,52.84,27a13.51,13.51,0,0,1,3.82.54V7.64a1.56,1.56,0,0,0-1.51-1.51H41.82V2a2,2,0,0,0-2-2H20.22a2,2,0,0,0-2,2V6.22H4.93A1.56,1.56,0,0,0,3.42,7.73V75.64a2.06,2.06,0,0,0,2,2h19.2V62h5.78Zm15-43.12h3.82V26H47.42Zm-5,0h3.82V26H42.44ZM29.91,44.09H26.08V35.38h3.83Zm0-18.05H26.08V17.33h3.83Zm5,18.05H31.06V35.38h3.82Zm0-18.05H31.06V17.33h3.82ZM13.55,63.56H9.82V54.84h3.82v8.72Zm0-19.47H9.82V35.38h3.82v8.71Zm0-18.05H9.82V17.33h3.82V26Zm5,37.52H14.71V54.84h3.82Zm0-19.47H14.71V35.38h3.82Zm0-18.05H14.71V17.33h3.82Z"/></svg>