<svg id="Layer_1" data-name="Layer 1" xmlns="http://www.w3.org/2000/svg" viewBox="0 0 80 80"><defs><style>.cls-1{fill:#002860;}</style></defs><title>construction disputes and claims</title><path class="cls-1" d="M78.4,46.4H76.8V32a1.6,1.6,0,1,0-3.2,0v8H68.8V36.8a1.6,1.6,0,1,0-3.2,0V40H60.8V35.2a1.6,1.6,0,1,0-3.2,0V49.6H52.8V46.4a1.6,1.6,0,1,0-3.2,0v3.2H44.8V43.2a1.6,1.6,0,1,0-3.2,0V56H40a1.6,1.6,0,0,0-1.6,1.6V78.4A1.6,1.6,0,0,0,40,80H78.4A1.6,1.6,0,0,0,80,78.4V48A1.6,1.6,0,0,0,78.4,46.4ZM49.6,56H44.8V52.8h4.8Zm8,0H52.8V52.8h4.8Zm8-9.6H60.8V43.2h4.8Zm8,0H68.8V43.2h4.8Z"/><path class="cls-1" d="M54.4,38.4V32a1.6,1.6,0,0,0-1.6-1.6H43.2V20.8H73.6a1.6,1.6,0,0,0,1.6-1.6V16a1.59,1.59,0,0,0-.86-1.42L65,9.78a1.59,1.59,0,0,0-.74-.18H23.14L17.34.72A1.6,1.6,0,0,0,16,0H12.8a1.6,1.6,0,0,0-1.6,1.6v8H6.27a1.6,1.6,0,0,0-1.15.48L.45,14.88A1.61,1.61,0,0,0,0,16v3.2a1.6,1.6,0,0,0,1.6,1.6h9.6v48H8a1.6,1.6,0,0,0-1.6,1.6v8A1.6,1.6,0,0,0,8,80H27.2a1.6,1.6,0,0,0,1.6-1.6v-8a1.6,1.6,0,0,0-1.6-1.6H24v-48H40v9.6H30.4A1.6,1.6,0,0,0,28.8,32v6.4A1.6,1.6,0,0,0,30.4,40H52.8A1.6,1.6,0,0,0,54.4,38.4ZM20.14,20.8,14.4,26.54V20.8Zm0,19.2L14.4,45.74V34.26ZM14.4,3.2h.74l4.17,6.4H14.4Zm0,50.26,5.74,5.74L14.4,64.94ZM20.8,68.8H15.06l5.74-5.74Zm0-13.46L15.06,49.6l5.74-5.74Zm0-19.2L15.06,30.4l5.74-5.74Z"/></svg>