<svg id="Layer_1" data-name="Layer 1" xmlns="http://www.w3.org/2000/svg" viewBox="0 0 80 80"><defs><style>.cls-1{fill:#002860;}</style></defs><title>contingency planning</title><path class="cls-1" d="M72,61.7a7.93,7.93,0,1,1-7.92-8.28A8.11,8.11,0,0,1,72,61.7Zm-2.31,0a5.6,5.6,0,1,0-5.6,5.88,5.76,5.76,0,0,0,5.58-5.88Zm-2.31.69v1a.69.69,0,0,1-.67.69H62.4a.68.68,0,0,1-.66-.69V58.25a.68.68,0,0,1,.66-.69h1a.69.69,0,0,1,.67.69V61.7H66.7a.69.69,0,0,1,.66.69Z"/><polygon class="cls-1" points="65.3 32.14 54.51 25.9 54.51 29.64 10.51 29.64 10.51 34.64 54.51 34.64 54.51 38.38 65.3 32.14"/><polygon class="cls-1" points="48.43 45.16 37.64 38.93 37.64 42.66 10.51 42.66 10.51 47.66 37.64 47.66 37.64 51.39 48.43 45.16"/><polygon class="cls-1" points="31.98 58.18 21.18 51.95 21.18 55.68 10.51 55.68 10.51 60.68 21.18 60.68 21.18 64.42 31.98 58.18"/><path class="cls-1" d="M74.79,10.21H64.06V4.66A4.16,4.16,0,0,0,59.9.49H53.44a4.17,4.17,0,0,0-4.17,4.17v5.55H30.73V4.66A4.17,4.17,0,0,0,26.56.49H20.1a4.16,4.16,0,0,0-4.16,4.17h0v5.55H5.21A5.23,5.23,0,0,0,0,15.42V74.3a5.23,5.23,0,0,0,5.21,5.21h69.6A5.23,5.23,0,0,0,80,74.3V15.42A5.23,5.23,0,0,0,74.79,10.21ZM54.17,5h5v12.8h-5ZM20.8,5h5v12.8h-5Zm53,66.8H6.15V22.07h67.7Z"/></svg>