<svg id="Layer_1" data-name="Layer 1" xmlns="http://www.w3.org/2000/svg" viewBox="0 0 80 80"><defs><style>.cls-1{fill:#002860;}</style></defs><title>customer service</title><path class="cls-1" d="M39.44,42.59A4.57,4.57,0,0,1,44,38h3.34a4.55,4.55,0,0,1,2.91,1,20.77,20.77,0,0,0,3.23-.68A20.41,20.41,0,0,0,56.8,27.61a16.8,16.8,0,0,0-33.6,0c0,9.26,7.54,19.09,16.8,19.09a13.38,13.38,0,0,0,1.8-.13A4.55,4.55,0,0,1,39.44,42.59Z"/><path class="cls-1" d="M52.61,46.87a19.3,19.3,0,0,1-11.72,4H39.12a19.3,19.3,0,0,1-11.73-4A22.36,22.36,0,0,0,8.63,68.94C8.63,75,22.67,80,40,80s31.37-5,31.37-11.06A22.36,22.36,0,0,0,52.61,46.87Z"/><path class="cls-1" d="M16.46,40.53h.21a4.18,4.18,0,0,0,4.19-4.19V28a4.2,4.2,0,0,0-2.33-3.75,21.5,21.5,0,0,1,42.94,0A4.2,4.2,0,0,0,59.14,28v8.37a4.25,4.25,0,0,0,.3,1.56,20.46,20.46,0,0,1-10,3.33,2.51,2.51,0,0,0-2.1-1.15H44a2.51,2.51,0,0,0,0,5h3.34a2.49,2.49,0,0,0,2.21-1.35,22.58,22.58,0,0,0,11.52-3.88,4.13,4.13,0,0,0,2.26.66h.21a4.18,4.18,0,0,0,4.18-4.19V28a4.15,4.15,0,0,0-2.38-3.77,25.36,25.36,0,0,0-50.67,0A4.14,4.14,0,0,0,12.28,28v8.37A4.18,4.18,0,0,0,16.46,40.53Z"/></svg>