<svg id="Layer_1" data-name="Layer 1" xmlns="http://www.w3.org/2000/svg" viewBox="0 0 80 80"><defs><style>.cls-1,.cls-2{fill:#002860;}.cls-2{stroke:#002860;stroke-miterlimit:10;}</style></defs><title>data privacy impact assessment report</title><path class="cls-1" d="M71.21,20.58H54.74A3.63,3.63,0,0,1,51.1,17V1.21A3.36,3.36,0,0,1,51.32,0H8.79a1.19,1.19,0,0,0-.86.36,1.13,1.13,0,0,0-.35.85V78.79A1.2,1.2,0,0,0,8.77,80H71.21a1.2,1.2,0,0,0,1.21-1.19V20.36A3.59,3.59,0,0,1,71.21,20.58ZM57,35.68c0,11.21-5.27,27-17,27s-17-15.79-17-27v-4a1,1,0,0,1,.76-1l16-4a1,1,0,0,1,.48,0l16,4a1,1,0,0,1,.76,1Z"/><path class="cls-1" d="M54.74,18.16H71.21A1.2,1.2,0,0,0,72.42,17a1.19,1.19,0,0,0-.37-.89L55.58.34A1.25,1.25,0,0,0,54.25.1a1.19,1.19,0,0,0-.72,1.11V17A1.2,1.2,0,0,0,54.74,18.16Z"/><path class="cls-2" d="M49.88,37.78a1,1,0,0,0-1.42,0L39.38,48.15,36.22,41.9a1,1,0,1,0-1.79.91l3.84,7.56a1,1,0,0,0,.58.5l.19,0a1,1,0,0,0,.88-.33L50,39.13A1,1,0,0,0,49.88,37.78Z"/></svg>