<svg id="Layer_1" data-name="Layer 1" xmlns="http://www.w3.org/2000/svg" viewBox="0 0 80 80"><defs><style>.cls-1{fill:#002860;}</style></defs><title>data analysis and deduplication</title><circle class="cls-1" cx="46.94" cy="26.26" r="2.76"/><circle class="cls-1" cx="30.41" cy="42.79" r="2.76"/><circle class="cls-1" cx="16.63" cy="29.01" r="2.76"/><path class="cls-1" d="M16.63,23.5A5.51,5.51,0,0,1,22.14,29a5.35,5.35,0,0,1-.78,2.78l6.27,6.27a5.34,5.34,0,0,1,5.56,0l9-9a5.35,5.35,0,0,1-.78-2.78,5.51,5.51,0,0,1,5.51-5.51,5.35,5.35,0,0,1,2.78.78l3.44-3.45A26.14,26.14,0,0,0,6.21,27.63h5.11A5.51,5.51,0,0,1,16.63,23.5Z"/><circle class="cls-1" cx="66.22" cy="6.97" r="2.76"/><path class="cls-1" d="M59.09,54.13c-.15.19-.32.37-.47.57s-.34.41-.51.61-.51.6-.77.9c-.14.15-.28.29-.41.44-.53.56-1.08,1.11-1.64,1.64l-.45.41-.89.77c-.2.18-.41.35-.62.51l-.56.47,3.81,3.81,6.32-6.32Z"/><path class="cls-1" d="M54.67,20.47l-3,3a5.59,5.59,0,0,1,.78,2.79A5.47,5.47,0,0,1,44.16,31l-9,9A5.5,5.5,0,1,1,24.9,42.79,5.35,5.35,0,0,1,25.68,40l-6.27-6.27a5.35,5.35,0,0,1-2.78.78,5.5,5.5,0,0,1-5.31-4.13H5.76a26.17,26.17,0,1,0,48.91-9.92Z"/><path class="cls-1" d="M75.94,71,64.85,59.89l-6.32,6.32L69.62,77.3A4.47,4.47,0,0,0,76,71.05.46.46,0,0,1,75.94,71Z"/><path class="cls-1" d="M54.47,55.23c.45-.46.88-.93,1.31-1.42.13-.17.28-.33.42-.5.48-.57.92-1.16,1.36-1.77a31.74,31.74,0,1,0-7.38,7.38c.61-.44,1.2-.89,1.77-1.36l.5-.42c.49-.43,1-.86,1.42-1.31C54.08,55.63,54.27,55.43,54.47,55.23ZM31.79,62.07A28.93,28.93,0,1,1,60.71,33.15,28.92,28.92,0,0,1,31.79,62.07Z"/><rect class="cls-1" x="70.36" y="5.59" width="9.64" height="2.76"/><rect class="cls-1" x="58.48" y="10.41" width="5.84" height="2.76" transform="translate(9.65 46.87) rotate(-45)"/></svg>