<svg id="Layer_1" data-name="Layer 1" xmlns="http://www.w3.org/2000/svg" viewBox="0 0 80 80"><defs><style>.cls-1{fill:#002860;}</style></defs><title>decrease manual communications</title><path class="cls-1" d="M18.86,52.51a10.77,10.77,0,0,1-5.21,1.3,10.8,10.8,0,0,1-5.22-1.3A9.54,9.54,0,0,0,0,62v5.65a.86.86,0,0,0,.85.86h25.6a.86.86,0,0,0,.85-.86V62A9.55,9.55,0,0,0,18.86,52.51Z"/><circle class="cls-1" cx="13.7" cy="42.37" r="8.24"/><path class="cls-1" d="M71.57,52.51a11.11,11.11,0,0,1-10.43,0A9.55,9.55,0,0,0,52.7,62v5.65a.86.86,0,0,0,.85.86h25.6a.86.86,0,0,0,.85-.86V62A9.54,9.54,0,0,0,71.57,52.51Z"/><circle class="cls-1" cx="66.41" cy="42.37" r="8.24"/><path class="cls-1" d="M25.92,37.67c1-1.57,2-3.11,2.93-4.67.4-.66.25-1.08-.47-1.51a14.93,14.93,0,0,1-2.79-2.15c-4-3.92-3.81-9.21.32-13a18.67,18.67,0,0,1,10-4.5,24,24,0,0,1,14,1.72,14.29,14.29,0,0,1,5.5,4.17A8.08,8.08,0,0,1,55,28.66a11.09,11.09,0,0,0-7.82-4.07,13.39,13.39,0,0,0-10,2.33c-2.22,1.68-3.28,3.87-2.68,6.57A15.52,15.52,0,0,1,25.92,37.67Z"/><path class="cls-1" d="M51.08,37.23l1.9,3a6.75,6.75,0,0,1-3.62-1.45,2.34,2.34,0,0,0-2.11-.46,12.62,12.62,0,0,1-7.86-1.15,9.67,9.67,0,0,1-2.54-2,4.47,4.47,0,0,1,.09-6.37A10.38,10.38,0,0,1,44,25.78a12.42,12.42,0,0,1,7.59,1.59c4.17,2.47,4.26,6.66.23,9.36Z"/></svg>