<svg id="Layer_1" data-name="Layer 1" xmlns="http://www.w3.org/2000/svg" viewBox="0 0 80 80"><defs><style>.cls-1{fill:#002860;}</style></defs><title>education check</title><path class="cls-1" d="M60,70a18,18,0,0,1-.73-35.58,23.92,23.92,0,0,1,5.61,0,18.15,18.15,0,0,1,8.75,4,17.42,17.42,0,0,1,4.61,6,17.93,17.93,0,0,1-8.28,23.89A18.23,18.23,0,0,1,64.06,70,26.46,26.46,0,0,1,60,70ZM58,59.09l2.19-2.19.48.24a8.56,8.56,0,0,0,2.07.72,11.18,11.18,0,0,0,3.11,0,8.27,8.27,0,0,0,6.35-5.74,9.41,9.41,0,0,0,.18-3.88A7.63,7.63,0,0,0,70,44.05a7.72,7.72,0,0,0-6.26-2.34,8.14,8.14,0,0,0-7.49,6.64,11.18,11.18,0,0,0,0,3.11A8.55,8.55,0,0,0,57,53.53l.25.47-2.19,2.2c-1.21,1.2-2.19,2.23-2.19,2.27a30.94,30.94,0,0,0,2.8,2.81c.05,0,1.08-1,2.28-2.19Zm5.28-5a4,4,0,0,1-2-1.16,4.13,4.13,0,0,1-1-4.37,4.36,4.36,0,0,1,5-2.84,4.29,4.29,0,0,1,3.3,3.53,4.44,4.44,0,0,1-2.06,4.32A4.62,4.62,0,0,1,63.25,54.12ZM0,55.05v-5H5.88V29.89l-.69-.35C4.52,29.2,2,27.83.82,27.2l-.57-.31,1.46-.77,2.61-1.41c.64-.34,1.56-.84,2.05-1.09l1.38-.74L9,22.21l1.79-.95,2.93-1.58c1.06-.56,2.1-1.12,2.32-1.25l1.24-.67c.82-.42,5.26-2.8,6.37-3.4l1.16-.62C28.06,12,29,11.46,29.87,11c.54-.28,1.22-.64,1.52-.81l.53-.29,1.74.94,2.76,1.49,1.82,1c1.17.61,4.8,2.55,6.46,3.45l2.49,1.33,2.09,1.13s.55.31,1.12.61l1.6.84,2,1.05,2.8,1.51,2.41,1.29,1.64.87,1.73.92,1.06.55-.57.29L61,28.29c-3.07,1.67-4.83,2.62-5.79,3.12l-2.58,1.38-2.36,1.27-6.06,3.25-4.4,2.36c-.79.41-2.44,1.3-3.67,2l-2.85,1.53c-.33.17-.73.39-.87.49a1.06,1.06,0,0,1-.42.18c-.08,0-1.39-.67-2.9-1.48s-3.12-1.69-3.58-1.93-1.62-.86-2.55-1.36l-3-1.63c-.73-.38-1.54-.82-1.81-1l-1.29-.69c-.45-.23-1.53-.82-2.43-1.3s-2-1.06-2.4-1.27l-1.38-.72L10,32.15V60H0ZM30.92,57.7c-.53-.3-1.26-.7-1.63-.89s-.7-.39-.75-.43-.49-.27-1-.53-1.13-.59-1.43-.76a8.46,8.46,0,0,0-.82-.45c-.16-.07-.84-.45-1.52-.83s-1.56-.87-2-1.08-.77-.41-.8-.44a3.23,3.23,0,0,0-.49-.26c-.24-.11-1-.54-1.73-.94s-1.7-1-2.18-1.21l-1.48-.79c-.31-.18-.85-.46-1.17-.63l-.6-.31V43.09c0-2.78,0-5.05.05-5.05s.69.36,1.45.8,1.47.82,1.57.86.47.24.82.45.79.44.95.51,1.13.59,2.13,1.16l3,1.66,1.94,1,2.13,1.19c1.35.76,2,1.11,3.68,2l.81.42.45-.26,1.25-.68,1.25-.67c.91-.48,3.92-2.15,4.1-2.26s.57-.32,1-.56c1.4-.73,2.24-1.19,2.55-1.37s.29-.16.29-.14-.2.46-.44,1a20.17,20.17,0,0,0-1.92,8.68v1.7l-.71.41-1.6.86c-.49.25-.94.5-1,.54s-.44.26-.85.48c-1.12.58-3,1.61-4,2.2l-.4.23-1-.53Z"/></svg>