<svg id="Layer_1" data-name="Layer 1" xmlns="http://www.w3.org/2000/svg" viewBox="0 0 80 80"><defs><style>.cls-1{fill:#002860;}</style></defs><title>email reviews</title><path class="cls-1" d="M66.22,36.53A13.78,13.78,0,1,0,80,50.31,13.79,13.79,0,0,0,66.22,36.53Zm7.87,14.78H67.22v6.87a1,1,0,1,1-2,0V51.31H58.35a1,1,0,1,1,0-2h6.87V42.44a1,1,0,1,1,2,0V49.3h6.87a1,1,0,0,1,0,2Z"/><path class="cls-1" d="M0,19.6V55.48c3.06-3,11.56-11.34,18.53-17.93C13,32.38,6.26,25.77,0,19.6Z"/><path class="cls-1" d="M54.63,38.12h0c-5.29,5-9.55,8.73-10.25,8.73h-15c-.7,0-4.59-3.41-9.88-8.36C11.6,46,1.65,55.77,0,57.37H0s0,0,0,0a2.08,2.08,0,0,0,.2.61l.05.1a2.28,2.28,0,0,0,.39.48.27.27,0,0,0,.08.07A2,2,0,0,0,1.3,59l.06,0a2,2,0,0,0,.69.13H52.87a15.93,15.93,0,0,1-2.68-8.86A15.11,15.11,0,0,1,51,45.68,16.82,16.82,0,0,1,62.59,34.79a13.77,13.77,0,0,1,3.63-.51,16,16,0,0,1,7.57,1.9V19.6C67.52,25.77,60.11,33,54.63,38.12Z"/><path class="cls-1" d="M20.53,37.54c4.61,4.34,8.15,7.54,9,8H44.29c.81-.41,4.36-3.61,9-8C59.5,31.66,67.7,23.69,73.76,17.7h0s0,0,0-.05a1.9,1.9,0,0,0-.2-.61.41.41,0,0,0,0-.09,1.83,1.83,0,0,0-.39-.49l-.07-.06a2.1,2.1,0,0,0-.55-.34l-.07,0a2,2,0,0,0-.69-.13H2.05a2,2,0,0,0-.69.13l-.07,0a2.1,2.1,0,0,0-.55.34l-.07.06A1.83,1.83,0,0,0,.28,17,.41.41,0,0,0,.23,17a2.18,2.18,0,0,0-.2.61s0,0,0,.05H0C6.09,23.69,14.29,31.66,20.53,37.54Z"/></svg>