<svg id="Layer_1" data-name="Layer 1" xmlns="http://www.w3.org/2000/svg" viewBox="0 0 80 80"><defs><style>.cls-1{fill:#002860;}.cls-2{fill:none;stroke:#002860;stroke-miterlimit:10;stroke-width:2px;}</style></defs><title>employee interactions</title><path class="cls-1" d="M44.41,24.15a6.74,6.74,0,0,1-4.1,1.39h-.62a6.74,6.74,0,0,1-4.1-1.39A7.82,7.82,0,0,0,29,31.87c0,2.14,4.91,3.88,11,3.88S51,34,51,31.87A7.82,7.82,0,0,0,44.41,24.15Z"/><ellipse class="cls-1" cx="40" cy="17.81" rx="5.88" ry="6.28"/><path class="cls-1" d="M73.43,56.88a6.79,6.79,0,0,1-4.1,1.38h-.62a6.82,6.82,0,0,1-4.11-1.38A7.82,7.82,0,0,0,58,64.6c0,2.14,4.91,3.87,11,3.87s11-1.73,11-3.87A7.82,7.82,0,0,0,73.43,56.88Z"/><ellipse class="cls-1" cx="69.02" cy="50.53" rx="5.88" ry="6.28"/><path class="cls-1" d="M15.4,56.88a6.82,6.82,0,0,1-4.11,1.38h-.62a6.79,6.79,0,0,1-4.1-1.38A7.82,7.82,0,0,0,0,64.6c0,2.14,4.92,3.87,11,3.87s11-1.73,11-3.87A7.82,7.82,0,0,0,15.4,56.88Z"/><ellipse class="cls-1" cx="10.98" cy="50.53" rx="5.88" ry="6.28"/><polyline class="cls-2" points="39.8 39.25 39.8 53.71 27.14 59.51"/><line class="cls-2" x1="52.87" y1="59.51" x2="39.8" y2="53.71"/></svg>