<svg id="Layer_1" data-name="Layer 1" xmlns="http://www.w3.org/2000/svg" viewBox="0 0 80 80"><defs><style>.cls-1{fill:#002860;}</style></defs><title>employment history</title><path class="cls-1" d="M73.26,6.79H6.74A6.74,6.74,0,0,0,0,13.53V60.74a6.75,6.75,0,0,0,6.74,6.75H22.59l.91,2.21c1.13,2.8,2.64,3.51,5.9,3.51H50.6c3.26,0,4.77-.71,5.9-3.51l.91-2.21H73.25A6.76,6.76,0,0,0,80,60.74V13.53A6.74,6.74,0,0,0,73.26,6.79Zm.61,54a.61.61,0,0,1-.61.61H6.74a.61.61,0,0,1-.61-.61V13.53a.61.61,0,0,1,.61-.61H73.26a.61.61,0,0,1,.61.61V60.74Z"/><path class="cls-1" d="M66.67,17.18H13.33a2.45,2.45,0,0,0-2.45,2.45v4.7H69.13v-4.7A2.46,2.46,0,0,0,66.67,17.18Zm-33.8,4.64a.46.46,0,0,1-.46.45H15.54a.45.45,0,0,1-.45-.45V19.7a.45.45,0,0,1,.45-.46H32.41a.45.45,0,0,1,.46.46v2.12ZM56.16,22.9a2.15,2.15,0,1,1,2.14-2.14A2.14,2.14,0,0,1,56.16,22.9Zm6,0a2.15,2.15,0,1,1,2.15-2.14A2.14,2.14,0,0,1,62.13,22.9Z"/><path class="cls-1" d="M10.88,54.61a2.46,2.46,0,0,0,2.45,2.46H66.67a2.45,2.45,0,0,0,2.45-2.46V28H10.88ZM40,32.71a.85.85,0,0,1,.85-.85H63.43a.85.85,0,0,1,.85.85v5.88a.85.85,0,0,1-.85.85H40.85a.85.85,0,0,1-.85-.85ZM40,42a.85.85,0,0,1,.85-.85H63.43a.85.85,0,0,1,.85.85v1a.85.85,0,0,1-.85.85H40.85A.85.85,0,0,1,40,43Zm0,4.72a.85.85,0,0,1,.85-.85H63.43a.85.85,0,0,1,.85.85v1a.85.85,0,0,1-.85.85H40.85a.85.85,0,0,1-.85-.85Zm0,4.71a.85.85,0,0,1,.85-.85H63.43a.85.85,0,0,1,.85.85v1a.85.85,0,0,1-.85.85H40.85a.85.85,0,0,1-.85-.85ZM22.23,31.86A4.24,4.24,0,1,1,18,36.1,4.23,4.23,0,0,1,22.23,31.86Zm-4.7,8.48H19.2l3,3.54,3-3.54h1.67a2.44,2.44,0,0,1,2.44,2.44l-1.05,8a2.19,2.19,0,0,1-2.11,2.45h-8a2.19,2.19,0,0,1-2.12-2.45l-1-8A2.44,2.44,0,0,1,17.53,40.34Z"/></svg>