<svg id="Layer_1" data-name="Layer 1" xmlns="http://www.w3.org/2000/svg" viewBox="0 0 80 80"><defs><style>.cls-1{fill:#002860;}</style></defs><title>employee-benefits</title><path class="cls-1" d="M80,36.49a5.88,5.88,0,0,0-5.89-5.88H55.61a1.65,1.65,0,0,1-1.68-2c1.26-8.09,2.94-10.83,3.68-19.13.84-8-10.62-9.46-12.3-2-3.05,13.88-14.61,23.23-18.4,26a3.09,3.09,0,0,0-1.26,2.41V69.08a3,3,0,0,0,1.79,2.74c4.1,1.68,8.72,5.57,22.39,5.57H71.17a5.89,5.89,0,1,0,0-11.78h.74a5.93,5.93,0,0,0,6-5A5.87,5.87,0,0,0,72.12,54h.73a5.84,5.84,0,1,0,.21-11.67h1A5.88,5.88,0,0,0,80,36.49Z"/><path class="cls-1" d="M17.35,34.18H2.94a2.94,2.94,0,0,0-2.94,3V68a3,3,0,0,0,2.94,3H17.35a2.94,2.94,0,0,0,2.94-3V37.23A3,3,0,0,0,17.35,34.18Z"/></svg>