<svg id="Layer_1" data-name="Layer 1" xmlns="http://www.w3.org/2000/svg" viewBox="0 0 80 80"><defs><style>.cls-1{fill:#002860;}.cls-2{fill:#fff;}</style></defs><title>environment-to-work</title><path class="cls-1" d="M7,52.64a2.35,2.35,0,0,1-2.34-2.35V29.74c0-4.22,2.93-7.66,6.54-7.66H25c3.61,0,6.55,3.44,6.55,7.66V50.29a2.35,2.35,0,0,1-2.35,2.35h0a2.35,2.35,0,0,1-2.35-2.35V39.63a.64.64,0,0,0-1.27,0c0,44.46,0,22.87,0,31.38a2.08,2.08,0,0,1-2.07,2.08H18.75V54a.64.64,0,0,0-1.28,0V73.09H12.71A2,2,0,0,1,10.66,71c0-10.28,0-2.87.08-31.4a.64.64,0,0,0-1.27,0V50.29a2.35,2.35,0,0,1-2.35,2.35ZM18.05,80c-9.2,0-17-3.2-17-7,0-2.4,3.24-4.71,8.31-6v4a3.34,3.34,0,0,0,3.33,3.34H23.5A3.34,3.34,0,0,0,26.83,71v-4c5,1.28,8.22,3.58,8.22,6C35.05,76.8,27.27,80,18.05,80Z"/><path class="cls-1" d="M27.12,9.07A9,9,0,1,1,18.1,0,9,9,0,0,1,27.12,9.07Z"/><path class="cls-1" d="M78.93,58.24a.65.65,0,0,1-.64.63H35.1a.64.64,0,0,1,0-1.27h2.53v-10a.64.64,0,0,1,.64-.64h6.19a.64.64,0,0,1,.63.64v10h3.26v-13A.64.64,0,0,1,49,44h6.18a.64.64,0,0,1,.64.64v13h3.26V40.84a.63.63,0,0,1,.64-.64h6.17a.63.63,0,0,1,.64.64V57.6h3.26V36a.64.64,0,0,1,.63-.64h6.19a.64.64,0,0,1,.64.64V57.6h1.06A.64.64,0,0,1,78.93,58.24Z"/><path class="cls-1" d="M77.13,27.05,75.2,31.43A.64.64,0,0,1,74,30.91l1.34-3L36.56,43.64a.49.49,0,0,1-.24,0,.63.63,0,0,1-.25-1.22L75,26.66,71.85,25.3a.63.63,0,1,1,.51-1.16l4.49,2a.67.67,0,0,1,.34.41C77.26,26.68,77.16,26.92,77.13,27.05Z"/><circle class="cls-1" cx="52.26" cy="16.64" r="14.79"/><path class="cls-2" d="M52.21,6.87a4.33,4.33,0,1,0,4.32,4.33A4.33,4.33,0,0,0,52.21,6.87Z"/><path class="cls-2" d="M56.26,17.14h-8a3.77,3.77,0,0,0-3.77,3.77V24.4H60.08V20.91A3.82,3.82,0,0,0,56.26,17.14Z"/></svg>