<svg id="Layer_1" data-name="Layer 1" xmlns="http://www.w3.org/2000/svg" viewBox="0 0 80 80"><defs><style>.cls-1{fill:#002860;}</style></defs><title>flexible-and-open-work-culture</title><path class="cls-1" d="M40,0a7,7,0,1,0,7,7A7,7,0,0,0,40,0Z"/><path class="cls-1" d="M46.52,16.52h-13a6.08,6.08,0,0,0-6.07,6.07v5.62H52.68V22.59A6.16,6.16,0,0,0,46.52,16.52Z"/><path class="cls-1" d="M17.5,51.79a7,7,0,1,0,7,7A7,7,0,0,0,17.5,51.79Z"/><path class="cls-1" d="M23.93,68.3H11a6.08,6.08,0,0,0-6.07,6.07V80H30.09V74.37A6.1,6.1,0,0,0,23.93,68.3Z"/><path class="cls-1" d="M62.5,51.61a7,7,0,1,0,7,7A7,7,0,0,0,62.5,51.61Z"/><path class="cls-1" d="M68.93,68.12H56a6.08,6.08,0,0,0-6.07,6.08v5.62H75.09V74.29A6.12,6.12,0,0,0,68.93,68.12Z"/><polygon class="cls-1" points="52.41 50.89 42.23 43.13 42.23 32.32 37.77 32.32 37.77 43.13 27.41 50.89 30.09 54.46 40 47.05 49.64 54.46 52.41 50.89"/></svg>