<svg id="Layer_1" data-name="Layer 1" xmlns="http://www.w3.org/2000/svg" viewBox="0 0 80 80"><defs><style>.cls-1{fill:#002860;}</style></defs><title>forensic accounting and litigation support</title><path class="cls-1" d="M65.53,0H14.47a3.34,3.34,0,0,0-3.35,3.35v73.3A3.34,3.34,0,0,0,14.47,80H65.53a3.34,3.34,0,0,0,3.35-3.35V3.47A3.37,3.37,0,0,0,65.53,0ZM26.43,70.07a4.31,4.31,0,1,1,4.3-4.3A4.29,4.29,0,0,1,26.43,70.07Zm0-13.15a4.31,4.31,0,1,1,4.3-4.3A4.29,4.29,0,0,1,26.43,56.92Zm0-13.15a4.31,4.31,0,1,1,4.3-4.31A4.3,4.3,0,0,1,26.43,43.77Zm13.63,26.3a4.31,4.31,0,1,1,4.3-4.3A4.43,4.43,0,0,1,40.06,70.07Zm0-13.15a4.31,4.31,0,1,1,4.3-4.3A4.43,4.43,0,0,1,40.06,56.92Zm0-13.15a4.31,4.31,0,1,1,4.3-4.31A4.44,4.44,0,0,1,40.06,43.77Zm13.51,26.3a4.31,4.31,0,1,1,4.31-4.3A4.28,4.28,0,0,1,53.57,70.07Zm0-13.15a4.31,4.31,0,1,1,4.31-4.3A4.28,4.28,0,0,1,53.57,56.92Zm0-13.15a4.31,4.31,0,1,1,4.31-4.31A4.29,4.29,0,0,1,53.57,43.77Zm6.1-18.9a3.21,3.21,0,0,1-3.23,3.23H23.56a3.21,3.21,0,0,1-3.23-3.23V12.56a3.21,3.21,0,0,1,3.23-3.23H56.44a3.21,3.21,0,0,1,3.23,3.23Z"/></svg>