<svg id="Layer_1" data-name="Layer 1" xmlns="http://www.w3.org/2000/svg" viewBox="0 0 80 80"><defs><style>.cls-1{fill:#002860;}</style></defs><title>fraud investigation</title><path class="cls-1" d="M30.32,0a30.33,30.33,0,0,0,0,60.65h0A30.33,30.33,0,0,0,60.65,30.32h0A30.33,30.33,0,0,0,30.32,0Zm0,5.81A24.52,24.52,0,1,1,5.81,30.32,24.51,24.51,0,0,1,30.32,5.81Z"/><path class="cls-1" d="M54.88,52.15a33.61,33.61,0,0,1-2.74,2.73l6.77,6.76-2.14,2.14L73,80l7-7L63.78,56.77l-2.14,2.14Z"/><path class="cls-1" d="M26.5,29.7l-1.31.35-1,3.51,1.58.79a1.29,1.29,0,0,1,.5,1.87l-.87,1.3,4.95,9.4,5-9.4-.87-1.3a1.29,1.29,0,0,1,.5-1.87l1.58-.79-1-3.51-1.32-.35-3.87,9Z"/><path class="cls-1" d="M22.41,30.78l-1.6.43a6.35,6.35,0,0,0-4.63,5.14l-1,6.06A19.33,19.33,0,0,0,28.86,49.6L22.78,38a1.28,1.28,0,0,1,.07-1.32l.48-.72-1.27-.63a1.29,1.29,0,0,1-.65-1.57Z"/><path class="cls-1" d="M38.34,30.78l1,3a1.29,1.29,0,0,1-.65,1.56L37.42,36l.48.72A1.3,1.3,0,0,1,38,38L31.9,49.57a23.37,23.37,0,0,0,2.73-.41,19.35,19.35,0,0,0,10.91-6.93l-.94-5.88a6.41,6.41,0,0,0-4.68-5.14Z"/><path class="cls-1" d="M26.16,11A2.19,2.19,0,0,0,24,12.58L22,18.08H19.43a1.29,1.29,0,1,0,0,2.58H40a1.29,1.29,0,1,0,0-2.58H37.38L35.2,12.56a2.17,2.17,0,0,0-1.27-1.4,2.21,2.21,0,0,0-1.89.09s0,0-.05,0l-1.67,1a1.57,1.57,0,0,1-1.49,0l-1.66-1s0,0-.05,0a2.23,2.23,0,0,0-1-.26Z"/></svg>