<svg id="Layer_1" data-name="Layer 1" xmlns="http://www.w3.org/2000/svg" viewBox="0 0 80 80"><defs><style>.cls-1{fill:#002860;}</style></defs><title>gap assessment report</title><path class="cls-1" d="M71.21,20.58H54.74A3.63,3.63,0,0,1,51.1,17V1.21A3.36,3.36,0,0,1,51.32,0H8.79a1.19,1.19,0,0,0-.86.36,1.13,1.13,0,0,0-.35.85V78.79A1.2,1.2,0,0,0,8.77,80H71.21a1.2,1.2,0,0,0,1.21-1.19V20.36A3.59,3.59,0,0,1,71.21,20.58ZM29,10.57a11.57,11.57,0,0,1,9.55,7.36L29,20.48Zm-2.43,0V22.05a1.22,1.22,0,0,0,.47,1,1.25,1.25,0,0,0,.75.25.76.76,0,0,0,.3,0l11.08-3a13.38,13.38,0,0,1,.16,1.79A11.54,11.54,0,1,1,26.59,10.57ZM62.2,66.62H17a1.22,1.22,0,0,1,0-2.43h1.83V45.44A1.2,1.2,0,0,1,20,44.23h5.67a1.2,1.2,0,0,1,1.21,1.19V64.19H30V39.5a1.2,1.2,0,0,1,1.19-1.21h5.69A1.23,1.23,0,0,1,38,39.5V64.19h3.1V49.41a1.17,1.17,0,0,1,.35-.86,1.23,1.23,0,0,1,.87-.36H48a1.22,1.22,0,0,1,1.21,1.22V64.19h3.07V33.42a1.2,1.2,0,0,1,1.19-1.21h5.69a1.2,1.2,0,0,1,1.21,1.19V64.19H62.2a1.22,1.22,0,0,1,0,2.43Z"/><path class="cls-1" d="M54.74,18.16H71.21A1.2,1.2,0,0,0,72.42,17a1.19,1.19,0,0,0-.37-.89L55.58.34A1.25,1.25,0,0,0,54.25.1a1.19,1.19,0,0,0-.72,1.11V17A1.2,1.2,0,0,0,54.74,18.16Z"/></svg>