<svg id="Layer_1" data-name="Layer 1" xmlns="http://www.w3.org/2000/svg" viewBox="0 0 80 80"><defs><style>.cls-1{fill:#002860;}</style></defs><title>gap analysis</title><path class="cls-1" d="M62.92,24h0l0,.16Z"/><path class="cls-1" d="M61.41,24A28.53,28.53,0,0,0,33.17,0a29.38,29.38,0,0,0-9.32,1.63L36,24Z"/><path class="cls-1" d="M61.44,33.35a27.66,27.66,0,0,1-.78,3.41,2.76,2.76,0,0,0-2.42,1.79l-.05.12a4.43,4.43,0,0,1-3.62,2.68l-.67,0A4.46,4.46,0,0,1,50,39.16l-.06-.11a2.73,2.73,0,0,0-3.64-1.22l-2.71,1.31a2.75,2.75,0,0,0-1.29,3.61l.06.12a4.47,4.47,0,0,1-.67,4.46l-.44.5A4.48,4.48,0,0,1,36.89,49L36.77,49a2.76,2.76,0,0,0-3.44,1.71l-1,2.85A2.76,2.76,0,0,0,34,57l.13,0a4.23,4.23,0,0,1,.81.43c-.58,0-1.17.05-1.76.05A28.68,28.68,0,0,1,15.84,6.05L29.24,30.9a4.38,4.38,0,0,0,3.92,2.45Z"/><path class="cls-1" d="M40.44,71.23a2.39,2.39,0,0,1-3.14-1.12l-1.14-2.35a2.39,2.39,0,0,1,1.06-3.16l.1-.06a3.85,3.85,0,0,0,1.94-3.39l0-.59a3.86,3.86,0,0,0-2.33-3.14l-.1,0a2.38,2.38,0,0,1-1.43-3l.85-2.47a2.39,2.39,0,0,1,3-1.49l.1,0a3.89,3.89,0,0,0,3.78-1l.39-.44a3.85,3.85,0,0,0,.57-3.87l0-.1a2.39,2.39,0,0,1,1.12-3.14l2.35-1.14a2.37,2.37,0,0,1,3.16,1.06l0,.1a3.86,3.86,0,0,0,3.4,1.94l.58,0a3.86,3.86,0,0,0,3.15-2.33l0-.1a2.4,2.4,0,0,1,3-1.43l2.47.86a2.38,2.38,0,0,1,1.48,3l0,.11a3.86,3.86,0,0,0,1,3.77l.44.39a3.87,3.87,0,0,0,3.87.58l.1,0a2.39,2.39,0,0,1,3.14,1.12L74.51,52a2.38,2.38,0,0,1-1.06,3.16l-.1.06a3.85,3.85,0,0,0-1.94,3.39l0,.59a3.88,3.88,0,0,0,2.33,3.14l.11,0a2.39,2.39,0,0,1,1.43,3l-.86,2.47a2.38,2.38,0,0,1-3,1.49l-.11,0a3.9,3.9,0,0,0-3.78,1l-.38.44a3.87,3.87,0,0,0-.58,3.87l0,.1a2.39,2.39,0,0,1-1.12,3.14l-2.36,1.14A2.37,2.37,0,0,1,60,78l-.05-.1A3.88,3.88,0,0,0,56.58,76L56,76a3.85,3.85,0,0,0-3.14,2.33l0,.1a2.4,2.4,0,0,1-3,1.43L47.33,79a2.4,2.4,0,0,1-1.48-3l0-.11a3.84,3.84,0,0,0-1-3.77l-.43-.39a3.87,3.87,0,0,0-3.87-.58Zm8.19-3.77a10.11,10.11,0,1,0-.85-14.27A10.1,10.1,0,0,0,48.63,67.46Z"/></svg>