<svg id="Layer_1" data-name="Layer 1" xmlns="http://www.w3.org/2000/svg" viewBox="0 0 80 80"><defs><style>.cls-1{fill:#002860;}</style></defs><title>gap verification</title><path class="cls-1" d="M30.32,0a30.33,30.33,0,0,0,0,60.65h0A30.33,30.33,0,0,0,60.65,30.32h0A30.33,30.33,0,0,0,30.32,0Zm0,5.81A24.52,24.52,0,1,1,5.81,30.32,24.51,24.51,0,0,1,30.32,5.81Z"/><path class="cls-1" d="M54.88,52.15a33.61,33.61,0,0,1-2.74,2.73l6.77,6.76-2.14,2.14L73,80l7-7L63.78,56.77l-2.14,2.14Z"/><path class="cls-1" d="M35.54,30a11.11,11.11,0,0,1-10.43,0,9.55,9.55,0,0,0-8.44,9.46v5.65a.86.86,0,0,0,.85.86h25.6a.86.86,0,0,0,.85-.86V39.47A9.54,9.54,0,0,0,35.54,30Z"/><circle class="cls-1" cx="30.38" cy="19.87" r="8.24"/></svg>