<svg id="Layer_1" data-name="Layer 1" xmlns="http://www.w3.org/2000/svg" viewBox="0 0 80 80"><defs><style>.cls-1{fill:#002860;}</style></defs><title>global database check</title><path class="cls-1" d="M72.2,31.83H39.88a3.3,3.3,0,0,0-3.25,3.24v8.11a3.31,3.31,0,0,0,3.25,3.25H72.2a3.3,3.3,0,0,0,3.24-3.25V35.07A3.29,3.29,0,0,0,72.2,31.83ZM43.74,39.94a1.15,1.15,0,0,1-1.62-1.62,1.29,1.29,0,0,1,1.62,0A1.16,1.16,0,0,1,43.74,39.94Zm4.75,0a1.07,1.07,0,0,1-1.63,0,1.18,1.18,0,0,1,0-1.62,1.15,1.15,0,0,1,1.63,1.62Zm20.59.37H53a1.12,1.12,0,1,1,0-2.24h16.1a1.11,1.11,0,0,1,1.12,1.12A1.2,1.2,0,0,1,69.08,40.31Z"/><path class="cls-1" d="M18.16,39.19H7.8A27.66,27.66,0,0,1,4.56,27.58h12.1A55.1,55.1,0,0,0,18.16,39.19Z"/><path class="cls-1" d="M16.66,25.34H4.56A24.83,24.83,0,0,1,7.8,13.73H18.16A56.16,56.16,0,0,0,16.66,25.34Z"/><path class="cls-1" d="M18.66,11.48H9.17A26.73,26.73,0,0,1,24.4.75C22,3.12,20,6.86,18.66,11.48Z"/><path class="cls-1" d="M18.66,41.56C20,46.18,22,49.92,24.4,52.29A26.35,26.35,0,0,1,9.17,41.56Z"/><path class="cls-1" d="M30,0V11.48H21.15C23.15,5.12,26.4.75,30,0Z"/><path class="cls-1" d="M20.53,13.73H30V25.34H18.91A47.91,47.91,0,0,1,20.53,13.73Z"/><path class="cls-1" d="M18.91,27.58H30V39.19H20.53A47.08,47.08,0,0,1,18.91,27.58Z"/><path class="cls-1" d="M21.15,41.56H30V53C26.4,52.17,23.15,47.8,21.15,41.56Z"/><path class="cls-1" d="M36.51,47.55a5.7,5.7,0,0,0-2.13,4.37v1a11.08,11.08,0,0,1-2,.12V41.44h2v1.62A5.38,5.38,0,0,0,36.51,47.55Z"/><path class="cls-1" d="M41.25,11.48H32.39V0C35.88.75,39.13,5.12,41.25,11.48Z"/><path class="cls-1" d="M43.37,27.58a10.35,10.35,0,0,1-.13,2H39.75a5.54,5.54,0,0,0-5.49,5.49v4.12h-2V27.58Z"/><path class="cls-1" d="M43.37,25.34H32.26V13.73h9.61A48,48,0,0,1,43.37,25.34Z"/><path class="cls-1" d="M43.62,11.48C42.25,6.86,40.25,3.12,37.88.75A26.29,26.29,0,0,1,53.1,11.48Z"/><path class="cls-1" d="M44.24,13.73H54.48a27.77,27.77,0,0,1,3.24,11.61H45.62A48.18,48.18,0,0,0,44.24,13.73Z"/><path class="cls-1" d="M57.72,27.58c0,.63-.12,1.37-.12,2h-12a11.19,11.19,0,0,1,.12-2Z"/><path class="cls-1" d="M72.2,48.67H39.88a3.31,3.31,0,0,0-3.25,3.25v8a3.31,3.31,0,0,0,3.25,3.24H72.2a3.3,3.3,0,0,0,3.24-3.24V51.79A3.2,3.2,0,0,0,72.2,48.67Zm-28.46,8A1.15,1.15,0,0,1,42.12,55a1.29,1.29,0,0,1,1.62,0A1.16,1.16,0,0,1,43.74,56.66Zm4.75,0a1.07,1.07,0,0,1-1.63,0,1.18,1.18,0,0,1,0-1.62,1.15,1.15,0,0,1,1.63,1.62ZM69.08,57H53a1.13,1.13,0,0,1,0-2.25h16.1a1.13,1.13,0,0,1,0,2.25Z"/><path class="cls-1" d="M72.2,65.4H39.88a3.31,3.31,0,0,0-3.25,3.24v8.12A3.31,3.31,0,0,0,39.88,80H72.2a3.3,3.3,0,0,0,3.24-3.24V68.64A3.3,3.3,0,0,0,72.2,65.4ZM43.74,73.51a1.15,1.15,0,0,1-1.62-1.62,1.29,1.29,0,0,1,1.62,0A1.16,1.16,0,0,1,43.74,73.51Zm4.75-.12a1.09,1.09,0,0,1-1.63,0,1.19,1.19,0,0,1,0-1.63,1.15,1.15,0,0,1,1.63,1.63Zm20.59.37H53a1.13,1.13,0,0,1,0-2.25h16.1a1.13,1.13,0,0,1,0,2.25Z"/></svg>