<svg id="Layer_1" data-name="Layer 1" xmlns="http://www.w3.org/2000/svg" viewBox="0 0 80 80"><defs><style>.cls-1{fill:#002860;}</style></defs><title>guidance in implementing technical</title><path class="cls-1" d="M19,18.76A9.38,9.38,0,0,0,19,0,9.3,9.3,0,0,0,9.44,9.26,9.5,9.5,0,0,0,19,18.76Z"/><path class="cls-1" d="M20.7,57.66V76.17a3.76,3.76,0,0,0,3.75,3.75h0a3.68,3.68,0,0,0,3.75-3.75V59.28a5.52,5.52,0,0,1-2.5.5A6.61,6.61,0,0,1,20.7,57.66Z"/><path class="cls-1" d="M25.7,46.28a5.52,5.52,0,0,1,2.5.5v-9a4.05,4.05,0,0,1,4.38-4.38h3.13V26.77a6.86,6.86,0,0,0-6.88-6.88H9.07a6.85,6.85,0,0,0-6.88,6.88V48a2.53,2.53,0,0,0,.75,1.87,2.37,2.37,0,0,0,2,.75A2.53,2.53,0,0,0,7.44,48V37.9a1.12,1.12,0,0,1,1.13-1.13h0A1.12,1.12,0,0,1,9.69,37.9V76.17a3.88,3.88,0,0,0,3,3.75,3.75,3.75,0,0,0,4.51-3.63V54.16a1.74,1.74,0,0,1,1.87-1.76A6.58,6.58,0,0,1,25.7,46.28Z"/><path class="cls-1" d="M70.85,48.78A4.2,4.2,0,0,0,67.1,51a11.58,11.58,0,0,1-1.75-1.75V37.4A1.4,1.4,0,0,0,64,36H52.09a11.14,11.14,0,0,1-1.75-1.75,4.26,4.26,0,1,0-4,0A8.33,8.33,0,0,1,44.46,36h-12a1.39,1.39,0,0,0-1.37,1.38V49.28l-.38.37A7.16,7.16,0,0,1,29.33,51a4.39,4.39,0,0,0-1.25-1.38,4.66,4.66,0,0,0-2.5-.87,4.25,4.25,0,1,0,0,8.5,4,4,0,0,0,2.5-.87A6.85,6.85,0,0,0,29.33,55a8.56,8.56,0,0,1,1.75,1.88V68.79a1.38,1.38,0,0,0,1.37,1.37H44.34a25,25,0,0,1,1.87,1.75,4.25,4.25,0,1,0,4,0A12.06,12.06,0,0,1,52,70.16H63.84a1.38,1.38,0,0,0,1.38-1.37V56.91A25,25,0,0,1,67,55a4.25,4.25,0,1,0,3.88-6.25Z"/><path class="cls-1" d="M73,21.76a9.53,9.53,0,0,1,2.13-4.37A10.21,10.21,0,0,0,77.73,9a10,10,0,0,0-19.89,1.62,9.84,9.84,0,0,0,2.88,7,7.17,7.17,0,0,1,2,4.12A3.35,3.35,0,0,0,59.84,25a3.31,3.31,0,0,0,3.25,3.25h9.38A3.31,3.31,0,0,0,75.73,25,3.36,3.36,0,0,0,73,21.76Zm-2.5,0H69V14.51h.13a.88.88,0,0,0,0-1.75.7.7,0,0,0-.75.62h0v8.26H67.1V13.38h0a.8.8,0,0,0-.75-.62.88.88,0,1,0,0,1.75h.12v7.25H65A9,9,0,0,0,62.22,16a7.34,7.34,0,0,1-2.13-5.25A7.61,7.61,0,1,1,73.22,16,10,10,0,0,0,70.47,21.76Z"/><path class="cls-1" d="M67.72,32.14a4.66,4.66,0,0,0,4.38-2.87H63.34A4.87,4.87,0,0,0,67.72,32.14Z"/><path class="cls-1" d="M64.22,5a6.07,6.07,0,0,0-2,2,.6.6,0,0,0,.12.87.46.46,0,0,0,.38.13.67.67,0,0,0,.5-.25A7.22,7.22,0,0,1,65,6.13a.81.81,0,0,0,.25-.87A1,1,0,0,0,64.22,5Z"/></svg>