<svg id="Layer_1" data-name="Layer 1" xmlns="http://www.w3.org/2000/svg" viewBox="0 0 80 80"><defs><style>.cls-1{fill:#002860;}</style></defs><title>hands-on-experience</title><circle class="cls-1" cx="40" cy="35" r="10"/><path class="cls-1" d="M40,50A15,15,0,0,0,25,65V80H55V65A15,15,0,0,0,40,50Z"/><circle class="cls-1" cx="65" cy="30" r="10"/><path class="cls-1" d="M65,45a14.91,14.91,0,0,0-11.44,5.33A19.86,19.86,0,0,1,60,65V75H80V60A15,15,0,0,0,65,45Z"/><circle class="cls-1" cx="15" cy="30" r="10"/><path class="cls-1" d="M15,45A15,15,0,0,0,0,60V75H20V65a19.86,19.86,0,0,1,6.44-14.67A14.91,14.91,0,0,0,15,45Z"/><polygon class="cls-1" points="33.13 21.13 40 17.53 46.87 21.13 45.56 13.49 51.11 8.07 43.44 6.96 40 0 36.56 6.96 28.89 8.07 34.44 13.49 33.13 21.13"/></svg>