<svg id="Layer_1" data-name="Layer 1" xmlns="http://www.w3.org/2000/svg" viewBox="0 0 80 80"><defs><style>.cls-1{fill:#002860;}</style></defs><title>hard drive imaging</title><path class="cls-1" d="M68.72,30.4c-2.19-6.15-5.31-15.07-5.31-15.24a3.76,3.76,0,0,0-3.54-2.44H11.45a3.74,3.74,0,0,0-3.53,2.44c-.09.17-7.08,20-7.41,21.05A11.82,11.82,0,0,0,0,39.33v7.58a8.74,8.74,0,0,0,8.76,8.75H45.89V50.44H8.76a3.48,3.48,0,0,1-3.45-3.53V39.33a3.47,3.47,0,0,1,3.45-3.46H47.24c2.95-4,10.87-5.55,17.85-5.55A25.89,25.89,0,0,1,68.72,30.4Z"/><circle class="cls-1" cx="14.15" cy="43.03" r="4.13"/><path class="cls-1" d="M24.93,40.42a2.61,2.61,0,0,0,0,5.22H37.39a2.61,2.61,0,0,0,0-5.22Z"/><path class="cls-1" d="M50.19,57.09v5.14c0,2.78,6.65,5.05,14.9,5.05S80,65,80,62.23V57.09c-3.79,2.19-9.6,3-14.91,3S54,59.2,50.19,57.09Z"/><ellipse class="cls-1" cx="65.09" cy="39.49" rx="14.91" ry="5.05"/><path class="cls-1" d="M50.19,45.73v5.13c0,2.78,6.65,5.06,14.9,5.06S80,53.64,80,50.86V45.73c-3.79,2.19-9.6,3-14.91,3S54,47.83,50.19,45.73Z"/></svg>