<svg id="Layer_1" data-name="Layer 1" xmlns="http://www.w3.org/2000/svg" viewBox="0 0 80 80"><defs><style>.cls-1{fill:#002860;}</style></defs><title>identity verification</title><path class="cls-1" d="M34.45,15.39A12.46,12.46,0,0,0,22,27.82a12.14,12.14,0,0,0,3.17,8.26,7.22,7.22,0,0,1,7.18-6.76h4.08a7.24,7.24,0,0,1,7.18,6.93A12.35,12.35,0,0,0,47,27.82,12.6,12.6,0,0,0,34.45,15.39Zm-.08,13.26a4.5,4.5,0,1,1,4.5-4.5A4.49,4.49,0,0,1,34.37,28.65Z"/><path class="cls-1" d="M74.83,4.38H5.09A5.05,5.05,0,0,0,0,9.47V57a5.06,5.06,0,0,0,5.09,5.09H74.91A5.06,5.06,0,0,0,80,57V9.47A5.13,5.13,0,0,0,74.83,4.38ZM19.1,27.82A15.35,15.35,0,1,1,34.45,43.17,15.31,15.31,0,0,1,19.1,27.82Zm36.37,21a3.27,3.27,0,0,1-4.58,0l-7.43-7.42A10.85,10.85,0,0,0,48,36.83l7.5,7.51A3.15,3.15,0,0,1,55.47,48.84Z"/><rect class="cls-1" x="19.85" y="72.53" width="40.29" height="3.09"/><path class="cls-1" d="M46.3,64.78a17.25,17.25,0,0,0-.75-1.59H34.7L33.79,65a15.76,15.76,0,0,1-4.93,6.25H51.14A15.21,15.21,0,0,1,46.3,64.78Z"/></svg>