<svg id="Layer_1" data-name="Layer 1" xmlns="http://www.w3.org/2000/svg" viewBox="0 0 80 80"><defs><style>.cls-1{fill:#002860;}</style></defs><title>increased employee efficiency</title><path class="cls-1" d="M42.22,72.1a2.46,2.46,0,0,1-2.46,2.47A34.56,34.56,0,0,1,5.94,47.08L4.81,48.81A2.49,2.49,0,1,1,.66,46h0l4.94-7.4h0A2.32,2.32,0,0,1,6.54,38h0a2,2,0,0,1,1.23,0h0a2,2,0,0,1,.89.49l6.71,6a2.55,2.55,0,0,1-1.87,4.3,2.25,2.25,0,0,1-1.63-.65L9.94,46.44a29.63,29.63,0,0,0,29.82,23.2A2.46,2.46,0,0,1,42.22,72.1Z"/><path class="cls-1" d="M39.76,10.4a29.63,29.63,0,0,1,29,23.5l-1.92-1.73a2.47,2.47,0,0,0-3.49,0h0a2.52,2.52,0,0,0,0,3.51l6.71,6a2,2,0,0,0,.89.49h.74A2.88,2.88,0,0,0,72.73,42H73l.45-.35h0l4.93-7.4a2.49,2.49,0,1,0-4.14-2.77h0l-1.14,1.73A34.53,34.53,0,0,0,39.76,5.47a2.47,2.47,0,1,0,0,4.93Z"/><path class="cls-1" d="M63.85,48.19A15.91,15.91,0,1,0,79.76,64.1,15.9,15.9,0,0,0,63.85,48.19ZM67.44,69a2.39,2.39,0,0,1-1.32-.41l-3.59-2.68a2.25,2.25,0,0,1-1-1.82V59.56a2.27,2.27,0,1,1,4.54,0V63l2.68,2a2.24,2.24,0,0,1,.91,1.82A2.27,2.27,0,0,1,67.44,69Z"/><path class="cls-1" d="M22.78,17A9.93,9.93,0,0,1,18,18.21,9.9,9.9,0,0,1,13.12,17a8.83,8.83,0,0,0-7.81,8.75V31a.8.8,0,0,0,.79.8H29.8a.8.8,0,0,0,.79-.8V25.77A8.83,8.83,0,0,0,22.78,17Z"/><circle class="cls-1" cx="18" cy="7.63" r="7.63"/></svg>