<svg id="Layer_1" data-name="Layer 1" xmlns="http://www.w3.org/2000/svg" viewBox="0 0 80 80"><defs><style>.cls-1{fill:#002860;}</style></defs><title>intellectual property disputes</title><path class="cls-1" d="M40,0A40,40,0,1,1,0,40,40,40,0,0,1,40,0ZM56.39,25.88a22.71,22.71,0,0,0-24.14-5,20.07,20.07,0,0,0-12.87,19.2c0,8.58,5.39,15.51,13.23,18.61a21.75,21.75,0,0,0,25.23-6.87l4.84,6.58a29.87,29.87,0,0,1-33.47,7.52A28.64,28.64,0,0,1,11.64,39.18c0-11.66,7.3-21.41,18-25.66A29.57,29.57,0,0,1,61.45,20l-5.06,5.93ZM40,3.83A36.17,36.17,0,1,0,76.17,40,36.17,36.17,0,0,0,40,3.83Z"/></svg>