<svg id="Layer_1" data-name="Layer 1" xmlns="http://www.w3.org/2000/svg" viewBox="0 0 80 80"><defs><style>.cls-1{fill:#002860;}</style></defs><title>investment treaty disputes</title><path class="cls-1" d="M78.65,46.38c-5.38,4.38-9.26,7.76-12,10.26C61,61.64,58.75,63.77,54,64L28,65.65a6.86,6.86,0,0,0-1,.87c0-.12,0-.25-.13-.25l-6-20.39A7.26,7.26,0,0,0,19.22,43l1.88-2.75a11.83,11.83,0,0,1,9.76-5.13H48.25a6,6,0,0,1,6,5.88,5.9,5.9,0,0,1-6,5.88H37.86a1.74,1.74,0,0,0-1.75,1.88,1.71,1.71,0,0,0,1.75,1.75H55.63C56.5,50,60.26,47.88,73.89,40a3.9,3.9,0,0,1,5.76,2.13A3.55,3.55,0,0,1,78.65,46.38Z"/><path class="cls-1" d="M24,70.28a4.39,4.39,0,0,1-2.62,2.12l-9.64,2.75a4.23,4.23,0,0,1-1.25.26,4.71,4.71,0,0,1-4.38-3.26L.2,51.76a4.49,4.49,0,0,1,3.13-5.63L13,43.38a4.06,4.06,0,0,1,1.25-.13,4.71,4.71,0,0,1,4.38,3.26l6,20.39A5.57,5.57,0,0,1,24,70.28Z"/><path class="cls-1" d="M33.48,16.48v2.25c.75-.12,1.38-.37,1.38-1.12S34.23,16.61,33.48,16.48Z"/><path class="cls-1" d="M33,4.59A10.76,10.76,0,1,0,43.74,15.35,10.76,10.76,0,0,0,33,4.59Zm.5,15.52V21h-.87V20a6.76,6.76,0,0,1-3.26-1.37l1-1.13a4.79,4.79,0,0,0,2.25,1.13V16.1c-1.75-.37-2.88-1-2.88-2.62S31,11,32.61,10.85v-.5h.87V11a5.62,5.62,0,0,1,2.76,1l-.88,1.25a5.69,5.69,0,0,0-1.88-.75V15h0c1.63.37,2.88,1,2.88,2.63A2.61,2.61,0,0,1,33.48,20.11Z"/><path class="cls-1" d="M31.36,13.48c0,.75.5,1,1.25,1.12V12.35C32,12.48,31.36,12.73,31.36,13.48Z"/><path class="cls-1" d="M62.63,6.47A16.08,16.08,0,0,0,46.37,22.36a16.27,16.27,0,0,0,32.53,0A16.08,16.08,0,0,0,62.63,6.47Zm.75,22.4v1.25H62.26V28.74a8.17,8.17,0,0,1-4.51-2l1.38-1.63a6.82,6.82,0,0,0,3.13,1.63v-3.5c-2.38-.63-4-1.38-4-3.63S60,16.1,62.26,16V15.1h1.12V16a6.84,6.84,0,0,1,3.76,1.38L66,19a4.93,4.93,0,0,0-2.63-1v3.38h0c2.38.5,4,1.38,4,3.75S65.64,28.74,63.38,28.87Z"/><path class="cls-1" d="M60.38,19.48c0,1,.75,1.25,1.75,1.63V18C61.26,18.11,60.38,18.61,60.38,19.48Z"/><path class="cls-1" d="M63.38,23.61v3.25c1-.12,1.88-.62,1.88-1.5S64.38,24,63.38,23.61Z"/></svg>