<svg id="Layer_1" data-name="Layer 1" xmlns="http://www.w3.org/2000/svg" viewBox="0 0 80 80"><defs><style>.cls-1{fill:#002860;}</style></defs><title>joint venture disputes</title><path class="cls-1" d="M43,17.1,30.38,22.72l-1.79,8C27.44,36,34.77,38.43,37,33.64l1.53-3.25,3.93-.84,20,18.68,5.79-2.58L58.05,21.17Z"/><path class="cls-1" d="M35.15,54.32a3.11,3.11,0,0,0-2.25-.61,3.22,3.22,0,0,0-5.23-2.59,3.21,3.21,0,0,0-5.54-.66L21,51.94a3.23,3.23,0,0,0,.68,4.49,3,3,0,0,0,1.53.6,3.21,3.21,0,0,0,1,4,3.16,3.16,0,0,0,3.26.33,3.21,3.21,0,0,0,4.27,2.13A3.27,3.27,0,0,0,33,65.3a3.22,3.22,0,0,0,4.5-.68l1.75-2.37a3.19,3.19,0,0,0-.68-4.48,3,3,0,0,0-2.1-.62A3.21,3.21,0,0,0,35.15,54.32Z"/><path class="cls-1" d="M19.71,51l0,0,1.09-1.49a4.87,4.87,0,0,1,3.9-2,4.7,4.7,0,0,1,2.87,1,5.15,5.15,0,0,1,.61.53,5,5,0,0,1,1.49-.23,4.85,4.85,0,0,1,2.88,1,4.79,4.79,0,0,1,1.74,2.44,5,5,0,0,1,1.81.83,4.84,4.84,0,0,1,1.8,2.67,4.88,4.88,0,0,1,3.5,3.94,4.81,4.81,0,0,1-.9,3.6l-1.74,2.37c-.11.15-.23.28-.34.41,2.22.29,4.56-.66,4.91-2.54a4.79,4.79,0,0,0,4.73-1,3.58,3.58,0,0,0,1.28-2.72v0a4.79,4.79,0,0,0,4.83-.89,4.08,4.08,0,0,0,1.46-3.46,4.84,4.84,0,0,0,4.84-.81A4.72,4.72,0,0,0,62,50L42,31.31l-2.31.5-1.19,2.52a6,6,0,0,1-8.17,2.87A5.9,5.9,0,0,1,27,30.4l1.8-8.11-7.18-.52-8.21,24.8Z"/><polygon class="cls-1" points="58.5 18.05 70.58 46.86 80 43.01 68.5 13.95 58.5 18.05"/><polygon class="cls-1" points="21.14 18.09 9.81 14.34 0 44 11.32 47.74 21.14 18.09"/></svg>