<svg id="Layer_1" data-name="Layer 1" xmlns="http://www.w3.org/2000/svg" viewBox="0 0 80 80"><defs><style>.cls-1{fill:#002860;}</style></defs><title>media searches</title><path class="cls-1" d="M74.18,1.22H5.9A5.87,5.87,0,0,0,0,7.12V62.59a5.92,5.92,0,0,0,5.9,5.9H21.5a18.82,18.82,0,0,1-.43-3.79,25,25,0,0,1,.34-3.63H7.92a.39.39,0,0,1-.42-.42v-42H72.75v42a.39.39,0,0,1-.42.42H58.67A17.27,17.27,0,0,1,59,64.7a18.18,18.18,0,0,1-.42,3.79H74.1a5.92,5.92,0,0,0,5.9-5.9V7.12A5.81,5.81,0,0,0,74.18,1.22ZM9.78,12.35a2.53,2.53,0,1,1,2.53-2.53A2.49,2.49,0,0,1,9.78,12.35Zm7.75,0a2.53,2.53,0,1,1,2.62-2.53A2.55,2.55,0,0,1,17.53,12.35Zm7.76,0a2.53,2.53,0,0,1,0-5.06,2.54,2.54,0,0,1,2.53,2.53A2.49,2.49,0,0,1,25.29,12.35Z"/><path class="cls-1" d="M40,50.54A14.12,14.12,0,1,0,54.2,64.61,14.13,14.13,0,0,0,40,50.54Zm5.31,14.92-8.09,5.06a.93.93,0,0,1-1.43-.85V59.56a1,1,0,0,1,1.43-.85l8.09,5.06A1,1,0,0,1,45.35,65.46Z"/><path class="cls-1" d="M18.63,43.29H61.54a2.45,2.45,0,0,0,0-4.89H18.63a2.45,2.45,0,0,0,0,4.89Z"/><path class="cls-1" d="M18.63,31.57H61.54a2.45,2.45,0,0,0,0-4.89H18.63a2.45,2.45,0,0,0,0,4.89Z"/></svg>