<svg id="Layer_1" data-name="Layer 1" xmlns="http://www.w3.org/2000/svg" viewBox="0 0 80 80"><defs><style>.cls-1{fill:#002860;}</style></defs><title>mega capital projects disputes</title><rect class="cls-1" x="25.36" y="41.44" width="5.75" height="2.88"/><rect class="cls-1" x="25.36" y="35.69" width="5.75" height="2.88"/><path class="cls-1" d="M75.69,40H71.37v1.44a1.44,1.44,0,0,1-1.43,1.44H55.56a1.44,1.44,0,0,1-1.44-1.44V40H49.81a4.33,4.33,0,0,0-4.32,4.31V75.94a4.34,4.34,0,0,0,4.32,4.32H75.69A4.33,4.33,0,0,0,80,75.94V44.31A4.32,4.32,0,0,0,75.69,40Zm2.87,34.51a4.31,4.31,0,0,1-4.31,4.31h-23a4.31,4.31,0,0,1-4.31-4.31V45.75a4.31,4.31,0,0,1,4.31-4.31h1.44v2.87H51.24a1.44,1.44,0,0,0-1.43,1.44V74.51a1.43,1.43,0,0,0,1.43,1.43h23a1.44,1.44,0,0,0,1.44-1.43V45.75a1.45,1.45,0,0,0-1.44-1.44H72.81V41.44h1.44a4.31,4.31,0,0,1,4.31,4.31Z"/><rect class="cls-1" x="33.99" y="41.44" width="5.75" height="2.88"/><rect class="cls-1" x="33.99" y="35.69" width="5.75" height="2.88"/><path class="cls-1" d="M62.75,34.25a1.43,1.43,0,0,0-1.44,1.44,1.43,1.43,0,0,1-1.44,1.43H57V40H68.5V37.12H65.62a1.44,1.44,0,0,1-1.44-1.43A1.43,1.43,0,0,0,62.75,34.25Z"/><path class="cls-1" d="M32.52,2.93a1.44,1.44,0,0,1,1,.43l3.33,3.32V-.26H27.39L0,26.75l4,4c.18-.35,27.54-27.36,27.54-27.36A1.43,1.43,0,0,1,32.52,2.93Z"/><path class="cls-1" d="M32.55,54.38a7.2,7.2,0,0,0-7.19,7.19V80.26H39.74V61.57A7.19,7.19,0,0,0,32.55,54.38Z"/><path class="cls-1" d="M54.12,37.12V35.69a1.43,1.43,0,0,1,1.44-1.44h3.12a4,4,0,0,1,.59-1.1l-10.4-10.4H38.3a1.44,1.44,0,0,1-1.43-1.44V10.75L32.52,6.4,6.67,32.26V78.82a1.45,1.45,0,0,0,1.44,1.44H22.49V61.57a10.07,10.07,0,1,1,20.13,0h0V45.75a1.44,1.44,0,0,1-1.44,1.44H23.93a1.43,1.43,0,0,1-1.44-1.44V34.25a1.43,1.43,0,0,1,1.44-1.44H41.18a1.44,1.44,0,0,1,1.44,1.44V44.31a7.2,7.2,0,0,1,7.19-7.19Z"/><path class="cls-1" d="M42.62,80.26h1.47a7.09,7.09,0,0,1-1.47-4.32Z"/><polygon class="cls-1" points="52.93 22.75 60.99 30.81 65.05 26.75 60.99 22.75 52.93 22.75"/><path class="cls-1" d="M39.74-.26V19.87H80V-.26Zm7.19,18.69H42.62A1.43,1.43,0,0,1,41.18,17V12.68h2.88v2.88h2.87Zm0-14.37H44.06V6.93H41.18V2.62a1.43,1.43,0,0,1,1.44-1.44h4.31ZM59.87,8.37a4.32,4.32,0,0,1,1.44,8.37v1.69H58.43V16.74a4.34,4.34,0,0,1-2.87-4.06h2.87a1.44,1.44,0,1,0,1.44-1.44,4.31,4.31,0,0,1-1.44-8.36V1.18h2.88v1.7a4.31,4.31,0,0,1,2.87,4.05H61.31a1.44,1.44,0,1,0-1.44,1.44ZM78.56,17a1.43,1.43,0,0,1-1.44,1.43H72.81V15.56h2.88V12.68h2.87Zm0-10.07H75.69V4.06H72.81V1.18h4.31a1.43,1.43,0,0,1,1.44,1.44Z"/></svg>