<svg id="Layer_1" data-name="Layer 1" xmlns="http://www.w3.org/2000/svg" viewBox="0 0 80 80"><defs><style>.cls-1{fill:#002860;}</style></defs><title>minimize operational risk</title><path class="cls-1" d="M18.25,69.9c5.54-5.55,10.11-10.06,10.16-10s.08,3.66.08,8.06v8H39.87l0-13.88c0-7.64,0-15.69,0-17.9l0-4L22,40.18l-17.86,0V51.69l7.93,0c4.37,0,7.94.06,7.94.11S15.51,56.4,10,61.9l-10,10,4,4c2.22,2.22,4.06,4,4.09,4s4.59-4.53,10.13-10.07ZM76,39.72c0-.08,0-2.65,0-5.72l0-5.58-8,0c-4.43,0-8-.06-8-.1s4.51-4.6,10-10.11S80,8.1,80,8s-7.88-8-8-8S67.39,4.51,61.91,10s-10,10-10.06,9.92-.09-3.61-.09-8V4.06H40.28v7.32c0,4,0,10.32,0,14V39.84H58.13c14.18,0,17.85,0,17.89-.12Z"/></svg>