<svg id="Layer_1" data-name="Layer 1" xmlns="http://www.w3.org/2000/svg" viewBox="0 0 80 80"><defs><style>.cls-1{fill:#002860;}</style></defs><title>misleading-incorrect-false information provided in the resume</title><path class="cls-1" d="M23.68,25.23a4.43,4.43,0,1,0-4.55-4.55A4.62,4.62,0,0,0,23.68,25.23Z"/><polygon class="cls-1" points="55.19 79.26 71.68 62.89 55.19 62.89 55.19 79.26"/><path class="cls-1" d="M71.19,9H53.35v2.47a6.15,6.15,0,0,1-6,6.15H32.79a6.07,6.07,0,0,1-6-6.15V9H8.92a1.25,1.25,0,0,0-1.24,1.24V78.77A1.33,1.33,0,0,0,8.92,80H52.73V61.66A1.16,1.16,0,0,1,54,60.43H72.3V10.22A1.14,1.14,0,0,0,71.19,9ZM12.48,36.31a11.26,11.26,0,0,1,6.77-10.22,6.76,6.76,0,0,1-2.58-5.41,6.89,6.89,0,1,1,11.2,5.41,11.24,11.24,0,0,1,6.77,10.22,1.23,1.23,0,0,1-2.46,0,8.62,8.62,0,1,0-17.23,0,1.17,1.17,0,0,1-1.23,1.23A1.17,1.17,0,0,1,12.48,36.31ZM48.55,71.38H14.33a1.23,1.23,0,1,1,0-2.46H48.42a1.23,1.23,0,0,1,1.23,1.23A1.06,1.06,0,0,1,48.55,71.38Zm0-8.49H14.33a1.23,1.23,0,1,1,0-2.46H48.42a1.23,1.23,0,0,1,1.23,1.23A1.12,1.12,0,0,1,48.55,62.89Zm17.23-8.61H14.33a1.23,1.23,0,0,1,0-2.46H65.65a1.23,1.23,0,0,1,1.23,1.23A1.07,1.07,0,0,1,65.78,54.28Zm0-8.5H14.33a1.16,1.16,0,0,1-1.23-1.23,1.23,1.23,0,0,1,1.23-1.23H65.65a1.32,1.32,0,0,1,1.23,1.23A1.12,1.12,0,0,1,65.78,45.78Zm0-8.61H40.05a1.23,1.23,0,0,1-1.23-1.23,1.17,1.17,0,0,1,1.23-1.23H65.78a1.23,1.23,0,1,1,0,2.46Zm0-8.49H40.05a1.23,1.23,0,1,1,0-2.46H65.78a1.23,1.23,0,1,1,0,2.46Zm0-8.62H40.05a1.32,1.32,0,0,1-1.23-1.23,1.17,1.17,0,0,1,1.23-1.23H65.78a1.23,1.23,0,1,1,0,2.46Z"/><path class="cls-1" d="M50.88,6.65v4.8a3.67,3.67,0,0,1-3.56,3.69H32.79a3.6,3.6,0,0,1-3.57-3.69V6.65a1.23,1.23,0,0,1,1.23-1.23h5.42V4.18A4.15,4.15,0,0,1,40.05,0a3.83,3.83,0,0,1,3,1.23,3.83,3.83,0,0,1,1.23,2.95V5.42h5.41A1.23,1.23,0,0,1,50.88,6.65Z"/></svg>