<svg id="Layer_1" data-name="Layer 1" xmlns="http://www.w3.org/2000/svg" viewBox="0 0 80 80"><defs><style>.cls-1{fill:#002860;}</style></defs><title>off-court settlements</title><path class="cls-1" d="M0,79.9H80V75.48a6.62,6.62,0,0,0-6.6-6.6H6.61A6.62,6.62,0,0,0,0,75.48V79.9ZM54.14,19v0a2.32,2.32,0,0,1,.79,2.86h0a2.32,2.32,0,0,1-2.68,1.29l-11.83,26a2.35,2.35,0,0,1,.8,2.87h0a2.33,2.33,0,0,1-2.69,1.29l0,0-.37-.17L15,42.78l-.37-.17v0a2.33,2.33,0,0,1-.8-2.87h0a2.33,2.33,0,0,1,2.69-1.28l11.83-26a2.33,2.33,0,0,1-.8-2.87h0a2.33,2.33,0,0,1,2.69-1.29l0,0,.37.17L53.77,18.88l.37.16ZM34.07.32a2.49,2.49,0,0,0-3.28,1.24L30,3.31a2.49,2.49,0,0,0,1.23,3.28L54.71,17.27A2.49,2.49,0,0,0,58,16l.8-1.75A2.48,2.48,0,0,0,57.55,11L34.07.32Zm-20,44.07a2.48,2.48,0,0,0-3.28,1.23L10,47.37a2.49,2.49,0,0,0,1.23,3.28L34.69,61.32A2.48,2.48,0,0,0,38,60.1l.8-1.76a2.49,2.49,0,0,0-1.23-3.28L14.05,44.39ZM44.87,43a3.19,3.19,0,0,0,4-1.23L80,55.91V47.44L52.08,34.75a3.19,3.19,0,0,0-1.71-3.84l-1.16,2.54-3.19,7Z"/></svg>