<svg id="Layer_1" data-name="Layer 1" xmlns="http://www.w3.org/2000/svg" viewBox="0 0 80 80"><defs><style>.cls-1{fill:#002860;}</style></defs><title>online reputation management</title><path class="cls-1" d="M6,60.09H73.74A1.26,1.26,0,0,0,75,58.84V12.15a4.36,4.36,0,0,0-4.38-4.39H9.14a4.36,4.36,0,0,0-4.38,4.39V58.84A1.18,1.18,0,0,0,6,60.09ZM7.14,12.15a2,2,0,0,1,2-2H70.36a2,2,0,0,1,2,2V57.59H7.14Z"/><path class="cls-1" d="M55.83,17H50.45V15a1.26,1.26,0,0,0-1.25-1.26H30.3A1.26,1.26,0,0,0,29,15v2H23.79a1.26,1.26,0,0,0-1.26,1.25A15.91,15.91,0,0,0,27,29.42a21.29,21.29,0,0,0,2.5,2.13h0a10.88,10.88,0,0,0,6.64,6.63v4.64h-.63a1.26,1.26,0,0,0-1.25,1.25v3h-.12a5,5,0,0,0-5,5,1.25,1.25,0,0,0,1.25,1.25H49.2a1.26,1.26,0,0,0,1.25-1.25,5,5,0,0,0-5-5h-.12v-3a1.25,1.25,0,0,0-1.25-1.25h-.63V38.18a10.88,10.88,0,0,0,6.64-6.63h0a13.46,13.46,0,0,0,2.5-2.13,16.14,16.14,0,0,0,4.51-11.14A1.26,1.26,0,0,0,55.83,17ZM29.17,28c-.13-.12-.25-.12-.25-.25a13.62,13.62,0,0,1-3.76-8.26h4Zm21.66-.25c-.13.13-.13.25-.25.25V19.53h4A13.66,13.66,0,0,1,50.83,27.79Z"/><path class="cls-1" d="M75.24,62.47H4.88a4.89,4.89,0,0,0,0,9.77H75.11A4.9,4.9,0,0,0,80,67.35,4.78,4.78,0,0,0,75.24,62.47Zm-29,6.14H33.93a1.26,1.26,0,1,1,0-2.51H46.19a1.26,1.26,0,1,1,0,2.51Z"/></svg>