<svg id="Layer_1" data-name="Layer 1" xmlns="http://www.w3.org/2000/svg" viewBox="0 0 80 80"><defs><style>.cls-1{fill:#002860;}</style></defs><title>operations management</title><path class="cls-1" d="M60.1,31.17V51.75c-.22.11-.44.21-.65.33l-3.79-3a1.54,1.54,0,0,0-1.9.09L51,51.91a1.32,1.32,0,0,0-.09,1.85l2.82,3.51H3.82A3.82,3.82,0,0,1,0,53.46V31.17l.48,1a6.54,6.54,0,0,0,5.85,3.65H25.18a3.63,3.63,0,0,0,1,2V41.2L30,44.65l3.9-3.44V37.85a3.51,3.51,0,0,0,1-2.07H53.8a6.54,6.54,0,0,0,5.83-3.65Z"/><path class="cls-1" d="M32.28,35.28V33.56a.87.87,0,0,0-.87-.88h-2.7a.87.87,0,0,0-.87.88v1.72a.9.9,0,0,0,.87.87h2.7A.88.88,0,0,0,32.28,35.28Z"/><path class="cls-1" d="M6.33,33.07H25.16A3.59,3.59,0,0,1,28.71,30h2.7a3.57,3.57,0,0,1,3.53,3.1H53.79a3.84,3.84,0,0,0,3.4-2.13L60.1,25V15.36a3.79,3.79,0,0,0-3.78-3.79h-14V5.85a4.08,4.08,0,0,0-4.08-4.08H21.85a4.08,4.08,0,0,0-4.08,4.08v5.72h-14A3.8,3.8,0,0,0,0,15.36V25l2.91,5.92A3.84,3.84,0,0,0,6.33,33.07ZM20.49,5.85a1.36,1.36,0,0,1,1.36-1.36H38.27a1.36,1.36,0,0,1,1.36,1.36v5.72H20.49Z"/><polygon class="cls-1" points="30.03 41.01 31.19 39.99 31.19 38.87 28.92 38.87 28.92 40 30.03 41.01"/><path class="cls-1" d="M79.05,60.2l-3.64-.41A10.08,10.08,0,0,0,74.26,57l2.3-2.9a1.13,1.13,0,0,0-.07-1.42l-2.1-2.09A1,1,0,0,0,73,50.54l-2.84,2.29a14.17,14.17,0,0,0-2.77-1.14L67,48a1,1,0,0,0-1-.95H63A1,1,0,0,0,62,48l-.34,3.71a14.21,14.21,0,0,0-2.77,1.15L56,50.61a1.13,1.13,0,0,0-1.42.06l-2.09,2.1a1.06,1.06,0,0,0-.07,1.42l2.3,2.9a12.83,12.83,0,0,0-1.15,2.77l-3.65.34a1,1,0,0,0-.94,1v3a1,1,0,0,0,.94,1l3.65.41a12.83,12.83,0,0,0,1.15,2.77l-2.3,2.84a1,1,0,0,0,.07,1.41l2.09,2.1a1.06,1.06,0,0,0,1.42.07l2.84-2.3a10.91,10.91,0,0,0,2.77,1.15l.4,3.64a1,1,0,0,0,1,1h3a1,1,0,0,0,1-1l.41-3.64a11.06,11.06,0,0,0,2.77-1.15L73,74.79a1.06,1.06,0,0,0,1.42-.07l2.1-2.1a1,1,0,0,0,.06-1.41l-2.36-2.84a12.83,12.83,0,0,0,1.15-2.77l3.64-.41a1,1,0,0,0,1-1v-3A1,1,0,0,0,79.05,60.2ZM64.53,68.1a5.41,5.41,0,1,1,5.41-5.4A5.42,5.42,0,0,1,64.53,68.1Z"/></svg>