<svg id="Layer_1" data-name="Layer 1" xmlns="http://www.w3.org/2000/svg" viewBox="0 0 80 80"><defs><style>.cls-1{fill:#002860;}</style></defs><title>organisation structure personal policies &amp;amp; internal control analysis</title><path class="cls-1" d="M20,70.13a4.62,4.62,0,0,1-6.45-.06L9.93,66.5a4.62,4.62,0,0,1-.06-6.45l.15-.16a7.49,7.49,0,0,0,1.4-7.44l-.44-1a7.47,7.47,0,0,0-6.24-4.27H4.52A4.62,4.62,0,0,1,0,42.53V37.47a4.62,4.62,0,0,1,4.52-4.6h.21A7.48,7.48,0,0,0,11,28.59l.43-1A7.49,7.49,0,0,0,10,20.11L9.87,20a4.62,4.62,0,0,1,.06-6.45L13.5,9.93A4.62,4.62,0,0,1,20,9.87l.16.15a7.49,7.49,0,0,0,7.44,1.4l1-.44a7.47,7.47,0,0,0,4.27-6.24V4.52A4.62,4.62,0,0,1,37.47,0h5.06a4.62,4.62,0,0,1,4.6,4.52v.21A7.48,7.48,0,0,0,51.41,11l1,.43A7.49,7.49,0,0,0,59.89,10l.16-.15a4.62,4.62,0,0,1,6.45.06l3.57,3.57A4.62,4.62,0,0,1,70.13,20l-.15.16a7.49,7.49,0,0,0-1.4,7.44l.44,1a7.47,7.47,0,0,0,6.24,4.27h.22A4.62,4.62,0,0,1,80,37.47v5.06a4.62,4.62,0,0,1-4.52,4.6h-.21A7.48,7.48,0,0,0,69,51.41l-.43,1A7.49,7.49,0,0,0,70,59.89l.15.16a4.62,4.62,0,0,1-.06,6.45L66.5,70.07a4.62,4.62,0,0,1-6.45.06L59.89,70a7.49,7.49,0,0,0-7.44-1.4l-1,.44a7.47,7.47,0,0,0-4.27,6.24v.22A4.62,4.62,0,0,1,42.53,80H37.47a4.62,4.62,0,0,1-4.6-4.52v-.21A7.48,7.48,0,0,0,28.59,69l-1-.43A7.49,7.49,0,0,0,20.11,70ZM32.52,58.06A19.55,19.55,0,1,0,21.94,32.52,19.54,19.54,0,0,0,32.52,58.06Z"/></svg>