<svg id="Layer_1" data-name="Layer 1" xmlns="http://www.w3.org/2000/svg" viewBox="0 0 80 80"><defs><style>.cls-1{fill:#002860;}</style></defs><title>performance</title><path class="cls-1" d="M2.41,66.12h0l.91-.26a36.77,36.77,0,0,1,1-17.31,33.87,33.87,0,0,1,3.38-7.68,40.32,40.32,0,0,1,4.95-6.37,21.59,21.59,0,0,1,1.82-1.69l-3.9-6.25A39.57,39.57,0,0,0,.2,50,37.58,37.58,0,0,0,1.63,64.82a7,7,0,0,0,.65,1.43h.13Z"/><path class="cls-1" d="M66.82,24a33.94,33.94,0,0,0-5.47-4.17,40.94,40.94,0,0,0-17.56-6A39.44,39.44,0,0,0,18,20.31l4.56,7.42a30.43,30.43,0,0,1,3.12-1.17,33.17,33.17,0,0,1,7.16-1.43,31.75,31.75,0,0,1,7,.26A27.43,27.43,0,0,1,52,30.59c.4.39.92.65,1.31,1.05L66.82,24Z"/><path class="cls-1" d="M79.83,57.27a35.65,35.65,0,0,1-2,9.11l-.39-.13-19-6a16.93,16.93,0,0,0,1.95-4.42,21.9,21.9,0,0,0,.91-5.08V48.68L74.76,34A39.29,39.29,0,0,1,79.83,57.27Z"/><path class="cls-1" d="M70.85,29c-.13-.39-.65-.39-.91-.26l-35,19.39a9.82,9.82,0,0,0-1.82,1.43,7.28,7.28,0,0,0,10.8,9.76L70.85,29.81C71,29.55,71.11,29.29,70.85,29ZM38.06,58.57a3.72,3.72,0,1,1,4-3.38A3.61,3.61,0,0,1,38.06,58.57Z"/></svg>