<svg id="Layer_1" data-name="Layer 1" xmlns="http://www.w3.org/2000/svg" viewBox="0 0 80 80"><defs><style>.cls-1{fill:#002860;}</style></defs><title>planning</title><path class="cls-1" d="M16.43,26.31H50.24a2.26,2.26,0,0,0,0-4.52H16.43a2.26,2.26,0,0,0,0,4.52Zm27.14,7.86H16.43a2.26,2.26,0,0,0,0,4.52H43.57a2.26,2.26,0,0,0,0-4.52ZM37.86,46.55H16.43a2.26,2.26,0,0,0,0,4.52H37.86a2.26,2.26,0,0,0,0-4.52ZM35,59.88H16.43a2.26,2.26,0,0,0,0,4.52H35a2.26,2.26,0,0,0,0-4.52ZM66.67,45.2V7.38A6.49,6.49,0,0,0,60,1H6.67A6.49,6.49,0,0,0,0,7.38V72.62a6.49,6.49,0,0,0,6.67,6.43H62.81A17.14,17.14,0,0,0,66.67,45.2Zm-60,27.18v-59H60V45A17.1,17.1,0,0,0,49.31,72.38Zm56.19,2.38A12.86,12.86,0,1,1,75.71,61.9,12.86,12.86,0,0,1,62.86,74.76Zm5.76-21-6.81,9.7-5.22-5.22-3,2.9,8.71,8.7L72,56.18Z"/></svg>