<svg id="Layer_1" data-name="Layer 1" xmlns="http://www.w3.org/2000/svg" viewBox="0 0 80 80"><defs><style>.cls-1{fill:#002860;}</style></defs><title>policies for gdpr</title><path class="cls-1" d="M11.89,54.61H0L.28,69.07h0A10.59,10.59,0,0,0,10.84,79.69h0l47.92.15a14.63,14.63,0,0,1-4.62-10.67V54.61Z"/><path class="cls-1" d="M41.91,7.73a1.22,1.22,0,0,0-.47.06v8.47a1.53,1.53,0,0,0,.43,0C43,16.3,44,15.17,44,11.78,44,9.26,43.36,7.73,41.91,7.73Zm9.07,0a2,2,0,0,0-.59.09v3.81a2.5,2.5,0,0,0,.4,0c1.2,0,1.74-.86,1.74-2S52.09,7.74,51,7.74Zm-9.07,0a1.22,1.22,0,0,0-.47.06v8.47a1.53,1.53,0,0,0,.43,0C43,16.3,44,15.17,44,11.78,44,9.26,43.36,7.73,41.91,7.73Zm9.07,0a2,2,0,0,0-.59.09v3.81a2.5,2.5,0,0,0,.4,0c1.2,0,1.74-.86,1.74-2S52.09,7.74,51,7.74ZM75.77.16h-57a4.23,4.23,0,0,0-4.24,4.19l-.48,46H56.27a2.11,2.11,0,0,1,2.12,2.1V69.17a10.81,10.81,0,0,0,21.61,0V4.39A4.25,4.25,0,0,0,75.77.16ZM56.34,6.05A14,14,0,0,1,59,5.81a4.78,4.78,0,0,1,3.28.92,3.18,3.18,0,0,1,1,2.56,3.26,3.26,0,0,1-1.89,3.07v0c.83.34,1.26,1.11,1.49,2.44a19.74,19.74,0,0,0,.79,3.33h-2.5a16.49,16.49,0,0,1-.62-2.94c-.21-1.53-.6-2-1.39-2h-.36v4.9H56.34ZM48,6.05a12.93,12.93,0,0,1,2.5-.24,4.69,4.69,0,0,1,3.34,1,3.55,3.55,0,0,1,1,2.69,4.11,4.11,0,0,1-1,3,4.27,4.27,0,0,1-3,1.18h-.48v4.58H48Zm-8.95,0a11.18,11.18,0,0,1,2.42-.24,4.76,4.76,0,0,1,3.42,1.1c1.05,1,1.59,2.57,1.59,4.95s-.63,4.25-1.7,5.21A5.24,5.24,0,0,1,41,18.26a15.84,15.84,0,0,1-2-.14Zm-4-.29a5,5,0,0,1,2,.37l-.42,2.06a3.06,3.06,0,0,0-1.41-.28c-1.62,0-2.91,1.12-2.91,4.32,0,2.95,1.15,4,2.26,4a1.07,1.07,0,0,0,.47-.07V13.23H34v-2h3.3v6.57a8.57,8.57,0,0,1-2.54.43,4.4,4.4,0,0,1-3.29-1.21,6.88,6.88,0,0,1-1.59-5C29.9,7.62,32.45,5.76,35.06,5.76ZM67.74,44.29a2.13,2.13,0,0,1-1.5.62H26.91a2.12,2.12,0,1,1,0-4.24H66.24a2.12,2.12,0,0,1,1.5,3.62Zm-1.35-8.44H27.06a2.12,2.12,0,1,1-.29-4.23,1.4,1.4,0,0,1,.29,0H66.39a2.12,2.12,0,0,1,0,4.23Zm.6-8.3H27.06a2.12,2.12,0,1,1-.29-4.23,1.4,1.4,0,0,1,.29,0H66.7A2.12,2.12,0,1,1,67,27.55Zm-6.2-18c0-1.05-.42-1.79-1.49-1.82a1.66,1.66,0,0,0-.58.08v3.66h.44A1.7,1.7,0,0,0,60.79,9.5Zm-8.26.16c0-1.07-.44-1.92-1.55-1.92a2,2,0,0,0-.59.09v3.81a2.5,2.5,0,0,0,.4,0C52,11.67,52.53,10.81,52.53,9.66ZM44,11.78c0-2.52-.66-4-2.11-4a1.22,1.22,0,0,0-.47.06v8.47a1.53,1.53,0,0,0,.43,0C43,16.3,44,15.17,44,11.78Zm-2.11-4a1.22,1.22,0,0,0-.47.06v8.47a1.53,1.53,0,0,0,.43,0C43,16.3,44,15.17,44,11.78,44,9.26,43.36,7.73,41.91,7.73Zm0,0a1.22,1.22,0,0,0-.47.06v8.47a1.53,1.53,0,0,0,.43,0C43,16.3,44,15.17,44,11.78,44,9.26,43.36,7.73,41.91,7.73Z"/></svg>