<svg id="Layer_1" data-name="Layer 1" xmlns="http://www.w3.org/2000/svg" viewBox="0 0 80 80"><defs><style>.cls-1{fill:#002860;}</style></defs><title>policies data privacy impact assessment</title><path class="cls-1" d="M69.33,34.5v7c-.66-.5-1-.67-1-.83a5.24,5.24,0,0,0-7,0s-3.33,3-9.5,3a4.84,4.84,0,0,0-4,1.5,4.79,4.79,0,0,0-1.5,3.5v10A21.06,21.06,0,0,0,47,64.33H7.5a4.13,4.13,0,0,1-4.17-4.16V26.33A4.13,4.13,0,0,1,7.5,22.17h15a4.1,4.1,0,0,1,4,3A8.85,8.85,0,0,0,29.17,29a7.3,7.3,0,0,0,4.5,1.5H65.33A3.85,3.85,0,0,1,69.33,34.5Z"/><path class="cls-1" d="M5.83,9V19A7.38,7.38,0,0,0,0,26.33V15.83A6.86,6.86,0,0,1,5.83,9Z"/><path class="cls-1" d="M72.67,15.67V34.33A7.51,7.51,0,0,0,66.83,27V9A6.82,6.82,0,0,1,72.67,15.67Z"/><path class="cls-1" d="M63.5,5.5V27H33.67a4.92,4.92,0,0,1-2.5-.83,5.73,5.73,0,0,1-1.5-2,7.51,7.51,0,0,0-7.17-5.34H9.17V5.5A4.48,4.48,0,0,1,13.67,1H59A4.48,4.48,0,0,1,63.5,5.5Z"/><path class="cls-1" d="M80,48.5v10a21.55,21.55,0,0,1-13.67,20c-.83.33-1,.5-1.5.5s-.66-.17-1.5-.5a21.55,21.55,0,0,1-13.66-20v-10a1.51,1.51,0,0,1,.5-1.17,1.8,1.8,0,0,1,1.16-.5c8,.17,12.17-3.66,12.34-3.83A1.6,1.6,0,0,1,66,43c.17.17,4.5,4,12.33,3.83a1.53,1.53,0,0,1,1.17.5A1.85,1.85,0,0,1,80,48.5Z"/></svg>