<svg id="Layer_1" data-name="Layer 1" xmlns="http://www.w3.org/2000/svg" viewBox="0 0 80 80"><defs><style>.cls-1{fill:#002860;}</style></defs><title>premature contract termination</title><path class="cls-1" d="M11.89,54.61H0L.28,69.07v0A10.59,10.59,0,0,0,10.86,79.69l47.92.15a14.63,14.63,0,0,1-4.62-10.67V54.61Z"/><path class="cls-1" d="M69.2,79.75A10.71,10.71,0,0,0,80,69.17V4.39A4.24,4.24,0,0,0,75.77.16h-57a4.24,4.24,0,0,0-4.24,4.19l-.48,46H56.27a2.11,2.11,0,0,1,2.12,2.11V69.17A10.71,10.71,0,0,0,69.2,79.75ZM27.06,15.32H66.7a2.12,2.12,0,1,1,0,4.23H27.06a2.12,2.12,0,1,1,0-4.23Zm0,20.53a2.12,2.12,0,1,1,0-4.23H66.39a2.12,2.12,0,0,1,0,4.23Z"/></svg>