<svg id="Layer_1" data-name="Layer 1" xmlns="http://www.w3.org/2000/svg" viewBox="0 0 80 80"><defs><style>.cls-1{fill:#002860;}</style></defs><title>privacy governance framework</title><path class="cls-1" d="M62.6,2.15a.88.88,0,0,0-.91-.86H19.38a.9.9,0,0,0-.92.87V8.5H62.6ZM49.23,6.88a1.95,1.95,0,1,1,2-1.95A2,2,0,0,1,49.23,6.88Zm5,0a1.95,1.95,0,1,1,2-1.95A2,2,0,0,1,54.25,6.88Zm5,0a1.95,1.95,0,1,1,2-1.95A2,2,0,0,1,59.27,6.88Z"/><path class="cls-1" d="M79,49H62a1,1,0,0,0-1,1v6.48H54V36.57h7.7a.88.88,0,0,0,.91-.86V10.5H18.46V35.71a.88.88,0,0,0,.9.86h7.47V56.44H19.06V50a1,1,0,0,0-1-1H1a1,1,0,0,0-1,1V66.78a1,1,0,0,0,1,1h17a1,1,0,0,0,1-1V59.11h9.12a1.34,1.34,0,0,0,.95-.39,1.3,1.3,0,0,0,.4-.94V36.57h9.67s0,0,0,.06V59.42a1.24,1.24,0,0,0,.1.47h-7a1,1,0,0,0-1,1V77.71a1,1,0,0,0,1,1h17a1,1,0,0,0,1-1V60.89a1,1,0,0,0-1-1H41.78a1.45,1.45,0,0,0,.09-.47V36.63s0,0,0-.06H51.3V57.78a1.33,1.33,0,0,0,.39.94,1.36,1.36,0,0,0,1,.39H61v7.67a1,1,0,0,0,1,1H79a1,1,0,0,0,1-1V50A1,1,0,0,0,79,49ZM8.61,62.12,4.94,64.23l-.16.07-.39-1.11,2.49-1.55L4.39,60.1,4.78,59l3.83,2.2v1Zm0-6.55L4.94,57.68l-.16.07-.39-1.11,2.49-1.55L4.39,53.55l.39-1.14,3.83,2.2v1Zm3.1,6.69H9.2V61h2.51Zm0-6.55H9.2V54.47h2.51Zm2.92,6.55H12.12V61h2.51Zm0-6.55H12.12V54.47h2.51ZM39.91,73.06l-3.68,2.1-.16.07-.39-1.11,2.49-1.54L35.68,71l.39-1.13,3.83,2.19v1Zm0-6.55-3.68,2.1-.16.07-.39-1.11L38.17,66l-2.49-1.55.39-1.13,3.83,2.19v1ZM43,73.19H40.49V72H43Zm.41-7.79h2.51v1.24H43.41Zm0,6.55h2.51v1.24H43.41ZM43,66.64H40.49V65.4H43ZM31.13,25V23.36l5.92-3.42.74,2.15-3.48,2.1,3.48,2.1-.74,2.15Zm10.28-6.79h2.52L39.67,30.16H37.13ZM49.92,25,44,28.44l-.74-2.15,3.48-2.1-3.48-2.1L44,19.94l5.91,3.42Zm19.64,37.1-3.68,2.11-.16.07-.38-1.11,2.48-1.55L65.34,60.1,65.73,59l3.83,2.2v1Zm0-6.55-3.68,2.11-.16.07-.38-1.11,2.48-1.55-2.48-1.54.39-1.14,3.83,2.2Zm3.1,6.69H70.15V61h2.51Zm0-6.55H70.15V54.47h2.51Zm2.91,6.55H73.06V61h2.51Zm0-6.55H73.06V54.47h2.51Z"/></svg>