<svg id="Layer_1" data-name="Layer 1" xmlns="http://www.w3.org/2000/svg" viewBox="0 0 80 80"><defs><style>.cls-1{fill:#002860;}</style></defs><title>process conformity</title><path class="cls-1" d="M78.82,18.58l-4.54-.51a12.77,12.77,0,0,0-1.43-3.45L75.71,11a1.39,1.39,0,0,0-.09-1.76L73,6.63a1.28,1.28,0,0,0-1.76-.09L67.71,9.4A18.2,18.2,0,0,0,64.26,8l-.5-4.54a1.29,1.29,0,0,0-1.27-1.18h-3.7a1.23,1.23,0,0,0-1.26,1.18l-.42,4.63a17.3,17.3,0,0,0-3.46,1.43L50.12,6.63a1.4,1.4,0,0,0-1.77.08L45.74,9.32a1.31,1.31,0,0,0-.08,1.77l2.86,3.62a15.76,15.76,0,0,0-1.43,3.45l-4.55.42a1.27,1.27,0,0,0-1.17,1.26v3.7a1.22,1.22,0,0,0,1.17,1.27l4.55.5a15.76,15.76,0,0,0,1.43,3.45L45.66,32.3a1.31,1.31,0,0,0,.08,1.77l2.61,2.61a1.31,1.31,0,0,0,1.77.08l3.53-2.86a14,14,0,0,0,3.46,1.43l.5,4.54a1.28,1.28,0,0,0,1.26,1.18h3.71a1.22,1.22,0,0,0,1.26-1.18l.5-4.54A14,14,0,0,0,67.8,33.9l3.53,2.86a1.31,1.31,0,0,0,1.77-.08l2.61-2.61a1.31,1.31,0,0,0,.08-1.77l-2.94-3.54a16.26,16.26,0,0,0,1.43-3.45l4.54-.5A1.29,1.29,0,0,0,80,23.54v-3.7A1.28,1.28,0,0,0,78.82,18.58ZM60.73,28.43a6.74,6.74,0,1,1,6.73-6.74A6.76,6.76,0,0,1,60.73,28.43Z"/><path class="cls-1" d="M48.94,51.49l-5.72-.59a16.93,16.93,0,0,0-1.69-4l3.62-4.46a1.16,1.16,0,0,0-.08-1.52l-3.62-3.53A1.05,1.05,0,0,0,40,37.26l-4.46,3.62a17.32,17.32,0,0,0-4-1.68l-.59-5.72a1.1,1.1,0,0,0-1.09-1H24.78a1.1,1.1,0,0,0-1.09,1L23.1,39.2a17.32,17.32,0,0,0-4,1.68L14.6,37.26a1,1,0,0,0-1.43.09L9.55,40.88a1.15,1.15,0,0,0-.08,1.52l3.62,4.46a16.93,16.93,0,0,0-1.69,4l-5.72.59a1,1,0,0,0-1,1.09v5.05a1.11,1.11,0,0,0,1,1.1l5.72.59a17.1,17.1,0,0,0,1.69,4L9.38,67.82a1.16,1.16,0,0,0,.09,1.51l3.62,3.54A1.14,1.14,0,0,0,14.6,73l4.46-3.62a16.93,16.93,0,0,0,4,1.69l.59,5.72a1.1,1.1,0,0,0,1.09,1h5.06a1.1,1.1,0,0,0,1.09-1L31.52,71a16.93,16.93,0,0,0,4-1.69L40,73a1.15,1.15,0,0,0,1.51-.08l3.62-3.62a1.17,1.17,0,0,0,.09-1.52l-3.62-4.46a16.9,16.9,0,0,0,1.68-4L49,58.64a1.1,1.1,0,0,0,1-1.09v-5A1.18,1.18,0,0,0,48.94,51.49ZM27.31,62.94A7.87,7.87,0,1,1,35.22,55,7.9,7.9,0,0,1,27.31,62.94Z"/><path class="cls-1" d="M22.18,23.38v3a1.17,1.17,0,0,0,1.85,1l11.7-7.24a1.27,1.27,0,0,0,0-2.11L24,10.84a1.2,1.2,0,0,0-1.85,1V15C17.13,15.55,4.42,19,0,38.19a1.15,1.15,0,0,0,2.19.67C6.44,29.61,13.42,24.13,22.18,23.38Z"/></svg>