<svg id="Layer_1" data-name="Layer 1" xmlns="http://www.w3.org/2000/svg" viewBox="0 0 80 80"><defs><style>.cls-1{fill:#002860;}</style></defs><title>product sampling</title><path class="cls-1" d="M56.78,0a6.44,6.44,0,0,0-5.17,2.83A9.76,9.76,0,0,0,50,8.48v5.93a2.55,2.55,0,0,0,5.1.07v-6a5,5,0,0,1,.72-2.74c.37-.55.59-.64,1-.64s.61.1,1,.64a5.09,5.09,0,0,1,.71,2.74v5.93a2.55,2.55,0,0,0,5.1.07v-6A9.82,9.82,0,0,0,62,2.83,6.46,6.46,0,0,0,56.78,0Z"/><path class="cls-1" d="M44.88,8.5a2.55,2.55,0,0,0-2.55,2.55v20.4A2.55,2.55,0,0,0,44.88,34h23.8a2.55,2.55,0,0,0,2.55-2.55V11.05A2.55,2.55,0,0,0,68.68,8.5H64.43v5.91a3.4,3.4,0,1,1-6.8.09v-6h-1.7v5.91a3.4,3.4,0,1,1-6.8.1v-6Z"/><path class="cls-1" d="M78.16,51.34C72.85,55.66,69,59,66.3,61.47c-5.56,4.94-7.78,7-12.48,7.29l-25.69,1.6a7.31,7.31,0,0,0-1,.87c0-.12,0-.25-.12-.25L21.09,50.85A7.13,7.13,0,0,0,19.48,48l1.86-2.72A11.67,11.67,0,0,1,31,40.22H48.14A5.91,5.91,0,0,1,54.07,46a5.83,5.83,0,0,1-5.93,5.81H37.89a1.72,1.72,0,0,0-1.73,1.85,1.69,1.69,0,0,0,1.73,1.73H55.43c.86-.5,4.57-2.6,18-10.38a3.86,3.86,0,0,1,5.69,2.1A3.51,3.51,0,0,1,78.16,51.34Z"/><path class="cls-1" d="M24.18,74.94a4.41,4.41,0,0,1-2.6,2.1l-9.51,2.71a4.14,4.14,0,0,1-1.23.25,4.65,4.65,0,0,1-4.33-3.21L.71,56.65a4.43,4.43,0,0,1,3.08-5.56l9.52-2.71a4,4,0,0,1,1.23-.13,4.65,4.65,0,0,1,4.33,3.21L24.79,71.6A5.57,5.57,0,0,1,24.18,74.94Z"/></svg>