<svg id="Layer_1" data-name="Layer 1" xmlns="http://www.w3.org/2000/svg" viewBox="0 0 80 80"><defs><style>.cls-1{fill:#002860;}</style></defs><title>product quality</title><path class="cls-1" d="M78,35.67a18.44,18.44,0,0,1-2.59-5.24,20.12,20.12,0,0,1-.29-5.85A9.54,9.54,0,0,0,74.73,20a9.9,9.9,0,0,0-3.8-2.69A19.53,19.53,0,0,1,66,14.14a19.56,19.56,0,0,1-3.2-4.89,9.69,9.69,0,0,0-2.68-3.8,9.54,9.54,0,0,0-4.73-.58,20.88,20.88,0,0,1-5.85-.29A18.51,18.51,0,0,1,44.44,2,9.87,9.87,0,0,0,40,0a9.81,9.81,0,0,0-4.35,2,18.49,18.49,0,0,1-5.23,2.58,19.82,19.82,0,0,1-5.85.29A9.58,9.58,0,0,0,20,5.29a9.76,9.76,0,0,0-2.68,3.9,19.51,19.51,0,0,1-3.2,4.88,19.56,19.56,0,0,1-4.89,3.2A10,10,0,0,0,5.43,20a9.52,9.52,0,0,0-.57,4.63,20.12,20.12,0,0,1-.29,5.85A18.46,18.46,0,0,1,2,35.58,9.83,9.83,0,0,0,0,40a9.78,9.78,0,0,0,2,4.34A18.44,18.44,0,0,1,4.57,49.6a20.12,20.12,0,0,1,.29,5.85A9.59,9.59,0,0,0,5.27,60a10,10,0,0,0,3.8,2.68A19.53,19.53,0,0,1,14,65.89a19.56,19.56,0,0,1,3.2,4.89,9.62,9.62,0,0,0,2.68,3.8,9.58,9.58,0,0,0,4.57.42h2.08a13.94,13.94,0,0,1,3.86.42A18.43,18.43,0,0,1,35.5,78a9.73,9.73,0,0,0,4.34,2,9.81,9.81,0,0,0,4.35-2,18.39,18.39,0,0,1,5.39-2.55,19.82,19.82,0,0,1,5.85-.29A9.58,9.58,0,0,0,60,74.74a9.62,9.62,0,0,0,2.68-3.8,19.56,19.56,0,0,1,3.2-4.89,19.53,19.53,0,0,1,4.89-3.19,10,10,0,0,0,3.8-2.68,9.55,9.55,0,0,0,.57-4.73,20.12,20.12,0,0,1,.29-5.85A18.4,18.4,0,0,1,78,44.46,9.92,9.92,0,0,0,80,40,9.81,9.81,0,0,0,78,35.67ZM49.58,45l2.21,12.94L40,51.81l-11.63,6.1L30.58,45l-9.4-9.17,13-1.89L40,22.12l5.81,11.79,13,1.89Z"/></svg>