<svg id="Layer_1" data-name="Layer 1" xmlns="http://www.w3.org/2000/svg" viewBox="0 0 80 80"><defs><style>.cls-1{fill:#002860;}</style></defs><title>professional-support</title><path class="cls-1" d="M49.12,46.34c.58.16,1,1,.33,3.3-.82,2.89-1.57,3-2,2.72-.58,3.14-2.23,7.1-7.59,7.27-5.45-.41-7.19-4.54-7.68-7.68-.41,0-1-.66-1.65-2.81-.83-3,.08-3.46.82-3.38a7.1,7.1,0,0,1-.16-4.54,8.86,8.86,0,0,1,2.31-4,14,14,0,0,1,2.15-1.81,9.64,9.64,0,0,1,2.06-1.08h0a7.26,7.26,0,0,1,1.9-.33,8.19,8.19,0,0,1,4.79,1,6,6,0,0,1,2.31,2.15S50.94,37.42,49.12,46.34Zm4.54,16.43a45.93,45.93,0,0,1-7.18-3.47L43,70.28l-.49,1.48L41,67.39c3.55-5-.25-5.2-.91-5.2h0c-.66,0-4.46.25-.91,5.2l-1.57,4.37-.49-1.48-3.47-11a45.36,45.36,0,0,1-7.18,3.47,7.27,7.27,0,0,0-2,1.07,24,24,0,0,1-3.55-1.9L18,71.19l-.41,1.24-1.33-3.72c3-4.21-.24-4.38-.82-4.38h0c-.58,0-3.8.17-.83,4.38l-1.32,3.72-.41-1.24L10,61.94a31.32,31.32,0,0,1-6,2.89c-4.13,1.57-3.88,5-4,11.48H80c-.08-6.44.17-9.83-4-11.4A38.45,38.45,0,0,1,70,62l-2.89,9.25-.41,1.24-1.32-3.72c3-4.21-.25-4.37-.83-4.37h0c-.58,0-3.8.16-.82,4.37l-1.33,3.72L62,71.27,59.11,62a28.63,28.63,0,0,1-3.55,1.9A3.87,3.87,0,0,0,53.66,62.77Zm3-9.33c.49,1.81,1,2.39,1.4,2.39.41,2.64,1.9,6.11,6.44,6.44,4.54-.16,5.94-3.55,6.36-6.19.41.25,1,.08,1.65-2.31.58-2,.24-2.65-.25-2.81,1.57-7.51-2-7.76-2-7.76a5.08,5.08,0,0,0-2-1.82,6.55,6.55,0,0,0-4-.82,4.73,4.73,0,0,0-1.57.33h0a5.59,5.59,0,0,0-1.73.91,10.09,10.09,0,0,0-1.82,1.48,7.58,7.58,0,0,0-2,3.47,6,6,0,0,0,.17,3.8C56.64,50.55,55.89,51,56.64,53.44Zm-49.21,0c.5,1.81,1,2.39,1.4,2.39.42,2.64,1.9,6.11,6.44,6.44,4.54-.16,5.95-3.55,6.36-6.19.41.25,1,.08,1.65-2.31.58-2,.25-2.65-.25-2.81,1.66-7.43-2-7.68-2-7.68a5,5,0,0,0-2-1.81,6.52,6.52,0,0,0-4-.83,4.67,4.67,0,0,0-1.57.33h0a6,6,0,0,0-1.74.91,10.47,10.47,0,0,0-1.81,1.48,7.54,7.54,0,0,0-2,3.47,6.06,6.06,0,0,0,.16,3.8C7.51,50.55,6.69,51,7.43,53.44ZM52.34,8A14.77,14.77,0,0,1,73.23,28.92a14.91,14.91,0,0,1-18,2.31h0A8.6,8.6,0,0,1,49,33a.56.56,0,0,1-.17-1.07,7.22,7.22,0,0,0,3.06-3.47l-.17-.16A14.74,14.74,0,0,1,52.34,8Zm8.59,3.71a2.46,2.46,0,0,0,2.39,2.48,2.4,2.4,0,0,0,2.4-2.39,2.4,2.4,0,1,0-4.79-.09Zm-2.23,4a.53.53,0,0,0,.41.58c.25.08.5.08.83.16.66.09.82.33.82.91v.25c-.24,1.48-.49,3-.82,4.54-.17.82-.25,1.73-.41,2.64a2.68,2.68,0,0,0,2,2.64,11.08,11.08,0,0,0,1.73.09,4.78,4.78,0,0,0,3.22-1.41,1.23,1.23,0,0,0,.33-.58c.08-.33-.16-.57-.58-.49-.25.08-.41.25-.66.33a3.86,3.86,0,0,1-.91.25.72.72,0,0,1-.74-.5,2.89,2.89,0,0,1-.08-.82l.25-1.74c.33-1.73.66-3.47.9-5.2a7.44,7.44,0,0,0,.17-1.4c0-.58-.33-.83-.91-.83H59.69a1.69,1.69,0,0,0-.58.08A.53.53,0,0,0,58.7,15.79Z"/></svg>