<svg id="Layer_1" data-name="Layer 1" xmlns="http://www.w3.org/2000/svg" viewBox="0 0 80 80"><defs><style>.cls-1{fill:#002860;}</style></defs><title>recovery of deleted data</title><path class="cls-1" d="M21.93,46.09a1.2,1.2,0,0,0-1.52.88l-.76,2.54A22.28,22.28,0,0,1,17.5,40a23,23,0,0,1,3.55-12.17,1.29,1.29,0,0,0-2.16-1.4A24.57,24.57,0,0,0,15,40a25.84,25.84,0,0,0,2.41,10.78l-2.28-.64a1.25,1.25,0,0,0-.64,2.41l5.33,1.52a1,1,0,0,0,.89-.12h.12a2.22,2.22,0,0,0,.64-.76L23,47.61A1.29,1.29,0,0,0,21.93,46.09Z"/><path class="cls-1" d="M53.76,58.13l-5.58-1.52a1.19,1.19,0,0,0-1.52.89A1.3,1.3,0,0,0,47.54,59l2.79.76a22.34,22.34,0,0,1-10.27,2.53,23,23,0,0,1-12.17-3.55,1.28,1.28,0,0,0-1.39,2.16,25.33,25.33,0,0,0,24.85,1.27l-.64,2a1.13,1.13,0,0,0,.89,1.52,1.29,1.29,0,0,0,1.65-.89l1.52-5.2a1.39,1.39,0,0,0-.13-1A5.27,5.27,0,0,0,53.76,58.13Z"/><path class="cls-1" d="M26.24,21.36l5.58,1.52A1.23,1.23,0,0,0,33.34,22a1.29,1.29,0,0,0-.88-1.52l-2.16-.64a23.27,23.27,0,0,1,9.64-2.15,23,23,0,0,1,12.17,3.55,1.28,1.28,0,0,0,1.39-2.16,24.54,24.54,0,0,0-13.56-3.93A25.74,25.74,0,0,0,28.4,17.94l.76-2.79a1.25,1.25,0,0,0-2.41-.63l-1.39,5.32A1.36,1.36,0,0,0,26.24,21.36Z"/><path class="cls-1" d="M38.67,8.18v4.43H41.2V8.18a4.24,4.24,0,0,0,2.92-3.93,4.19,4.19,0,1,0-8.37,0A4.37,4.37,0,0,0,38.67,8.18Z"/><path class="cls-1" d="M41.2,71.82V67.39H38.67v4.43a4.16,4.16,0,1,0,5.45,3.93A4.37,4.37,0,0,0,41.2,71.82Z"/><path class="cls-1" d="M8.11,38.73a4.21,4.21,0,0,0-3.93-2.91,4.18,4.18,0,0,0,0,8.36,4.09,4.09,0,0,0,3.93-2.91h4.44V38.73Z"/><path class="cls-1" d="M55.78,31.13v21a1.27,1.27,0,0,1-1.26,1.27H25.36a1.2,1.2,0,0,1-1.27-1.27V27.83a1.2,1.2,0,0,1,1.27-1.27h8.87a1.16,1.16,0,0,1,.64.13l6.33,3.17H54.64A1.24,1.24,0,0,1,55.78,31.13Z"/><path class="cls-1" d="M66.31,28.84a1.2,1.2,0,0,1-1.52.89l-2.41-.63a24.75,24.75,0,0,1-1.52,24.47,1.38,1.38,0,0,1-1.78.38,1.25,1.25,0,0,1-.38-1.78A21.38,21.38,0,0,0,62.25,40a22.28,22.28,0,0,0-2.15-9.51L59.46,33a1.19,1.19,0,0,1-1.52.88,1.38,1.38,0,0,1-.89-1.52l1.52-5.45a2,2,0,0,1,.51-.76c0-.13.63-.38,1-.25l5.32,1.26A1.47,1.47,0,0,1,66.31,28.84Z"/><path class="cls-1" d="M80,40a4.22,4.22,0,0,1-4.18,4.18,4.09,4.09,0,0,1-3.93-2.91H67.45V38.73h4.44A4.15,4.15,0,0,1,80,40Z"/></svg>