<svg id="Layer_1" data-name="Layer 1" xmlns="http://www.w3.org/2000/svg" viewBox="0 0 80 80"><defs><style>.cls-1{fill:#002860;}</style></defs><title>reference check</title><path class="cls-1" d="M1.25,14.38h32.5a1.25,1.25,0,0,0,0-2.5H1.25a1.25,1.25,0,0,0,0,2.5Z"/><path class="cls-1" d="M78.75,11.88H46.25a1.25,1.25,0,0,0,0,2.5h32.5a1.25,1.25,0,0,0,0-2.5Z"/><path class="cls-1" d="M78.75,16.88H46.25A1.25,1.25,0,0,0,45,18.13V46.88a1.25,1.25,0,0,0,1.25,1.25h32.5A1.25,1.25,0,0,0,80,46.88V18.13A1.25,1.25,0,0,0,78.75,16.88Zm-7.6,28.75H53.85a8.66,8.66,0,0,1-.1-1.25,8.75,8.75,0,1,1,17.5,0A8.66,8.66,0,0,1,71.15,45.63Zm6.35,0H73.67A11.18,11.18,0,0,0,67,34.09a7.5,7.5,0,1,0-10.51-1.44A7.61,7.61,0,0,0,58,34.09a11.18,11.18,0,0,0-6.64,11.54H47.5V19.38h30Z"/><path class="cls-1" d="M1.25,48.13H19.38a3.69,3.69,0,0,1,.62-2.5H8.85a8.66,8.66,0,0,1-.1-1.25A8.75,8.75,0,0,1,26,42.47l2.33-1A11.32,11.32,0,0,0,22,34.09a7.5,7.5,0,1,0-9.07,0A11.2,11.2,0,0,0,6.32,45.63H2.5V19.38h30V39.76l2.5-1V18.13a1.25,1.25,0,0,0-1.25-1.25H1.25A1.25,1.25,0,0,0,0,18.13V46.88A1.25,1.25,0,0,0,1.25,48.13Z"/><path class="cls-1" d="M41,39.76a1.27,1.27,0,0,0-1.38-.29l-17,7.13a1.25,1.25,0,0,0-.7,1.53l6.15,19.13a1.26,1.26,0,0,0,1.13.86h.07a1.24,1.24,0,0,0,1.14-.75l2.7-6.11C37,62.54,49.29,65.36,59,52.77a1.29,1.29,0,0,0-1.37-2.09c-9,3.56-15.68,1.11-19.85-1.87l3.46-7.67A1.24,1.24,0,0,0,41,39.76Z"/></svg>