<svg id="Layer_1" data-name="Layer 1" xmlns="http://www.w3.org/2000/svg" viewBox="0 0 80 80"><defs><style>.cls-1{fill:#002860;}</style></defs><title>reporting</title><path class="cls-1" d="M71.21,20.58H54.74A3.64,3.64,0,0,1,51.1,17V1.21A3.51,3.51,0,0,1,51.32,0H8.79a1.2,1.2,0,0,0-.86.36,1.19,1.19,0,0,0-.35.85V78.79A1.2,1.2,0,0,0,8.79,80H71.21a1.2,1.2,0,0,0,1.21-1.21V20.36A3.51,3.51,0,0,1,71.21,20.58ZM29,10.57a11.55,11.55,0,0,1,9.55,7.36L29,20.48Zm-2.43,0V22.05a1.24,1.24,0,0,0,.47,1,1.27,1.27,0,0,0,.75.25,1,1,0,0,0,.3,0l11.08-3a11.79,11.79,0,0,1,.16,1.79A11.54,11.54,0,1,1,26.59,10.57ZM62.2,66.62H17a1.22,1.22,0,0,1,0-2.43h1.83V45.44a1.21,1.21,0,0,1,.35-.86,1.19,1.19,0,0,1,.86-.35h5.67a1.2,1.2,0,0,1,1.21,1.21V64.19h3.07V39.5a1.2,1.2,0,0,1,1.21-1.21h5.67A1.22,1.22,0,0,1,38,39.5V64.19H41.1V49.41a1.21,1.21,0,0,1,.35-.86,1.27,1.27,0,0,1,.87-.36H48a1.22,1.22,0,0,1,1.21,1.22V64.19h3.07V33.42a1.2,1.2,0,0,1,1.21-1.21h5.67a1.2,1.2,0,0,1,1.21,1.21V64.19H62.2a1.22,1.22,0,0,1,0,2.43Z"/><path class="cls-1" d="M54.74,18.16H71.21a1.21,1.21,0,0,0,.84-2.09L55.58.34A1.25,1.25,0,0,0,54.25.1a1.21,1.21,0,0,0-.72,1.11V17A1.21,1.21,0,0,0,54.74,18.16Z"/></svg>