<svg id="Layer_1" data-name="Layer 1" xmlns="http://www.w3.org/2000/svg" viewBox="0 0 80 80"><defs><style>.cls-1{fill:#002860;}</style></defs><title>risk assessment</title><path class="cls-1" d="M40,10.91,9.59,69.54H70.41Zm3.4,50.71a2.56,2.56,0,0,1-2.51,2.6H39.11a2.56,2.56,0,0,1-2.51-2.6V60.33a2.56,2.56,0,0,1,2.51-2.59h1.78a2.56,2.56,0,0,1,2.51,2.59Zm-1.88-8.46h-3a1.93,1.93,0,0,1-1.88-1.95V29.37a1.92,1.92,0,0,1,1.88-1.94h3a1.92,1.92,0,0,1,1.88,1.94V51.21A1.93,1.93,0,0,1,41.52,53.16ZM40,10.91,9.59,69.54H70.41Zm3.4,50.71a2.56,2.56,0,0,1-2.51,2.6H39.11a2.56,2.56,0,0,1-2.51-2.6V60.33a2.56,2.56,0,0,1,2.51-2.59h1.78a2.56,2.56,0,0,1,2.51,2.59Zm-1.88-8.46h-3a1.93,1.93,0,0,1-1.88-1.95V29.37a1.92,1.92,0,0,1,1.88-1.94h3a1.92,1.92,0,0,1,1.88,1.94V51.21A1.93,1.93,0,0,1,41.52,53.16ZM79.07,66.7,47.58,6A8.62,8.62,0,0,0,32.42,6L.93,66.7a7.7,7.7,0,0,0,.37,8,8.35,8.35,0,0,0,7.21,3.88h63a8.35,8.35,0,0,0,7.21-3.88A7.7,7.7,0,0,0,79.07,66.7ZM74.9,72.22A3.82,3.82,0,0,1,71.49,74h-63A3.82,3.82,0,0,1,5.1,72.22a3.24,3.24,0,0,1-.16-3.44L36.43,8.06a4.11,4.11,0,0,1,7.14,0L75.06,68.78A3.24,3.24,0,0,1,74.9,72.22ZM9.59,69.54H70.41L40,10.91ZM43.4,61.62a2.56,2.56,0,0,1-2.51,2.6H39.11a2.56,2.56,0,0,1-2.51-2.6V60.33a2.56,2.56,0,0,1,2.51-2.59h1.78a2.56,2.56,0,0,1,2.51,2.59Zm0-32.25V51.21a1.93,1.93,0,0,1-1.88,1.95h-3a1.93,1.93,0,0,1-1.88-1.95V29.37a1.92,1.92,0,0,1,1.88-1.94h3A1.92,1.92,0,0,1,43.4,29.37Z"/></svg>