<svg id="Layer_1" data-name="Layer 1" xmlns="http://www.w3.org/2000/svg" viewBox="0 0 80 80"><defs><style>.cls-1{fill:#002860;}.cls-2{fill:none;stroke:#002860;stroke-linecap:round;stroke-linejoin:round;stroke-dasharray:2.96 2.96;}</style></defs><title>roadmap</title><path class="cls-1" d="M70.67,74.67V66.56a9.32,9.32,0,0,0,0-18.45V37.33A1.34,1.34,0,0,0,69.33,36h-12l2.14-1.6-1.6-2.13-5,3.73H41.33a9.33,9.33,0,0,0-8-9.23V16h9.34l-2.14,1.6,1.6,2.13,5.34-4A1.33,1.33,0,0,0,48,14.67a1.35,1.35,0,0,0-.53-1.07l-5.34-4-1.6,2.13,2.14,1.6H32a1.33,1.33,0,0,0-1.33,1.34v12.1a9.33,9.33,0,1,0,10.27,11.9h12l5,3.73,1.6-2.13-2.14-1.6H68v9.44a9.32,9.32,0,0,0,0,18.45v6.77H47.11l-5-3.73-1.6,2.13,2.14,1.6H24V76H42.67l-2.14,1.6,1.6,2.13,5-3.73H69.33A1.34,1.34,0,0,0,70.67,74.67ZM38.14,33.11l-6.45,7.74a1.34,1.34,0,0,1-1,.48h-.06a1.34,1.34,0,0,1-1-.39L26,37.18a.33.33,0,0,1,0-.47l1.41-1.42a.34.34,0,0,1,.48,0l2.47,2.48a.33.33,0,0,0,.49,0L36.1,31.4a.33.33,0,0,1,.47,0l1.53,1.28A.33.33,0,0,1,38.14,33.11ZM68.06,62.67H68a1.33,1.33,0,0,1-.94-.39l-3.77-3.77a.33.33,0,0,1,0-.47l1.42-1.41a.33.33,0,0,1,.47,0l2.47,2.47a.34.34,0,0,0,.5,0l5.28-6.34a.33.33,0,0,1,.47-.05L75.44,54a.33.33,0,0,1,0,.47L69,62.19A1.42,1.42,0,0,1,68.06,62.67Z"/><path class="cls-1" d="M17.47,65.2a10,10,0,0,1-4.78,1.21A9.92,9.92,0,0,1,7.81,65.2,8.84,8.84,0,0,0,0,74V79.2a.8.8,0,0,0,.79.8h23.7a.8.8,0,0,0,.79-.8V74A8.83,8.83,0,0,0,17.47,65.2Z"/><circle class="cls-1" cx="12.69" cy="55.83" r="7.63"/><polygon class="cls-1" points="65.79 6.21 63.32 11.47 57.79 12.32 61.79 16.42 60.85 22.21 65.79 19.47 70.74 22.21 69.79 16.42 73.79 12.32 68.27 11.47 65.79 6.21"/><circle class="cls-2" cx="65.79" cy="14.21" r="13.21"/></svg>