<svg id="Layer_1" data-name="Layer 1" xmlns="http://www.w3.org/2000/svg" viewBox="0 0 80 80"><defs><style>.cls-1{fill:#002860;}</style></defs><title>secured &amp;amp; vetted transport</title><path class="cls-1" d="M75.77-.3H4A4,4,0,0,0,0,3.77V59.22a4.06,4.06,0,0,0,4.06,4.06H31.92V73.65H22.44c-4.14,0-7.53.38-7.53,4.61h0a2.06,2.06,0,0,0,2,2H63.06a2.06,2.06,0,0,0,2-2c0-4.14-3.39-4.61-7.53-4.61H48.08V63.28H75.94A4.06,4.06,0,0,0,80,59.22V3.77A4.39,4.39,0,0,0,75.77-.3ZM39.87,58.88a2.8,2.8,0,1,1,2.8-2.8A2.82,2.82,0,0,1,39.87,58.88Zm33.61-8.62H6.27V6.63H73.48Z"/><path class="cls-1" d="M38.85,44.2a1.92,1.92,0,0,0,1,.27,2.13,2.13,0,0,0,1-.27A23.54,23.54,0,0,0,52.8,23.77V19.89a2.09,2.09,0,0,0-1.85-2,14.29,14.29,0,0,1-9-4.16l-.65-.65A2,2,0,0,0,40,12.5h0a1.88,1.88,0,0,0-1.39.55l-.65.65a14.49,14.49,0,0,1-9,4.16,2,2,0,0,0-1.85,2v3.88A23,23,0,0,0,38.85,44.2ZM34.32,27.1a1.35,1.35,0,0,1,1.94,0l2.4,2.4L43.75,24a1.41,1.41,0,0,1,1.94-.09,1.43,1.43,0,0,1,.09,1.94l-6,6.56a1.44,1.44,0,0,1-1,.46h0a1.41,1.41,0,0,1-.93-.37L34.32,29A1.54,1.54,0,0,1,34.32,27.1Z"/></svg>