<svg id="Layer_1" data-name="Layer 1" xmlns="http://www.w3.org/2000/svg" viewBox="0 0 80 80"><defs><style>.cls-1{fill:#002860;}</style></defs><title>securities ltigation</title><path class="cls-1" d="M66.87,27.92H53.07a5,5,0,0,0-4.93,4.93V43.08H50.6V32.85a2.47,2.47,0,0,1,2.47-2.46h13.8a2.47,2.47,0,0,1,2.47,2.46V43.08h2.47V32.85A5,5,0,0,0,66.87,27.92Z"/><circle class="cls-1" cx="59.97" cy="57.14" r="1.6"/><path class="cls-1" d="M70.57,66.51a1.24,1.24,0,0,1,0-2.47H75.5V60.22H70.57a1.24,1.24,0,0,1,0-2.47H75.5V53.93H70.57a1.23,1.23,0,1,1,0-2.46H75.5V48A2.47,2.47,0,0,0,73,45.55H47A2.48,2.48,0,0,0,44.56,48v3.45h4.93a1.23,1.23,0,1,1,0,2.46H44.56v3.82h4.93a1.24,1.24,0,1,1,0,2.47H44.56V64h4.93a1.24,1.24,0,1,1,0,2.47H44.56v2.22a3.63,3.63,0,0,0,3.7,3.69H71.81a3.63,3.63,0,0,0,3.69-3.69V66.51ZM61.2,61v2.71a1.23,1.23,0,0,1-2.46,0V61A4,4,0,1,1,64,57.14,3.85,3.85,0,0,1,61.2,61Z"/><circle class="cls-1" cx="34.08" cy="53.19" r="1.23"/><polygon class="cls-1" points="32.97 43.7 35.19 43.7 36.42 25.58 31.74 25.58 32.97 43.7"/><path class="cls-1" d="M62.68,12.51C49.74,10.05,35,.31,34.82.18a1.36,1.36,0,0,0-1.35,0c-.25.13-14.92,9.87-28,12.33a1.21,1.21,0,0,0-1,1.24V40.37a34.94,34.94,0,0,0,6.16,19.85C20.15,74,32.6,80.68,34.58,79.94a40.89,40.89,0,0,0,10.35-6.16,6.39,6.39,0,0,1-3-5.3V48.14a5.14,5.14,0,0,1,3.7-4.81V32.85a7.41,7.41,0,0,1,7.4-7.39h10.6V13.75A1.21,1.21,0,0,0,62.68,12.51ZM34.08,56.89a3.7,3.7,0,1,1,3.7-3.7A3.64,3.64,0,0,1,34.08,56.89Zm3.45-11.83a1.22,1.22,0,0,1-1.23,1.11H31.86a1.22,1.22,0,0,1-1.23-1.11L29.15,24.35A1.27,1.27,0,0,1,30.38,23h7.4A1.27,1.27,0,0,1,39,24.35Z"/><rect class="cls-1" x="53.07" y="32.85" width="10.6" height="10.36"/></svg>