<svg id="Layer_1" data-name="Layer 1" xmlns="http://www.w3.org/2000/svg" viewBox="0 0 80 80"><defs><style>.cls-1{fill:#002860;}</style></defs><title>shareholder disputes</title><path class="cls-1" d="M24.17,53.87l-4.3-1-3.7,10L15,57.15h.17a1,1,0,0,0,1-1V54.88a1,1,0,0,0-1-1H12.88a1,1,0,0,0-1,1v1.26a1,1,0,0,0,1,1h.17l-1.18,5.73-3.7-10-4.3,1a5,5,0,0,0-3.79,4.8L0,67.93a3,3,0,0,0,3,2.95H22.74l.08-7.33a8,8,0,0,1,4.55-7.32A5.11,5.11,0,0,0,24.17,53.87Z"/><path class="cls-1" d="M79.92,58.58a5,5,0,0,0-3.79-4.8l-4.3-1-3.7,10L67,57.15h.17a1,1,0,0,0,1-1V54.88a1,1,0,0,0-1-1H64.84a1,1,0,0,0-1,1v1.26a1,1,0,0,0,1,1H65l-1.18,5.73-3.7-10-4.3,1a4.71,4.71,0,0,0-3.11,2.36,8.18,8.18,0,0,1,4.54,7.32l.09,7.33h19.7a3,3,0,0,0,3-2.95Z"/><path class="cls-1" d="M50.19,58.75l-4.3-1-3.78,10L40.93,62h.16a1,1,0,0,0,1-1V59.76a1,1,0,0,0-1-1H38.82a1,1,0,0,0-1,1V61a1,1,0,0,0,1,1H39l-1.1,5.72-3.78-10-4.3,1A5,5,0,0,0,26,63.55l-.08,9.27a3,3,0,0,0,2.94,2.94H51A3,3,0,0,0,54,72.82l-.09-9.27A4.89,4.89,0,0,0,50.19,58.75Z"/><circle class="cls-1" cx="40" cy="47.89" r="8.84"/><circle class="cls-1" cx="13.98" cy="42.92" r="8.84"/><circle class="cls-1" cx="66.02" cy="42.92" r="8.84"/><path class="cls-1" d="M40,4.24a15.17,15.17,0,0,0-15.35,15,15.35,15.35,0,0,0,30.7,0A15.17,15.17,0,0,0,40,4.24Zm.71,21.14v1.18H39.65v-1.3a7.74,7.74,0,0,1-4.26-1.89l1.3-1.54a6.51,6.51,0,0,0,3,1.54V20.06c-2.25-.59-3.78-1.3-3.78-3.42s1.65-3.31,3.78-3.43v-.82h1.06v.82a6.55,6.55,0,0,1,3.54,1.3l-1.06,1.54a4.61,4.61,0,0,0-2.48-1v3.19h0c2.24.47,3.78,1.3,3.78,3.54S42.83,25.26,40.71,25.38Z"/><path class="cls-1" d="M37.87,16.52c0,.94.71,1.18,1.66,1.54v-3C38.7,15.22,37.87,15.69,37.87,16.52Z"/><path class="cls-1" d="M40.71,20.42v3.07c.94-.12,1.77-.59,1.77-1.42S41.65,20.77,40.71,20.42Z"/></svg>