<svg id="Layer_1" data-name="Layer 1" xmlns="http://www.w3.org/2000/svg" viewBox="0 0 80 80"><defs><style>.cls-1{fill:#002860;}</style></defs><title>social media forensics</title><path class="cls-1" d="M34.29,70V58.57a2.86,2.86,0,0,0-2.86-2.86H24.29a1.43,1.43,0,0,1-1.43-1.42v-3l-6.35,4.23a1.42,1.42,0,0,1-.8.24H2.86A2.86,2.86,0,0,0,0,58.57V70a2.86,2.86,0,0,0,2.86,2.86H31.43A2.86,2.86,0,0,0,34.29,70ZM25.71,60h5.72v2.86H25.71ZM2.86,60h20v2.86h-20Zm8.57,8.57H2.86V65.71h8.57Zm2.86-2.86H31.43v2.86H14.29Z"/><path class="cls-1" d="M2.86,28.57H15.71a1.5,1.5,0,0,1,.8.24l6.35,4.24V30a1.43,1.43,0,0,1,1.43-1.43h7.14a2.86,2.86,0,0,0,2.86-2.86V2.86A2.86,2.86,0,0,0,31.43,0H2.86A2.86,2.86,0,0,0,0,2.86V25.71A2.86,2.86,0,0,0,2.86,28.57ZM5.71,12.86a1.43,1.43,0,0,1,1.43-1.43h5.13l2-2V5.71a2.85,2.85,0,0,1,2.85-2.85,5.72,5.72,0,0,1,5.72,5.71v2.86h2.28a3.42,3.42,0,0,1,3.43,3.43v7.43a3.42,3.42,0,0,1-3.43,3.42h-18a1.43,1.43,0,0,1-1.43-1.42Z"/><rect class="cls-1" x="8.57" y="14.29" width="2.86" height="8.57"/><path class="cls-1" d="M51.43,8.57h8.31a4.32,4.32,0,0,0-4-2.86H37.14v5.72h9.37A5.71,5.71,0,0,1,51.43,8.57Z"/><path class="cls-1" d="M25.71,22.29V14.86a.56.56,0,0,0-.57-.57H18.57V11.43H20V8.57a2.86,2.86,0,0,0-2.86-2.86V10a1.42,1.42,0,0,1-.42,1l-2.43,2.44v9.41H25.14A.57.57,0,0,0,25.71,22.29Z"/><path class="cls-1" d="M77.14,11.43H51.43a2.86,2.86,0,0,0-2.86,2.86v20a2.86,2.86,0,0,0,2.86,2.85h1.43a1.43,1.43,0,0,1,1.43,1.43v3l6.35-4.24a1.47,1.47,0,0,1,.79-.24H77.14A2.86,2.86,0,0,0,80,34.29v-20A2.86,2.86,0,0,0,77.14,11.43Zm-4,16.28-8,6.28a1.44,1.44,0,0,1-1.76,0l-8-6.28A6.92,6.92,0,0,1,53.71,19a6.17,6.17,0,0,1,4.23-3.17,5.88,5.88,0,0,1,4.85,1.27l1.5,1.21,1.49-1.23a5.87,5.87,0,0,1,4.85-1.26A6.21,6.21,0,0,1,74.86,19,6.93,6.93,0,0,1,73.18,27.71Z"/><path class="cls-1" d="M65.14,40H62.86V55.12l5.29,5.3-2,2L55.42,51.72a3.63,3.63,0,0,0-5.21,5.05l.09.08,7.85,7.85a1.43,1.43,0,0,1,.18,1.81l-.64,1A11.09,11.09,0,0,0,57.87,80h15V54.34a12.86,12.86,0,0,0-3.18-8.46Z"/><path class="cls-1" d="M46.37,54.29A6.49,6.49,0,0,1,57.44,49.7L60,52.27v-11l-6.35,4.23a1.42,1.42,0,0,1-2.22-1.18V40a5.72,5.72,0,0,1-5.72-5.71v-20H37.14V25.71a5.72,5.72,0,0,1-5.71,5.72H25.71v4.28a1.43,1.43,0,0,1-2.22,1.19L20,34.57V49.71l3.49-2.32a1.42,1.42,0,0,1,2.22,1.18v4.29h5.72a5.71,5.71,0,0,1,5.71,5.71v10H53.93a14.11,14.11,0,0,1,1.37-2.68l-7-7A6.41,6.41,0,0,1,46.37,54.29Z"/><path class="cls-1" d="M70.09,18.62a3,3,0,0,0-2.49.67l-2.41,2a1.43,1.43,0,0,1-1.81,0l-2.41-2A3,3,0,0,0,59,18.57a3.53,3.53,0,0,0-.56.05,3.33,3.33,0,0,0-2.26,1.74,4.1,4.1,0,0,0,.93,5.1L64.29,31l7.13-5.58a4.11,4.11,0,0,0,.94-5.1A3.35,3.35,0,0,0,70.09,18.62Z"/><path class="cls-1" d="M53.16,71.43H36.94a5.71,5.71,0,0,1-5.51,4.28H20A4.29,4.29,0,0,0,24.29,80H54.54A14,14,0,0,1,53.16,71.43ZM41.43,77.14H38.57V74.29h2.86Z"/></svg>