<svg id="Layer_1" data-name="Layer 1" xmlns="http://www.w3.org/2000/svg" viewBox="0 0 80 80"><defs><style>.cls-1{fill:#002860;}</style></defs><title>standardize and automate</title><path class="cls-1" d="M32.45,73.88a2.86,2.86,0,0,1-4,0l-2.21-2.22a2.86,2.86,0,0,1,0-4l.09-.1a4.65,4.65,0,0,0,.87-4.61l-.27-.65A4.64,4.64,0,0,0,23,59.61h-.13a2.87,2.87,0,0,1-2.8-2.86V53.61a2.85,2.85,0,0,1,2.8-2.85H23a4.63,4.63,0,0,0,3.88-2.65l.27-.64a4.65,4.65,0,0,0-.87-4.62l-.09-.1a2.86,2.86,0,0,1,0-4l2.22-2.21a2.87,2.87,0,0,1,4,0l.09.09a4.67,4.67,0,0,0,4.62.87l.65-.27a4.63,4.63,0,0,0,2.64-3.88v-.13a2.86,2.86,0,0,1,2.85-2.8h3.14a2.86,2.86,0,0,1,2.86,2.8v.13A4.65,4.65,0,0,0,52,37.18l.65.27a4.64,4.64,0,0,0,4.61-.87l.1-.09a2.86,2.86,0,0,1,4,0l2.22,2.21a2.88,2.88,0,0,1,0,4l-.1.09a4.65,4.65,0,0,0-.86,4.62l.27.65a4.61,4.61,0,0,0,3.87,2.64h.14a2.87,2.87,0,0,1,2.8,2.85v3.14a2.87,2.87,0,0,1-2.8,2.86h-.14a4.63,4.63,0,0,0-3.87,2.65l-.27.65a4.61,4.61,0,0,0,.87,4.61l.09.1a2.86,2.86,0,0,1,0,4l-2.22,2.22a2.86,2.86,0,0,1-4,0l-.1-.1a4.63,4.63,0,0,0-4.61-.86l-.65.27a4.62,4.62,0,0,0-2.65,3.87v.14A2.87,2.87,0,0,1,46.46,80H43.32a2.86,2.86,0,0,1-2.85-2.8v-.14a4.61,4.61,0,0,0-2.65-3.87l-.64-.27a4.65,4.65,0,0,0-4.62.87Zm7.8-7.49a12.13,12.13,0,1,0-6.56-15.85A12.13,12.13,0,0,0,40.25,66.39Z"/><path class="cls-1" d="M15,28.34a2.16,2.16,0,0,1-2.84-1l-1-2.12a2.16,2.16,0,0,1,1-2.85l.09-.05a3.47,3.47,0,0,0,1.75-3.06l0-.53a3.47,3.47,0,0,0-2.1-2.83l-.09,0a2.14,2.14,0,0,1-1.29-2.71l.77-2.23a2.15,2.15,0,0,1,2.69-1.34l.1,0a3.47,3.47,0,0,0,3.4-.93l.35-.39a3.5,3.5,0,0,0,.52-3.49l0-.09a2.16,2.16,0,0,1,1-2.84l2.12-1a2.16,2.16,0,0,1,2.85,1l.05.09a3.47,3.47,0,0,0,3.06,1.75l.53,0a3.47,3.47,0,0,0,2.83-2.1l0-.1A2.14,2.14,0,0,1,33.4.12l2.23.77A2.15,2.15,0,0,1,37,3.58l0,.1a3.47,3.47,0,0,0,.93,3.4l.39.35A3.5,3.5,0,0,0,41.75,8l.09,0a2.16,2.16,0,0,1,2.84,1l1,2.12a2.15,2.15,0,0,1-1,2.85l-.09,0A3.47,3.47,0,0,0,42.91,17l0,.53A3.49,3.49,0,0,0,45,20.36l.09,0a2.16,2.16,0,0,1,1.29,2.72l-.77,2.23A2.15,2.15,0,0,1,43,26.68l-.1,0a3.47,3.47,0,0,0-3.4.93l-.35.39a3.5,3.5,0,0,0-.52,3.49l0,.09a2.16,2.16,0,0,1-1,2.84l-2.12,1a2.15,2.15,0,0,1-2.85-.95l0-.09a3.47,3.47,0,0,0-3.06-1.75l-.53,0a3.47,3.47,0,0,0-2.83,2.1l0,.09a2.14,2.14,0,0,1-2.71,1.29l-2.23-.77a2.15,2.15,0,0,1-1.34-2.69l0-.1a3.47,3.47,0,0,0-.93-3.4l-.39-.35a3.47,3.47,0,0,0-3.49-.52Zm7.37-3.4a9.12,9.12,0,1,0-.76-12.87A9.12,9.12,0,0,0,22.36,24.94Z"/></svg>