<svg id="Layer_1" data-name="Layer 1" xmlns="http://www.w3.org/2000/svg" viewBox="0 0 80 80"><defs><style>.cls-1{fill:#002860;}</style></defs><title>tap into high quality data</title><path class="cls-1" d="M56.87,21.67A25.73,25.73,0,0,0,31.4,0,26.56,26.56,0,0,0,23,1.47l10.9,20.2Z"/><path class="cls-1" d="M56.9,21.67h0a.7.7,0,0,0,0,.14Z"/><path class="cls-1" d="M50.18,33.17a4.82,4.82,0,0,1,3.26,1.23,3.94,3.94,0,0,1,1.31,2.51,26.35,26.35,0,0,0,2.15-6.84H31.4a4,4,0,0,1-3.54-2.21L15.77,5.45A25.87,25.87,0,0,0,31.4,51.88a25.4,25.4,0,0,0,14.15-4.3V37.36A4.47,4.47,0,0,1,50.18,33.17Z"/><path class="cls-1" d="M74.4,56.25a3.72,3.72,0,0,0-3.71-3.71,3.77,3.77,0,0,0-3.16,1.75v-.11a3.71,3.71,0,0,0-3.7-3.71,3.85,3.85,0,0,0-3.16,1.75v-.11A3.72,3.72,0,0,0,57,48.4a3.86,3.86,0,0,0-3.16,1.75V37.78a3.72,3.72,0,0,0-3.7-3.7h0a3.75,3.75,0,0,0-3.71,3.7V62a.51.51,0,0,1-.32.49.42.42,0,0,1-.55-.11l-3.65-3.75a3.7,3.7,0,0,0-4.74-.44,3.74,3.74,0,0,0-.81,5.5l9.37,11.22A13.81,13.81,0,0,0,56.36,80h5.83a11.88,11.88,0,0,0,8.61-3.6,12.08,12.08,0,0,0,3.6-8.6Z"/></svg>