<svg id="Layer_1" data-name="Layer 1" xmlns="http://www.w3.org/2000/svg" viewBox="0 0 80 80"><defs><style>.cls-1{fill:#002860;}</style></defs><title>vacation-and-time-off</title><path class="cls-1" d="M3.75,76.88H67.5a3.76,3.76,0,0,0,3.75-3.75V71.25h-2.5v1.88a1.26,1.26,0,0,1-1.25,1.25H3.75A1.26,1.26,0,0,1,2.5,73.13v-55a1.25,1.25,0,0,1,1.25-1.25h2.5v-2.5H3.75A3.76,3.76,0,0,0,0,18.13v55A3.76,3.76,0,0,0,3.75,76.88Z"/><path class="cls-1" d="M29.38,48.75h17.5V31.25H29.38Z"/><rect class="cls-1" x="16.88" y="43.75" width="5" height="5"/><rect class="cls-1" x="16.88" y="18.75" width="5" height="5"/><rect class="cls-1" x="16.88" y="31.25" width="5" height="5"/><rect class="cls-1" x="41.88" y="18.75" width="5" height="5"/><rect class="cls-1" x="66.88" y="43.75" width="5" height="5"/><rect class="cls-1" x="66.88" y="56.25" width="5" height="5"/><rect class="cls-1" x="66.88" y="31.25" width="5" height="5"/><rect class="cls-1" x="66.88" y="18.75" width="5" height="5"/><path class="cls-1" d="M76.25,3.13H12.5A3.76,3.76,0,0,0,8.75,6.88V54.25l3.19-1.62a1.26,1.26,0,1,1,1.12,2.25l-1.5.75H45a3.76,3.76,0,0,1,3.75,3.75V62.5a1.25,1.25,0,0,1-2.5,0V59.38A1.25,1.25,0,0,0,45,58.13H11.56l1.5.74a1.25,1.25,0,0,1,.56,1.69,1.23,1.23,0,0,1-1.68.56h0L8.75,59.5V65a3.76,3.76,0,0,0,3.75,3.75H76.25A3.76,3.76,0,0,0,80,65V6.88A3.76,3.76,0,0,0,76.25,3.13ZM24.38,48.75a2.51,2.51,0,0,1-2.5,2.5h-5a2.51,2.51,0,0,1-2.5-2.5h0v-5a2.51,2.51,0,0,1,2.5-2.5h5a2.51,2.51,0,0,1,2.5,2.5h0Zm0-12.5a2.51,2.51,0,0,1-2.5,2.5h-5a2.5,2.5,0,0,1-2.5-2.5h0v-5a2.5,2.5,0,0,1,2.5-2.5h5a2.51,2.51,0,0,1,2.5,2.5h0Zm0-12.5a2.51,2.51,0,0,1-2.5,2.5h-5a2.5,2.5,0,0,1-2.5-2.5h0v-5a2.5,2.5,0,0,1,2.5-2.5h5a2.51,2.51,0,0,1,2.5,2.5h0Zm25,25a2.51,2.51,0,0,1-2.5,2.5H29.38a2.51,2.51,0,0,1-2.5-2.5h0V31.25a2.5,2.5,0,0,1,2.5-2.5h17.5a2.51,2.51,0,0,1,2.5,2.5h0Zm-22.5-25v-5a2.5,2.5,0,0,1,2.5-2.5h5a2.51,2.51,0,0,1,2.5,2.5h0v5a2.51,2.51,0,0,1-2.5,2.5h-5a2.5,2.5,0,0,1-2.5-2.5Zm22.5,0a2.51,2.51,0,0,1-2.5,2.5h-5a2.5,2.5,0,0,1-2.5-2.5h0v-5a2.5,2.5,0,0,1,2.5-2.5h5a2.51,2.51,0,0,1,2.5,2.5h0Zm12.5,37.5a2.51,2.51,0,0,1-2.5,2.5h-5a2.51,2.51,0,0,1-2.5-2.5h0v-5a2.51,2.51,0,0,1,2.5-2.5h5a2.51,2.51,0,0,1,2.5,2.5h0Zm0-12.5a2.51,2.51,0,0,1-2.5,2.5h-5a2.51,2.51,0,0,1-2.5-2.5h0v-5a2.51,2.51,0,0,1,2.5-2.5h5a2.51,2.51,0,0,1,2.5,2.5h0Zm0-12.5a2.51,2.51,0,0,1-2.5,2.5h-5a2.5,2.5,0,0,1-2.5-2.5h0v-5a2.5,2.5,0,0,1,2.5-2.5h5a2.51,2.51,0,0,1,2.5,2.5h0Zm0-12.5a2.51,2.51,0,0,1-2.5,2.5h-5a2.5,2.5,0,0,1-2.5-2.5h0v-5a2.5,2.5,0,0,1,2.5-2.5h5a2.51,2.51,0,0,1,2.5,2.5h0Zm12.5,37.5a2.51,2.51,0,0,1-2.5,2.5h-5a2.51,2.51,0,0,1-2.5-2.5h0v-5a2.51,2.51,0,0,1,2.5-2.5h5a2.51,2.51,0,0,1,2.5,2.5h0Zm0-12.5a2.51,2.51,0,0,1-2.5,2.5h-5a2.51,2.51,0,0,1-2.5-2.5h0v-5a2.51,2.51,0,0,1,2.5-2.5h5a2.51,2.51,0,0,1,2.5,2.5h0Zm0-12.5a2.51,2.51,0,0,1-2.5,2.5h-5a2.5,2.5,0,0,1-2.5-2.5h0v-5a2.5,2.5,0,0,1,2.5-2.5h5a2.51,2.51,0,0,1,2.5,2.5h0Zm0-12.5a2.51,2.51,0,0,1-2.5,2.5h-5a2.5,2.5,0,0,1-2.5-2.5h0v-5a2.5,2.5,0,0,1,2.5-2.5h5a2.51,2.51,0,0,1,2.5,2.5h0Zm3.12-12.5H11.25V6.88A1.25,1.25,0,0,1,12.5,5.63H15V7.5a1.25,1.25,0,0,0,2.5,0V5.63h3.75V7.5a1.25,1.25,0,0,0,2.5,0V5.63H27.5V7.5a1.25,1.25,0,0,0,2.5,0V5.63h3.75V7.5a1.25,1.25,0,0,0,2.5,0V5.63H40V7.5a1.25,1.25,0,0,0,2.5,0V5.63h3.75V7.5a1.25,1.25,0,0,0,2.5,0V5.63H52.5V7.5a1.25,1.25,0,0,0,2.5,0V5.63h3.75V7.5a1.25,1.25,0,0,0,2.5,0V5.63H65V7.5a1.25,1.25,0,0,0,2.5,0V5.63h3.75V7.5a1.25,1.25,0,0,0,2.5,0V5.63h2.5A1.25,1.25,0,0,1,77.5,6.88Z"/><rect class="cls-1" x="54.38" y="18.75" width="5" height="5"/><rect class="cls-1" x="54.38" y="56.25" width="5" height="5"/><rect class="cls-1" x="54.38" y="43.75" width="5" height="5"/><rect class="cls-1" x="29.38" y="18.75" width="5" height="5"/><rect class="cls-1" x="54.38" y="31.25" width="5" height="5"/></svg>