<svg id="Layer_1" data-name="Layer 1" xmlns="http://www.w3.org/2000/svg" viewBox="0 0 80 80"><defs><style>.cls-1{fill:#002860;}</style></defs><title>vendor profile</title><path class="cls-1" d="M11.75.82a2.51,2.51,0,0,0-2.1,2.85l1,5.14H7a2.5,2.5,0,0,0-2.1,2.85l1,5.15H2.16A2.5,2.5,0,0,0,0,19.61L6,53.59H2.16a2.51,2.51,0,0,0-2.05,3.1l6.4,20.79a2.43,2.43,0,0,0,2.29,1.7H71.2a2.47,2.47,0,0,0,2.3-1.7l6.4-20.79a2.52,2.52,0,0,0-2.3-3.1H74.05l5.92-34a2.51,2.51,0,0,0-2.37-2.8H74.12l1-5.15A2.52,2.52,0,0,0,72.8,8.81H69.32l1-5.14A2.51,2.51,0,0,0,68,.82ZM5.28,21.61H74.72l-5.55,32H10.83Zm3.52,4L13.6,51.2h4.8v-4a2.86,2.86,0,0,1,.78-1.93,12.1,12.1,0,0,1,4.75-2.2A14,14,0,0,1,21.6,36.8a9.27,9.27,0,0,1,2.23-6.32,8,8,0,0,1,11.55,0A9.31,9.31,0,0,1,37.6,36.8a12.08,12.08,0,0,1-2.32,6.27A12.73,12.73,0,0,1,40,45.27a2.86,2.86,0,0,1,.77,1.93v4H44v-4H56.8v4h9.6l4.8-25.59ZM44,30.4H59.2v4.8H44ZM44,36H58.4v4.8H44Zm0,5.6H57.6v4.8H44Z"/></svg>