<svg id="Layer_1" data-name="Layer 1" xmlns="http://www.w3.org/2000/svg" viewBox="0 0 80 80"><defs><style>.cls-1{fill:#002860;}</style></defs><title>vendor audits</title><path class="cls-1" d="M50.92,29.76a18.11,18.11,0,0,1,10,4.41V.26H0V79.74H60.89V70.43l-2,2L52.7,66.24a17.8,17.8,0,0,1-1.78.28V74H42v-8.5h.14a18.36,18.36,0,0,1-6.52-4.22c-.27-.28-.53-.55-.78-.84v.31H26V52.22h4.68a18.48,18.48,0,0,1-.44-4.74H26V39h6.64A18.59,18.59,0,0,1,42,30.88V25.76h8.88ZM18.85,74H10v-8.5h8.88Zm0-13.24H10V52.22h8.88Zm0-13.23H10V39h8.88Zm0-13.24H10V25.75h8.88Zm16,31.21V74H26v-8.5Zm0-31.21H26V25.75h8.89ZM5.8,20.71V6.06H55.09V20.71Z"/><path class="cls-1" d="M50.92,29.75h0c-.18,0-.36,0-.54-.06A4.93,4.93,0,0,1,50.92,29.75Z"/><path class="cls-1" d="M60.66,36.22a16.85,16.85,0,1,0,0,23.83A16.84,16.84,0,0,0,60.66,36.22ZM56.54,55.93a11,11,0,1,1,0-15.58A11,11,0,0,1,56.54,55.93Z"/><path class="cls-1" d="M70.64,58.33,58.89,70.07l-4.34-4.34A18.6,18.6,0,0,0,66.32,54Z"/><path class="cls-1" d="M78.72,78.15a4.35,4.35,0,0,1-6.17,0l-9.69-9.69L69,62.29,78.72,72A4.36,4.36,0,0,1,78.72,78.15Z"/><path class="cls-1" d="M48.75,47.43a2.07,2.07,0,1,1,2.07-2.06H52.2A3.45,3.45,0,0,0,49.44,42V39.66H48.06V42a3.45,3.45,0,0,0,.69,6.82,2.07,2.07,0,1,1-2.07,2.07H45.31a3.45,3.45,0,0,0,2.75,3.38v2.36h1.38V54.26a3.45,3.45,0,0,0-.69-6.83Z"/></svg>