<svg id="Layer_1" data-name="Layer 1" xmlns="http://www.w3.org/2000/svg" viewBox="0 0 80 80"><defs><style>.cls-1{fill:#fff;}</style></defs><title>agriculture</title><path class="cls-1" d="M71.91,55.28A93.84,93.84,0,0,1,62,57.72a11.33,11.33,0,0,1-8.25,4.8,18.09,18.09,0,0,1-3.2.26,93.93,93.93,0,0,1-9.86-.85c-.25,0-.5-.08-.75-.08a1.89,1.89,0,0,1-1.69-1.69,1.79,1.79,0,0,1,2-1.93c.25,0,.59.08.84.08,4.81.51,9.27,1.1,12.13.59,5.31-.84,6.91-4,6.57-6.74C59.53,50,58,47.78,55.4,48a90,90,0,0,1-12.29-.67c-4.8-.51-9.86-.93-13.4-.42a44.36,44.36,0,0,0-8.84,2.94l-2.44,1L2.93,55.28a3.15,3.15,0,0,0-2.27,3v13.9a3.26,3.26,0,0,0,3.45,3.2l14.32-1.18c7.16,2.53,16,5.31,21.14,5.73,10.44.84,31.08-11,36.89-14.91S78.4,53.09,71.91,55.28Z"/><path class="cls-1" d="M43.53,43.32c3.45.34,7,.67,10.1.67h2c4.29,0,7.74,3.29,8.17,7.92a4.29,4.29,0,0,1,0,1.43,56.42,56.42,0,0,0,6.82-1.77A9.94,9.94,0,0,1,74.1,51h.17a11.14,11.14,0,0,0,.51-3.37,11,11,0,0,0-9.86-11,8.73,8.73,0,0,0-8.67-7.74,10.5,10.5,0,0,0-2.36.33V19.57A20.58,20.58,0,0,0,63.83,14c3.79-4.13,4.71-9.86,5-12.55A1.36,1.36,0,0,0,67.28,0C64.58.53,59,2,55.23,6.09a18.69,18.69,0,0,0-3.36,5.48A15.6,15.6,0,0,0,48.5,6.09C44.71,2,39.15.53,36.45,0a1.27,1.27,0,0,0-1.51,1.43c.25,2.78,1.18,8.42,5,12.55a20.91,20.91,0,0,0,9.93,5.56v9.35a9.55,9.55,0,0,0-1.6-.17,8.7,8.7,0,0,0-8.59,7.07H39.4a10,10,0,0,0-9.52,7c1-.08,2.19-.17,3.46-.17C36.45,42.64,40,43,43.53,43.32Z"/></svg>