<svg id="Layer_1" data-name="Layer 1" xmlns="http://www.w3.org/2000/svg" viewBox="0 0 80 80"><defs><style>.cls-1{fill:#fff;}</style></defs><title>automative</title><path class="cls-1" d="M78.82,27.88H71.11L66,16.42c-3-4.26-5.28-5.58-8.93-5.58H22.93c-3.65,0-5.88,1.32-8.92,5.58L8.93,27.88H1.23c-1.22,0-3.45,6.29,4.66,6.49L3.15,41c.1,8.42.1,16.74.1,25.06A3.16,3.16,0,0,0,6.4,69.16H17A3.07,3.07,0,0,0,20,66v-6.9H60V66a3.16,3.16,0,0,0,3.15,3.14H73.64a3.08,3.08,0,0,0,3-3.14c0-8.32.1-16.64.1-25.06l-2.74-6.59C82.27,34.17,79.93,27.88,78.82,27.88ZM14.72,51.71a5.09,5.09,0,0,1-5.08-5.07,5,5,0,0,1,5.08-5.07,5.09,5.09,0,0,1,5.07,5.07A5.16,5.16,0,0,1,14.72,51.71Zm36-.91H29.22a2.42,2.42,0,0,1-2.33-2.33A2.45,2.45,0,0,1,29.22,46h21.5a2.39,2.39,0,0,1,2.34,2.44A2.36,2.36,0,0,1,50.72,50.8ZM13.19,31.43c1.63-3.55,3.15-7.2,5.18-11.26,1.11-1.93,2.33-3.65,4.56-3.85H57.11c2.23.2,3.45,1.92,4.57,3.85,2,4.06,3.55,7.71,5.17,11.26ZM65.33,51.71a5.15,5.15,0,0,1-5.07-5.07,5.08,5.08,0,0,1,5.07-5.07,5,5,0,0,1,5.07,5.07A5.08,5.08,0,0,1,65.33,51.71Z"/></svg>