<svg id="Layer_1" data-name="Layer 1" xmlns="http://www.w3.org/2000/svg" viewBox="0 0 80 80"><defs><style>.cls-1{fill:#fff;}</style></defs><title>aviation</title><path class="cls-1" d="M29,55l15.22-12.5,18.48,33c8.59-4.42,7.93-8.9,5-16.66l2.42-2c2.74-2.25-.66-6.39-3.4-4.14l-1.13.93c-.83-1.91-1.77-4-2.8-6.11h0l2.66-2.18c2.73-2.25-.67-6.38-3.4-4.14l-1.44,1.19c-1.67-4.29-3.15-7.56-3.38-10.6,4.11-3.63,8.72-7.53,13.6-11.54A24.86,24.86,0,0,0,80,5.55a23.88,23.88,0,0,0-16.24,6.14c-4.83,4.21-9.5,8-13.84,11.25A39,39,0,0,1,39.75,18l1.43-1.17c2.73-2.25-.67-6.39-3.4-4.14l-2.61,2.15c-1.91-1.44-3.74-2.75-5.46-3.94L30.79,10c2.74-2.25-.66-6.39-3.4-4.14L25.05,7.8C17.71,3.15,14.36,1.11,8.29,9.3L36.81,33.47,21.6,46c-2.84,2.1-6.05,1.85-9.69-.82s-6-3.49-7-2.66L0,46.51c-.28.24,1.3,1.58,4.74,4.16s6.48,4.66,8.43,6.3c.62.46.37,1.62-.77,3.16L10.6,62.59s1-.49,2.58-1.4c1.75-.95,2.82-1.11,3.1-.62,1.31,2.18,2.89,5.57,4.86,9.72s3.14,6.31,3.31,5.93l4.88-4c1.22-1,.88-3.61-1.1-7.63S26.5,57.35,29,55Z"/></svg>