<svg id="Layer_1" data-name="Layer 1" xmlns="http://www.w3.org/2000/svg" viewBox="0 0 80 80"><defs><style>.cls-1{fill:#fff;}</style></defs><title>ecommerce</title><path class="cls-1" d="M2,10.12a1.89,1.89,0,0,1-2-2,1.89,1.89,0,0,1,2-2H8.19a8.56,8.56,0,0,1,8.39,7.19l.6,3H77.72a1.92,1.92,0,0,1,2.2,2.4L73.73,45.88a2,2,0,0,1-2,1.6l-48.55,3,1,6.19H69.73a1.89,1.89,0,0,1,2,2,2,2,0,0,1-2,2H22.58a2.15,2.15,0,0,1-2-1.6l-8-45.16a4.5,4.5,0,0,0-4.4-3.79Z"/><path class="cls-1" d="M26.77,62.76a5.5,5.5,0,1,1-5.5,5.5A5.58,5.58,0,0,1,26.77,62.76Z"/><path class="cls-1" d="M63.72,62.64a5.62,5.62,0,1,1,0,11.24,5.63,5.63,0,0,1,0-11.24Z"/></svg>