<svg id="Layer_1" data-name="Layer 1" xmlns="http://www.w3.org/2000/svg" viewBox="0 0 80 80"><defs><style>.cls-1{fill:#fff;}</style></defs><title>financial-services</title><path class="cls-1" d="M78.66,45c-5.38,4.38-9.26,7.76-12,10.26-5.65,5-7.9,7.13-12.65,7.36L28,64.23a5.89,5.89,0,0,0-1,.87c0-.12,0-.25-.13-.25l-6-20.39a7.21,7.21,0,0,0-1.65-2.88l1.88-2.75a11.8,11.8,0,0,1,9.76-5.13H48.26a6,6,0,0,1,6,5.88,5.9,5.9,0,0,1-5.92,5.88H37.87a1.74,1.74,0,0,0-1.76,1.72.92.92,0,0,0,0,.16,1.72,1.72,0,0,0,1.67,1.75H55.64c.87-.51,4.63-2.63,18.26-10.51a3.9,3.9,0,0,1,5.36,1.27,4,4,0,0,1,.4.86A3.55,3.55,0,0,1,78.66,45Z"/><path class="cls-1" d="M24,68.86A4.43,4.43,0,0,1,21.39,71l-9.64,2.75A4.8,4.8,0,0,1,10.5,74a4.73,4.73,0,0,1-4.38-3.26L.21,50.34a4.49,4.49,0,0,1,3-5.6l.13,0L13,42a3.78,3.78,0,0,1,1.25-.13,4.71,4.71,0,0,1,4.38,3.26l6,20.39A5.61,5.61,0,0,1,24,68.86Z"/><path class="cls-1" d="M71.29,10.07a13.86,13.86,0,1,0,4,9.79A13.8,13.8,0,0,0,71.29,10.07Zm-6.62,2.25a4.21,4.21,0,0,1,1.47,2.79l-1.92.29a3.14,3.14,0,0,0-.69-1.68A2.5,2.5,0,0,0,62.1,13v5.36a14.92,14.92,0,0,1,1.86.56,4.65,4.65,0,0,1,1.42.92,3.68,3.68,0,0,1,.84,1.31,4.37,4.37,0,0,1,.3,1.63,4.47,4.47,0,0,1-4.42,4.62v1.88H61V27.37a6.7,6.7,0,0,1-2.27-.62,4,4,0,0,1-1.51-1.46,5.16,5.16,0,0,1-.74-2.45l1.87-.35a4.72,4.72,0,0,0,.77,2.2A2.73,2.73,0,0,0,61,25.8V19.87A7.84,7.84,0,0,1,58.65,19a3.43,3.43,0,0,1-1.37-1.38,4.1,4.1,0,0,1-.48-2,4.06,4.06,0,0,1,1.41-3.22,4.89,4.89,0,0,1,2.79-1v-.89h1.1v.89A4.63,4.63,0,0,1,64.67,12.32Z"/><path class="cls-1" d="M61,18.08V12.92a2.74,2.74,0,0,0-1.71.87,2.43,2.43,0,0,0-.63,1.67,2.37,2.37,0,0,0,.54,1.59A3.64,3.64,0,0,0,61,18.08Z"/><path class="cls-1" d="M64.1,21.23a4.27,4.27,0,0,0-2-1.1V25.8a2.79,2.79,0,0,0,1.79-.94,2.9,2.9,0,0,0,.71-2A2.52,2.52,0,0,0,64.1,21.23Z"/></svg>