<svg id="Layer_1" data-name="Layer 1" xmlns="http://www.w3.org/2000/svg" viewBox="0 0 80 80"><defs><style>.cls-1{fill:#fff;}</style></defs><title>fmcg</title><path class="cls-1" d="M27.9,18.15l.18,8.74h6.78v8l5.81,8.7V65.21H76.3V18.15ZM40.67,67.9v12l2,.11H69.58a6.71,6.71,0,0,0,6.72-6.72V67.9Z"/><path class="cls-1" d="M9.53,28.91c0,1.79,0,5.38,0,5.38h23.3V28.91Z"/><path class="cls-1" d="M8.57,37,4,43.67h8.69L8.6,37Z"/><path class="cls-1" d="M11.75,37l4.12,6.71,22.42,0L33.8,37Z"/><path class="cls-1" d="M3.71,46.37V80H13.78V46.38Z"/><path class="cls-1" d="M16.47,46.37V80H38.65V46.4ZM27.56,59.15s2.69,4.49,2.69,5.76a2.52,2.52,0,0,1-2.69,2.31,2.53,2.53,0,0,1-2.69-2.31C24.87,63.64,27.56,59.15,27.56,59.15Z"/><path class="cls-1" d="M66.6,0,64.12,2.24A19.8,19.8,0,0,1,69.05,16l3.28,0A20.47,20.47,0,0,0,66.6,0ZM62.13,4,48.74,16.13l9.55-.06a1.34,1.34,0,0,1,.38-1.86,1.33,1.33,0,0,1,.64-.22h.15a1.33,1.33,0,0,1,.92.41L61,15a1.39,1.39,0,0,1,.4,1l5,0c.33-3.88-1.58-8.94-4.24-12Zm-.57,5.15h0a1.35,1.35,0,0,1,.93.41l.63.63a1.34,1.34,0,0,1-1.84,2l-.06-.06-.63-.63a1.35,1.35,0,0,1,0-1.9,1.34,1.34,0,0,1,1-.41Zm-4.05,1.52h0A1.34,1.34,0,0,1,58.45,13l-.64.63a1.34,1.34,0,0,1-2-1.75,1.06,1.06,0,0,1,.15-.15l.63-.63a1.39,1.39,0,0,1,1-.42Z"/><path class="cls-1" d="M32.19,8.5a2,2,0,0,0-.72.15c-1.93.8-2.68,3.32-3.24,5.31a13.09,13.09,0,0,0-.36,2.17H46.11L45.48,14c-.56-2-1.31-4.52-3.24-5.31-1.7-.71-5.38,1.28-5.38,1.28S34,8.42,32.19,8.51Z"/><path class="cls-1" d="M37.83,3.34a1.34,1.34,0,0,0-1.25.79,18.87,18.87,0,0,0-1.14,3.06A3.51,3.51,0,0,1,36,7.3a9.59,9.59,0,0,1,.92.43,9.81,9.81,0,0,1,1.37-.61l0,0c.31-.84.71-1.82.71-1.82a1.34,1.34,0,0,0-.62-1.8,1.18,1.18,0,0,0-.55-.14Z"/></svg>