<svg id="Layer_1" data-name="Layer 1" xmlns="http://www.w3.org/2000/svg" viewBox="0 0 80 80"><defs><style>.cls-1{fill:#fff;}</style></defs><title>investment</title><path class="cls-1" d="M56.16,14.12A17.51,17.51,0,0,0,26.27,26.45,25.52,25.52,0,0,1,37.8,30.2c.92,0,1.24,0,2.06.05a25.41,25.41,0,0,1,3.29-2.19V26.51a9.62,9.62,0,0,1-3-1.12,4.35,4.35,0,0,1-1.74-1.74,5.29,5.29,0,0,1-.61-2.53,5.18,5.18,0,0,1,1.78-4.07,6.24,6.24,0,0,1,3.54-1.28V14.64h1.39v1.13A5.81,5.81,0,0,1,47.79,17a5.3,5.3,0,0,1,1.86,3.52l-2.43.37a4,4,0,0,0-.87-2.13,3.2,3.2,0,0,0-1.81-1v6.79a18.16,18.16,0,0,1,2.35.7,6.06,6.06,0,0,1,1.21.68,25.66,25.66,0,0,1,7.57-1.14,25.92,25.92,0,0,1,5.58.61A17.47,17.47,0,0,0,56.16,14.12Z"/><path class="cls-1" d="M59.89,10.38A22.8,22.8,0,0,0,21,26.5v.09a26.51,26.51,0,0,1,3.34-.21h.38a19.07,19.07,0,0,1,38.12-.57,25.72,25.72,0,0,1,3.73,1.4c0-.23,0-.47,0-.71A22.73,22.73,0,0,0,59.89,10.38Zm-9.3,33.94h0c0,.1,0,.2,0,.31a4.24,4.24,0,0,0,.5,2.09A3.52,3.52,0,0,0,52,47.78h0a3.41,3.41,0,0,1-.37-.39,4.5,4.5,0,0,1-1-3Zm9.5-1.9.06-.06a3.93,3.93,0,0,0-.47-.68A4.1,4.1,0,0,1,60.09,42.42Z"/><path class="cls-1" d="M43.15,24.25V17.73A3.52,3.52,0,0,0,41,18.83,3.28,3.28,0,0,0,40.86,23,4.63,4.63,0,0,0,43.15,24.25Z"/><path class="cls-1" d="M68.89,37.15A18.71,18.71,0,0,0,44.08,35.7,25.45,25.45,0,0,1,49.91,52c0,.76,0,1.51-.09,2.26l1.6-.3a6.32,6.32,0,0,0,1,3A3.66,3.66,0,0,0,55,58.39v-8a10.36,10.36,0,0,1-3.17-1.2A4.73,4.73,0,0,1,50,47.32a5.92,5.92,0,0,1,1.25-7A6.61,6.61,0,0,1,55,38.91v-1.2h1.49v1.2A6.21,6.21,0,0,1,60,40.2a5.67,5.67,0,0,1,2,3.75l-2.6.4a4.35,4.35,0,0,0-.93-2.28,3.39,3.39,0,0,0-1.93-1v7.24A19.72,19.72,0,0,1,59,49a6.15,6.15,0,0,1,1.91,1.25A5,5,0,0,1,62,52a6,6,0,0,1,.41,2.21,6.06,6.06,0,0,1-6,6.24V63H55V60.51a8.94,8.94,0,0,1-3.06-.84,5.36,5.36,0,0,1-2-2,6.25,6.25,0,0,1-.45-.85,25.44,25.44,0,0,1-3.81,9.28,18.7,18.7,0,0,0,23.26-29Z"/><path class="cls-1" d="M72.87,33.16A24.35,24.35,0,0,0,40,31.74a27,27,0,0,1,2.41,2.13c.19.19.38.38.56.58A20.36,20.36,0,1,1,44.66,67.5a26.89,26.89,0,0,1-2.24,2.55l-.45.44a24.34,24.34,0,0,0,30.9-37.33Z"/><path class="cls-1" d="M55,48V41a3.7,3.7,0,0,0-2.31,1.17,3.27,3.27,0,0,0-.84,2.25,3.23,3.23,0,0,0,.72,2.15A5,5,0,0,0,55,48Z"/><path class="cls-1" d="M59.18,52.22a5.88,5.88,0,0,0-2.7-1.49v7.66a3.74,3.74,0,0,0,2.42-1.27,4,4,0,0,0,1-2.7A3.38,3.38,0,0,0,59.18,52.22Z"/><path class="cls-1" d="M37.55,38.74A18.69,18.69,0,1,0,43,52,18.65,18.65,0,0,0,37.55,38.74Zm-8.93,3a5.67,5.67,0,0,1,2,3.75L28,45.93a4.35,4.35,0,0,0-.93-2.27,3.49,3.49,0,0,0-1.94-1v7.25a19.5,19.5,0,0,1,2.52.75,6.15,6.15,0,0,1,1.91,1.25,5,5,0,0,1,1.14,1.76,6,6,0,0,1,.4,2.21,6,6,0,0,1-6,6.24v2.54H23.66V62.1a9,9,0,0,1-3.07-.84,5.38,5.38,0,0,1-2-2,7.1,7.1,0,0,1-1-3.31l2.53-.47a6.31,6.31,0,0,0,1,3A3.62,3.62,0,0,0,23.66,60V52a10.17,10.17,0,0,1-3.17-1.2,4.66,4.66,0,0,1-1.85-1.86A5.44,5.44,0,0,1,18,46.22a5.5,5.5,0,0,1,1.9-4.35,6.61,6.61,0,0,1,3.77-1.37V39.3h1.48v1.2A6.18,6.18,0,0,1,28.62,41.79Z"/><path class="cls-1" d="M41.54,34.75A24.35,24.35,0,1,0,48.66,52,24.28,24.28,0,0,0,41.54,34.75ZM24.33,31.6a20.37,20.37,0,1,1-14.39,6A20.33,20.33,0,0,1,24.33,31.6Z"/><path class="cls-1" d="M23.66,49.55V42.6a3.63,3.63,0,0,0-2.31,1.17,3.48,3.48,0,0,0-.13,4.4A4.94,4.94,0,0,0,23.66,49.55Z"/><path class="cls-1" d="M27.85,53.81a6,6,0,0,0-2.71-1.49V60a3.76,3.76,0,0,0,2.43-1.27,4,4,0,0,0,1-2.7A3.38,3.38,0,0,0,27.85,53.81Z"/></svg>