<svg id="Layer_1" data-name="Layer 1" xmlns="http://www.w3.org/2000/svg" viewBox="0 0 80 80"><defs><style>.cls-1{fill:#fff;}</style></defs><title>legal</title><path class="cls-1" d="M41.92,72.14V17.53H63.47c0,.33-.17.67-.17,1a4.85,4.85,0,1,0,9.69,0,4.72,4.72,0,0,0-4.35-4.67H41.75V5.5a1.84,1.84,0,0,0-3.67,0v8.36H11.52a4.6,4.6,0,0,0-4.34,4.67,4.62,4.62,0,0,0,4.68,4.85,4.85,4.85,0,0,0,4.84-4.85,2.08,2.08,0,0,0-.17-1H38.08V72.14Z"/><path class="cls-1" d="M23.72,49.26h0v-.67h0l-10-21.71A2,2,0,0,0,12,25.71a1.86,1.86,0,0,0-1.68,1L0,48.43H0v.67H0C0,54.27,5.18,58.62,11.52,59h.84C18.54,58.78,23.72,54.44,23.72,49.26ZM11.86,31.89l7,15.54H4.34Z"/><path class="cls-1" d="M80,49.26v-.67h0L69.81,26.88a1.83,1.83,0,0,0-1.67-1,2.22,2.22,0,0,0-1.67,1L56.28,48.59h0v.67h0c0,5.18,5.18,9.52,11.53,9.86h.83C74.82,58.78,80,54.44,80,49.26ZM68,31.89l7.19,15.54H60.63Z"/><rect class="cls-1" x="17.92" y="72.14" width="44.17" height="4.19" rx="2.09" ry="2.09"/></svg>