<svg id="Layer_1" data-name="Layer 1" xmlns="http://www.w3.org/2000/svg" viewBox="0 0 80 80"><defs><style>.cls-1{fill:#fff;}</style></defs><title>logistics-and-supplies</title><path class="cls-1" d="M54.88,26.05V43.72H0V26.05Zm7.45,1.86c1.85,0,8.35,3.72,10.17,12.09,2.78,0,5,1,6,3.78H56.74V27.91Zm3.72,5.58H64.19v5.58H69.3C69.3,36.28,66.51,33.49,66.05,33.49ZM78.92,45.64A12,12,0,0,1,79,47.38c.06,1.91,1,1.92,1,2.85H76.16c-.79-2.38-2.23-3.6-4.53-3.72a4.7,4.7,0,0,0-4.57,3.72H53.84a4.48,4.48,0,0,0-4.54-3.72,4.69,4.69,0,0,0-4.56,3.72H43.6a5,5,0,0,0-4.53-3.72,4.68,4.68,0,0,0-4.56,3.72H22.21a4.77,4.77,0,0,0-4.54-3.72,4.7,4.7,0,0,0-4.56,3.72H12a4.88,4.88,0,0,0-4.54-3.72,4.69,4.69,0,0,0-4.56,3.72H0s0-2.79,0-4.65c26.37-.06,52.62.06,78.92.06Zm-7.29,2.73a2.79,2.79,0,1,1-2.79,2.79A2.79,2.79,0,0,1,71.63,48.37Zm-22.33,0a2.79,2.79,0,1,1-2.79,2.79A2.79,2.79,0,0,1,49.3,48.37Zm-10.23,0a2.79,2.79,0,1,1-2.79,2.79A2.79,2.79,0,0,1,39.07,48.37Zm-21.4,0a2.79,2.79,0,1,1-2.79,2.79A2.79,2.79,0,0,1,17.67,48.37Zm-10.23,0a2.79,2.79,0,1,1-2.79,2.79A2.79,2.79,0,0,1,7.44,48.37Z"/></svg>