<svg id="Layer_1" data-name="Layer 1" xmlns="http://www.w3.org/2000/svg" viewBox="0 0 80 80"><defs><style>.cls-1{fill:#fff;}</style></defs><title>pharmaceuticals</title><path class="cls-1" d="M14.79,2.88A14.79,14.79,0,0,0,0,17.66V37.92H29.63V17.66A14.85,14.85,0,0,0,14.79,2.88ZM8.19,13a1.27,1.27,0,0,1,.39,0H9l.19.06a2.18,2.18,0,0,1,1,.65l.13.13a2.14,2.14,0,0,1,.2.4l.06.19a2,2,0,0,1,.13.59V27.46a1.76,1.76,0,0,1-.06.46,1.59,1.59,0,0,1-.07.2,3.49,3.49,0,0,1-.19.39l-.07.13a1.27,1.27,0,0,1-.13.19,2.16,2.16,0,0,1-.33.27,2.35,2.35,0,0,1-.39.19,2,2,0,0,1-.39.13l-.2.07h-.2a2.54,2.54,0,0,1-.39,0,2.39,2.39,0,0,1-.78-.26l-.2-.14a2,2,0,0,1-.52-.65,1.79,1.79,0,0,1-.2-.39,2.63,2.63,0,0,1-.06-.39.67.67,0,0,1,0-.2V15a1.13,1.13,0,0,1,0-.26A2,2,0,0,1,6.88,14L7,13.86a2.6,2.6,0,0,1,.26-.32A2.11,2.11,0,0,1,8,13.08l.2-.07Z"/><path class="cls-1" d="M0,42.08H29.6V62.31a14.8,14.8,0,1,1-29.6,0Z"/><path class="cls-1" d="M59.46,29.67a20.46,20.46,0,0,1,13,4.61L43.55,63.14A20.52,20.52,0,0,1,59.46,29.67Z"/><path class="cls-1" d="M75.38,37.24A20.52,20.52,0,0,1,46.5,66.1Z"/></svg>