<svg id="Layer_1" data-name="Layer 1" xmlns="http://www.w3.org/2000/svg" viewBox="0 0 80 80"><defs><style>.cls-1{fill:#fff;}</style></defs><title>real-estate</title><path class="cls-1" d="M7.77,32.57V78.06A2.06,2.06,0,0,0,9.94,80H30.86V67.09c0-4.23,3.88-7.55,8.68-7.55h.92c4.8,0,8.68,3.43,8.68,7.55V80H70.06a2.13,2.13,0,0,0,2.17-1.94V32.57Zm24.8,18.74a3,3,0,0,1-3,3H18.4a3,3,0,0,1-3-3V40.11a3,3,0,0,1,3-3H29.6a3,3,0,0,1,3,3Zm32,0a3,3,0,0,1-3,3H50.4a3,3,0,0,1-3-3V40.11a3,3,0,0,1,3-3H61.6a3,3,0,0,1,3,3Z"/><polygon class="cls-1" points="75.2 29.37 4.8 29.37 14.06 6.74 52.8 6.74 52.8 0 61.6 0 61.6 6.74 65.94 6.74 75.2 29.37"/></svg>