<svg id="Layer_1" data-name="Layer 1" xmlns="http://www.w3.org/2000/svg" viewBox="0 0 80 80"><defs><style>.cls-1{fill:#fff;}</style></defs><title>tourism</title><path class="cls-1" d="M51.93,9.65A2.66,2.66,0,0,0,49.23,7H30.85a2.66,2.66,0,0,0-2.69,2.69v8.52H22.51V69.08h35V18.17H51.84V9.65Zm-18.38,2.7H46.62v5.82H33.55ZM30.77,29.21l6.07-3.46a1.14,1.14,0,0,1,1.6.43l1.94,3.45a1.13,1.13,0,0,1-.42,1.6l-6.07,3.46a1.13,1.13,0,0,1-1.6-.42l-1.94-3.46A1.28,1.28,0,0,1,30.77,29.21Zm8.51,30.94-5,1.51a1.16,1.16,0,0,1-1.43-.75l-2.11-7.09a1.17,1.17,0,0,1,.76-1.43l5-1.52a1.17,1.17,0,0,1,1.43.76L40,58.71A1.14,1.14,0,0,1,39.28,60.15ZM45,46.83c-3.2,0-5.73-1.86-5.73-4s2.53-4,5.73-4,5.74,1.85,5.74,4S48.22,46.83,45,46.83Z"/><path class="cls-1" d="M0,24.83V62.42a6.67,6.67,0,0,0,6.66,6.66H10v2.28a1.6,1.6,0,0,0,1.6,1.6h4a1.6,1.6,0,0,0,1.6-1.6V18.17H6.66A6.72,6.72,0,0,0,0,24.83Z"/><path class="cls-1" d="M73.42,18.17H62.89V71.44a1.59,1.59,0,0,0,1.6,1.6h3.88a1.6,1.6,0,0,0,1.6-1.6V69.17h3.37A6.68,6.68,0,0,0,80,62.51V24.83A6.6,6.6,0,0,0,73.42,18.17Z"/></svg>